<?xml version="1.0" encoding="utf-8" standalone="no"?>
<!DOCTYPE svg PUBLIC "-//W3C//DTD SVG 1.1//EN"
  "http://www.w3.org/Graphics/SVG/1.1/DTD/svg11.dtd">
<!-- Created with matplotlib (https://matplotlib.org/) -->
<svg height="345.6pt" version="1.1" viewBox="0 0 460.8 345.6" width="460.8pt" xmlns="http://www.w3.org/2000/svg" xmlns:xlink="http://www.w3.org/1999/xlink">
 <metadata>
  <rdf:RDF xmlns:cc="http://creativecommons.org/ns#" xmlns:dc="http://purl.org/dc/elements/1.1/" xmlns:rdf="http://www.w3.org/1999/02/22-rdf-syntax-ns#">
   <cc:Work>
    <dc:type rdf:resource="http://purl.org/dc/dcmitype/StillImage"/>
    <dc:date>2021-03-09T20:30:04.670050</dc:date>
    <dc:format>image/svg+xml</dc:format>
    <dc:creator>
     <cc:Agent>
      <dc:title>Matplotlib v3.3.3, https://matplotlib.org/</dc:title>
     </cc:Agent>
    </dc:creator>
   </cc:Work>
  </rdf:RDF>
 </metadata>
 <defs>
  <style type="text/css">*{stroke-linecap:butt;stroke-linejoin:round;}</style>
 </defs>
 <g id="figure_1">
  <g id="patch_1">
   <path d="M 0 345.6 
L 460.8 345.6 
L 460.8 0 
L 0 0 
z
" style="fill:#ffffff;"/>
  </g>
  <g id="axes_1">
   <g id="patch_2">
    <path d="M 57.6 307.584 
L 414.72 307.584 
L 414.72 41.472 
L 57.6 41.472 
z
" style="fill:#ffffff;"/>
   </g>
   <g id="matplotlib.axis_1">
    <g id="xtick_1">
     <g id="line2d_1">
      <defs>
       <path d="M 0 0 
L 0 3.5 
" id="mef6900b767" style="stroke:#000000;stroke-width:0.8;"/>
      </defs>
      <g>
       <use style="stroke:#000000;stroke-width:0.8;" x="73.832727" xlink:href="#mef6900b767" y="307.584"/>
      </g>
     </g>
     <g id="text_1">
      <!-- 0 -->
      <g transform="translate(70.651477 322.182437)scale(0.1 -0.1)">
       <defs>
        <path d="M 31.78125 66.40625 
Q 24.171875 66.40625 20.328125 58.90625 
Q 16.5 51.421875 16.5 36.375 
Q 16.5 21.390625 20.328125 13.890625 
Q 24.171875 6.390625 31.78125 6.390625 
Q 39.453125 6.390625 43.28125 13.890625 
Q 47.125 21.390625 47.125 36.375 
Q 47.125 51.421875 43.28125 58.90625 
Q 39.453125 66.40625 31.78125 66.40625 
z
M 31.78125 74.21875 
Q 44.046875 74.21875 50.515625 64.515625 
Q 56.984375 54.828125 56.984375 36.375 
Q 56.984375 17.96875 50.515625 8.265625 
Q 44.046875 -1.421875 31.78125 -1.421875 
Q 19.53125 -1.421875 13.0625 8.265625 
Q 6.59375 17.96875 6.59375 36.375 
Q 6.59375 54.828125 13.0625 64.515625 
Q 19.53125 74.21875 31.78125 74.21875 
z
" id="DejaVuSans-48"/>
       </defs>
       <use xlink:href="#DejaVuSans-48"/>
      </g>
     </g>
    </g>
    <g id="xtick_2">
     <g id="line2d_2">
      <g>
       <use style="stroke:#000000;stroke-width:0.8;" x="139.419504" xlink:href="#mef6900b767" y="307.584"/>
      </g>
     </g>
     <g id="text_2">
      <!-- 20 -->
      <g transform="translate(133.057004 322.182437)scale(0.1 -0.1)">
       <defs>
        <path d="M 19.1875 8.296875 
L 53.609375 8.296875 
L 53.609375 0 
L 7.328125 0 
L 7.328125 8.296875 
Q 12.9375 14.109375 22.625 23.890625 
Q 32.328125 33.6875 34.8125 36.53125 
Q 39.546875 41.84375 41.421875 45.53125 
Q 43.3125 49.21875 43.3125 52.78125 
Q 43.3125 58.59375 39.234375 62.25 
Q 35.15625 65.921875 28.609375 65.921875 
Q 23.96875 65.921875 18.8125 64.3125 
Q 13.671875 62.703125 7.8125 59.421875 
L 7.8125 69.390625 
Q 13.765625 71.78125 18.9375 73 
Q 24.125 74.21875 28.421875 74.21875 
Q 39.75 74.21875 46.484375 68.546875 
Q 53.21875 62.890625 53.21875 53.421875 
Q 53.21875 48.921875 51.53125 44.890625 
Q 49.859375 40.875 45.40625 35.40625 
Q 44.1875 33.984375 37.640625 27.21875 
Q 31.109375 20.453125 19.1875 8.296875 
z
" id="DejaVuSans-50"/>
       </defs>
       <use xlink:href="#DejaVuSans-50"/>
       <use x="63.623047" xlink:href="#DejaVuSans-48"/>
      </g>
     </g>
    </g>
    <g id="xtick_3">
     <g id="line2d_3">
      <g>
       <use style="stroke:#000000;stroke-width:0.8;" x="205.006281" xlink:href="#mef6900b767" y="307.584"/>
      </g>
     </g>
     <g id="text_3">
      <!-- 40 -->
      <g transform="translate(198.643781 322.182437)scale(0.1 -0.1)">
       <defs>
        <path d="M 37.796875 64.3125 
L 12.890625 25.390625 
L 37.796875 25.390625 
z
M 35.203125 72.90625 
L 47.609375 72.90625 
L 47.609375 25.390625 
L 58.015625 25.390625 
L 58.015625 17.1875 
L 47.609375 17.1875 
L 47.609375 0 
L 37.796875 0 
L 37.796875 17.1875 
L 4.890625 17.1875 
L 4.890625 26.703125 
z
" id="DejaVuSans-52"/>
       </defs>
       <use xlink:href="#DejaVuSans-52"/>
       <use x="63.623047" xlink:href="#DejaVuSans-48"/>
      </g>
     </g>
    </g>
    <g id="xtick_4">
     <g id="line2d_4">
      <g>
       <use style="stroke:#000000;stroke-width:0.8;" x="270.593058" xlink:href="#mef6900b767" y="307.584"/>
      </g>
     </g>
     <g id="text_4">
      <!-- 60 -->
      <g transform="translate(264.230558 322.182437)scale(0.1 -0.1)">
       <defs>
        <path d="M 33.015625 40.375 
Q 26.375 40.375 22.484375 35.828125 
Q 18.609375 31.296875 18.609375 23.390625 
Q 18.609375 15.53125 22.484375 10.953125 
Q 26.375 6.390625 33.015625 6.390625 
Q 39.65625 6.390625 43.53125 10.953125 
Q 47.40625 15.53125 47.40625 23.390625 
Q 47.40625 31.296875 43.53125 35.828125 
Q 39.65625 40.375 33.015625 40.375 
z
M 52.59375 71.296875 
L 52.59375 62.3125 
Q 48.875 64.0625 45.09375 64.984375 
Q 41.3125 65.921875 37.59375 65.921875 
Q 27.828125 65.921875 22.671875 59.328125 
Q 17.53125 52.734375 16.796875 39.40625 
Q 19.671875 43.65625 24.015625 45.921875 
Q 28.375 48.1875 33.59375 48.1875 
Q 44.578125 48.1875 50.953125 41.515625 
Q 57.328125 34.859375 57.328125 23.390625 
Q 57.328125 12.15625 50.6875 5.359375 
Q 44.046875 -1.421875 33.015625 -1.421875 
Q 20.359375 -1.421875 13.671875 8.265625 
Q 6.984375 17.96875 6.984375 36.375 
Q 6.984375 53.65625 15.1875 63.9375 
Q 23.390625 74.21875 37.203125 74.21875 
Q 40.921875 74.21875 44.703125 73.484375 
Q 48.484375 72.75 52.59375 71.296875 
z
" id="DejaVuSans-54"/>
       </defs>
       <use xlink:href="#DejaVuSans-54"/>
       <use x="63.623047" xlink:href="#DejaVuSans-48"/>
      </g>
     </g>
    </g>
    <g id="xtick_5">
     <g id="line2d_5">
      <g>
       <use style="stroke:#000000;stroke-width:0.8;" x="336.179835" xlink:href="#mef6900b767" y="307.584"/>
      </g>
     </g>
     <g id="text_5">
      <!-- 80 -->
      <g transform="translate(329.817335 322.182437)scale(0.1 -0.1)">
       <defs>
        <path d="M 31.78125 34.625 
Q 24.75 34.625 20.71875 30.859375 
Q 16.703125 27.09375 16.703125 20.515625 
Q 16.703125 13.921875 20.71875 10.15625 
Q 24.75 6.390625 31.78125 6.390625 
Q 38.8125 6.390625 42.859375 10.171875 
Q 46.921875 13.96875 46.921875 20.515625 
Q 46.921875 27.09375 42.890625 30.859375 
Q 38.875 34.625 31.78125 34.625 
z
M 21.921875 38.8125 
Q 15.578125 40.375 12.03125 44.71875 
Q 8.5 49.078125 8.5 55.328125 
Q 8.5 64.0625 14.71875 69.140625 
Q 20.953125 74.21875 31.78125 74.21875 
Q 42.671875 74.21875 48.875 69.140625 
Q 55.078125 64.0625 55.078125 55.328125 
Q 55.078125 49.078125 51.53125 44.71875 
Q 48 40.375 41.703125 38.8125 
Q 48.828125 37.15625 52.796875 32.3125 
Q 56.78125 27.484375 56.78125 20.515625 
Q 56.78125 9.90625 50.3125 4.234375 
Q 43.84375 -1.421875 31.78125 -1.421875 
Q 19.734375 -1.421875 13.25 4.234375 
Q 6.78125 9.90625 6.78125 20.515625 
Q 6.78125 27.484375 10.78125 32.3125 
Q 14.796875 37.15625 21.921875 38.8125 
z
M 18.3125 54.390625 
Q 18.3125 48.734375 21.84375 45.5625 
Q 25.390625 42.390625 31.78125 42.390625 
Q 38.140625 42.390625 41.71875 45.5625 
Q 45.3125 48.734375 45.3125 54.390625 
Q 45.3125 60.0625 41.71875 63.234375 
Q 38.140625 66.40625 31.78125 66.40625 
Q 25.390625 66.40625 21.84375 63.234375 
Q 18.3125 60.0625 18.3125 54.390625 
z
" id="DejaVuSans-56"/>
       </defs>
       <use xlink:href="#DejaVuSans-56"/>
       <use x="63.623047" xlink:href="#DejaVuSans-48"/>
      </g>
     </g>
    </g>
    <g id="xtick_6">
     <g id="line2d_6">
      <g>
       <use style="stroke:#000000;stroke-width:0.8;" x="401.766612" xlink:href="#mef6900b767" y="307.584"/>
      </g>
     </g>
     <g id="text_6">
      <!-- 100 -->
      <g transform="translate(392.222862 322.182437)scale(0.1 -0.1)">
       <defs>
        <path d="M 12.40625 8.296875 
L 28.515625 8.296875 
L 28.515625 63.921875 
L 10.984375 60.40625 
L 10.984375 69.390625 
L 28.421875 72.90625 
L 38.28125 72.90625 
L 38.28125 8.296875 
L 54.390625 8.296875 
L 54.390625 0 
L 12.40625 0 
z
" id="DejaVuSans-49"/>
       </defs>
       <use xlink:href="#DejaVuSans-49"/>
       <use x="63.623047" xlink:href="#DejaVuSans-48"/>
       <use x="127.246094" xlink:href="#DejaVuSans-48"/>
      </g>
     </g>
    </g>
    <g id="text_7">
     <!-- Arm -->
     <g transform="translate(225.901406 335.860562)scale(0.1 -0.1)">
      <defs>
       <path d="M 34.1875 63.1875 
L 20.796875 26.90625 
L 47.609375 26.90625 
z
M 28.609375 72.90625 
L 39.796875 72.90625 
L 67.578125 0 
L 57.328125 0 
L 50.6875 18.703125 
L 17.828125 18.703125 
L 11.1875 0 
L 0.78125 0 
z
" id="DejaVuSans-65"/>
       <path d="M 41.109375 46.296875 
Q 39.59375 47.171875 37.8125 47.578125 
Q 36.03125 48 33.890625 48 
Q 26.265625 48 22.1875 43.046875 
Q 18.109375 38.09375 18.109375 28.8125 
L 18.109375 0 
L 9.078125 0 
L 9.078125 54.6875 
L 18.109375 54.6875 
L 18.109375 46.1875 
Q 20.953125 51.171875 25.484375 53.578125 
Q 30.03125 56 36.53125 56 
Q 37.453125 56 38.578125 55.875 
Q 39.703125 55.765625 41.0625 55.515625 
z
" id="DejaVuSans-114"/>
       <path d="M 52 44.1875 
Q 55.375 50.25 60.0625 53.125 
Q 64.75 56 71.09375 56 
Q 79.640625 56 84.28125 50.015625 
Q 88.921875 44.046875 88.921875 33.015625 
L 88.921875 0 
L 79.890625 0 
L 79.890625 32.71875 
Q 79.890625 40.578125 77.09375 44.375 
Q 74.3125 48.1875 68.609375 48.1875 
Q 61.625 48.1875 57.5625 43.546875 
Q 53.515625 38.921875 53.515625 30.90625 
L 53.515625 0 
L 44.484375 0 
L 44.484375 32.71875 
Q 44.484375 40.625 41.703125 44.40625 
Q 38.921875 48.1875 33.109375 48.1875 
Q 26.21875 48.1875 22.15625 43.53125 
Q 18.109375 38.875 18.109375 30.90625 
L 18.109375 0 
L 9.078125 0 
L 9.078125 54.6875 
L 18.109375 54.6875 
L 18.109375 46.1875 
Q 21.1875 51.21875 25.484375 53.609375 
Q 29.78125 56 35.6875 56 
Q 41.65625 56 45.828125 52.96875 
Q 50 49.953125 52 44.1875 
z
" id="DejaVuSans-109"/>
      </defs>
      <use xlink:href="#DejaVuSans-65"/>
      <use x="68.408203" xlink:href="#DejaVuSans-114"/>
      <use x="107.771484" xlink:href="#DejaVuSans-109"/>
     </g>
    </g>
   </g>
   <g id="matplotlib.axis_2">
    <g id="ytick_1">
     <g id="line2d_7">
      <defs>
       <path d="M 0 0 
L -3.5 0 
" id="mbe0d985912" style="stroke:#000000;stroke-width:0.8;"/>
      </defs>
      <g>
       <use style="stroke:#000000;stroke-width:0.8;" x="57.6" xlink:href="#mbe0d985912" y="307.584"/>
      </g>
     </g>
     <g id="text_8">
      <!-- 0.0 -->
      <g transform="translate(34.696875 311.383219)scale(0.1 -0.1)">
       <defs>
        <path d="M 10.6875 12.40625 
L 21 12.40625 
L 21 0 
L 10.6875 0 
z
" id="DejaVuSans-46"/>
       </defs>
       <use xlink:href="#DejaVuSans-48"/>
       <use x="63.623047" xlink:href="#DejaVuSans-46"/>
       <use x="95.410156" xlink:href="#DejaVuSans-48"/>
      </g>
     </g>
    </g>
    <g id="ytick_2">
     <g id="line2d_8">
      <g>
       <use style="stroke:#000000;stroke-width:0.8;" x="57.6" xlink:href="#mbe0d985912" y="272.1024"/>
      </g>
     </g>
     <g id="text_9">
      <!-- 0.2 -->
      <g transform="translate(34.696875 275.901619)scale(0.1 -0.1)">
       <use xlink:href="#DejaVuSans-48"/>
       <use x="63.623047" xlink:href="#DejaVuSans-46"/>
       <use x="95.410156" xlink:href="#DejaVuSans-50"/>
      </g>
     </g>
    </g>
    <g id="ytick_3">
     <g id="line2d_9">
      <g>
       <use style="stroke:#000000;stroke-width:0.8;" x="57.6" xlink:href="#mbe0d985912" y="236.6208"/>
      </g>
     </g>
     <g id="text_10">
      <!-- 0.4 -->
      <g transform="translate(34.696875 240.420019)scale(0.1 -0.1)">
       <use xlink:href="#DejaVuSans-48"/>
       <use x="63.623047" xlink:href="#DejaVuSans-46"/>
       <use x="95.410156" xlink:href="#DejaVuSans-52"/>
      </g>
     </g>
    </g>
    <g id="ytick_4">
     <g id="line2d_10">
      <g>
       <use style="stroke:#000000;stroke-width:0.8;" x="57.6" xlink:href="#mbe0d985912" y="201.1392"/>
      </g>
     </g>
     <g id="text_11">
      <!-- 0.6 -->
      <g transform="translate(34.696875 204.938419)scale(0.1 -0.1)">
       <use xlink:href="#DejaVuSans-48"/>
       <use x="63.623047" xlink:href="#DejaVuSans-46"/>
       <use x="95.410156" xlink:href="#DejaVuSans-54"/>
      </g>
     </g>
    </g>
    <g id="ytick_5">
     <g id="line2d_11">
      <g>
       <use style="stroke:#000000;stroke-width:0.8;" x="57.6" xlink:href="#mbe0d985912" y="165.6576"/>
      </g>
     </g>
     <g id="text_12">
      <!-- 0.8 -->
      <g transform="translate(34.696875 169.456819)scale(0.1 -0.1)">
       <use xlink:href="#DejaVuSans-48"/>
       <use x="63.623047" xlink:href="#DejaVuSans-46"/>
       <use x="95.410156" xlink:href="#DejaVuSans-56"/>
      </g>
     </g>
    </g>
    <g id="ytick_6">
     <g id="line2d_12">
      <g>
       <use style="stroke:#000000;stroke-width:0.8;" x="57.6" xlink:href="#mbe0d985912" y="130.176"/>
      </g>
     </g>
     <g id="text_13">
      <!-- 1.0 -->
      <g transform="translate(34.696875 133.975219)scale(0.1 -0.1)">
       <use xlink:href="#DejaVuSans-49"/>
       <use x="63.623047" xlink:href="#DejaVuSans-46"/>
       <use x="95.410156" xlink:href="#DejaVuSans-48"/>
      </g>
     </g>
    </g>
    <g id="ytick_7">
     <g id="line2d_13">
      <g>
       <use style="stroke:#000000;stroke-width:0.8;" x="57.6" xlink:href="#mbe0d985912" y="94.6944"/>
      </g>
     </g>
     <g id="text_14">
      <!-- 1.2 -->
      <g transform="translate(34.696875 98.493619)scale(0.1 -0.1)">
       <use xlink:href="#DejaVuSans-49"/>
       <use x="63.623047" xlink:href="#DejaVuSans-46"/>
       <use x="95.410156" xlink:href="#DejaVuSans-50"/>
      </g>
     </g>
    </g>
    <g id="ytick_8">
     <g id="line2d_14">
      <g>
       <use style="stroke:#000000;stroke-width:0.8;" x="57.6" xlink:href="#mbe0d985912" y="59.2128"/>
      </g>
     </g>
     <g id="text_15">
      <!-- 1.4 -->
      <g transform="translate(34.696875 63.012019)scale(0.1 -0.1)">
       <use xlink:href="#DejaVuSans-49"/>
       <use x="63.623047" xlink:href="#DejaVuSans-46"/>
       <use x="95.410156" xlink:href="#DejaVuSans-52"/>
      </g>
     </g>
    </g>
    <g id="text_16">
     <!-- Mean -->
     <g transform="translate(28.617188 188.151437)rotate(-90)scale(0.1 -0.1)">
      <defs>
       <path d="M 9.8125 72.90625 
L 24.515625 72.90625 
L 43.109375 23.296875 
L 61.8125 72.90625 
L 76.515625 72.90625 
L 76.515625 0 
L 66.890625 0 
L 66.890625 64.015625 
L 48.09375 14.015625 
L 38.1875 14.015625 
L 19.390625 64.015625 
L 19.390625 0 
L 9.8125 0 
z
" id="DejaVuSans-77"/>
       <path d="M 56.203125 29.59375 
L 56.203125 25.203125 
L 14.890625 25.203125 
Q 15.484375 15.921875 20.484375 11.0625 
Q 25.484375 6.203125 34.421875 6.203125 
Q 39.59375 6.203125 44.453125 7.46875 
Q 49.3125 8.734375 54.109375 11.28125 
L 54.109375 2.78125 
Q 49.265625 0.734375 44.1875 -0.34375 
Q 39.109375 -1.421875 33.890625 -1.421875 
Q 20.796875 -1.421875 13.15625 6.1875 
Q 5.515625 13.8125 5.515625 26.8125 
Q 5.515625 40.234375 12.765625 48.109375 
Q 20.015625 56 32.328125 56 
Q 43.359375 56 49.78125 48.890625 
Q 56.203125 41.796875 56.203125 29.59375 
z
M 47.21875 32.234375 
Q 47.125 39.59375 43.09375 43.984375 
Q 39.0625 48.390625 32.421875 48.390625 
Q 24.90625 48.390625 20.390625 44.140625 
Q 15.875 39.890625 15.1875 32.171875 
z
" id="DejaVuSans-101"/>
       <path d="M 34.28125 27.484375 
Q 23.390625 27.484375 19.1875 25 
Q 14.984375 22.515625 14.984375 16.5 
Q 14.984375 11.71875 18.140625 8.90625 
Q 21.296875 6.109375 26.703125 6.109375 
Q 34.1875 6.109375 38.703125 11.40625 
Q 43.21875 16.703125 43.21875 25.484375 
L 43.21875 27.484375 
z
M 52.203125 31.203125 
L 52.203125 0 
L 43.21875 0 
L 43.21875 8.296875 
Q 40.140625 3.328125 35.546875 0.953125 
Q 30.953125 -1.421875 24.3125 -1.421875 
Q 15.921875 -1.421875 10.953125 3.296875 
Q 6 8.015625 6 15.921875 
Q 6 25.140625 12.171875 29.828125 
Q 18.359375 34.515625 30.609375 34.515625 
L 43.21875 34.515625 
L 43.21875 35.40625 
Q 43.21875 41.609375 39.140625 45 
Q 35.0625 48.390625 27.6875 48.390625 
Q 23 48.390625 18.546875 47.265625 
Q 14.109375 46.140625 10.015625 43.890625 
L 10.015625 52.203125 
Q 14.9375 54.109375 19.578125 55.046875 
Q 24.21875 56 28.609375 56 
Q 40.484375 56 46.34375 49.84375 
Q 52.203125 43.703125 52.203125 31.203125 
z
" id="DejaVuSans-97"/>
       <path d="M 54.890625 33.015625 
L 54.890625 0 
L 45.90625 0 
L 45.90625 32.71875 
Q 45.90625 40.484375 42.875 44.328125 
Q 39.84375 48.1875 33.796875 48.1875 
Q 26.515625 48.1875 22.3125 43.546875 
Q 18.109375 38.921875 18.109375 30.90625 
L 18.109375 0 
L 9.078125 0 
L 9.078125 54.6875 
L 18.109375 54.6875 
L 18.109375 46.1875 
Q 21.34375 51.125 25.703125 53.5625 
Q 30.078125 56 35.796875 56 
Q 45.21875 56 50.046875 50.171875 
Q 54.890625 44.34375 54.890625 33.015625 
z
" id="DejaVuSans-110"/>
      </defs>
      <use xlink:href="#DejaVuSans-77"/>
      <use x="86.279297" xlink:href="#DejaVuSans-101"/>
      <use x="147.802734" xlink:href="#DejaVuSans-97"/>
      <use x="209.082031" xlink:href="#DejaVuSans-110"/>
     </g>
    </g>
   </g>
   <g id="LineCollection_1">
    <path clip-path="url(#p607cd796e8)" d="M 73.832727 258.621979 
L 398.487273 258.621979 
" style="fill:none;stroke:#1f77b4;stroke-width:1.5;"/>
   </g>
   <g id="line2d_15">
    <path clip-path="url(#p607cd796e8)" d="M 73.832727 130.5949 
L 77.112066 132.196094 
L 80.391405 130.361781 
L 83.670744 131.562846 
L 86.950083 128.622928 
L 90.229421 133.765176 
L 93.50876 129.135045 
L 96.788099 128.147029 
L 100.067438 129.320972 
L 103.346777 132.217732 
L 106.626116 129.794561 
L 109.905455 134.263917 
L 113.184793 130.574765 
L 116.464132 129.303591 
L 119.743471 132.398825 
L 123.02281 129.397768 
L 126.302149 130.498017 
L 129.581488 129.324982 
L 132.860826 131.134279 
L 136.140165 130.709394 
L 139.419504 130.477616 
L 142.698843 130.973303 
L 145.978182 128.716494 
L 149.257521 129.253063 
L 152.53686 131.085435 
L 155.816198 128.225988 
L 159.095537 130.27982 
L 162.374876 133.88546 
L 165.654215 134.036893 
L 168.933554 131.216714 
L 172.212893 129.80611 
L 175.492231 132.320417 
L 178.77157 129.213291 
L 182.050909 128.72371 
L 185.330248 131.430217 
L 188.609587 130.825774 
L 191.888926 131.409661 
L 195.168264 131.314939 
L 198.447603 130.726037 
L 201.726942 131.832284 
L 205.006281 129.555393 
L 208.28562 128.563144 
L 211.564959 130.960035 
L 214.844298 129.4629 
L 218.123636 130.933804 
L 221.402975 131.986709 
L 224.682314 130.256905 
L 227.961653 128.835431 
L 231.240992 129.175486 
L 234.520331 129.404872 
L 237.799669 129.836296 
L 241.079008 131.657726 
L 244.358347 130.198361 
L 247.637686 129.055481 
L 250.917025 130.323966 
L 254.196364 128.542544 
L 257.475702 130.796269 
L 260.755041 128.654461 
L 264.03438 131.173847 
L 267.313719 129.146971 
L 270.593058 129.762615 
L 273.872397 131.1271 
L 277.151736 130.616157 
L 280.431074 129.764732 
L 283.710413 128.769545 
L 286.989752 129.303285 
L 290.269091 131.474218 
L 293.54843 129.771984 
L 296.827769 130.603007 
L 300.107107 129.338499 
L 303.386446 130.106749 
L 306.665785 132.775564 
L 309.945124 134.272593 
L 313.224463 134.049833 
L 316.503802 133.573499 
L 319.78314 131.226002 
L 323.062479 129.883433 
L 326.341818 129.475656 
L 329.621157 131.986037 
L 332.900496 131.395742 
L 336.179835 129.731933 
L 339.459174 130.827519 
L 342.738512 131.466456 
L 346.017851 128.686866 
L 349.29719 134.837605 
L 352.576529 133.343326 
L 355.855868 130.254973 
L 359.135207 128.251402 
L 362.414545 134.390942 
L 365.693884 127.747277 
L 368.973223 129.886682 
L 372.252562 129.577106 
L 375.531901 132.201633 
L 378.81124 133.967234 
L 382.090579 136.382491 
L 385.369917 130.201458 
L 388.649256 129.643232 
L 391.928595 130.843595 
L 395.207934 236.819049 
L 398.487273 275.561544 
" style="fill:none;stroke:#0000ff;stroke-linecap:square;stroke-width:1.5;"/>
    <defs>
     <path d="M 0 3 
C 0.795609 3 1.55874 2.683901 2.12132 2.12132 
C 2.683901 1.55874 3 0.795609 3 0 
C 3 -0.795609 2.683901 -1.55874 2.12132 -2.12132 
C 1.55874 -2.683901 0.795609 -3 0 -3 
C -0.795609 -3 -1.55874 -2.683901 -2.12132 -2.12132 
C -2.683901 -1.55874 -3 -0.795609 -3 0 
C -3 0.795609 -2.683901 1.55874 -2.12132 2.12132 
C -1.55874 2.683901 -0.795609 3 0 3 
z
" id="m28f70ed6b8" style="stroke:#0000ff;"/>
    </defs>
    <g clip-path="url(#p607cd796e8)">
     <use style="fill:#0000ff;stroke:#0000ff;" x="73.832727" xlink:href="#m28f70ed6b8" y="130.5949"/>
     <use style="fill:#0000ff;stroke:#0000ff;" x="77.112066" xlink:href="#m28f70ed6b8" y="132.196094"/>
     <use style="fill:#0000ff;stroke:#0000ff;" x="80.391405" xlink:href="#m28f70ed6b8" y="130.361781"/>
     <use style="fill:#0000ff;stroke:#0000ff;" x="83.670744" xlink:href="#m28f70ed6b8" y="131.562846"/>
     <use style="fill:#0000ff;stroke:#0000ff;" x="86.950083" xlink:href="#m28f70ed6b8" y="128.622928"/>
     <use style="fill:#0000ff;stroke:#0000ff;" x="90.229421" xlink:href="#m28f70ed6b8" y="133.765176"/>
     <use style="fill:#0000ff;stroke:#0000ff;" x="93.50876" xlink:href="#m28f70ed6b8" y="129.135045"/>
     <use style="fill:#0000ff;stroke:#0000ff;" x="96.788099" xlink:href="#m28f70ed6b8" y="128.147029"/>
     <use style="fill:#0000ff;stroke:#0000ff;" x="100.067438" xlink:href="#m28f70ed6b8" y="129.320972"/>
     <use style="fill:#0000ff;stroke:#0000ff;" x="103.346777" xlink:href="#m28f70ed6b8" y="132.217732"/>
     <use style="fill:#0000ff;stroke:#0000ff;" x="106.626116" xlink:href="#m28f70ed6b8" y="129.794561"/>
     <use style="fill:#0000ff;stroke:#0000ff;" x="109.905455" xlink:href="#m28f70ed6b8" y="134.263917"/>
     <use style="fill:#0000ff;stroke:#0000ff;" x="113.184793" xlink:href="#m28f70ed6b8" y="130.574765"/>
     <use style="fill:#0000ff;stroke:#0000ff;" x="116.464132" xlink:href="#m28f70ed6b8" y="129.303591"/>
     <use style="fill:#0000ff;stroke:#0000ff;" x="119.743471" xlink:href="#m28f70ed6b8" y="132.398825"/>
     <use style="fill:#0000ff;stroke:#0000ff;" x="123.02281" xlink:href="#m28f70ed6b8" y="129.397768"/>
     <use style="fill:#0000ff;stroke:#0000ff;" x="126.302149" xlink:href="#m28f70ed6b8" y="130.498017"/>
     <use style="fill:#0000ff;stroke:#0000ff;" x="129.581488" xlink:href="#m28f70ed6b8" y="129.324982"/>
     <use style="fill:#0000ff;stroke:#0000ff;" x="132.860826" xlink:href="#m28f70ed6b8" y="131.134279"/>
     <use style="fill:#0000ff;stroke:#0000ff;" x="136.140165" xlink:href="#m28f70ed6b8" y="130.709394"/>
     <use style="fill:#0000ff;stroke:#0000ff;" x="139.419504" xlink:href="#m28f70ed6b8" y="130.477616"/>
     <use style="fill:#0000ff;stroke:#0000ff;" x="142.698843" xlink:href="#m28f70ed6b8" y="130.973303"/>
     <use style="fill:#0000ff;stroke:#0000ff;" x="145.978182" xlink:href="#m28f70ed6b8" y="128.716494"/>
     <use style="fill:#0000ff;stroke:#0000ff;" x="149.257521" xlink:href="#m28f70ed6b8" y="129.253063"/>
     <use style="fill:#0000ff;stroke:#0000ff;" x="152.53686" xlink:href="#m28f70ed6b8" y="131.085435"/>
     <use style="fill:#0000ff;stroke:#0000ff;" x="155.816198" xlink:href="#m28f70ed6b8" y="128.225988"/>
     <use style="fill:#0000ff;stroke:#0000ff;" x="159.095537" xlink:href="#m28f70ed6b8" y="130.27982"/>
     <use style="fill:#0000ff;stroke:#0000ff;" x="162.374876" xlink:href="#m28f70ed6b8" y="133.88546"/>
     <use style="fill:#0000ff;stroke:#0000ff;" x="165.654215" xlink:href="#m28f70ed6b8" y="134.036893"/>
     <use style="fill:#0000ff;stroke:#0000ff;" x="168.933554" xlink:href="#m28f70ed6b8" y="131.216714"/>
     <use style="fill:#0000ff;stroke:#0000ff;" x="172.212893" xlink:href="#m28f70ed6b8" y="129.80611"/>
     <use style="fill:#0000ff;stroke:#0000ff;" x="175.492231" xlink:href="#m28f70ed6b8" y="132.320417"/>
     <use style="fill:#0000ff;stroke:#0000ff;" x="178.77157" xlink:href="#m28f70ed6b8" y="129.213291"/>
     <use style="fill:#0000ff;stroke:#0000ff;" x="182.050909" xlink:href="#m28f70ed6b8" y="128.72371"/>
     <use style="fill:#0000ff;stroke:#0000ff;" x="185.330248" xlink:href="#m28f70ed6b8" y="131.430217"/>
     <use style="fill:#0000ff;stroke:#0000ff;" x="188.609587" xlink:href="#m28f70ed6b8" y="130.825774"/>
     <use style="fill:#0000ff;stroke:#0000ff;" x="191.888926" xlink:href="#m28f70ed6b8" y="131.409661"/>
     <use style="fill:#0000ff;stroke:#0000ff;" x="195.168264" xlink:href="#m28f70ed6b8" y="131.314939"/>
     <use style="fill:#0000ff;stroke:#0000ff;" x="198.447603" xlink:href="#m28f70ed6b8" y="130.726037"/>
     <use style="fill:#0000ff;stroke:#0000ff;" x="201.726942" xlink:href="#m28f70ed6b8" y="131.832284"/>
     <use style="fill:#0000ff;stroke:#0000ff;" x="205.006281" xlink:href="#m28f70ed6b8" y="129.555393"/>
     <use style="fill:#0000ff;stroke:#0000ff;" x="208.28562" xlink:href="#m28f70ed6b8" y="128.563144"/>
     <use style="fill:#0000ff;stroke:#0000ff;" x="211.564959" xlink:href="#m28f70ed6b8" y="130.960035"/>
     <use style="fill:#0000ff;stroke:#0000ff;" x="214.844298" xlink:href="#m28f70ed6b8" y="129.4629"/>
     <use style="fill:#0000ff;stroke:#0000ff;" x="218.123636" xlink:href="#m28f70ed6b8" y="130.933804"/>
     <use style="fill:#0000ff;stroke:#0000ff;" x="221.402975" xlink:href="#m28f70ed6b8" y="131.986709"/>
     <use style="fill:#0000ff;stroke:#0000ff;" x="224.682314" xlink:href="#m28f70ed6b8" y="130.256905"/>
     <use style="fill:#0000ff;stroke:#0000ff;" x="227.961653" xlink:href="#m28f70ed6b8" y="128.835431"/>
     <use style="fill:#0000ff;stroke:#0000ff;" x="231.240992" xlink:href="#m28f70ed6b8" y="129.175486"/>
     <use style="fill:#0000ff;stroke:#0000ff;" x="234.520331" xlink:href="#m28f70ed6b8" y="129.404872"/>
     <use style="fill:#0000ff;stroke:#0000ff;" x="237.799669" xlink:href="#m28f70ed6b8" y="129.836296"/>
     <use style="fill:#0000ff;stroke:#0000ff;" x="241.079008" xlink:href="#m28f70ed6b8" y="131.657726"/>
     <use style="fill:#0000ff;stroke:#0000ff;" x="244.358347" xlink:href="#m28f70ed6b8" y="130.198361"/>
     <use style="fill:#0000ff;stroke:#0000ff;" x="247.637686" xlink:href="#m28f70ed6b8" y="129.055481"/>
     <use style="fill:#0000ff;stroke:#0000ff;" x="250.917025" xlink:href="#m28f70ed6b8" y="130.323966"/>
     <use style="fill:#0000ff;stroke:#0000ff;" x="254.196364" xlink:href="#m28f70ed6b8" y="128.542544"/>
     <use style="fill:#0000ff;stroke:#0000ff;" x="257.475702" xlink:href="#m28f70ed6b8" y="130.796269"/>
     <use style="fill:#0000ff;stroke:#0000ff;" x="260.755041" xlink:href="#m28f70ed6b8" y="128.654461"/>
     <use style="fill:#0000ff;stroke:#0000ff;" x="264.03438" xlink:href="#m28f70ed6b8" y="131.173847"/>
     <use style="fill:#0000ff;stroke:#0000ff;" x="267.313719" xlink:href="#m28f70ed6b8" y="129.146971"/>
     <use style="fill:#0000ff;stroke:#0000ff;" x="270.593058" xlink:href="#m28f70ed6b8" y="129.762615"/>
     <use style="fill:#0000ff;stroke:#0000ff;" x="273.872397" xlink:href="#m28f70ed6b8" y="131.1271"/>
     <use style="fill:#0000ff;stroke:#0000ff;" x="277.151736" xlink:href="#m28f70ed6b8" y="130.616157"/>
     <use style="fill:#0000ff;stroke:#0000ff;" x="280.431074" xlink:href="#m28f70ed6b8" y="129.764732"/>
     <use style="fill:#0000ff;stroke:#0000ff;" x="283.710413" xlink:href="#m28f70ed6b8" y="128.769545"/>
     <use style="fill:#0000ff;stroke:#0000ff;" x="286.989752" xlink:href="#m28f70ed6b8" y="129.303285"/>
     <use style="fill:#0000ff;stroke:#0000ff;" x="290.269091" xlink:href="#m28f70ed6b8" y="131.474218"/>
     <use style="fill:#0000ff;stroke:#0000ff;" x="293.54843" xlink:href="#m28f70ed6b8" y="129.771984"/>
     <use style="fill:#0000ff;stroke:#0000ff;" x="296.827769" xlink:href="#m28f70ed6b8" y="130.603007"/>
     <use style="fill:#0000ff;stroke:#0000ff;" x="300.107107" xlink:href="#m28f70ed6b8" y="129.338499"/>
     <use style="fill:#0000ff;stroke:#0000ff;" x="303.386446" xlink:href="#m28f70ed6b8" y="130.106749"/>
     <use style="fill:#0000ff;stroke:#0000ff;" x="306.665785" xlink:href="#m28f70ed6b8" y="132.775564"/>
     <use style="fill:#0000ff;stroke:#0000ff;" x="309.945124" xlink:href="#m28f70ed6b8" y="134.272593"/>
     <use style="fill:#0000ff;stroke:#0000ff;" x="313.224463" xlink:href="#m28f70ed6b8" y="134.049833"/>
     <use style="fill:#0000ff;stroke:#0000ff;" x="316.503802" xlink:href="#m28f70ed6b8" y="133.573499"/>
     <use style="fill:#0000ff;stroke:#0000ff;" x="319.78314" xlink:href="#m28f70ed6b8" y="131.226002"/>
     <use style="fill:#0000ff;stroke:#0000ff;" x="323.062479" xlink:href="#m28f70ed6b8" y="129.883433"/>
     <use style="fill:#0000ff;stroke:#0000ff;" x="326.341818" xlink:href="#m28f70ed6b8" y="129.475656"/>
     <use style="fill:#0000ff;stroke:#0000ff;" x="329.621157" xlink:href="#m28f70ed6b8" y="131.986037"/>
     <use style="fill:#0000ff;stroke:#0000ff;" x="332.900496" xlink:href="#m28f70ed6b8" y="131.395742"/>
     <use style="fill:#0000ff;stroke:#0000ff;" x="336.179835" xlink:href="#m28f70ed6b8" y="129.731933"/>
     <use style="fill:#0000ff;stroke:#0000ff;" x="339.459174" xlink:href="#m28f70ed6b8" y="130.827519"/>
     <use style="fill:#0000ff;stroke:#0000ff;" x="342.738512" xlink:href="#m28f70ed6b8" y="131.466456"/>
     <use style="fill:#0000ff;stroke:#0000ff;" x="346.017851" xlink:href="#m28f70ed6b8" y="128.686866"/>
     <use style="fill:#0000ff;stroke:#0000ff;" x="349.29719" xlink:href="#m28f70ed6b8" y="134.837605"/>
     <use style="fill:#0000ff;stroke:#0000ff;" x="352.576529" xlink:href="#m28f70ed6b8" y="133.343326"/>
     <use style="fill:#0000ff;stroke:#0000ff;" x="355.855868" xlink:href="#m28f70ed6b8" y="130.254973"/>
     <use style="fill:#0000ff;stroke:#0000ff;" x="359.135207" xlink:href="#m28f70ed6b8" y="128.251402"/>
     <use style="fill:#0000ff;stroke:#0000ff;" x="362.414545" xlink:href="#m28f70ed6b8" y="134.390942"/>
     <use style="fill:#0000ff;stroke:#0000ff;" x="365.693884" xlink:href="#m28f70ed6b8" y="127.747277"/>
     <use style="fill:#0000ff;stroke:#0000ff;" x="368.973223" xlink:href="#m28f70ed6b8" y="129.886682"/>
     <use style="fill:#0000ff;stroke:#0000ff;" x="372.252562" xlink:href="#m28f70ed6b8" y="129.577106"/>
     <use style="fill:#0000ff;stroke:#0000ff;" x="375.531901" xlink:href="#m28f70ed6b8" y="132.201633"/>
     <use style="fill:#0000ff;stroke:#0000ff;" x="378.81124" xlink:href="#m28f70ed6b8" y="133.967234"/>
     <use style="fill:#0000ff;stroke:#0000ff;" x="382.090579" xlink:href="#m28f70ed6b8" y="136.382491"/>
     <use style="fill:#0000ff;stroke:#0000ff;" x="385.369917" xlink:href="#m28f70ed6b8" y="130.201458"/>
     <use style="fill:#0000ff;stroke:#0000ff;" x="388.649256" xlink:href="#m28f70ed6b8" y="129.643232"/>
     <use style="fill:#0000ff;stroke:#0000ff;" x="391.928595" xlink:href="#m28f70ed6b8" y="130.843595"/>
     <use style="fill:#0000ff;stroke:#0000ff;" x="395.207934" xlink:href="#m28f70ed6b8" y="236.819049"/>
     <use style="fill:#0000ff;stroke:#0000ff;" x="398.487273" xlink:href="#m28f70ed6b8" y="275.561544"/>
    </g>
   </g>
   <g id="line2d_16">
    <path clip-path="url(#p607cd796e8)" d="M 73.832727 130.176 
L 77.112066 130.176 
L 80.391405 130.176 
L 83.670744 130.176 
L 86.950083 130.176 
L 90.229421 130.176 
L 93.50876 130.176 
L 96.788099 130.176 
L 100.067438 130.176 
L 103.346777 130.176 
L 106.626116 130.176 
L 109.905455 130.176 
L 113.184793 130.176 
L 116.464132 130.176 
L 119.743471 130.176 
L 123.02281 130.176 
L 126.302149 130.176 
L 129.581488 130.176 
L 132.860826 130.176 
L 136.140165 130.176 
L 139.419504 130.176 
L 142.698843 130.176 
L 145.978182 130.176 
L 149.257521 130.176 
L 152.53686 130.176 
L 155.816198 130.176 
L 159.095537 130.176 
L 162.374876 130.176 
L 165.654215 130.176 
L 168.933554 130.176 
L 172.212893 130.176 
L 175.492231 130.176 
L 178.77157 130.176 
L 182.050909 130.176 
L 185.330248 130.176 
L 188.609587 130.176 
L 191.888926 130.176 
L 195.168264 130.176 
L 198.447603 130.176 
L 201.726942 130.176 
L 205.006281 130.176 
L 208.28562 130.176 
L 211.564959 130.176 
L 214.844298 130.176 
L 218.123636 130.176 
L 221.402975 130.176 
L 224.682314 130.176 
L 227.961653 130.176 
L 231.240992 130.176 
L 234.520331 130.176 
L 237.799669 130.176 
L 241.079008 130.176 
L 244.358347 130.176 
L 247.637686 130.176 
L 250.917025 130.176 
L 254.196364 130.176 
L 257.475702 130.176 
L 260.755041 130.176 
L 264.03438 130.176 
L 267.313719 130.176 
L 270.593058 130.176 
L 273.872397 130.176 
L 277.151736 130.176 
L 280.431074 130.176 
L 283.710413 130.176 
L 286.989752 130.176 
L 290.269091 130.176 
L 293.54843 130.176 
L 296.827769 130.176 
L 300.107107 130.176 
L 303.386446 130.176 
L 306.665785 130.176 
L 309.945124 130.176 
L 313.224463 130.176 
L 316.503802 130.176 
L 319.78314 130.176 
L 323.062479 130.176 
L 326.341818 130.176 
L 329.621157 130.176 
L 332.900496 130.176 
L 336.179835 130.176 
L 339.459174 130.176 
L 342.738512 130.176 
L 346.017851 130.176 
L 349.29719 130.176 
L 352.576529 130.176 
L 355.855868 130.176 
L 359.135207 130.176 
L 362.414545 130.176 
L 365.693884 130.176 
L 368.973223 130.176 
L 372.252562 130.176 
L 375.531901 130.176 
L 378.81124 130.176 
L 382.090579 130.176 
L 385.369917 130.176 
L 388.649256 130.176 
L 391.928595 130.176 
L 395.207934 236.6208 
L 398.487273 275.65056 
" style="fill:none;stroke:#000000;stroke-linecap:square;stroke-width:1.5;"/>
    <defs>
     <path d="M 0 3 
C 0.795609 3 1.55874 2.683901 2.12132 2.12132 
C 2.683901 1.55874 3 0.795609 3 0 
C 3 -0.795609 2.683901 -1.55874 2.12132 -2.12132 
C 1.55874 -2.683901 0.795609 -3 0 -3 
C -0.795609 -3 -1.55874 -2.683901 -2.12132 -2.12132 
C -2.683901 -1.55874 -3 -0.795609 -3 0 
C -3 0.795609 -2.683901 1.55874 -2.12132 2.12132 
C -1.55874 2.683901 -0.795609 3 0 3 
z
" id="m5d4fbc2069" style="stroke:#000000;"/>
    </defs>
    <g clip-path="url(#p607cd796e8)">
     <use style="stroke:#000000;" x="73.832727" xlink:href="#m5d4fbc2069" y="130.176"/>
     <use style="stroke:#000000;" x="77.112066" xlink:href="#m5d4fbc2069" y="130.176"/>
     <use style="stroke:#000000;" x="80.391405" xlink:href="#m5d4fbc2069" y="130.176"/>
     <use style="stroke:#000000;" x="83.670744" xlink:href="#m5d4fbc2069" y="130.176"/>
     <use style="stroke:#000000;" x="86.950083" xlink:href="#m5d4fbc2069" y="130.176"/>
     <use style="stroke:#000000;" x="90.229421" xlink:href="#m5d4fbc2069" y="130.176"/>
     <use style="stroke:#000000;" x="93.50876" xlink:href="#m5d4fbc2069" y="130.176"/>
     <use style="stroke:#000000;" x="96.788099" xlink:href="#m5d4fbc2069" y="130.176"/>
     <use style="stroke:#000000;" x="100.067438" xlink:href="#m5d4fbc2069" y="130.176"/>
     <use style="stroke:#000000;" x="103.346777" xlink:href="#m5d4fbc2069" y="130.176"/>
     <use style="stroke:#000000;" x="106.626116" xlink:href="#m5d4fbc2069" y="130.176"/>
     <use style="stroke:#000000;" x="109.905455" xlink:href="#m5d4fbc2069" y="130.176"/>
     <use style="stroke:#000000;" x="113.184793" xlink:href="#m5d4fbc2069" y="130.176"/>
     <use style="stroke:#000000;" x="116.464132" xlink:href="#m5d4fbc2069" y="130.176"/>
     <use style="stroke:#000000;" x="119.743471" xlink:href="#m5d4fbc2069" y="130.176"/>
     <use style="stroke:#000000;" x="123.02281" xlink:href="#m5d4fbc2069" y="130.176"/>
     <use style="stroke:#000000;" x="126.302149" xlink:href="#m5d4fbc2069" y="130.176"/>
     <use style="stroke:#000000;" x="129.581488" xlink:href="#m5d4fbc2069" y="130.176"/>
     <use style="stroke:#000000;" x="132.860826" xlink:href="#m5d4fbc2069" y="130.176"/>
     <use style="stroke:#000000;" x="136.140165" xlink:href="#m5d4fbc2069" y="130.176"/>
     <use style="stroke:#000000;" x="139.419504" xlink:href="#m5d4fbc2069" y="130.176"/>
     <use style="stroke:#000000;" x="142.698843" xlink:href="#m5d4fbc2069" y="130.176"/>
     <use style="stroke:#000000;" x="145.978182" xlink:href="#m5d4fbc2069" y="130.176"/>
     <use style="stroke:#000000;" x="149.257521" xlink:href="#m5d4fbc2069" y="130.176"/>
     <use style="stroke:#000000;" x="152.53686" xlink:href="#m5d4fbc2069" y="130.176"/>
     <use style="stroke:#000000;" x="155.816198" xlink:href="#m5d4fbc2069" y="130.176"/>
     <use style="stroke:#000000;" x="159.095537" xlink:href="#m5d4fbc2069" y="130.176"/>
     <use style="stroke:#000000;" x="162.374876" xlink:href="#m5d4fbc2069" y="130.176"/>
     <use style="stroke:#000000;" x="165.654215" xlink:href="#m5d4fbc2069" y="130.176"/>
     <use style="stroke:#000000;" x="168.933554" xlink:href="#m5d4fbc2069" y="130.176"/>
     <use style="stroke:#000000;" x="172.212893" xlink:href="#m5d4fbc2069" y="130.176"/>
     <use style="stroke:#000000;" x="175.492231" xlink:href="#m5d4fbc2069" y="130.176"/>
     <use style="stroke:#000000;" x="178.77157" xlink:href="#m5d4fbc2069" y="130.176"/>
     <use style="stroke:#000000;" x="182.050909" xlink:href="#m5d4fbc2069" y="130.176"/>
     <use style="stroke:#000000;" x="185.330248" xlink:href="#m5d4fbc2069" y="130.176"/>
     <use style="stroke:#000000;" x="188.609587" xlink:href="#m5d4fbc2069" y="130.176"/>
     <use style="stroke:#000000;" x="191.888926" xlink:href="#m5d4fbc2069" y="130.176"/>
     <use style="stroke:#000000;" x="195.168264" xlink:href="#m5d4fbc2069" y="130.176"/>
     <use style="stroke:#000000;" x="198.447603" xlink:href="#m5d4fbc2069" y="130.176"/>
     <use style="stroke:#000000;" x="201.726942" xlink:href="#m5d4fbc2069" y="130.176"/>
     <use style="stroke:#000000;" x="205.006281" xlink:href="#m5d4fbc2069" y="130.176"/>
     <use style="stroke:#000000;" x="208.28562" xlink:href="#m5d4fbc2069" y="130.176"/>
     <use style="stroke:#000000;" x="211.564959" xlink:href="#m5d4fbc2069" y="130.176"/>
     <use style="stroke:#000000;" x="214.844298" xlink:href="#m5d4fbc2069" y="130.176"/>
     <use style="stroke:#000000;" x="218.123636" xlink:href="#m5d4fbc2069" y="130.176"/>
     <use style="stroke:#000000;" x="221.402975" xlink:href="#m5d4fbc2069" y="130.176"/>
     <use style="stroke:#000000;" x="224.682314" xlink:href="#m5d4fbc2069" y="130.176"/>
     <use style="stroke:#000000;" x="227.961653" xlink:href="#m5d4fbc2069" y="130.176"/>
     <use style="stroke:#000000;" x="231.240992" xlink:href="#m5d4fbc2069" y="130.176"/>
     <use style="stroke:#000000;" x="234.520331" xlink:href="#m5d4fbc2069" y="130.176"/>
     <use style="stroke:#000000;" x="237.799669" xlink:href="#m5d4fbc2069" y="130.176"/>
     <use style="stroke:#000000;" x="241.079008" xlink:href="#m5d4fbc2069" y="130.176"/>
     <use style="stroke:#000000;" x="244.358347" xlink:href="#m5d4fbc2069" y="130.176"/>
     <use style="stroke:#000000;" x="247.637686" xlink:href="#m5d4fbc2069" y="130.176"/>
     <use style="stroke:#000000;" x="250.917025" xlink:href="#m5d4fbc2069" y="130.176"/>
     <use style="stroke:#000000;" x="254.196364" xlink:href="#m5d4fbc2069" y="130.176"/>
     <use style="stroke:#000000;" x="257.475702" xlink:href="#m5d4fbc2069" y="130.176"/>
     <use style="stroke:#000000;" x="260.755041" xlink:href="#m5d4fbc2069" y="130.176"/>
     <use style="stroke:#000000;" x="264.03438" xlink:href="#m5d4fbc2069" y="130.176"/>
     <use style="stroke:#000000;" x="267.313719" xlink:href="#m5d4fbc2069" y="130.176"/>
     <use style="stroke:#000000;" x="270.593058" xlink:href="#m5d4fbc2069" y="130.176"/>
     <use style="stroke:#000000;" x="273.872397" xlink:href="#m5d4fbc2069" y="130.176"/>
     <use style="stroke:#000000;" x="277.151736" xlink:href="#m5d4fbc2069" y="130.176"/>
     <use style="stroke:#000000;" x="280.431074" xlink:href="#m5d4fbc2069" y="130.176"/>
     <use style="stroke:#000000;" x="283.710413" xlink:href="#m5d4fbc2069" y="130.176"/>
     <use style="stroke:#000000;" x="286.989752" xlink:href="#m5d4fbc2069" y="130.176"/>
     <use style="stroke:#000000;" x="290.269091" xlink:href="#m5d4fbc2069" y="130.176"/>
     <use style="stroke:#000000;" x="293.54843" xlink:href="#m5d4fbc2069" y="130.176"/>
     <use style="stroke:#000000;" x="296.827769" xlink:href="#m5d4fbc2069" y="130.176"/>
     <use style="stroke:#000000;" x="300.107107" xlink:href="#m5d4fbc2069" y="130.176"/>
     <use style="stroke:#000000;" x="303.386446" xlink:href="#m5d4fbc2069" y="130.176"/>
     <use style="stroke:#000000;" x="306.665785" xlink:href="#m5d4fbc2069" y="130.176"/>
     <use style="stroke:#000000;" x="309.945124" xlink:href="#m5d4fbc2069" y="130.176"/>
     <use style="stroke:#000000;" x="313.224463" xlink:href="#m5d4fbc2069" y="130.176"/>
     <use style="stroke:#000000;" x="316.503802" xlink:href="#m5d4fbc2069" y="130.176"/>
     <use style="stroke:#000000;" x="319.78314" xlink:href="#m5d4fbc2069" y="130.176"/>
     <use style="stroke:#000000;" x="323.062479" xlink:href="#m5d4fbc2069" y="130.176"/>
     <use style="stroke:#000000;" x="326.341818" xlink:href="#m5d4fbc2069" y="130.176"/>
     <use style="stroke:#000000;" x="329.621157" xlink:href="#m5d4fbc2069" y="130.176"/>
     <use style="stroke:#000000;" x="332.900496" xlink:href="#m5d4fbc2069" y="130.176"/>
     <use style="stroke:#000000;" x="336.179835" xlink:href="#m5d4fbc2069" y="130.176"/>
     <use style="stroke:#000000;" x="339.459174" xlink:href="#m5d4fbc2069" y="130.176"/>
     <use style="stroke:#000000;" x="342.738512" xlink:href="#m5d4fbc2069" y="130.176"/>
     <use style="stroke:#000000;" x="346.017851" xlink:href="#m5d4fbc2069" y="130.176"/>
     <use style="stroke:#000000;" x="349.29719" xlink:href="#m5d4fbc2069" y="130.176"/>
     <use style="stroke:#000000;" x="352.576529" xlink:href="#m5d4fbc2069" y="130.176"/>
     <use style="stroke:#000000;" x="355.855868" xlink:href="#m5d4fbc2069" y="130.176"/>
     <use style="stroke:#000000;" x="359.135207" xlink:href="#m5d4fbc2069" y="130.176"/>
     <use style="stroke:#000000;" x="362.414545" xlink:href="#m5d4fbc2069" y="130.176"/>
     <use style="stroke:#000000;" x="365.693884" xlink:href="#m5d4fbc2069" y="130.176"/>
     <use style="stroke:#000000;" x="368.973223" xlink:href="#m5d4fbc2069" y="130.176"/>
     <use style="stroke:#000000;" x="372.252562" xlink:href="#m5d4fbc2069" y="130.176"/>
     <use style="stroke:#000000;" x="375.531901" xlink:href="#m5d4fbc2069" y="130.176"/>
     <use style="stroke:#000000;" x="378.81124" xlink:href="#m5d4fbc2069" y="130.176"/>
     <use style="stroke:#000000;" x="382.090579" xlink:href="#m5d4fbc2069" y="130.176"/>
     <use style="stroke:#000000;" x="385.369917" xlink:href="#m5d4fbc2069" y="130.176"/>
     <use style="stroke:#000000;" x="388.649256" xlink:href="#m5d4fbc2069" y="130.176"/>
     <use style="stroke:#000000;" x="391.928595" xlink:href="#m5d4fbc2069" y="130.176"/>
     <use style="stroke:#000000;" x="395.207934" xlink:href="#m5d4fbc2069" y="236.6208"/>
     <use style="stroke:#000000;" x="398.487273" xlink:href="#m5d4fbc2069" y="275.65056"/>
    </g>
   </g>
   <g id="line2d_17">
    <path clip-path="url(#p607cd796e8)" d="M 73.832727 140.740111 
L 77.112066 143.900737 
L 80.391405 140.296093 
L 83.670744 142.841678 
L 86.950083 136.787325 
L 90.229421 146.797334 
L 93.50876 137.643053 
L 96.788099 135.911551 
L 100.067438 138.230796 
L 103.346777 142.896036 
L 106.626116 138.945125 
L 109.905455 147.773389 
L 113.184793 140.827771 
L 116.464132 137.906677 
L 119.743471 144.378717 
L 123.02281 137.744086 
L 126.302149 140.605322 
L 129.581488 137.92899 
L 132.860826 141.915159 
L 136.140165 141.024504 
L 139.419504 140.677318 
L 142.698843 141.505458 
L 145.978182 137.065149 
L 149.257521 138.003695 
L 152.53686 141.888334 
L 155.816198 136.101214 
L 159.095537 139.970603 
L 162.374876 147.397609 
L 165.654215 147.392847 
L 168.933554 141.580744 
L 172.212893 139.126156 
L 175.492231 144.249482 
L 178.77157 137.791577 
L 182.050909 136.982771 
L 185.330248 142.433937 
L 188.609587 141.283876 
L 191.888926 142.316478 
L 195.168264 142.100463 
L 198.447603 141.133367 
L 201.726942 143.213002 
L 205.006281 138.72916 
L 208.28562 136.680685 
L 211.564959 141.466276 
L 214.844298 138.660676 
L 218.123636 141.444729 
L 221.402975 143.133274 
L 224.682314 139.619548 
L 227.961653 137.058432 
L 231.240992 138.05569 
L 234.520331 138.448865 
L 237.799669 139.261743 
L 241.079008 142.964543 
L 244.358347 140.101607 
L 247.637686 137.233696 
L 250.917025 140.089469 
L 254.196364 136.817096 
L 257.475702 141.183004 
L 260.755041 136.567166 
L 264.03438 141.009529 
L 267.313719 137.910225 
L 270.593058 139.100459 
L 273.872397 141.8205 
L 277.151736 140.696613 
L 280.431074 138.664889 
L 283.710413 137.22956 
L 286.989752 138.145797 
L 290.269091 142.565684 
L 293.54843 139.045096 
L 296.827769 140.726998 
L 300.107107 137.871547 
L 303.386446 139.662381 
L 306.665785 145.075954 
L 309.945124 148.049243 
L 313.224463 147.172112 
L 316.503802 146.335369 
L 319.78314 141.783407 
L 323.062479 139.303301 
L 326.341818 138.57574 
L 329.621157 143.363636 
L 332.900496 142.5616 
L 336.179835 138.847066 
L 339.459174 141.034819 
L 342.738512 142.579832 
L 346.017851 136.606332 
L 349.29719 148.892143 
L 352.576529 145.876072 
L 355.855868 139.941196 
L 359.135207 136.111057 
L 362.414545 148.216625 
L 365.693884 135.316942 
L 368.973223 139.174942 
L 372.252562 138.665183 
L 375.531901 143.380723 
L 378.81124 147.298827 
L 382.090579 152.276954 
L 385.369917 139.783823 
L 388.649256 138.781175 
L 391.928595 141.17365 
L 395.207934 237.853299 
L 398.487273 276.594442 
" style="fill:none;stroke:#008000;stroke-linecap:square;stroke-width:1.5;"/>
    <defs>
     <path d="M -3 0 
L 0 4.5 
L 3 0 
" id="md304b48fba" style="stroke:#008000;stroke-linejoin:miter;"/>
    </defs>
    <g clip-path="url(#p607cd796e8)">
     <use style="fill:#008000;stroke:#008000;stroke-linejoin:miter;" x="73.832727" xlink:href="#md304b48fba" y="140.740111"/>
     <use style="fill:#008000;stroke:#008000;stroke-linejoin:miter;" x="77.112066" xlink:href="#md304b48fba" y="143.900737"/>
     <use style="fill:#008000;stroke:#008000;stroke-linejoin:miter;" x="80.391405" xlink:href="#md304b48fba" y="140.296093"/>
     <use style="fill:#008000;stroke:#008000;stroke-linejoin:miter;" x="83.670744" xlink:href="#md304b48fba" y="142.841678"/>
     <use style="fill:#008000;stroke:#008000;stroke-linejoin:miter;" x="86.950083" xlink:href="#md304b48fba" y="136.787325"/>
     <use style="fill:#008000;stroke:#008000;stroke-linejoin:miter;" x="90.229421" xlink:href="#md304b48fba" y="146.797334"/>
     <use style="fill:#008000;stroke:#008000;stroke-linejoin:miter;" x="93.50876" xlink:href="#md304b48fba" y="137.643053"/>
     <use style="fill:#008000;stroke:#008000;stroke-linejoin:miter;" x="96.788099" xlink:href="#md304b48fba" y="135.911551"/>
     <use style="fill:#008000;stroke:#008000;stroke-linejoin:miter;" x="100.067438" xlink:href="#md304b48fba" y="138.230796"/>
     <use style="fill:#008000;stroke:#008000;stroke-linejoin:miter;" x="103.346777" xlink:href="#md304b48fba" y="142.896036"/>
     <use style="fill:#008000;stroke:#008000;stroke-linejoin:miter;" x="106.626116" xlink:href="#md304b48fba" y="138.945125"/>
     <use style="fill:#008000;stroke:#008000;stroke-linejoin:miter;" x="109.905455" xlink:href="#md304b48fba" y="147.773389"/>
     <use style="fill:#008000;stroke:#008000;stroke-linejoin:miter;" x="113.184793" xlink:href="#md304b48fba" y="140.827771"/>
     <use style="fill:#008000;stroke:#008000;stroke-linejoin:miter;" x="116.464132" xlink:href="#md304b48fba" y="137.906677"/>
     <use style="fill:#008000;stroke:#008000;stroke-linejoin:miter;" x="119.743471" xlink:href="#md304b48fba" y="144.378717"/>
     <use style="fill:#008000;stroke:#008000;stroke-linejoin:miter;" x="123.02281" xlink:href="#md304b48fba" y="137.744086"/>
     <use style="fill:#008000;stroke:#008000;stroke-linejoin:miter;" x="126.302149" xlink:href="#md304b48fba" y="140.605322"/>
     <use style="fill:#008000;stroke:#008000;stroke-linejoin:miter;" x="129.581488" xlink:href="#md304b48fba" y="137.92899"/>
     <use style="fill:#008000;stroke:#008000;stroke-linejoin:miter;" x="132.860826" xlink:href="#md304b48fba" y="141.915159"/>
     <use style="fill:#008000;stroke:#008000;stroke-linejoin:miter;" x="136.140165" xlink:href="#md304b48fba" y="141.024504"/>
     <use style="fill:#008000;stroke:#008000;stroke-linejoin:miter;" x="139.419504" xlink:href="#md304b48fba" y="140.677318"/>
     <use style="fill:#008000;stroke:#008000;stroke-linejoin:miter;" x="142.698843" xlink:href="#md304b48fba" y="141.505458"/>
     <use style="fill:#008000;stroke:#008000;stroke-linejoin:miter;" x="145.978182" xlink:href="#md304b48fba" y="137.065149"/>
     <use style="fill:#008000;stroke:#008000;stroke-linejoin:miter;" x="149.257521" xlink:href="#md304b48fba" y="138.003695"/>
     <use style="fill:#008000;stroke:#008000;stroke-linejoin:miter;" x="152.53686" xlink:href="#md304b48fba" y="141.888334"/>
     <use style="fill:#008000;stroke:#008000;stroke-linejoin:miter;" x="155.816198" xlink:href="#md304b48fba" y="136.101214"/>
     <use style="fill:#008000;stroke:#008000;stroke-linejoin:miter;" x="159.095537" xlink:href="#md304b48fba" y="139.970603"/>
     <use style="fill:#008000;stroke:#008000;stroke-linejoin:miter;" x="162.374876" xlink:href="#md304b48fba" y="147.397609"/>
     <use style="fill:#008000;stroke:#008000;stroke-linejoin:miter;" x="165.654215" xlink:href="#md304b48fba" y="147.392847"/>
     <use style="fill:#008000;stroke:#008000;stroke-linejoin:miter;" x="168.933554" xlink:href="#md304b48fba" y="141.580744"/>
     <use style="fill:#008000;stroke:#008000;stroke-linejoin:miter;" x="172.212893" xlink:href="#md304b48fba" y="139.126156"/>
     <use style="fill:#008000;stroke:#008000;stroke-linejoin:miter;" x="175.492231" xlink:href="#md304b48fba" y="144.249482"/>
     <use style="fill:#008000;stroke:#008000;stroke-linejoin:miter;" x="178.77157" xlink:href="#md304b48fba" y="137.791577"/>
     <use style="fill:#008000;stroke:#008000;stroke-linejoin:miter;" x="182.050909" xlink:href="#md304b48fba" y="136.982771"/>
     <use style="fill:#008000;stroke:#008000;stroke-linejoin:miter;" x="185.330248" xlink:href="#md304b48fba" y="142.433937"/>
     <use style="fill:#008000;stroke:#008000;stroke-linejoin:miter;" x="188.609587" xlink:href="#md304b48fba" y="141.283876"/>
     <use style="fill:#008000;stroke:#008000;stroke-linejoin:miter;" x="191.888926" xlink:href="#md304b48fba" y="142.316478"/>
     <use style="fill:#008000;stroke:#008000;stroke-linejoin:miter;" x="195.168264" xlink:href="#md304b48fba" y="142.100463"/>
     <use style="fill:#008000;stroke:#008000;stroke-linejoin:miter;" x="198.447603" xlink:href="#md304b48fba" y="141.133367"/>
     <use style="fill:#008000;stroke:#008000;stroke-linejoin:miter;" x="201.726942" xlink:href="#md304b48fba" y="143.213002"/>
     <use style="fill:#008000;stroke:#008000;stroke-linejoin:miter;" x="205.006281" xlink:href="#md304b48fba" y="138.72916"/>
     <use style="fill:#008000;stroke:#008000;stroke-linejoin:miter;" x="208.28562" xlink:href="#md304b48fba" y="136.680685"/>
     <use style="fill:#008000;stroke:#008000;stroke-linejoin:miter;" x="211.564959" xlink:href="#md304b48fba" y="141.466276"/>
     <use style="fill:#008000;stroke:#008000;stroke-linejoin:miter;" x="214.844298" xlink:href="#md304b48fba" y="138.660676"/>
     <use style="fill:#008000;stroke:#008000;stroke-linejoin:miter;" x="218.123636" xlink:href="#md304b48fba" y="141.444729"/>
     <use style="fill:#008000;stroke:#008000;stroke-linejoin:miter;" x="221.402975" xlink:href="#md304b48fba" y="143.133274"/>
     <use style="fill:#008000;stroke:#008000;stroke-linejoin:miter;" x="224.682314" xlink:href="#md304b48fba" y="139.619548"/>
     <use style="fill:#008000;stroke:#008000;stroke-linejoin:miter;" x="227.961653" xlink:href="#md304b48fba" y="137.058432"/>
     <use style="fill:#008000;stroke:#008000;stroke-linejoin:miter;" x="231.240992" xlink:href="#md304b48fba" y="138.05569"/>
     <use style="fill:#008000;stroke:#008000;stroke-linejoin:miter;" x="234.520331" xlink:href="#md304b48fba" y="138.448865"/>
     <use style="fill:#008000;stroke:#008000;stroke-linejoin:miter;" x="237.799669" xlink:href="#md304b48fba" y="139.261743"/>
     <use style="fill:#008000;stroke:#008000;stroke-linejoin:miter;" x="241.079008" xlink:href="#md304b48fba" y="142.964543"/>
     <use style="fill:#008000;stroke:#008000;stroke-linejoin:miter;" x="244.358347" xlink:href="#md304b48fba" y="140.101607"/>
     <use style="fill:#008000;stroke:#008000;stroke-linejoin:miter;" x="247.637686" xlink:href="#md304b48fba" y="137.233696"/>
     <use style="fill:#008000;stroke:#008000;stroke-linejoin:miter;" x="250.917025" xlink:href="#md304b48fba" y="140.089469"/>
     <use style="fill:#008000;stroke:#008000;stroke-linejoin:miter;" x="254.196364" xlink:href="#md304b48fba" y="136.817096"/>
     <use style="fill:#008000;stroke:#008000;stroke-linejoin:miter;" x="257.475702" xlink:href="#md304b48fba" y="141.183004"/>
     <use style="fill:#008000;stroke:#008000;stroke-linejoin:miter;" x="260.755041" xlink:href="#md304b48fba" y="136.567166"/>
     <use style="fill:#008000;stroke:#008000;stroke-linejoin:miter;" x="264.03438" xlink:href="#md304b48fba" y="141.009529"/>
     <use style="fill:#008000;stroke:#008000;stroke-linejoin:miter;" x="267.313719" xlink:href="#md304b48fba" y="137.910225"/>
     <use style="fill:#008000;stroke:#008000;stroke-linejoin:miter;" x="270.593058" xlink:href="#md304b48fba" y="139.100459"/>
     <use style="fill:#008000;stroke:#008000;stroke-linejoin:miter;" x="273.872397" xlink:href="#md304b48fba" y="141.8205"/>
     <use style="fill:#008000;stroke:#008000;stroke-linejoin:miter;" x="277.151736" xlink:href="#md304b48fba" y="140.696613"/>
     <use style="fill:#008000;stroke:#008000;stroke-linejoin:miter;" x="280.431074" xlink:href="#md304b48fba" y="138.664889"/>
     <use style="fill:#008000;stroke:#008000;stroke-linejoin:miter;" x="283.710413" xlink:href="#md304b48fba" y="137.22956"/>
     <use style="fill:#008000;stroke:#008000;stroke-linejoin:miter;" x="286.989752" xlink:href="#md304b48fba" y="138.145797"/>
     <use style="fill:#008000;stroke:#008000;stroke-linejoin:miter;" x="290.269091" xlink:href="#md304b48fba" y="142.565684"/>
     <use style="fill:#008000;stroke:#008000;stroke-linejoin:miter;" x="293.54843" xlink:href="#md304b48fba" y="139.045096"/>
     <use style="fill:#008000;stroke:#008000;stroke-linejoin:miter;" x="296.827769" xlink:href="#md304b48fba" y="140.726998"/>
     <use style="fill:#008000;stroke:#008000;stroke-linejoin:miter;" x="300.107107" xlink:href="#md304b48fba" y="137.871547"/>
     <use style="fill:#008000;stroke:#008000;stroke-linejoin:miter;" x="303.386446" xlink:href="#md304b48fba" y="139.662381"/>
     <use style="fill:#008000;stroke:#008000;stroke-linejoin:miter;" x="306.665785" xlink:href="#md304b48fba" y="145.075954"/>
     <use style="fill:#008000;stroke:#008000;stroke-linejoin:miter;" x="309.945124" xlink:href="#md304b48fba" y="148.049243"/>
     <use style="fill:#008000;stroke:#008000;stroke-linejoin:miter;" x="313.224463" xlink:href="#md304b48fba" y="147.172112"/>
     <use style="fill:#008000;stroke:#008000;stroke-linejoin:miter;" x="316.503802" xlink:href="#md304b48fba" y="146.335369"/>
     <use style="fill:#008000;stroke:#008000;stroke-linejoin:miter;" x="319.78314" xlink:href="#md304b48fba" y="141.783407"/>
     <use style="fill:#008000;stroke:#008000;stroke-linejoin:miter;" x="323.062479" xlink:href="#md304b48fba" y="139.303301"/>
     <use style="fill:#008000;stroke:#008000;stroke-linejoin:miter;" x="326.341818" xlink:href="#md304b48fba" y="138.57574"/>
     <use style="fill:#008000;stroke:#008000;stroke-linejoin:miter;" x="329.621157" xlink:href="#md304b48fba" y="143.363636"/>
     <use style="fill:#008000;stroke:#008000;stroke-linejoin:miter;" x="332.900496" xlink:href="#md304b48fba" y="142.5616"/>
     <use style="fill:#008000;stroke:#008000;stroke-linejoin:miter;" x="336.179835" xlink:href="#md304b48fba" y="138.847066"/>
     <use style="fill:#008000;stroke:#008000;stroke-linejoin:miter;" x="339.459174" xlink:href="#md304b48fba" y="141.034819"/>
     <use style="fill:#008000;stroke:#008000;stroke-linejoin:miter;" x="342.738512" xlink:href="#md304b48fba" y="142.579832"/>
     <use style="fill:#008000;stroke:#008000;stroke-linejoin:miter;" x="346.017851" xlink:href="#md304b48fba" y="136.606332"/>
     <use style="fill:#008000;stroke:#008000;stroke-linejoin:miter;" x="349.29719" xlink:href="#md304b48fba" y="148.892143"/>
     <use style="fill:#008000;stroke:#008000;stroke-linejoin:miter;" x="352.576529" xlink:href="#md304b48fba" y="145.876072"/>
     <use style="fill:#008000;stroke:#008000;stroke-linejoin:miter;" x="355.855868" xlink:href="#md304b48fba" y="139.941196"/>
     <use style="fill:#008000;stroke:#008000;stroke-linejoin:miter;" x="359.135207" xlink:href="#md304b48fba" y="136.111057"/>
     <use style="fill:#008000;stroke:#008000;stroke-linejoin:miter;" x="362.414545" xlink:href="#md304b48fba" y="148.216625"/>
     <use style="fill:#008000;stroke:#008000;stroke-linejoin:miter;" x="365.693884" xlink:href="#md304b48fba" y="135.316942"/>
     <use style="fill:#008000;stroke:#008000;stroke-linejoin:miter;" x="368.973223" xlink:href="#md304b48fba" y="139.174942"/>
     <use style="fill:#008000;stroke:#008000;stroke-linejoin:miter;" x="372.252562" xlink:href="#md304b48fba" y="138.665183"/>
     <use style="fill:#008000;stroke:#008000;stroke-linejoin:miter;" x="375.531901" xlink:href="#md304b48fba" y="143.380723"/>
     <use style="fill:#008000;stroke:#008000;stroke-linejoin:miter;" x="378.81124" xlink:href="#md304b48fba" y="147.298827"/>
     <use style="fill:#008000;stroke:#008000;stroke-linejoin:miter;" x="382.090579" xlink:href="#md304b48fba" y="152.276954"/>
     <use style="fill:#008000;stroke:#008000;stroke-linejoin:miter;" x="385.369917" xlink:href="#md304b48fba" y="139.783823"/>
     <use style="fill:#008000;stroke:#008000;stroke-linejoin:miter;" x="388.649256" xlink:href="#md304b48fba" y="138.781175"/>
     <use style="fill:#008000;stroke:#008000;stroke-linejoin:miter;" x="391.928595" xlink:href="#md304b48fba" y="141.17365"/>
     <use style="fill:#008000;stroke:#008000;stroke-linejoin:miter;" x="395.207934" xlink:href="#md304b48fba" y="237.853299"/>
     <use style="fill:#008000;stroke:#008000;stroke-linejoin:miter;" x="398.487273" xlink:href="#md304b48fba" y="276.594442"/>
    </g>
   </g>
   <g id="line2d_18">
    <path clip-path="url(#p607cd796e8)" d="M 73.832727 120.125089 
L 77.112066 120.111759 
L 80.391405 120.107318 
L 83.670744 120.107408 
L 86.950083 120.111721 
L 90.229421 120.122109 
L 93.50876 120.104903 
L 96.788099 120.104002 
L 100.067438 120.106053 
L 103.346777 120.13047 
L 106.626116 120.110049 
L 109.905455 120.114536 
L 113.184793 120.106852 
L 116.464132 120.110309 
L 119.743471 120.11101 
L 123.02281 120.116475 
L 126.302149 120.108555 
L 129.581488 120.121157 
L 132.860826 120.109955 
L 136.140165 120.113497 
L 139.419504 120.136432 
L 142.698843 120.12611 
L 145.978182 120.113692 
L 149.257521 120.108162 
L 152.53686 120.107854 
L 155.816198 120.105509 
L 159.095537 120.123813 
L 162.374876 120.120084 
L 165.654215 120.12888 
L 168.933554 120.107537 
L 172.212893 120.106549 
L 175.492231 120.109433 
L 178.77157 120.111035 
L 182.050909 120.110804 
L 185.330248 120.107924 
L 188.609587 120.106041 
L 191.888926 120.131833 
L 195.168264 120.106334 
L 198.447603 120.108017 
L 201.726942 120.121924 
L 205.006281 120.109179 
L 208.28562 120.122856 
L 211.564959 120.114532 
L 214.844298 120.108637 
L 218.123636 120.106421 
L 221.402975 120.108268 
L 224.682314 120.105401 
L 227.961653 120.104358 
L 231.240992 120.10544 
L 234.520331 120.107423 
L 237.799669 120.111901 
L 241.079008 120.104898 
L 244.358347 120.112659 
L 247.637686 120.112337 
L 250.917025 120.118738 
L 254.196364 120.10424 
L 257.475702 120.106589 
L 260.755041 120.112775 
L 264.03438 120.113397 
L 267.313719 120.113666 
L 270.593058 120.119575 
L 273.872397 120.107211 
L 277.151736 120.108919 
L 280.431074 120.14208 
L 283.710413 120.111796 
L 286.989752 120.104864 
L 290.269091 120.109361 
L 293.54843 120.107231 
L 296.827769 120.107652 
L 300.107107 120.10569 
L 303.386446 120.121665 
L 306.665785 120.116977 
L 309.945124 120.124154 
L 313.224463 120.140926 
L 316.503802 120.104252 
L 319.78314 120.105453 
L 323.062479 120.121423 
L 326.341818 120.115979 
L 329.621157 120.115924 
L 332.900496 120.106013 
L 336.179835 120.106628 
L 339.459174 120.110232 
L 342.738512 120.109374 
L 346.017851 120.114371 
L 349.29719 120.133354 
L 352.576529 120.117349 
L 355.855868 120.106582 
L 359.135207 120.106622 
L 362.414545 120.104903 
L 365.693884 120.103764 
L 368.973223 120.11574 
L 372.252562 120.106845 
L 375.531901 120.131905 
L 378.81124 120.116986 
L 382.090579 120.12028 
L 385.369917 120.106239 
L 388.649256 120.106017 
L 391.928595 120.104231 
L 395.207934 235.782813 
L 398.487273 274.557699 
" style="fill:none;stroke:#ff0000;stroke-linecap:square;stroke-width:1.5;"/>
    <defs>
     <path d="M 3 0 
L 0 -4.5 
L -3 -0 
" id="m9a61e636aa" style="stroke:#ff0000;stroke-linejoin:miter;"/>
    </defs>
    <g clip-path="url(#p607cd796e8)">
     <use style="fill:#ff0000;stroke:#ff0000;stroke-linejoin:miter;" x="73.832727" xlink:href="#m9a61e636aa" y="120.125089"/>
     <use style="fill:#ff0000;stroke:#ff0000;stroke-linejoin:miter;" x="77.112066" xlink:href="#m9a61e636aa" y="120.111759"/>
     <use style="fill:#ff0000;stroke:#ff0000;stroke-linejoin:miter;" x="80.391405" xlink:href="#m9a61e636aa" y="120.107318"/>
     <use style="fill:#ff0000;stroke:#ff0000;stroke-linejoin:miter;" x="83.670744" xlink:href="#m9a61e636aa" y="120.107408"/>
     <use style="fill:#ff0000;stroke:#ff0000;stroke-linejoin:miter;" x="86.950083" xlink:href="#m9a61e636aa" y="120.111721"/>
     <use style="fill:#ff0000;stroke:#ff0000;stroke-linejoin:miter;" x="90.229421" xlink:href="#m9a61e636aa" y="120.122109"/>
     <use style="fill:#ff0000;stroke:#ff0000;stroke-linejoin:miter;" x="93.50876" xlink:href="#m9a61e636aa" y="120.104903"/>
     <use style="fill:#ff0000;stroke:#ff0000;stroke-linejoin:miter;" x="96.788099" xlink:href="#m9a61e636aa" y="120.104002"/>
     <use style="fill:#ff0000;stroke:#ff0000;stroke-linejoin:miter;" x="100.067438" xlink:href="#m9a61e636aa" y="120.106053"/>
     <use style="fill:#ff0000;stroke:#ff0000;stroke-linejoin:miter;" x="103.346777" xlink:href="#m9a61e636aa" y="120.13047"/>
     <use style="fill:#ff0000;stroke:#ff0000;stroke-linejoin:miter;" x="106.626116" xlink:href="#m9a61e636aa" y="120.110049"/>
     <use style="fill:#ff0000;stroke:#ff0000;stroke-linejoin:miter;" x="109.905455" xlink:href="#m9a61e636aa" y="120.114536"/>
     <use style="fill:#ff0000;stroke:#ff0000;stroke-linejoin:miter;" x="113.184793" xlink:href="#m9a61e636aa" y="120.106852"/>
     <use style="fill:#ff0000;stroke:#ff0000;stroke-linejoin:miter;" x="116.464132" xlink:href="#m9a61e636aa" y="120.110309"/>
     <use style="fill:#ff0000;stroke:#ff0000;stroke-linejoin:miter;" x="119.743471" xlink:href="#m9a61e636aa" y="120.11101"/>
     <use style="fill:#ff0000;stroke:#ff0000;stroke-linejoin:miter;" x="123.02281" xlink:href="#m9a61e636aa" y="120.116475"/>
     <use style="fill:#ff0000;stroke:#ff0000;stroke-linejoin:miter;" x="126.302149" xlink:href="#m9a61e636aa" y="120.108555"/>
     <use style="fill:#ff0000;stroke:#ff0000;stroke-linejoin:miter;" x="129.581488" xlink:href="#m9a61e636aa" y="120.121157"/>
     <use style="fill:#ff0000;stroke:#ff0000;stroke-linejoin:miter;" x="132.860826" xlink:href="#m9a61e636aa" y="120.109955"/>
     <use style="fill:#ff0000;stroke:#ff0000;stroke-linejoin:miter;" x="136.140165" xlink:href="#m9a61e636aa" y="120.113497"/>
     <use style="fill:#ff0000;stroke:#ff0000;stroke-linejoin:miter;" x="139.419504" xlink:href="#m9a61e636aa" y="120.136432"/>
     <use style="fill:#ff0000;stroke:#ff0000;stroke-linejoin:miter;" x="142.698843" xlink:href="#m9a61e636aa" y="120.12611"/>
     <use style="fill:#ff0000;stroke:#ff0000;stroke-linejoin:miter;" x="145.978182" xlink:href="#m9a61e636aa" y="120.113692"/>
     <use style="fill:#ff0000;stroke:#ff0000;stroke-linejoin:miter;" x="149.257521" xlink:href="#m9a61e636aa" y="120.108162"/>
     <use style="fill:#ff0000;stroke:#ff0000;stroke-linejoin:miter;" x="152.53686" xlink:href="#m9a61e636aa" y="120.107854"/>
     <use style="fill:#ff0000;stroke:#ff0000;stroke-linejoin:miter;" x="155.816198" xlink:href="#m9a61e636aa" y="120.105509"/>
     <use style="fill:#ff0000;stroke:#ff0000;stroke-linejoin:miter;" x="159.095537" xlink:href="#m9a61e636aa" y="120.123813"/>
     <use style="fill:#ff0000;stroke:#ff0000;stroke-linejoin:miter;" x="162.374876" xlink:href="#m9a61e636aa" y="120.120084"/>
     <use style="fill:#ff0000;stroke:#ff0000;stroke-linejoin:miter;" x="165.654215" xlink:href="#m9a61e636aa" y="120.12888"/>
     <use style="fill:#ff0000;stroke:#ff0000;stroke-linejoin:miter;" x="168.933554" xlink:href="#m9a61e636aa" y="120.107537"/>
     <use style="fill:#ff0000;stroke:#ff0000;stroke-linejoin:miter;" x="172.212893" xlink:href="#m9a61e636aa" y="120.106549"/>
     <use style="fill:#ff0000;stroke:#ff0000;stroke-linejoin:miter;" x="175.492231" xlink:href="#m9a61e636aa" y="120.109433"/>
     <use style="fill:#ff0000;stroke:#ff0000;stroke-linejoin:miter;" x="178.77157" xlink:href="#m9a61e636aa" y="120.111035"/>
     <use style="fill:#ff0000;stroke:#ff0000;stroke-linejoin:miter;" x="182.050909" xlink:href="#m9a61e636aa" y="120.110804"/>
     <use style="fill:#ff0000;stroke:#ff0000;stroke-linejoin:miter;" x="185.330248" xlink:href="#m9a61e636aa" y="120.107924"/>
     <use style="fill:#ff0000;stroke:#ff0000;stroke-linejoin:miter;" x="188.609587" xlink:href="#m9a61e636aa" y="120.106041"/>
     <use style="fill:#ff0000;stroke:#ff0000;stroke-linejoin:miter;" x="191.888926" xlink:href="#m9a61e636aa" y="120.131833"/>
     <use style="fill:#ff0000;stroke:#ff0000;stroke-linejoin:miter;" x="195.168264" xlink:href="#m9a61e636aa" y="120.106334"/>
     <use style="fill:#ff0000;stroke:#ff0000;stroke-linejoin:miter;" x="198.447603" xlink:href="#m9a61e636aa" y="120.108017"/>
     <use style="fill:#ff0000;stroke:#ff0000;stroke-linejoin:miter;" x="201.726942" xlink:href="#m9a61e636aa" y="120.121924"/>
     <use style="fill:#ff0000;stroke:#ff0000;stroke-linejoin:miter;" x="205.006281" xlink:href="#m9a61e636aa" y="120.109179"/>
     <use style="fill:#ff0000;stroke:#ff0000;stroke-linejoin:miter;" x="208.28562" xlink:href="#m9a61e636aa" y="120.122856"/>
     <use style="fill:#ff0000;stroke:#ff0000;stroke-linejoin:miter;" x="211.564959" xlink:href="#m9a61e636aa" y="120.114532"/>
     <use style="fill:#ff0000;stroke:#ff0000;stroke-linejoin:miter;" x="214.844298" xlink:href="#m9a61e636aa" y="120.108637"/>
     <use style="fill:#ff0000;stroke:#ff0000;stroke-linejoin:miter;" x="218.123636" xlink:href="#m9a61e636aa" y="120.106421"/>
     <use style="fill:#ff0000;stroke:#ff0000;stroke-linejoin:miter;" x="221.402975" xlink:href="#m9a61e636aa" y="120.108268"/>
     <use style="fill:#ff0000;stroke:#ff0000;stroke-linejoin:miter;" x="224.682314" xlink:href="#m9a61e636aa" y="120.105401"/>
     <use style="fill:#ff0000;stroke:#ff0000;stroke-linejoin:miter;" x="227.961653" xlink:href="#m9a61e636aa" y="120.104358"/>
     <use style="fill:#ff0000;stroke:#ff0000;stroke-linejoin:miter;" x="231.240992" xlink:href="#m9a61e636aa" y="120.10544"/>
     <use style="fill:#ff0000;stroke:#ff0000;stroke-linejoin:miter;" x="234.520331" xlink:href="#m9a61e636aa" y="120.107423"/>
     <use style="fill:#ff0000;stroke:#ff0000;stroke-linejoin:miter;" x="237.799669" xlink:href="#m9a61e636aa" y="120.111901"/>
     <use style="fill:#ff0000;stroke:#ff0000;stroke-linejoin:miter;" x="241.079008" xlink:href="#m9a61e636aa" y="120.104898"/>
     <use style="fill:#ff0000;stroke:#ff0000;stroke-linejoin:miter;" x="244.358347" xlink:href="#m9a61e636aa" y="120.112659"/>
     <use style="fill:#ff0000;stroke:#ff0000;stroke-linejoin:miter;" x="247.637686" xlink:href="#m9a61e636aa" y="120.112337"/>
     <use style="fill:#ff0000;stroke:#ff0000;stroke-linejoin:miter;" x="250.917025" xlink:href="#m9a61e636aa" y="120.118738"/>
     <use style="fill:#ff0000;stroke:#ff0000;stroke-linejoin:miter;" x="254.196364" xlink:href="#m9a61e636aa" y="120.10424"/>
     <use style="fill:#ff0000;stroke:#ff0000;stroke-linejoin:miter;" x="257.475702" xlink:href="#m9a61e636aa" y="120.106589"/>
     <use style="fill:#ff0000;stroke:#ff0000;stroke-linejoin:miter;" x="260.755041" xlink:href="#m9a61e636aa" y="120.112775"/>
     <use style="fill:#ff0000;stroke:#ff0000;stroke-linejoin:miter;" x="264.03438" xlink:href="#m9a61e636aa" y="120.113397"/>
     <use style="fill:#ff0000;stroke:#ff0000;stroke-linejoin:miter;" x="267.313719" xlink:href="#m9a61e636aa" y="120.113666"/>
     <use style="fill:#ff0000;stroke:#ff0000;stroke-linejoin:miter;" x="270.593058" xlink:href="#m9a61e636aa" y="120.119575"/>
     <use style="fill:#ff0000;stroke:#ff0000;stroke-linejoin:miter;" x="273.872397" xlink:href="#m9a61e636aa" y="120.107211"/>
     <use style="fill:#ff0000;stroke:#ff0000;stroke-linejoin:miter;" x="277.151736" xlink:href="#m9a61e636aa" y="120.108919"/>
     <use style="fill:#ff0000;stroke:#ff0000;stroke-linejoin:miter;" x="280.431074" xlink:href="#m9a61e636aa" y="120.14208"/>
     <use style="fill:#ff0000;stroke:#ff0000;stroke-linejoin:miter;" x="283.710413" xlink:href="#m9a61e636aa" y="120.111796"/>
     <use style="fill:#ff0000;stroke:#ff0000;stroke-linejoin:miter;" x="286.989752" xlink:href="#m9a61e636aa" y="120.104864"/>
     <use style="fill:#ff0000;stroke:#ff0000;stroke-linejoin:miter;" x="290.269091" xlink:href="#m9a61e636aa" y="120.109361"/>
     <use style="fill:#ff0000;stroke:#ff0000;stroke-linejoin:miter;" x="293.54843" xlink:href="#m9a61e636aa" y="120.107231"/>
     <use style="fill:#ff0000;stroke:#ff0000;stroke-linejoin:miter;" x="296.827769" xlink:href="#m9a61e636aa" y="120.107652"/>
     <use style="fill:#ff0000;stroke:#ff0000;stroke-linejoin:miter;" x="300.107107" xlink:href="#m9a61e636aa" y="120.10569"/>
     <use style="fill:#ff0000;stroke:#ff0000;stroke-linejoin:miter;" x="303.386446" xlink:href="#m9a61e636aa" y="120.121665"/>
     <use style="fill:#ff0000;stroke:#ff0000;stroke-linejoin:miter;" x="306.665785" xlink:href="#m9a61e636aa" y="120.116977"/>
     <use style="fill:#ff0000;stroke:#ff0000;stroke-linejoin:miter;" x="309.945124" xlink:href="#m9a61e636aa" y="120.124154"/>
     <use style="fill:#ff0000;stroke:#ff0000;stroke-linejoin:miter;" x="313.224463" xlink:href="#m9a61e636aa" y="120.140926"/>
     <use style="fill:#ff0000;stroke:#ff0000;stroke-linejoin:miter;" x="316.503802" xlink:href="#m9a61e636aa" y="120.104252"/>
     <use style="fill:#ff0000;stroke:#ff0000;stroke-linejoin:miter;" x="319.78314" xlink:href="#m9a61e636aa" y="120.105453"/>
     <use style="fill:#ff0000;stroke:#ff0000;stroke-linejoin:miter;" x="323.062479" xlink:href="#m9a61e636aa" y="120.121423"/>
     <use style="fill:#ff0000;stroke:#ff0000;stroke-linejoin:miter;" x="326.341818" xlink:href="#m9a61e636aa" y="120.115979"/>
     <use style="fill:#ff0000;stroke:#ff0000;stroke-linejoin:miter;" x="329.621157" xlink:href="#m9a61e636aa" y="120.115924"/>
     <use style="fill:#ff0000;stroke:#ff0000;stroke-linejoin:miter;" x="332.900496" xlink:href="#m9a61e636aa" y="120.106013"/>
     <use style="fill:#ff0000;stroke:#ff0000;stroke-linejoin:miter;" x="336.179835" xlink:href="#m9a61e636aa" y="120.106628"/>
     <use style="fill:#ff0000;stroke:#ff0000;stroke-linejoin:miter;" x="339.459174" xlink:href="#m9a61e636aa" y="120.110232"/>
     <use style="fill:#ff0000;stroke:#ff0000;stroke-linejoin:miter;" x="342.738512" xlink:href="#m9a61e636aa" y="120.109374"/>
     <use style="fill:#ff0000;stroke:#ff0000;stroke-linejoin:miter;" x="346.017851" xlink:href="#m9a61e636aa" y="120.114371"/>
     <use style="fill:#ff0000;stroke:#ff0000;stroke-linejoin:miter;" x="349.29719" xlink:href="#m9a61e636aa" y="120.133354"/>
     <use style="fill:#ff0000;stroke:#ff0000;stroke-linejoin:miter;" x="352.576529" xlink:href="#m9a61e636aa" y="120.117349"/>
     <use style="fill:#ff0000;stroke:#ff0000;stroke-linejoin:miter;" x="355.855868" xlink:href="#m9a61e636aa" y="120.106582"/>
     <use style="fill:#ff0000;stroke:#ff0000;stroke-linejoin:miter;" x="359.135207" xlink:href="#m9a61e636aa" y="120.106622"/>
     <use style="fill:#ff0000;stroke:#ff0000;stroke-linejoin:miter;" x="362.414545" xlink:href="#m9a61e636aa" y="120.104903"/>
     <use style="fill:#ff0000;stroke:#ff0000;stroke-linejoin:miter;" x="365.693884" xlink:href="#m9a61e636aa" y="120.103764"/>
     <use style="fill:#ff0000;stroke:#ff0000;stroke-linejoin:miter;" x="368.973223" xlink:href="#m9a61e636aa" y="120.11574"/>
     <use style="fill:#ff0000;stroke:#ff0000;stroke-linejoin:miter;" x="372.252562" xlink:href="#m9a61e636aa" y="120.106845"/>
     <use style="fill:#ff0000;stroke:#ff0000;stroke-linejoin:miter;" x="375.531901" xlink:href="#m9a61e636aa" y="120.131905"/>
     <use style="fill:#ff0000;stroke:#ff0000;stroke-linejoin:miter;" x="378.81124" xlink:href="#m9a61e636aa" y="120.116986"/>
     <use style="fill:#ff0000;stroke:#ff0000;stroke-linejoin:miter;" x="382.090579" xlink:href="#m9a61e636aa" y="120.12028"/>
     <use style="fill:#ff0000;stroke:#ff0000;stroke-linejoin:miter;" x="385.369917" xlink:href="#m9a61e636aa" y="120.106239"/>
     <use style="fill:#ff0000;stroke:#ff0000;stroke-linejoin:miter;" x="388.649256" xlink:href="#m9a61e636aa" y="120.106017"/>
     <use style="fill:#ff0000;stroke:#ff0000;stroke-linejoin:miter;" x="391.928595" xlink:href="#m9a61e636aa" y="120.104231"/>
     <use style="fill:#ff0000;stroke:#ff0000;stroke-linejoin:miter;" x="395.207934" xlink:href="#m9a61e636aa" y="235.782813"/>
     <use style="fill:#ff0000;stroke:#ff0000;stroke-linejoin:miter;" x="398.487273" xlink:href="#m9a61e636aa" y="274.557699"/>
    </g>
   </g>
   <g id="patch_3">
    <path d="M 57.6 307.584 
L 57.6 41.472 
" style="fill:none;stroke:#000000;stroke-linecap:square;stroke-linejoin:miter;stroke-width:0.8;"/>
   </g>
   <g id="patch_4">
    <path d="M 414.72 307.584 
L 414.72 41.472 
" style="fill:none;stroke:#000000;stroke-linecap:square;stroke-linejoin:miter;stroke-width:0.8;"/>
   </g>
   <g id="patch_5">
    <path d="M 57.6 307.584 
L 414.72 307.584 
" style="fill:none;stroke:#000000;stroke-linecap:square;stroke-linejoin:miter;stroke-width:0.8;"/>
   </g>
   <g id="patch_6">
    <path d="M 57.6 41.472 
L 414.72 41.472 
" style="fill:none;stroke:#000000;stroke-linecap:square;stroke-linejoin:miter;stroke-width:0.8;"/>
   </g>
   <g id="text_17">
    <!-- Upper and lower bounds -->
    <g transform="translate(162.559687 35.472)scale(0.12 -0.12)">
     <defs>
      <path d="M 8.6875 72.90625 
L 18.609375 72.90625 
L 18.609375 28.609375 
Q 18.609375 16.890625 22.84375 11.734375 
Q 27.09375 6.59375 36.625 6.59375 
Q 46.09375 6.59375 50.34375 11.734375 
Q 54.59375 16.890625 54.59375 28.609375 
L 54.59375 72.90625 
L 64.5 72.90625 
L 64.5 27.390625 
Q 64.5 13.140625 57.4375 5.859375 
Q 50.390625 -1.421875 36.625 -1.421875 
Q 22.796875 -1.421875 15.734375 5.859375 
Q 8.6875 13.140625 8.6875 27.390625 
z
" id="DejaVuSans-85"/>
      <path d="M 18.109375 8.203125 
L 18.109375 -20.796875 
L 9.078125 -20.796875 
L 9.078125 54.6875 
L 18.109375 54.6875 
L 18.109375 46.390625 
Q 20.953125 51.265625 25.265625 53.625 
Q 29.59375 56 35.59375 56 
Q 45.5625 56 51.78125 48.09375 
Q 58.015625 40.1875 58.015625 27.296875 
Q 58.015625 14.40625 51.78125 6.484375 
Q 45.5625 -1.421875 35.59375 -1.421875 
Q 29.59375 -1.421875 25.265625 0.953125 
Q 20.953125 3.328125 18.109375 8.203125 
z
M 48.6875 27.296875 
Q 48.6875 37.203125 44.609375 42.84375 
Q 40.53125 48.484375 33.40625 48.484375 
Q 26.265625 48.484375 22.1875 42.84375 
Q 18.109375 37.203125 18.109375 27.296875 
Q 18.109375 17.390625 22.1875 11.75 
Q 26.265625 6.109375 33.40625 6.109375 
Q 40.53125 6.109375 44.609375 11.75 
Q 48.6875 17.390625 48.6875 27.296875 
z
" id="DejaVuSans-112"/>
      <path id="DejaVuSans-32"/>
      <path d="M 45.40625 46.390625 
L 45.40625 75.984375 
L 54.390625 75.984375 
L 54.390625 0 
L 45.40625 0 
L 45.40625 8.203125 
Q 42.578125 3.328125 38.25 0.953125 
Q 33.9375 -1.421875 27.875 -1.421875 
Q 17.96875 -1.421875 11.734375 6.484375 
Q 5.515625 14.40625 5.515625 27.296875 
Q 5.515625 40.1875 11.734375 48.09375 
Q 17.96875 56 27.875 56 
Q 33.9375 56 38.25 53.625 
Q 42.578125 51.265625 45.40625 46.390625 
z
M 14.796875 27.296875 
Q 14.796875 17.390625 18.875 11.75 
Q 22.953125 6.109375 30.078125 6.109375 
Q 37.203125 6.109375 41.296875 11.75 
Q 45.40625 17.390625 45.40625 27.296875 
Q 45.40625 37.203125 41.296875 42.84375 
Q 37.203125 48.484375 30.078125 48.484375 
Q 22.953125 48.484375 18.875 42.84375 
Q 14.796875 37.203125 14.796875 27.296875 
z
" id="DejaVuSans-100"/>
      <path d="M 9.421875 75.984375 
L 18.40625 75.984375 
L 18.40625 0 
L 9.421875 0 
z
" id="DejaVuSans-108"/>
      <path d="M 30.609375 48.390625 
Q 23.390625 48.390625 19.1875 42.75 
Q 14.984375 37.109375 14.984375 27.296875 
Q 14.984375 17.484375 19.15625 11.84375 
Q 23.34375 6.203125 30.609375 6.203125 
Q 37.796875 6.203125 41.984375 11.859375 
Q 46.1875 17.53125 46.1875 27.296875 
Q 46.1875 37.015625 41.984375 42.703125 
Q 37.796875 48.390625 30.609375 48.390625 
z
M 30.609375 56 
Q 42.328125 56 49.015625 48.375 
Q 55.71875 40.765625 55.71875 27.296875 
Q 55.71875 13.875 49.015625 6.21875 
Q 42.328125 -1.421875 30.609375 -1.421875 
Q 18.84375 -1.421875 12.171875 6.21875 
Q 5.515625 13.875 5.515625 27.296875 
Q 5.515625 40.765625 12.171875 48.375 
Q 18.84375 56 30.609375 56 
z
" id="DejaVuSans-111"/>
      <path d="M 4.203125 54.6875 
L 13.1875 54.6875 
L 24.421875 12.015625 
L 35.59375 54.6875 
L 46.1875 54.6875 
L 57.421875 12.015625 
L 68.609375 54.6875 
L 77.59375 54.6875 
L 63.28125 0 
L 52.6875 0 
L 40.921875 44.828125 
L 29.109375 0 
L 18.5 0 
z
" id="DejaVuSans-119"/>
      <path d="M 48.6875 27.296875 
Q 48.6875 37.203125 44.609375 42.84375 
Q 40.53125 48.484375 33.40625 48.484375 
Q 26.265625 48.484375 22.1875 42.84375 
Q 18.109375 37.203125 18.109375 27.296875 
Q 18.109375 17.390625 22.1875 11.75 
Q 26.265625 6.109375 33.40625 6.109375 
Q 40.53125 6.109375 44.609375 11.75 
Q 48.6875 17.390625 48.6875 27.296875 
z
M 18.109375 46.390625 
Q 20.953125 51.265625 25.265625 53.625 
Q 29.59375 56 35.59375 56 
Q 45.5625 56 51.78125 48.09375 
Q 58.015625 40.1875 58.015625 27.296875 
Q 58.015625 14.40625 51.78125 6.484375 
Q 45.5625 -1.421875 35.59375 -1.421875 
Q 29.59375 -1.421875 25.265625 0.953125 
Q 20.953125 3.328125 18.109375 8.203125 
L 18.109375 0 
L 9.078125 0 
L 9.078125 75.984375 
L 18.109375 75.984375 
z
" id="DejaVuSans-98"/>
      <path d="M 8.5 21.578125 
L 8.5 54.6875 
L 17.484375 54.6875 
L 17.484375 21.921875 
Q 17.484375 14.15625 20.5 10.265625 
Q 23.53125 6.390625 29.59375 6.390625 
Q 36.859375 6.390625 41.078125 11.03125 
Q 45.3125 15.671875 45.3125 23.6875 
L 45.3125 54.6875 
L 54.296875 54.6875 
L 54.296875 0 
L 45.3125 0 
L 45.3125 8.40625 
Q 42.046875 3.421875 37.71875 1 
Q 33.40625 -1.421875 27.6875 -1.421875 
Q 18.265625 -1.421875 13.375 4.4375 
Q 8.5 10.296875 8.5 21.578125 
z
M 31.109375 56 
z
" id="DejaVuSans-117"/>
      <path d="M 44.28125 53.078125 
L 44.28125 44.578125 
Q 40.484375 46.53125 36.375 47.5 
Q 32.28125 48.484375 27.875 48.484375 
Q 21.1875 48.484375 17.84375 46.4375 
Q 14.5 44.390625 14.5 40.28125 
Q 14.5 37.15625 16.890625 35.375 
Q 19.28125 33.59375 26.515625 31.984375 
L 29.59375 31.296875 
Q 39.15625 29.25 43.1875 25.515625 
Q 47.21875 21.78125 47.21875 15.09375 
Q 47.21875 7.46875 41.1875 3.015625 
Q 35.15625 -1.421875 24.609375 -1.421875 
Q 20.21875 -1.421875 15.453125 -0.5625 
Q 10.6875 0.296875 5.421875 2 
L 5.421875 11.28125 
Q 10.40625 8.6875 15.234375 7.390625 
Q 20.0625 6.109375 24.8125 6.109375 
Q 31.15625 6.109375 34.5625 8.28125 
Q 37.984375 10.453125 37.984375 14.40625 
Q 37.984375 18.0625 35.515625 20.015625 
Q 33.0625 21.96875 24.703125 23.78125 
L 21.578125 24.515625 
Q 13.234375 26.265625 9.515625 29.90625 
Q 5.8125 33.546875 5.8125 39.890625 
Q 5.8125 47.609375 11.28125 51.796875 
Q 16.75 56 26.8125 56 
Q 31.78125 56 36.171875 55.265625 
Q 40.578125 54.546875 44.28125 53.078125 
z
" id="DejaVuSans-115"/>
     </defs>
     <use xlink:href="#DejaVuSans-85"/>
     <use x="73.193359" xlink:href="#DejaVuSans-112"/>
     <use x="136.669922" xlink:href="#DejaVuSans-112"/>
     <use x="200.146484" xlink:href="#DejaVuSans-101"/>
     <use x="261.669922" xlink:href="#DejaVuSans-114"/>
     <use x="302.783203" xlink:href="#DejaVuSans-32"/>
     <use x="334.570312" xlink:href="#DejaVuSans-97"/>
     <use x="395.849609" xlink:href="#DejaVuSans-110"/>
     <use x="459.228516" xlink:href="#DejaVuSans-100"/>
     <use x="522.705078" xlink:href="#DejaVuSans-32"/>
     <use x="554.492188" xlink:href="#DejaVuSans-108"/>
     <use x="582.275391" xlink:href="#DejaVuSans-111"/>
     <use x="643.457031" xlink:href="#DejaVuSans-119"/>
     <use x="725.244141" xlink:href="#DejaVuSans-101"/>
     <use x="786.767578" xlink:href="#DejaVuSans-114"/>
     <use x="827.880859" xlink:href="#DejaVuSans-32"/>
     <use x="859.667969" xlink:href="#DejaVuSans-98"/>
     <use x="923.144531" xlink:href="#DejaVuSans-111"/>
     <use x="984.326172" xlink:href="#DejaVuSans-117"/>
     <use x="1047.705078" xlink:href="#DejaVuSans-110"/>
     <use x="1111.083984" xlink:href="#DejaVuSans-100"/>
     <use x="1174.560547" xlink:href="#DejaVuSans-115"/>
    </g>
   </g>
   <g id="legend_1">
    <g id="patch_7">
     <path d="M 326.443438 93.506375 
L 407.72 93.506375 
Q 409.72 93.506375 409.72 91.506375 
L 409.72 48.472 
Q 409.72 46.472 407.72 46.472 
L 326.443438 46.472 
Q 324.443438 46.472 324.443438 48.472 
L 324.443438 91.506375 
Q 324.443438 93.506375 326.443438 93.506375 
z
" style="fill:#ffffff;opacity:0.8;stroke:#cccccc;stroke-linejoin:miter;"/>
    </g>
    <g id="line2d_19">
     <path d="M 328.443438 54.570438 
L 348.443438 54.570438 
" style="fill:none;stroke:#0000ff;stroke-linecap:square;stroke-width:1.5;"/>
    </g>
    <g id="line2d_20">
     <g>
      <use style="fill:#0000ff;stroke:#0000ff;" x="338.443438" xlink:href="#m28f70ed6b8" y="54.570438"/>
     </g>
    </g>
    <g id="text_18">
     <!-- empirical -->
     <g transform="translate(356.443438 58.070438)scale(0.1 -0.1)">
      <defs>
       <path d="M 9.421875 54.6875 
L 18.40625 54.6875 
L 18.40625 0 
L 9.421875 0 
z
M 9.421875 75.984375 
L 18.40625 75.984375 
L 18.40625 64.59375 
L 9.421875 64.59375 
z
" id="DejaVuSans-105"/>
       <path d="M 48.78125 52.59375 
L 48.78125 44.1875 
Q 44.96875 46.296875 41.140625 47.34375 
Q 37.3125 48.390625 33.40625 48.390625 
Q 24.65625 48.390625 19.8125 42.84375 
Q 14.984375 37.3125 14.984375 27.296875 
Q 14.984375 17.28125 19.8125 11.734375 
Q 24.65625 6.203125 33.40625 6.203125 
Q 37.3125 6.203125 41.140625 7.25 
Q 44.96875 8.296875 48.78125 10.40625 
L 48.78125 2.09375 
Q 45.015625 0.34375 40.984375 -0.53125 
Q 36.96875 -1.421875 32.421875 -1.421875 
Q 20.0625 -1.421875 12.78125 6.34375 
Q 5.515625 14.109375 5.515625 27.296875 
Q 5.515625 40.671875 12.859375 48.328125 
Q 20.21875 56 33.015625 56 
Q 37.15625 56 41.109375 55.140625 
Q 45.0625 54.296875 48.78125 52.59375 
z
" id="DejaVuSans-99"/>
      </defs>
      <use xlink:href="#DejaVuSans-101"/>
      <use x="61.523438" xlink:href="#DejaVuSans-109"/>
      <use x="158.935547" xlink:href="#DejaVuSans-112"/>
      <use x="222.412109" xlink:href="#DejaVuSans-105"/>
      <use x="250.195312" xlink:href="#DejaVuSans-114"/>
      <use x="291.308594" xlink:href="#DejaVuSans-105"/>
      <use x="319.091797" xlink:href="#DejaVuSans-99"/>
      <use x="374.072266" xlink:href="#DejaVuSans-97"/>
      <use x="435.351562" xlink:href="#DejaVuSans-108"/>
     </g>
    </g>
    <g id="line2d_21">
     <path d="M 328.443438 69.248563 
L 348.443438 69.248563 
" style="fill:none;stroke:#000000;stroke-linecap:square;stroke-width:1.5;"/>
    </g>
    <g id="line2d_22">
     <g>
      <use style="stroke:#000000;" x="338.443438" xlink:href="#m5d4fbc2069" y="69.248563"/>
     </g>
    </g>
    <g id="text_19">
     <!-- true -->
     <g transform="translate(356.443438 72.748563)scale(0.1 -0.1)">
      <defs>
       <path d="M 18.3125 70.21875 
L 18.3125 54.6875 
L 36.8125 54.6875 
L 36.8125 47.703125 
L 18.3125 47.703125 
L 18.3125 18.015625 
Q 18.3125 11.328125 20.140625 9.421875 
Q 21.96875 7.515625 27.59375 7.515625 
L 36.8125 7.515625 
L 36.8125 0 
L 27.59375 0 
Q 17.1875 0 13.234375 3.875 
Q 9.28125 7.765625 9.28125 18.015625 
L 9.28125 47.703125 
L 2.6875 47.703125 
L 2.6875 54.6875 
L 9.28125 54.6875 
L 9.28125 70.21875 
z
" id="DejaVuSans-116"/>
      </defs>
      <use xlink:href="#DejaVuSans-116"/>
      <use x="39.208984" xlink:href="#DejaVuSans-114"/>
      <use x="80.322266" xlink:href="#DejaVuSans-117"/>
      <use x="143.701172" xlink:href="#DejaVuSans-101"/>
     </g>
    </g>
    <g id="line2d_23">
     <path d="M 328.443438 83.926688 
L 348.443438 83.926688 
" style="fill:none;stroke:#1f77b4;stroke-width:1.5;"/>
    </g>
    <g id="text_20">
     <!-- Threshold -->
     <g transform="translate(356.443438 87.426688)scale(0.1 -0.1)">
      <defs>
       <path d="M -0.296875 72.90625 
L 61.375 72.90625 
L 61.375 64.59375 
L 35.5 64.59375 
L 35.5 0 
L 25.59375 0 
L 25.59375 64.59375 
L -0.296875 64.59375 
z
" id="DejaVuSans-84"/>
       <path d="M 54.890625 33.015625 
L 54.890625 0 
L 45.90625 0 
L 45.90625 32.71875 
Q 45.90625 40.484375 42.875 44.328125 
Q 39.84375 48.1875 33.796875 48.1875 
Q 26.515625 48.1875 22.3125 43.546875 
Q 18.109375 38.921875 18.109375 30.90625 
L 18.109375 0 
L 9.078125 0 
L 9.078125 75.984375 
L 18.109375 75.984375 
L 18.109375 46.1875 
Q 21.34375 51.125 25.703125 53.5625 
Q 30.078125 56 35.796875 56 
Q 45.21875 56 50.046875 50.171875 
Q 54.890625 44.34375 54.890625 33.015625 
z
" id="DejaVuSans-104"/>
      </defs>
      <use xlink:href="#DejaVuSans-84"/>
      <use x="61.083984" xlink:href="#DejaVuSans-104"/>
      <use x="124.462891" xlink:href="#DejaVuSans-114"/>
      <use x="163.326172" xlink:href="#DejaVuSans-101"/>
      <use x="224.849609" xlink:href="#DejaVuSans-115"/>
      <use x="276.949219" xlink:href="#DejaVuSans-104"/>
      <use x="340.328125" xlink:href="#DejaVuSans-111"/>
      <use x="401.509766" xlink:href="#DejaVuSans-108"/>
      <use x="429.292969" xlink:href="#DejaVuSans-100"/>
     </g>
    </g>
   </g>
  </g>
 </g>
 <defs>
  <clipPath id="p607cd796e8">
   <rect height="266.112" width="357.12" x="57.6" y="41.472"/>
  </clipPath>
 </defs>
</svg>
