<?xml version="1.0" encoding="utf-8" standalone="no"?>
<!DOCTYPE svg PUBLIC "-//W3C//DTD SVG 1.1//EN"
  "http://www.w3.org/Graphics/SVG/1.1/DTD/svg11.dtd">
<!-- Created with matplotlib (https://matplotlib.org/) -->
<svg height="345.6pt" version="1.1" viewBox="0 0 460.8 345.6" width="460.8pt" xmlns="http://www.w3.org/2000/svg" xmlns:xlink="http://www.w3.org/1999/xlink">
 <metadata>
  <rdf:RDF xmlns:cc="http://creativecommons.org/ns#" xmlns:dc="http://purl.org/dc/elements/1.1/" xmlns:rdf="http://www.w3.org/1999/02/22-rdf-syntax-ns#">
   <cc:Work>
    <dc:type rdf:resource="http://purl.org/dc/dcmitype/StillImage"/>
    <dc:date>2021-03-09T20:17:03.284404</dc:date>
    <dc:format>image/svg+xml</dc:format>
    <dc:creator>
     <cc:Agent>
      <dc:title>Matplotlib v3.3.3, https://matplotlib.org/</dc:title>
     </cc:Agent>
    </dc:creator>
   </cc:Work>
  </rdf:RDF>
 </metadata>
 <defs>
  <style type="text/css">*{stroke-linecap:butt;stroke-linejoin:round;}</style>
 </defs>
 <g id="figure_1">
  <g id="patch_1">
   <path d="M 0 345.6 
L 460.8 345.6 
L 460.8 0 
L 0 0 
z
" style="fill:#ffffff;"/>
  </g>
  <g id="axes_1">
   <g id="patch_2">
    <path d="M 57.6 307.584 
L 414.72 307.584 
L 414.72 41.472 
L 57.6 41.472 
z
" style="fill:#ffffff;"/>
   </g>
   <g id="matplotlib.axis_1">
    <g id="xtick_1">
     <g id="line2d_1">
      <defs>
       <path d="M 0 0 
L 0 3.5 
" id="m2b65779f99" style="stroke:#000000;stroke-width:0.8;"/>
      </defs>
      <g>
       <use style="stroke:#000000;stroke-width:0.8;" x="73.832727" xlink:href="#m2b65779f99" y="307.584"/>
      </g>
     </g>
     <g id="text_1">
      <!-- 0 -->
      <g transform="translate(70.651477 322.182437)scale(0.1 -0.1)">
       <defs>
        <path d="M 31.78125 66.40625 
Q 24.171875 66.40625 20.328125 58.90625 
Q 16.5 51.421875 16.5 36.375 
Q 16.5 21.390625 20.328125 13.890625 
Q 24.171875 6.390625 31.78125 6.390625 
Q 39.453125 6.390625 43.28125 13.890625 
Q 47.125 21.390625 47.125 36.375 
Q 47.125 51.421875 43.28125 58.90625 
Q 39.453125 66.40625 31.78125 66.40625 
z
M 31.78125 74.21875 
Q 44.046875 74.21875 50.515625 64.515625 
Q 56.984375 54.828125 56.984375 36.375 
Q 56.984375 17.96875 50.515625 8.265625 
Q 44.046875 -1.421875 31.78125 -1.421875 
Q 19.53125 -1.421875 13.0625 8.265625 
Q 6.59375 17.96875 6.59375 36.375 
Q 6.59375 54.828125 13.0625 64.515625 
Q 19.53125 74.21875 31.78125 74.21875 
z
" id="DejaVuSans-48"/>
       </defs>
       <use xlink:href="#DejaVuSans-48"/>
      </g>
     </g>
    </g>
    <g id="xtick_2">
     <g id="line2d_2">
      <g>
       <use style="stroke:#000000;stroke-width:0.8;" x="139.419504" xlink:href="#m2b65779f99" y="307.584"/>
      </g>
     </g>
     <g id="text_2">
      <!-- 20 -->
      <g transform="translate(133.057004 322.182437)scale(0.1 -0.1)">
       <defs>
        <path d="M 19.1875 8.296875 
L 53.609375 8.296875 
L 53.609375 0 
L 7.328125 0 
L 7.328125 8.296875 
Q 12.9375 14.109375 22.625 23.890625 
Q 32.328125 33.6875 34.8125 36.53125 
Q 39.546875 41.84375 41.421875 45.53125 
Q 43.3125 49.21875 43.3125 52.78125 
Q 43.3125 58.59375 39.234375 62.25 
Q 35.15625 65.921875 28.609375 65.921875 
Q 23.96875 65.921875 18.8125 64.3125 
Q 13.671875 62.703125 7.8125 59.421875 
L 7.8125 69.390625 
Q 13.765625 71.78125 18.9375 73 
Q 24.125 74.21875 28.421875 74.21875 
Q 39.75 74.21875 46.484375 68.546875 
Q 53.21875 62.890625 53.21875 53.421875 
Q 53.21875 48.921875 51.53125 44.890625 
Q 49.859375 40.875 45.40625 35.40625 
Q 44.1875 33.984375 37.640625 27.21875 
Q 31.109375 20.453125 19.1875 8.296875 
z
" id="DejaVuSans-50"/>
       </defs>
       <use xlink:href="#DejaVuSans-50"/>
       <use x="63.623047" xlink:href="#DejaVuSans-48"/>
      </g>
     </g>
    </g>
    <g id="xtick_3">
     <g id="line2d_3">
      <g>
       <use style="stroke:#000000;stroke-width:0.8;" x="205.006281" xlink:href="#m2b65779f99" y="307.584"/>
      </g>
     </g>
     <g id="text_3">
      <!-- 40 -->
      <g transform="translate(198.643781 322.182437)scale(0.1 -0.1)">
       <defs>
        <path d="M 37.796875 64.3125 
L 12.890625 25.390625 
L 37.796875 25.390625 
z
M 35.203125 72.90625 
L 47.609375 72.90625 
L 47.609375 25.390625 
L 58.015625 25.390625 
L 58.015625 17.1875 
L 47.609375 17.1875 
L 47.609375 0 
L 37.796875 0 
L 37.796875 17.1875 
L 4.890625 17.1875 
L 4.890625 26.703125 
z
" id="DejaVuSans-52"/>
       </defs>
       <use xlink:href="#DejaVuSans-52"/>
       <use x="63.623047" xlink:href="#DejaVuSans-48"/>
      </g>
     </g>
    </g>
    <g id="xtick_4">
     <g id="line2d_4">
      <g>
       <use style="stroke:#000000;stroke-width:0.8;" x="270.593058" xlink:href="#m2b65779f99" y="307.584"/>
      </g>
     </g>
     <g id="text_4">
      <!-- 60 -->
      <g transform="translate(264.230558 322.182437)scale(0.1 -0.1)">
       <defs>
        <path d="M 33.015625 40.375 
Q 26.375 40.375 22.484375 35.828125 
Q 18.609375 31.296875 18.609375 23.390625 
Q 18.609375 15.53125 22.484375 10.953125 
Q 26.375 6.390625 33.015625 6.390625 
Q 39.65625 6.390625 43.53125 10.953125 
Q 47.40625 15.53125 47.40625 23.390625 
Q 47.40625 31.296875 43.53125 35.828125 
Q 39.65625 40.375 33.015625 40.375 
z
M 52.59375 71.296875 
L 52.59375 62.3125 
Q 48.875 64.0625 45.09375 64.984375 
Q 41.3125 65.921875 37.59375 65.921875 
Q 27.828125 65.921875 22.671875 59.328125 
Q 17.53125 52.734375 16.796875 39.40625 
Q 19.671875 43.65625 24.015625 45.921875 
Q 28.375 48.1875 33.59375 48.1875 
Q 44.578125 48.1875 50.953125 41.515625 
Q 57.328125 34.859375 57.328125 23.390625 
Q 57.328125 12.15625 50.6875 5.359375 
Q 44.046875 -1.421875 33.015625 -1.421875 
Q 20.359375 -1.421875 13.671875 8.265625 
Q 6.984375 17.96875 6.984375 36.375 
Q 6.984375 53.65625 15.1875 63.9375 
Q 23.390625 74.21875 37.203125 74.21875 
Q 40.921875 74.21875 44.703125 73.484375 
Q 48.484375 72.75 52.59375 71.296875 
z
" id="DejaVuSans-54"/>
       </defs>
       <use xlink:href="#DejaVuSans-54"/>
       <use x="63.623047" xlink:href="#DejaVuSans-48"/>
      </g>
     </g>
    </g>
    <g id="xtick_5">
     <g id="line2d_5">
      <g>
       <use style="stroke:#000000;stroke-width:0.8;" x="336.179835" xlink:href="#m2b65779f99" y="307.584"/>
      </g>
     </g>
     <g id="text_5">
      <!-- 80 -->
      <g transform="translate(329.817335 322.182437)scale(0.1 -0.1)">
       <defs>
        <path d="M 31.78125 34.625 
Q 24.75 34.625 20.71875 30.859375 
Q 16.703125 27.09375 16.703125 20.515625 
Q 16.703125 13.921875 20.71875 10.15625 
Q 24.75 6.390625 31.78125 6.390625 
Q 38.8125 6.390625 42.859375 10.171875 
Q 46.921875 13.96875 46.921875 20.515625 
Q 46.921875 27.09375 42.890625 30.859375 
Q 38.875 34.625 31.78125 34.625 
z
M 21.921875 38.8125 
Q 15.578125 40.375 12.03125 44.71875 
Q 8.5 49.078125 8.5 55.328125 
Q 8.5 64.0625 14.71875 69.140625 
Q 20.953125 74.21875 31.78125 74.21875 
Q 42.671875 74.21875 48.875 69.140625 
Q 55.078125 64.0625 55.078125 55.328125 
Q 55.078125 49.078125 51.53125 44.71875 
Q 48 40.375 41.703125 38.8125 
Q 48.828125 37.15625 52.796875 32.3125 
Q 56.78125 27.484375 56.78125 20.515625 
Q 56.78125 9.90625 50.3125 4.234375 
Q 43.84375 -1.421875 31.78125 -1.421875 
Q 19.734375 -1.421875 13.25 4.234375 
Q 6.78125 9.90625 6.78125 20.515625 
Q 6.78125 27.484375 10.78125 32.3125 
Q 14.796875 37.15625 21.921875 38.8125 
z
M 18.3125 54.390625 
Q 18.3125 48.734375 21.84375 45.5625 
Q 25.390625 42.390625 31.78125 42.390625 
Q 38.140625 42.390625 41.71875 45.5625 
Q 45.3125 48.734375 45.3125 54.390625 
Q 45.3125 60.0625 41.71875 63.234375 
Q 38.140625 66.40625 31.78125 66.40625 
Q 25.390625 66.40625 21.84375 63.234375 
Q 18.3125 60.0625 18.3125 54.390625 
z
" id="DejaVuSans-56"/>
       </defs>
       <use xlink:href="#DejaVuSans-56"/>
       <use x="63.623047" xlink:href="#DejaVuSans-48"/>
      </g>
     </g>
    </g>
    <g id="xtick_6">
     <g id="line2d_6">
      <g>
       <use style="stroke:#000000;stroke-width:0.8;" x="401.766612" xlink:href="#m2b65779f99" y="307.584"/>
      </g>
     </g>
     <g id="text_6">
      <!-- 100 -->
      <g transform="translate(392.222862 322.182437)scale(0.1 -0.1)">
       <defs>
        <path d="M 12.40625 8.296875 
L 28.515625 8.296875 
L 28.515625 63.921875 
L 10.984375 60.40625 
L 10.984375 69.390625 
L 28.421875 72.90625 
L 38.28125 72.90625 
L 38.28125 8.296875 
L 54.390625 8.296875 
L 54.390625 0 
L 12.40625 0 
z
" id="DejaVuSans-49"/>
       </defs>
       <use xlink:href="#DejaVuSans-49"/>
       <use x="63.623047" xlink:href="#DejaVuSans-48"/>
       <use x="127.246094" xlink:href="#DejaVuSans-48"/>
      </g>
     </g>
    </g>
    <g id="text_7">
     <!-- Arm -->
     <g transform="translate(225.901406 335.860562)scale(0.1 -0.1)">
      <defs>
       <path d="M 34.1875 63.1875 
L 20.796875 26.90625 
L 47.609375 26.90625 
z
M 28.609375 72.90625 
L 39.796875 72.90625 
L 67.578125 0 
L 57.328125 0 
L 50.6875 18.703125 
L 17.828125 18.703125 
L 11.1875 0 
L 0.78125 0 
z
" id="DejaVuSans-65"/>
       <path d="M 41.109375 46.296875 
Q 39.59375 47.171875 37.8125 47.578125 
Q 36.03125 48 33.890625 48 
Q 26.265625 48 22.1875 43.046875 
Q 18.109375 38.09375 18.109375 28.8125 
L 18.109375 0 
L 9.078125 0 
L 9.078125 54.6875 
L 18.109375 54.6875 
L 18.109375 46.1875 
Q 20.953125 51.171875 25.484375 53.578125 
Q 30.03125 56 36.53125 56 
Q 37.453125 56 38.578125 55.875 
Q 39.703125 55.765625 41.0625 55.515625 
z
" id="DejaVuSans-114"/>
       <path d="M 52 44.1875 
Q 55.375 50.25 60.0625 53.125 
Q 64.75 56 71.09375 56 
Q 79.640625 56 84.28125 50.015625 
Q 88.921875 44.046875 88.921875 33.015625 
L 88.921875 0 
L 79.890625 0 
L 79.890625 32.71875 
Q 79.890625 40.578125 77.09375 44.375 
Q 74.3125 48.1875 68.609375 48.1875 
Q 61.625 48.1875 57.5625 43.546875 
Q 53.515625 38.921875 53.515625 30.90625 
L 53.515625 0 
L 44.484375 0 
L 44.484375 32.71875 
Q 44.484375 40.625 41.703125 44.40625 
Q 38.921875 48.1875 33.109375 48.1875 
Q 26.21875 48.1875 22.15625 43.53125 
Q 18.109375 38.875 18.109375 30.90625 
L 18.109375 0 
L 9.078125 0 
L 9.078125 54.6875 
L 18.109375 54.6875 
L 18.109375 46.1875 
Q 21.1875 51.21875 25.484375 53.609375 
Q 29.78125 56 35.6875 56 
Q 41.65625 56 45.828125 52.96875 
Q 50 49.953125 52 44.1875 
z
" id="DejaVuSans-109"/>
      </defs>
      <use xlink:href="#DejaVuSans-65"/>
      <use x="68.408203" xlink:href="#DejaVuSans-114"/>
      <use x="107.771484" xlink:href="#DejaVuSans-109"/>
     </g>
    </g>
   </g>
   <g id="matplotlib.axis_2">
    <g id="ytick_1">
     <g id="line2d_7">
      <defs>
       <path d="M 0 0 
L -3.5 0 
" id="mb77725926f" style="stroke:#000000;stroke-width:0.8;"/>
      </defs>
      <g>
       <use style="stroke:#000000;stroke-width:0.8;" x="57.6" xlink:href="#mb77725926f" y="307.584"/>
      </g>
     </g>
     <g id="text_8">
      <!-- 0.0 -->
      <g transform="translate(34.696875 311.383219)scale(0.1 -0.1)">
       <defs>
        <path d="M 10.6875 12.40625 
L 21 12.40625 
L 21 0 
L 10.6875 0 
z
" id="DejaVuSans-46"/>
       </defs>
       <use xlink:href="#DejaVuSans-48"/>
       <use x="63.623047" xlink:href="#DejaVuSans-46"/>
       <use x="95.410156" xlink:href="#DejaVuSans-48"/>
      </g>
     </g>
    </g>
    <g id="ytick_2">
     <g id="line2d_8">
      <g>
       <use style="stroke:#000000;stroke-width:0.8;" x="57.6" xlink:href="#mb77725926f" y="272.1024"/>
      </g>
     </g>
     <g id="text_9">
      <!-- 0.2 -->
      <g transform="translate(34.696875 275.901619)scale(0.1 -0.1)">
       <use xlink:href="#DejaVuSans-48"/>
       <use x="63.623047" xlink:href="#DejaVuSans-46"/>
       <use x="95.410156" xlink:href="#DejaVuSans-50"/>
      </g>
     </g>
    </g>
    <g id="ytick_3">
     <g id="line2d_9">
      <g>
       <use style="stroke:#000000;stroke-width:0.8;" x="57.6" xlink:href="#mb77725926f" y="236.6208"/>
      </g>
     </g>
     <g id="text_10">
      <!-- 0.4 -->
      <g transform="translate(34.696875 240.420019)scale(0.1 -0.1)">
       <use xlink:href="#DejaVuSans-48"/>
       <use x="63.623047" xlink:href="#DejaVuSans-46"/>
       <use x="95.410156" xlink:href="#DejaVuSans-52"/>
      </g>
     </g>
    </g>
    <g id="ytick_4">
     <g id="line2d_10">
      <g>
       <use style="stroke:#000000;stroke-width:0.8;" x="57.6" xlink:href="#mb77725926f" y="201.1392"/>
      </g>
     </g>
     <g id="text_11">
      <!-- 0.6 -->
      <g transform="translate(34.696875 204.938419)scale(0.1 -0.1)">
       <use xlink:href="#DejaVuSans-48"/>
       <use x="63.623047" xlink:href="#DejaVuSans-46"/>
       <use x="95.410156" xlink:href="#DejaVuSans-54"/>
      </g>
     </g>
    </g>
    <g id="ytick_5">
     <g id="line2d_11">
      <g>
       <use style="stroke:#000000;stroke-width:0.8;" x="57.6" xlink:href="#mb77725926f" y="165.6576"/>
      </g>
     </g>
     <g id="text_12">
      <!-- 0.8 -->
      <g transform="translate(34.696875 169.456819)scale(0.1 -0.1)">
       <use xlink:href="#DejaVuSans-48"/>
       <use x="63.623047" xlink:href="#DejaVuSans-46"/>
       <use x="95.410156" xlink:href="#DejaVuSans-56"/>
      </g>
     </g>
    </g>
    <g id="ytick_6">
     <g id="line2d_12">
      <g>
       <use style="stroke:#000000;stroke-width:0.8;" x="57.6" xlink:href="#mb77725926f" y="130.176"/>
      </g>
     </g>
     <g id="text_13">
      <!-- 1.0 -->
      <g transform="translate(34.696875 133.975219)scale(0.1 -0.1)">
       <use xlink:href="#DejaVuSans-49"/>
       <use x="63.623047" xlink:href="#DejaVuSans-46"/>
       <use x="95.410156" xlink:href="#DejaVuSans-48"/>
      </g>
     </g>
    </g>
    <g id="ytick_7">
     <g id="line2d_13">
      <g>
       <use style="stroke:#000000;stroke-width:0.8;" x="57.6" xlink:href="#mb77725926f" y="94.6944"/>
      </g>
     </g>
     <g id="text_14">
      <!-- 1.2 -->
      <g transform="translate(34.696875 98.493619)scale(0.1 -0.1)">
       <use xlink:href="#DejaVuSans-49"/>
       <use x="63.623047" xlink:href="#DejaVuSans-46"/>
       <use x="95.410156" xlink:href="#DejaVuSans-50"/>
      </g>
     </g>
    </g>
    <g id="ytick_8">
     <g id="line2d_14">
      <g>
       <use style="stroke:#000000;stroke-width:0.8;" x="57.6" xlink:href="#mb77725926f" y="59.2128"/>
      </g>
     </g>
     <g id="text_15">
      <!-- 1.4 -->
      <g transform="translate(34.696875 63.012019)scale(0.1 -0.1)">
       <use xlink:href="#DejaVuSans-49"/>
       <use x="63.623047" xlink:href="#DejaVuSans-46"/>
       <use x="95.410156" xlink:href="#DejaVuSans-52"/>
      </g>
     </g>
    </g>
    <g id="text_16">
     <!-- Mean -->
     <g transform="translate(28.617188 188.151437)rotate(-90)scale(0.1 -0.1)">
      <defs>
       <path d="M 9.8125 72.90625 
L 24.515625 72.90625 
L 43.109375 23.296875 
L 61.8125 72.90625 
L 76.515625 72.90625 
L 76.515625 0 
L 66.890625 0 
L 66.890625 64.015625 
L 48.09375 14.015625 
L 38.1875 14.015625 
L 19.390625 64.015625 
L 19.390625 0 
L 9.8125 0 
z
" id="DejaVuSans-77"/>
       <path d="M 56.203125 29.59375 
L 56.203125 25.203125 
L 14.890625 25.203125 
Q 15.484375 15.921875 20.484375 11.0625 
Q 25.484375 6.203125 34.421875 6.203125 
Q 39.59375 6.203125 44.453125 7.46875 
Q 49.3125 8.734375 54.109375 11.28125 
L 54.109375 2.78125 
Q 49.265625 0.734375 44.1875 -0.34375 
Q 39.109375 -1.421875 33.890625 -1.421875 
Q 20.796875 -1.421875 13.15625 6.1875 
Q 5.515625 13.8125 5.515625 26.8125 
Q 5.515625 40.234375 12.765625 48.109375 
Q 20.015625 56 32.328125 56 
Q 43.359375 56 49.78125 48.890625 
Q 56.203125 41.796875 56.203125 29.59375 
z
M 47.21875 32.234375 
Q 47.125 39.59375 43.09375 43.984375 
Q 39.0625 48.390625 32.421875 48.390625 
Q 24.90625 48.390625 20.390625 44.140625 
Q 15.875 39.890625 15.1875 32.171875 
z
" id="DejaVuSans-101"/>
       <path d="M 34.28125 27.484375 
Q 23.390625 27.484375 19.1875 25 
Q 14.984375 22.515625 14.984375 16.5 
Q 14.984375 11.71875 18.140625 8.90625 
Q 21.296875 6.109375 26.703125 6.109375 
Q 34.1875 6.109375 38.703125 11.40625 
Q 43.21875 16.703125 43.21875 25.484375 
L 43.21875 27.484375 
z
M 52.203125 31.203125 
L 52.203125 0 
L 43.21875 0 
L 43.21875 8.296875 
Q 40.140625 3.328125 35.546875 0.953125 
Q 30.953125 -1.421875 24.3125 -1.421875 
Q 15.921875 -1.421875 10.953125 3.296875 
Q 6 8.015625 6 15.921875 
Q 6 25.140625 12.171875 29.828125 
Q 18.359375 34.515625 30.609375 34.515625 
L 43.21875 34.515625 
L 43.21875 35.40625 
Q 43.21875 41.609375 39.140625 45 
Q 35.0625 48.390625 27.6875 48.390625 
Q 23 48.390625 18.546875 47.265625 
Q 14.109375 46.140625 10.015625 43.890625 
L 10.015625 52.203125 
Q 14.9375 54.109375 19.578125 55.046875 
Q 24.21875 56 28.609375 56 
Q 40.484375 56 46.34375 49.84375 
Q 52.203125 43.703125 52.203125 31.203125 
z
" id="DejaVuSans-97"/>
       <path d="M 54.890625 33.015625 
L 54.890625 0 
L 45.90625 0 
L 45.90625 32.71875 
Q 45.90625 40.484375 42.875 44.328125 
Q 39.84375 48.1875 33.796875 48.1875 
Q 26.515625 48.1875 22.3125 43.546875 
Q 18.109375 38.921875 18.109375 30.90625 
L 18.109375 0 
L 9.078125 0 
L 9.078125 54.6875 
L 18.109375 54.6875 
L 18.109375 46.1875 
Q 21.34375 51.125 25.703125 53.5625 
Q 30.078125 56 35.796875 56 
Q 45.21875 56 50.046875 50.171875 
Q 54.890625 44.34375 54.890625 33.015625 
z
" id="DejaVuSans-110"/>
      </defs>
      <use xlink:href="#DejaVuSans-77"/>
      <use x="86.279297" xlink:href="#DejaVuSans-101"/>
      <use x="147.802734" xlink:href="#DejaVuSans-97"/>
      <use x="209.082031" xlink:href="#DejaVuSans-110"/>
     </g>
    </g>
   </g>
   <g id="LineCollection_1">
    <path clip-path="url(#p0f8e2d7d1e)" d="M 73.832727 258.918914 
L 398.487273 258.918914 
" style="fill:none;stroke:#1f77b4;stroke-width:1.5;"/>
   </g>
   <g id="line2d_15">
    <path clip-path="url(#p0f8e2d7d1e)" d="M 73.832727 130.544008 
L 77.112066 132.437065 
L 80.391405 130.37682 
L 83.670744 129.494048 
L 86.950083 130.781771 
L 90.229421 133.845912 
L 93.50876 127.707698 
L 96.788099 131.060951 
L 100.067438 130.179803 
L 103.346777 132.016159 
L 106.626116 128.631515 
L 109.905455 129.316375 
L 113.184793 128.321831 
L 116.464132 129.4079 
L 119.743471 133.533741 
L 123.02281 130.774631 
L 126.302149 133.592921 
L 129.581488 130.010754 
L 132.860826 129.538722 
L 136.140165 130.327021 
L 139.419504 131.411552 
L 142.698843 128.503635 
L 145.978182 134.463136 
L 149.257521 131.228624 
L 152.53686 132.318398 
L 155.816198 129.782747 
L 159.095537 128.780184 
L 162.374876 129.389745 
L 165.654215 132.658567 
L 168.933554 129.805057 
L 172.212893 129.855051 
L 175.492231 131.63463 
L 178.77157 130.437319 
L 182.050909 130.225139 
L 185.330248 132.398462 
L 188.609587 129.976036 
L 191.888926 130.491533 
L 195.168264 128.699578 
L 198.447603 130.597963 
L 201.726942 131.89622 
L 205.006281 131.289159 
L 208.28562 131.354807 
L 211.564959 130.51153 
L 214.844298 130.298293 
L 218.123636 127.451834 
L 221.402975 131.410405 
L 224.682314 133.647374 
L 227.961653 128.075501 
L 231.240992 131.328749 
L 234.520331 134.743515 
L 237.799669 128.593287 
L 241.079008 132.713393 
L 244.358347 129.745763 
L 247.637686 132.669649 
L 250.917025 130.355987 
L 254.196364 129.817932 
L 257.475702 129.611071 
L 260.755041 131.874951 
L 264.03438 132.739506 
L 267.313719 129.781605 
L 270.593058 130.118108 
L 273.872397 129.536069 
L 277.151736 131.470194 
L 280.431074 129.118611 
L 283.710413 131.786737 
L 286.989752 130.12507 
L 290.269091 133.421435 
L 293.54843 131.563596 
L 296.827769 131.978119 
L 300.107107 132.165666 
L 303.386446 128.728904 
L 306.665785 129.880813 
L 309.945124 128.146823 
L 313.224463 132.989031 
L 316.503802 128.273102 
L 319.78314 131.109677 
L 323.062479 127.955078 
L 326.341818 131.59181 
L 329.621157 129.628047 
L 332.900496 130.779273 
L 336.179835 131.696158 
L 339.459174 133.275445 
L 342.738512 128.079289 
L 346.017851 130.834962 
L 349.29719 131.040208 
L 352.576529 129.527863 
L 355.855868 129.41346 
L 359.135207 129.75036 
L 362.414545 135.579112 
L 365.693884 129.408537 
L 368.973223 132.994652 
L 372.252562 128.535439 
L 375.531901 131.511975 
L 378.81124 129.616523 
L 382.090579 129.016006 
L 385.369917 129.303933 
L 388.649256 132.188764 
L 391.928595 128.67539 
L 395.207934 236.763244 
L 398.487273 275.62625 
" style="fill:none;stroke:#0000ff;stroke-linecap:square;stroke-width:1.5;"/>
    <defs>
     <path d="M 0 3 
C 0.795609 3 1.55874 2.683901 2.12132 2.12132 
C 2.683901 1.55874 3 0.795609 3 0 
C 3 -0.795609 2.683901 -1.55874 2.12132 -2.12132 
C 1.55874 -2.683901 0.795609 -3 0 -3 
C -0.795609 -3 -1.55874 -2.683901 -2.12132 -2.12132 
C -2.683901 -1.55874 -3 -0.795609 -3 0 
C -3 0.795609 -2.683901 1.55874 -2.12132 2.12132 
C -1.55874 2.683901 -0.795609 3 0 3 
z
" id="m60aec2d95b" style="stroke:#0000ff;"/>
    </defs>
    <g clip-path="url(#p0f8e2d7d1e)">
     <use style="fill:#0000ff;stroke:#0000ff;" x="73.832727" xlink:href="#m60aec2d95b" y="130.544008"/>
     <use style="fill:#0000ff;stroke:#0000ff;" x="77.112066" xlink:href="#m60aec2d95b" y="132.437065"/>
     <use style="fill:#0000ff;stroke:#0000ff;" x="80.391405" xlink:href="#m60aec2d95b" y="130.37682"/>
     <use style="fill:#0000ff;stroke:#0000ff;" x="83.670744" xlink:href="#m60aec2d95b" y="129.494048"/>
     <use style="fill:#0000ff;stroke:#0000ff;" x="86.950083" xlink:href="#m60aec2d95b" y="130.781771"/>
     <use style="fill:#0000ff;stroke:#0000ff;" x="90.229421" xlink:href="#m60aec2d95b" y="133.845912"/>
     <use style="fill:#0000ff;stroke:#0000ff;" x="93.50876" xlink:href="#m60aec2d95b" y="127.707698"/>
     <use style="fill:#0000ff;stroke:#0000ff;" x="96.788099" xlink:href="#m60aec2d95b" y="131.060951"/>
     <use style="fill:#0000ff;stroke:#0000ff;" x="100.067438" xlink:href="#m60aec2d95b" y="130.179803"/>
     <use style="fill:#0000ff;stroke:#0000ff;" x="103.346777" xlink:href="#m60aec2d95b" y="132.016159"/>
     <use style="fill:#0000ff;stroke:#0000ff;" x="106.626116" xlink:href="#m60aec2d95b" y="128.631515"/>
     <use style="fill:#0000ff;stroke:#0000ff;" x="109.905455" xlink:href="#m60aec2d95b" y="129.316375"/>
     <use style="fill:#0000ff;stroke:#0000ff;" x="113.184793" xlink:href="#m60aec2d95b" y="128.321831"/>
     <use style="fill:#0000ff;stroke:#0000ff;" x="116.464132" xlink:href="#m60aec2d95b" y="129.4079"/>
     <use style="fill:#0000ff;stroke:#0000ff;" x="119.743471" xlink:href="#m60aec2d95b" y="133.533741"/>
     <use style="fill:#0000ff;stroke:#0000ff;" x="123.02281" xlink:href="#m60aec2d95b" y="130.774631"/>
     <use style="fill:#0000ff;stroke:#0000ff;" x="126.302149" xlink:href="#m60aec2d95b" y="133.592921"/>
     <use style="fill:#0000ff;stroke:#0000ff;" x="129.581488" xlink:href="#m60aec2d95b" y="130.010754"/>
     <use style="fill:#0000ff;stroke:#0000ff;" x="132.860826" xlink:href="#m60aec2d95b" y="129.538722"/>
     <use style="fill:#0000ff;stroke:#0000ff;" x="136.140165" xlink:href="#m60aec2d95b" y="130.327021"/>
     <use style="fill:#0000ff;stroke:#0000ff;" x="139.419504" xlink:href="#m60aec2d95b" y="131.411552"/>
     <use style="fill:#0000ff;stroke:#0000ff;" x="142.698843" xlink:href="#m60aec2d95b" y="128.503635"/>
     <use style="fill:#0000ff;stroke:#0000ff;" x="145.978182" xlink:href="#m60aec2d95b" y="134.463136"/>
     <use style="fill:#0000ff;stroke:#0000ff;" x="149.257521" xlink:href="#m60aec2d95b" y="131.228624"/>
     <use style="fill:#0000ff;stroke:#0000ff;" x="152.53686" xlink:href="#m60aec2d95b" y="132.318398"/>
     <use style="fill:#0000ff;stroke:#0000ff;" x="155.816198" xlink:href="#m60aec2d95b" y="129.782747"/>
     <use style="fill:#0000ff;stroke:#0000ff;" x="159.095537" xlink:href="#m60aec2d95b" y="128.780184"/>
     <use style="fill:#0000ff;stroke:#0000ff;" x="162.374876" xlink:href="#m60aec2d95b" y="129.389745"/>
     <use style="fill:#0000ff;stroke:#0000ff;" x="165.654215" xlink:href="#m60aec2d95b" y="132.658567"/>
     <use style="fill:#0000ff;stroke:#0000ff;" x="168.933554" xlink:href="#m60aec2d95b" y="129.805057"/>
     <use style="fill:#0000ff;stroke:#0000ff;" x="172.212893" xlink:href="#m60aec2d95b" y="129.855051"/>
     <use style="fill:#0000ff;stroke:#0000ff;" x="175.492231" xlink:href="#m60aec2d95b" y="131.63463"/>
     <use style="fill:#0000ff;stroke:#0000ff;" x="178.77157" xlink:href="#m60aec2d95b" y="130.437319"/>
     <use style="fill:#0000ff;stroke:#0000ff;" x="182.050909" xlink:href="#m60aec2d95b" y="130.225139"/>
     <use style="fill:#0000ff;stroke:#0000ff;" x="185.330248" xlink:href="#m60aec2d95b" y="132.398462"/>
     <use style="fill:#0000ff;stroke:#0000ff;" x="188.609587" xlink:href="#m60aec2d95b" y="129.976036"/>
     <use style="fill:#0000ff;stroke:#0000ff;" x="191.888926" xlink:href="#m60aec2d95b" y="130.491533"/>
     <use style="fill:#0000ff;stroke:#0000ff;" x="195.168264" xlink:href="#m60aec2d95b" y="128.699578"/>
     <use style="fill:#0000ff;stroke:#0000ff;" x="198.447603" xlink:href="#m60aec2d95b" y="130.597963"/>
     <use style="fill:#0000ff;stroke:#0000ff;" x="201.726942" xlink:href="#m60aec2d95b" y="131.89622"/>
     <use style="fill:#0000ff;stroke:#0000ff;" x="205.006281" xlink:href="#m60aec2d95b" y="131.289159"/>
     <use style="fill:#0000ff;stroke:#0000ff;" x="208.28562" xlink:href="#m60aec2d95b" y="131.354807"/>
     <use style="fill:#0000ff;stroke:#0000ff;" x="211.564959" xlink:href="#m60aec2d95b" y="130.51153"/>
     <use style="fill:#0000ff;stroke:#0000ff;" x="214.844298" xlink:href="#m60aec2d95b" y="130.298293"/>
     <use style="fill:#0000ff;stroke:#0000ff;" x="218.123636" xlink:href="#m60aec2d95b" y="127.451834"/>
     <use style="fill:#0000ff;stroke:#0000ff;" x="221.402975" xlink:href="#m60aec2d95b" y="131.410405"/>
     <use style="fill:#0000ff;stroke:#0000ff;" x="224.682314" xlink:href="#m60aec2d95b" y="133.647374"/>
     <use style="fill:#0000ff;stroke:#0000ff;" x="227.961653" xlink:href="#m60aec2d95b" y="128.075501"/>
     <use style="fill:#0000ff;stroke:#0000ff;" x="231.240992" xlink:href="#m60aec2d95b" y="131.328749"/>
     <use style="fill:#0000ff;stroke:#0000ff;" x="234.520331" xlink:href="#m60aec2d95b" y="134.743515"/>
     <use style="fill:#0000ff;stroke:#0000ff;" x="237.799669" xlink:href="#m60aec2d95b" y="128.593287"/>
     <use style="fill:#0000ff;stroke:#0000ff;" x="241.079008" xlink:href="#m60aec2d95b" y="132.713393"/>
     <use style="fill:#0000ff;stroke:#0000ff;" x="244.358347" xlink:href="#m60aec2d95b" y="129.745763"/>
     <use style="fill:#0000ff;stroke:#0000ff;" x="247.637686" xlink:href="#m60aec2d95b" y="132.669649"/>
     <use style="fill:#0000ff;stroke:#0000ff;" x="250.917025" xlink:href="#m60aec2d95b" y="130.355987"/>
     <use style="fill:#0000ff;stroke:#0000ff;" x="254.196364" xlink:href="#m60aec2d95b" y="129.817932"/>
     <use style="fill:#0000ff;stroke:#0000ff;" x="257.475702" xlink:href="#m60aec2d95b" y="129.611071"/>
     <use style="fill:#0000ff;stroke:#0000ff;" x="260.755041" xlink:href="#m60aec2d95b" y="131.874951"/>
     <use style="fill:#0000ff;stroke:#0000ff;" x="264.03438" xlink:href="#m60aec2d95b" y="132.739506"/>
     <use style="fill:#0000ff;stroke:#0000ff;" x="267.313719" xlink:href="#m60aec2d95b" y="129.781605"/>
     <use style="fill:#0000ff;stroke:#0000ff;" x="270.593058" xlink:href="#m60aec2d95b" y="130.118108"/>
     <use style="fill:#0000ff;stroke:#0000ff;" x="273.872397" xlink:href="#m60aec2d95b" y="129.536069"/>
     <use style="fill:#0000ff;stroke:#0000ff;" x="277.151736" xlink:href="#m60aec2d95b" y="131.470194"/>
     <use style="fill:#0000ff;stroke:#0000ff;" x="280.431074" xlink:href="#m60aec2d95b" y="129.118611"/>
     <use style="fill:#0000ff;stroke:#0000ff;" x="283.710413" xlink:href="#m60aec2d95b" y="131.786737"/>
     <use style="fill:#0000ff;stroke:#0000ff;" x="286.989752" xlink:href="#m60aec2d95b" y="130.12507"/>
     <use style="fill:#0000ff;stroke:#0000ff;" x="290.269091" xlink:href="#m60aec2d95b" y="133.421435"/>
     <use style="fill:#0000ff;stroke:#0000ff;" x="293.54843" xlink:href="#m60aec2d95b" y="131.563596"/>
     <use style="fill:#0000ff;stroke:#0000ff;" x="296.827769" xlink:href="#m60aec2d95b" y="131.978119"/>
     <use style="fill:#0000ff;stroke:#0000ff;" x="300.107107" xlink:href="#m60aec2d95b" y="132.165666"/>
     <use style="fill:#0000ff;stroke:#0000ff;" x="303.386446" xlink:href="#m60aec2d95b" y="128.728904"/>
     <use style="fill:#0000ff;stroke:#0000ff;" x="306.665785" xlink:href="#m60aec2d95b" y="129.880813"/>
     <use style="fill:#0000ff;stroke:#0000ff;" x="309.945124" xlink:href="#m60aec2d95b" y="128.146823"/>
     <use style="fill:#0000ff;stroke:#0000ff;" x="313.224463" xlink:href="#m60aec2d95b" y="132.989031"/>
     <use style="fill:#0000ff;stroke:#0000ff;" x="316.503802" xlink:href="#m60aec2d95b" y="128.273102"/>
     <use style="fill:#0000ff;stroke:#0000ff;" x="319.78314" xlink:href="#m60aec2d95b" y="131.109677"/>
     <use style="fill:#0000ff;stroke:#0000ff;" x="323.062479" xlink:href="#m60aec2d95b" y="127.955078"/>
     <use style="fill:#0000ff;stroke:#0000ff;" x="326.341818" xlink:href="#m60aec2d95b" y="131.59181"/>
     <use style="fill:#0000ff;stroke:#0000ff;" x="329.621157" xlink:href="#m60aec2d95b" y="129.628047"/>
     <use style="fill:#0000ff;stroke:#0000ff;" x="332.900496" xlink:href="#m60aec2d95b" y="130.779273"/>
     <use style="fill:#0000ff;stroke:#0000ff;" x="336.179835" xlink:href="#m60aec2d95b" y="131.696158"/>
     <use style="fill:#0000ff;stroke:#0000ff;" x="339.459174" xlink:href="#m60aec2d95b" y="133.275445"/>
     <use style="fill:#0000ff;stroke:#0000ff;" x="342.738512" xlink:href="#m60aec2d95b" y="128.079289"/>
     <use style="fill:#0000ff;stroke:#0000ff;" x="346.017851" xlink:href="#m60aec2d95b" y="130.834962"/>
     <use style="fill:#0000ff;stroke:#0000ff;" x="349.29719" xlink:href="#m60aec2d95b" y="131.040208"/>
     <use style="fill:#0000ff;stroke:#0000ff;" x="352.576529" xlink:href="#m60aec2d95b" y="129.527863"/>
     <use style="fill:#0000ff;stroke:#0000ff;" x="355.855868" xlink:href="#m60aec2d95b" y="129.41346"/>
     <use style="fill:#0000ff;stroke:#0000ff;" x="359.135207" xlink:href="#m60aec2d95b" y="129.75036"/>
     <use style="fill:#0000ff;stroke:#0000ff;" x="362.414545" xlink:href="#m60aec2d95b" y="135.579112"/>
     <use style="fill:#0000ff;stroke:#0000ff;" x="365.693884" xlink:href="#m60aec2d95b" y="129.408537"/>
     <use style="fill:#0000ff;stroke:#0000ff;" x="368.973223" xlink:href="#m60aec2d95b" y="132.994652"/>
     <use style="fill:#0000ff;stroke:#0000ff;" x="372.252562" xlink:href="#m60aec2d95b" y="128.535439"/>
     <use style="fill:#0000ff;stroke:#0000ff;" x="375.531901" xlink:href="#m60aec2d95b" y="131.511975"/>
     <use style="fill:#0000ff;stroke:#0000ff;" x="378.81124" xlink:href="#m60aec2d95b" y="129.616523"/>
     <use style="fill:#0000ff;stroke:#0000ff;" x="382.090579" xlink:href="#m60aec2d95b" y="129.016006"/>
     <use style="fill:#0000ff;stroke:#0000ff;" x="385.369917" xlink:href="#m60aec2d95b" y="129.303933"/>
     <use style="fill:#0000ff;stroke:#0000ff;" x="388.649256" xlink:href="#m60aec2d95b" y="132.188764"/>
     <use style="fill:#0000ff;stroke:#0000ff;" x="391.928595" xlink:href="#m60aec2d95b" y="128.67539"/>
     <use style="fill:#0000ff;stroke:#0000ff;" x="395.207934" xlink:href="#m60aec2d95b" y="236.763244"/>
     <use style="fill:#0000ff;stroke:#0000ff;" x="398.487273" xlink:href="#m60aec2d95b" y="275.62625"/>
    </g>
   </g>
   <g id="line2d_16">
    <path clip-path="url(#p0f8e2d7d1e)" d="M 73.832727 130.176 
L 77.112066 130.176 
L 80.391405 130.176 
L 83.670744 130.176 
L 86.950083 130.176 
L 90.229421 130.176 
L 93.50876 130.176 
L 96.788099 130.176 
L 100.067438 130.176 
L 103.346777 130.176 
L 106.626116 130.176 
L 109.905455 130.176 
L 113.184793 130.176 
L 116.464132 130.176 
L 119.743471 130.176 
L 123.02281 130.176 
L 126.302149 130.176 
L 129.581488 130.176 
L 132.860826 130.176 
L 136.140165 130.176 
L 139.419504 130.176 
L 142.698843 130.176 
L 145.978182 130.176 
L 149.257521 130.176 
L 152.53686 130.176 
L 155.816198 130.176 
L 159.095537 130.176 
L 162.374876 130.176 
L 165.654215 130.176 
L 168.933554 130.176 
L 172.212893 130.176 
L 175.492231 130.176 
L 178.77157 130.176 
L 182.050909 130.176 
L 185.330248 130.176 
L 188.609587 130.176 
L 191.888926 130.176 
L 195.168264 130.176 
L 198.447603 130.176 
L 201.726942 130.176 
L 205.006281 130.176 
L 208.28562 130.176 
L 211.564959 130.176 
L 214.844298 130.176 
L 218.123636 130.176 
L 221.402975 130.176 
L 224.682314 130.176 
L 227.961653 130.176 
L 231.240992 130.176 
L 234.520331 130.176 
L 237.799669 130.176 
L 241.079008 130.176 
L 244.358347 130.176 
L 247.637686 130.176 
L 250.917025 130.176 
L 254.196364 130.176 
L 257.475702 130.176 
L 260.755041 130.176 
L 264.03438 130.176 
L 267.313719 130.176 
L 270.593058 130.176 
L 273.872397 130.176 
L 277.151736 130.176 
L 280.431074 130.176 
L 283.710413 130.176 
L 286.989752 130.176 
L 290.269091 130.176 
L 293.54843 130.176 
L 296.827769 130.176 
L 300.107107 130.176 
L 303.386446 130.176 
L 306.665785 130.176 
L 309.945124 130.176 
L 313.224463 130.176 
L 316.503802 130.176 
L 319.78314 130.176 
L 323.062479 130.176 
L 326.341818 130.176 
L 329.621157 130.176 
L 332.900496 130.176 
L 336.179835 130.176 
L 339.459174 130.176 
L 342.738512 130.176 
L 346.017851 130.176 
L 349.29719 130.176 
L 352.576529 130.176 
L 355.855868 130.176 
L 359.135207 130.176 
L 362.414545 130.176 
L 365.693884 130.176 
L 368.973223 130.176 
L 372.252562 130.176 
L 375.531901 130.176 
L 378.81124 130.176 
L 382.090579 130.176 
L 385.369917 130.176 
L 388.649256 130.176 
L 391.928595 130.176 
L 395.207934 236.6208 
L 398.487273 275.65056 
" style="fill:none;stroke:#000000;stroke-linecap:square;stroke-width:1.5;"/>
    <defs>
     <path d="M 0 3 
C 0.795609 3 1.55874 2.683901 2.12132 2.12132 
C 2.683901 1.55874 3 0.795609 3 0 
C 3 -0.795609 2.683901 -1.55874 2.12132 -2.12132 
C 1.55874 -2.683901 0.795609 -3 0 -3 
C -0.795609 -3 -1.55874 -2.683901 -2.12132 -2.12132 
C -2.683901 -1.55874 -3 -0.795609 -3 0 
C -3 0.795609 -2.683901 1.55874 -2.12132 2.12132 
C -1.55874 2.683901 -0.795609 3 0 3 
z
" id="mef50452339" style="stroke:#000000;"/>
    </defs>
    <g clip-path="url(#p0f8e2d7d1e)">
     <use style="stroke:#000000;" x="73.832727" xlink:href="#mef50452339" y="130.176"/>
     <use style="stroke:#000000;" x="77.112066" xlink:href="#mef50452339" y="130.176"/>
     <use style="stroke:#000000;" x="80.391405" xlink:href="#mef50452339" y="130.176"/>
     <use style="stroke:#000000;" x="83.670744" xlink:href="#mef50452339" y="130.176"/>
     <use style="stroke:#000000;" x="86.950083" xlink:href="#mef50452339" y="130.176"/>
     <use style="stroke:#000000;" x="90.229421" xlink:href="#mef50452339" y="130.176"/>
     <use style="stroke:#000000;" x="93.50876" xlink:href="#mef50452339" y="130.176"/>
     <use style="stroke:#000000;" x="96.788099" xlink:href="#mef50452339" y="130.176"/>
     <use style="stroke:#000000;" x="100.067438" xlink:href="#mef50452339" y="130.176"/>
     <use style="stroke:#000000;" x="103.346777" xlink:href="#mef50452339" y="130.176"/>
     <use style="stroke:#000000;" x="106.626116" xlink:href="#mef50452339" y="130.176"/>
     <use style="stroke:#000000;" x="109.905455" xlink:href="#mef50452339" y="130.176"/>
     <use style="stroke:#000000;" x="113.184793" xlink:href="#mef50452339" y="130.176"/>
     <use style="stroke:#000000;" x="116.464132" xlink:href="#mef50452339" y="130.176"/>
     <use style="stroke:#000000;" x="119.743471" xlink:href="#mef50452339" y="130.176"/>
     <use style="stroke:#000000;" x="123.02281" xlink:href="#mef50452339" y="130.176"/>
     <use style="stroke:#000000;" x="126.302149" xlink:href="#mef50452339" y="130.176"/>
     <use style="stroke:#000000;" x="129.581488" xlink:href="#mef50452339" y="130.176"/>
     <use style="stroke:#000000;" x="132.860826" xlink:href="#mef50452339" y="130.176"/>
     <use style="stroke:#000000;" x="136.140165" xlink:href="#mef50452339" y="130.176"/>
     <use style="stroke:#000000;" x="139.419504" xlink:href="#mef50452339" y="130.176"/>
     <use style="stroke:#000000;" x="142.698843" xlink:href="#mef50452339" y="130.176"/>
     <use style="stroke:#000000;" x="145.978182" xlink:href="#mef50452339" y="130.176"/>
     <use style="stroke:#000000;" x="149.257521" xlink:href="#mef50452339" y="130.176"/>
     <use style="stroke:#000000;" x="152.53686" xlink:href="#mef50452339" y="130.176"/>
     <use style="stroke:#000000;" x="155.816198" xlink:href="#mef50452339" y="130.176"/>
     <use style="stroke:#000000;" x="159.095537" xlink:href="#mef50452339" y="130.176"/>
     <use style="stroke:#000000;" x="162.374876" xlink:href="#mef50452339" y="130.176"/>
     <use style="stroke:#000000;" x="165.654215" xlink:href="#mef50452339" y="130.176"/>
     <use style="stroke:#000000;" x="168.933554" xlink:href="#mef50452339" y="130.176"/>
     <use style="stroke:#000000;" x="172.212893" xlink:href="#mef50452339" y="130.176"/>
     <use style="stroke:#000000;" x="175.492231" xlink:href="#mef50452339" y="130.176"/>
     <use style="stroke:#000000;" x="178.77157" xlink:href="#mef50452339" y="130.176"/>
     <use style="stroke:#000000;" x="182.050909" xlink:href="#mef50452339" y="130.176"/>
     <use style="stroke:#000000;" x="185.330248" xlink:href="#mef50452339" y="130.176"/>
     <use style="stroke:#000000;" x="188.609587" xlink:href="#mef50452339" y="130.176"/>
     <use style="stroke:#000000;" x="191.888926" xlink:href="#mef50452339" y="130.176"/>
     <use style="stroke:#000000;" x="195.168264" xlink:href="#mef50452339" y="130.176"/>
     <use style="stroke:#000000;" x="198.447603" xlink:href="#mef50452339" y="130.176"/>
     <use style="stroke:#000000;" x="201.726942" xlink:href="#mef50452339" y="130.176"/>
     <use style="stroke:#000000;" x="205.006281" xlink:href="#mef50452339" y="130.176"/>
     <use style="stroke:#000000;" x="208.28562" xlink:href="#mef50452339" y="130.176"/>
     <use style="stroke:#000000;" x="211.564959" xlink:href="#mef50452339" y="130.176"/>
     <use style="stroke:#000000;" x="214.844298" xlink:href="#mef50452339" y="130.176"/>
     <use style="stroke:#000000;" x="218.123636" xlink:href="#mef50452339" y="130.176"/>
     <use style="stroke:#000000;" x="221.402975" xlink:href="#mef50452339" y="130.176"/>
     <use style="stroke:#000000;" x="224.682314" xlink:href="#mef50452339" y="130.176"/>
     <use style="stroke:#000000;" x="227.961653" xlink:href="#mef50452339" y="130.176"/>
     <use style="stroke:#000000;" x="231.240992" xlink:href="#mef50452339" y="130.176"/>
     <use style="stroke:#000000;" x="234.520331" xlink:href="#mef50452339" y="130.176"/>
     <use style="stroke:#000000;" x="237.799669" xlink:href="#mef50452339" y="130.176"/>
     <use style="stroke:#000000;" x="241.079008" xlink:href="#mef50452339" y="130.176"/>
     <use style="stroke:#000000;" x="244.358347" xlink:href="#mef50452339" y="130.176"/>
     <use style="stroke:#000000;" x="247.637686" xlink:href="#mef50452339" y="130.176"/>
     <use style="stroke:#000000;" x="250.917025" xlink:href="#mef50452339" y="130.176"/>
     <use style="stroke:#000000;" x="254.196364" xlink:href="#mef50452339" y="130.176"/>
     <use style="stroke:#000000;" x="257.475702" xlink:href="#mef50452339" y="130.176"/>
     <use style="stroke:#000000;" x="260.755041" xlink:href="#mef50452339" y="130.176"/>
     <use style="stroke:#000000;" x="264.03438" xlink:href="#mef50452339" y="130.176"/>
     <use style="stroke:#000000;" x="267.313719" xlink:href="#mef50452339" y="130.176"/>
     <use style="stroke:#000000;" x="270.593058" xlink:href="#mef50452339" y="130.176"/>
     <use style="stroke:#000000;" x="273.872397" xlink:href="#mef50452339" y="130.176"/>
     <use style="stroke:#000000;" x="277.151736" xlink:href="#mef50452339" y="130.176"/>
     <use style="stroke:#000000;" x="280.431074" xlink:href="#mef50452339" y="130.176"/>
     <use style="stroke:#000000;" x="283.710413" xlink:href="#mef50452339" y="130.176"/>
     <use style="stroke:#000000;" x="286.989752" xlink:href="#mef50452339" y="130.176"/>
     <use style="stroke:#000000;" x="290.269091" xlink:href="#mef50452339" y="130.176"/>
     <use style="stroke:#000000;" x="293.54843" xlink:href="#mef50452339" y="130.176"/>
     <use style="stroke:#000000;" x="296.827769" xlink:href="#mef50452339" y="130.176"/>
     <use style="stroke:#000000;" x="300.107107" xlink:href="#mef50452339" y="130.176"/>
     <use style="stroke:#000000;" x="303.386446" xlink:href="#mef50452339" y="130.176"/>
     <use style="stroke:#000000;" x="306.665785" xlink:href="#mef50452339" y="130.176"/>
     <use style="stroke:#000000;" x="309.945124" xlink:href="#mef50452339" y="130.176"/>
     <use style="stroke:#000000;" x="313.224463" xlink:href="#mef50452339" y="130.176"/>
     <use style="stroke:#000000;" x="316.503802" xlink:href="#mef50452339" y="130.176"/>
     <use style="stroke:#000000;" x="319.78314" xlink:href="#mef50452339" y="130.176"/>
     <use style="stroke:#000000;" x="323.062479" xlink:href="#mef50452339" y="130.176"/>
     <use style="stroke:#000000;" x="326.341818" xlink:href="#mef50452339" y="130.176"/>
     <use style="stroke:#000000;" x="329.621157" xlink:href="#mef50452339" y="130.176"/>
     <use style="stroke:#000000;" x="332.900496" xlink:href="#mef50452339" y="130.176"/>
     <use style="stroke:#000000;" x="336.179835" xlink:href="#mef50452339" y="130.176"/>
     <use style="stroke:#000000;" x="339.459174" xlink:href="#mef50452339" y="130.176"/>
     <use style="stroke:#000000;" x="342.738512" xlink:href="#mef50452339" y="130.176"/>
     <use style="stroke:#000000;" x="346.017851" xlink:href="#mef50452339" y="130.176"/>
     <use style="stroke:#000000;" x="349.29719" xlink:href="#mef50452339" y="130.176"/>
     <use style="stroke:#000000;" x="352.576529" xlink:href="#mef50452339" y="130.176"/>
     <use style="stroke:#000000;" x="355.855868" xlink:href="#mef50452339" y="130.176"/>
     <use style="stroke:#000000;" x="359.135207" xlink:href="#mef50452339" y="130.176"/>
     <use style="stroke:#000000;" x="362.414545" xlink:href="#mef50452339" y="130.176"/>
     <use style="stroke:#000000;" x="365.693884" xlink:href="#mef50452339" y="130.176"/>
     <use style="stroke:#000000;" x="368.973223" xlink:href="#mef50452339" y="130.176"/>
     <use style="stroke:#000000;" x="372.252562" xlink:href="#mef50452339" y="130.176"/>
     <use style="stroke:#000000;" x="375.531901" xlink:href="#mef50452339" y="130.176"/>
     <use style="stroke:#000000;" x="378.81124" xlink:href="#mef50452339" y="130.176"/>
     <use style="stroke:#000000;" x="382.090579" xlink:href="#mef50452339" y="130.176"/>
     <use style="stroke:#000000;" x="385.369917" xlink:href="#mef50452339" y="130.176"/>
     <use style="stroke:#000000;" x="388.649256" xlink:href="#mef50452339" y="130.176"/>
     <use style="stroke:#000000;" x="391.928595" xlink:href="#mef50452339" y="130.176"/>
     <use style="stroke:#000000;" x="395.207934" xlink:href="#mef50452339" y="236.6208"/>
     <use style="stroke:#000000;" x="398.487273" xlink:href="#mef50452339" y="275.65056"/>
    </g>
   </g>
   <g id="line2d_17">
    <path clip-path="url(#p0f8e2d7d1e)" d="M 73.832727 140.50534 
L 77.112066 144.609276 
L 80.391405 140.433099 
L 83.670744 138.83831 
L 86.950083 141.455039 
L 90.229421 147.469022 
L 93.50876 134.540706 
L 96.788099 141.730587 
L 100.067438 140.17419 
L 103.346777 143.795791 
L 106.626116 137.263172 
L 109.905455 138.449724 
L 113.184793 136.097177 
L 116.464132 138.645624 
L 119.743471 146.794683 
L 123.02281 141.364454 
L 126.302149 146.244835 
L 129.581488 139.860826 
L 132.860826 138.51297 
L 136.140165 140.500897 
L 139.419504 142.569053 
L 142.698843 136.919001 
L 145.978182 148.578029 
L 149.257521 142.190242 
L 152.53686 144.50488 
L 155.816198 139.467054 
L 159.095537 137.309169 
L 162.374876 138.663744 
L 165.654215 144.56119 
L 168.933554 139.41736 
L 172.212893 139.6325 
L 175.492231 142.911895 
L 178.77157 140.828384 
L 182.050909 140.281403 
L 185.330248 144.572615 
L 188.609587 139.619188 
L 191.888926 140.846335 
L 195.168264 136.849905 
L 198.447603 140.117822 
L 201.726942 143.141581 
L 205.006281 142.317505 
L 208.28562 142.220828 
L 211.564959 140.729609 
L 214.844298 140.530162 
L 218.123636 135.071465 
L 221.402975 142.550368 
L 224.682314 146.918968 
L 227.961653 136.107521 
L 231.240992 141.980153 
L 234.520331 149.393924 
L 237.799669 136.874379 
L 241.079008 144.786112 
L 244.358347 139.393393 
L 247.637686 144.433666 
L 250.917025 140.072435 
L 254.196364 139.460806 
L 257.475702 139.142319 
L 260.755041 143.343305 
L 264.03438 145.264742 
L 267.313719 139.341604 
L 270.593058 140.149762 
L 273.872397 138.896877 
L 277.151736 142.801821 
L 280.431074 138.129173 
L 283.710413 143.49465 
L 286.989752 140.135626 
L 290.269091 146.381519 
L 293.54843 142.597577 
L 296.827769 142.738796 
L 300.107107 143.18512 
L 303.386446 137.045936 
L 306.665785 139.510545 
L 309.945124 135.748613 
L 313.224463 145.902058 
L 316.503802 136.273171 
L 319.78314 142.070977 
L 323.062479 135.792443 
L 326.341818 143.009122 
L 329.621157 138.465065 
L 332.900496 141.07555 
L 336.179835 142.944683 
L 339.459174 146.476662 
L 342.738512 136.028809 
L 346.017851 141.164221 
L 349.29719 141.791068 
L 352.576529 138.846336 
L 355.855868 138.246999 
L 359.135207 139.150326 
L 362.414545 149.458237 
L 365.693884 138.773526 
L 368.973223 143.494574 
L 372.252562 136.758616 
L 375.531901 142.940087 
L 378.81124 138.894776 
L 382.090579 138.017751 
L 385.369917 138.402665 
L 388.649256 144.109192 
L 391.928595 137.232903 
L 395.207934 237.866758 
L 398.487273 276.761587 
" style="fill:none;stroke:#008000;stroke-linecap:square;stroke-width:1.5;"/>
    <defs>
     <path d="M -3 0 
L 0 4.5 
L 3 0 
" id="mae1f0ca483" style="stroke:#008000;stroke-linejoin:miter;"/>
    </defs>
    <g clip-path="url(#p0f8e2d7d1e)">
     <use style="fill:#008000;stroke:#008000;stroke-linejoin:miter;" x="73.832727" xlink:href="#mae1f0ca483" y="140.50534"/>
     <use style="fill:#008000;stroke:#008000;stroke-linejoin:miter;" x="77.112066" xlink:href="#mae1f0ca483" y="144.609276"/>
     <use style="fill:#008000;stroke:#008000;stroke-linejoin:miter;" x="80.391405" xlink:href="#mae1f0ca483" y="140.433099"/>
     <use style="fill:#008000;stroke:#008000;stroke-linejoin:miter;" x="83.670744" xlink:href="#mae1f0ca483" y="138.83831"/>
     <use style="fill:#008000;stroke:#008000;stroke-linejoin:miter;" x="86.950083" xlink:href="#mae1f0ca483" y="141.455039"/>
     <use style="fill:#008000;stroke:#008000;stroke-linejoin:miter;" x="90.229421" xlink:href="#mae1f0ca483" y="147.469022"/>
     <use style="fill:#008000;stroke:#008000;stroke-linejoin:miter;" x="93.50876" xlink:href="#mae1f0ca483" y="134.540706"/>
     <use style="fill:#008000;stroke:#008000;stroke-linejoin:miter;" x="96.788099" xlink:href="#mae1f0ca483" y="141.730587"/>
     <use style="fill:#008000;stroke:#008000;stroke-linejoin:miter;" x="100.067438" xlink:href="#mae1f0ca483" y="140.17419"/>
     <use style="fill:#008000;stroke:#008000;stroke-linejoin:miter;" x="103.346777" xlink:href="#mae1f0ca483" y="143.795791"/>
     <use style="fill:#008000;stroke:#008000;stroke-linejoin:miter;" x="106.626116" xlink:href="#mae1f0ca483" y="137.263172"/>
     <use style="fill:#008000;stroke:#008000;stroke-linejoin:miter;" x="109.905455" xlink:href="#mae1f0ca483" y="138.449724"/>
     <use style="fill:#008000;stroke:#008000;stroke-linejoin:miter;" x="113.184793" xlink:href="#mae1f0ca483" y="136.097177"/>
     <use style="fill:#008000;stroke:#008000;stroke-linejoin:miter;" x="116.464132" xlink:href="#mae1f0ca483" y="138.645624"/>
     <use style="fill:#008000;stroke:#008000;stroke-linejoin:miter;" x="119.743471" xlink:href="#mae1f0ca483" y="146.794683"/>
     <use style="fill:#008000;stroke:#008000;stroke-linejoin:miter;" x="123.02281" xlink:href="#mae1f0ca483" y="141.364454"/>
     <use style="fill:#008000;stroke:#008000;stroke-linejoin:miter;" x="126.302149" xlink:href="#mae1f0ca483" y="146.244835"/>
     <use style="fill:#008000;stroke:#008000;stroke-linejoin:miter;" x="129.581488" xlink:href="#mae1f0ca483" y="139.860826"/>
     <use style="fill:#008000;stroke:#008000;stroke-linejoin:miter;" x="132.860826" xlink:href="#mae1f0ca483" y="138.51297"/>
     <use style="fill:#008000;stroke:#008000;stroke-linejoin:miter;" x="136.140165" xlink:href="#mae1f0ca483" y="140.500897"/>
     <use style="fill:#008000;stroke:#008000;stroke-linejoin:miter;" x="139.419504" xlink:href="#mae1f0ca483" y="142.569053"/>
     <use style="fill:#008000;stroke:#008000;stroke-linejoin:miter;" x="142.698843" xlink:href="#mae1f0ca483" y="136.919001"/>
     <use style="fill:#008000;stroke:#008000;stroke-linejoin:miter;" x="145.978182" xlink:href="#mae1f0ca483" y="148.578029"/>
     <use style="fill:#008000;stroke:#008000;stroke-linejoin:miter;" x="149.257521" xlink:href="#mae1f0ca483" y="142.190242"/>
     <use style="fill:#008000;stroke:#008000;stroke-linejoin:miter;" x="152.53686" xlink:href="#mae1f0ca483" y="144.50488"/>
     <use style="fill:#008000;stroke:#008000;stroke-linejoin:miter;" x="155.816198" xlink:href="#mae1f0ca483" y="139.467054"/>
     <use style="fill:#008000;stroke:#008000;stroke-linejoin:miter;" x="159.095537" xlink:href="#mae1f0ca483" y="137.309169"/>
     <use style="fill:#008000;stroke:#008000;stroke-linejoin:miter;" x="162.374876" xlink:href="#mae1f0ca483" y="138.663744"/>
     <use style="fill:#008000;stroke:#008000;stroke-linejoin:miter;" x="165.654215" xlink:href="#mae1f0ca483" y="144.56119"/>
     <use style="fill:#008000;stroke:#008000;stroke-linejoin:miter;" x="168.933554" xlink:href="#mae1f0ca483" y="139.41736"/>
     <use style="fill:#008000;stroke:#008000;stroke-linejoin:miter;" x="172.212893" xlink:href="#mae1f0ca483" y="139.6325"/>
     <use style="fill:#008000;stroke:#008000;stroke-linejoin:miter;" x="175.492231" xlink:href="#mae1f0ca483" y="142.911895"/>
     <use style="fill:#008000;stroke:#008000;stroke-linejoin:miter;" x="178.77157" xlink:href="#mae1f0ca483" y="140.828384"/>
     <use style="fill:#008000;stroke:#008000;stroke-linejoin:miter;" x="182.050909" xlink:href="#mae1f0ca483" y="140.281403"/>
     <use style="fill:#008000;stroke:#008000;stroke-linejoin:miter;" x="185.330248" xlink:href="#mae1f0ca483" y="144.572615"/>
     <use style="fill:#008000;stroke:#008000;stroke-linejoin:miter;" x="188.609587" xlink:href="#mae1f0ca483" y="139.619188"/>
     <use style="fill:#008000;stroke:#008000;stroke-linejoin:miter;" x="191.888926" xlink:href="#mae1f0ca483" y="140.846335"/>
     <use style="fill:#008000;stroke:#008000;stroke-linejoin:miter;" x="195.168264" xlink:href="#mae1f0ca483" y="136.849905"/>
     <use style="fill:#008000;stroke:#008000;stroke-linejoin:miter;" x="198.447603" xlink:href="#mae1f0ca483" y="140.117822"/>
     <use style="fill:#008000;stroke:#008000;stroke-linejoin:miter;" x="201.726942" xlink:href="#mae1f0ca483" y="143.141581"/>
     <use style="fill:#008000;stroke:#008000;stroke-linejoin:miter;" x="205.006281" xlink:href="#mae1f0ca483" y="142.317505"/>
     <use style="fill:#008000;stroke:#008000;stroke-linejoin:miter;" x="208.28562" xlink:href="#mae1f0ca483" y="142.220828"/>
     <use style="fill:#008000;stroke:#008000;stroke-linejoin:miter;" x="211.564959" xlink:href="#mae1f0ca483" y="140.729609"/>
     <use style="fill:#008000;stroke:#008000;stroke-linejoin:miter;" x="214.844298" xlink:href="#mae1f0ca483" y="140.530162"/>
     <use style="fill:#008000;stroke:#008000;stroke-linejoin:miter;" x="218.123636" xlink:href="#mae1f0ca483" y="135.071465"/>
     <use style="fill:#008000;stroke:#008000;stroke-linejoin:miter;" x="221.402975" xlink:href="#mae1f0ca483" y="142.550368"/>
     <use style="fill:#008000;stroke:#008000;stroke-linejoin:miter;" x="224.682314" xlink:href="#mae1f0ca483" y="146.918968"/>
     <use style="fill:#008000;stroke:#008000;stroke-linejoin:miter;" x="227.961653" xlink:href="#mae1f0ca483" y="136.107521"/>
     <use style="fill:#008000;stroke:#008000;stroke-linejoin:miter;" x="231.240992" xlink:href="#mae1f0ca483" y="141.980153"/>
     <use style="fill:#008000;stroke:#008000;stroke-linejoin:miter;" x="234.520331" xlink:href="#mae1f0ca483" y="149.393924"/>
     <use style="fill:#008000;stroke:#008000;stroke-linejoin:miter;" x="237.799669" xlink:href="#mae1f0ca483" y="136.874379"/>
     <use style="fill:#008000;stroke:#008000;stroke-linejoin:miter;" x="241.079008" xlink:href="#mae1f0ca483" y="144.786112"/>
     <use style="fill:#008000;stroke:#008000;stroke-linejoin:miter;" x="244.358347" xlink:href="#mae1f0ca483" y="139.393393"/>
     <use style="fill:#008000;stroke:#008000;stroke-linejoin:miter;" x="247.637686" xlink:href="#mae1f0ca483" y="144.433666"/>
     <use style="fill:#008000;stroke:#008000;stroke-linejoin:miter;" x="250.917025" xlink:href="#mae1f0ca483" y="140.072435"/>
     <use style="fill:#008000;stroke:#008000;stroke-linejoin:miter;" x="254.196364" xlink:href="#mae1f0ca483" y="139.460806"/>
     <use style="fill:#008000;stroke:#008000;stroke-linejoin:miter;" x="257.475702" xlink:href="#mae1f0ca483" y="139.142319"/>
     <use style="fill:#008000;stroke:#008000;stroke-linejoin:miter;" x="260.755041" xlink:href="#mae1f0ca483" y="143.343305"/>
     <use style="fill:#008000;stroke:#008000;stroke-linejoin:miter;" x="264.03438" xlink:href="#mae1f0ca483" y="145.264742"/>
     <use style="fill:#008000;stroke:#008000;stroke-linejoin:miter;" x="267.313719" xlink:href="#mae1f0ca483" y="139.341604"/>
     <use style="fill:#008000;stroke:#008000;stroke-linejoin:miter;" x="270.593058" xlink:href="#mae1f0ca483" y="140.149762"/>
     <use style="fill:#008000;stroke:#008000;stroke-linejoin:miter;" x="273.872397" xlink:href="#mae1f0ca483" y="138.896877"/>
     <use style="fill:#008000;stroke:#008000;stroke-linejoin:miter;" x="277.151736" xlink:href="#mae1f0ca483" y="142.801821"/>
     <use style="fill:#008000;stroke:#008000;stroke-linejoin:miter;" x="280.431074" xlink:href="#mae1f0ca483" y="138.129173"/>
     <use style="fill:#008000;stroke:#008000;stroke-linejoin:miter;" x="283.710413" xlink:href="#mae1f0ca483" y="143.49465"/>
     <use style="fill:#008000;stroke:#008000;stroke-linejoin:miter;" x="286.989752" xlink:href="#mae1f0ca483" y="140.135626"/>
     <use style="fill:#008000;stroke:#008000;stroke-linejoin:miter;" x="290.269091" xlink:href="#mae1f0ca483" y="146.381519"/>
     <use style="fill:#008000;stroke:#008000;stroke-linejoin:miter;" x="293.54843" xlink:href="#mae1f0ca483" y="142.597577"/>
     <use style="fill:#008000;stroke:#008000;stroke-linejoin:miter;" x="296.827769" xlink:href="#mae1f0ca483" y="142.738796"/>
     <use style="fill:#008000;stroke:#008000;stroke-linejoin:miter;" x="300.107107" xlink:href="#mae1f0ca483" y="143.18512"/>
     <use style="fill:#008000;stroke:#008000;stroke-linejoin:miter;" x="303.386446" xlink:href="#mae1f0ca483" y="137.045936"/>
     <use style="fill:#008000;stroke:#008000;stroke-linejoin:miter;" x="306.665785" xlink:href="#mae1f0ca483" y="139.510545"/>
     <use style="fill:#008000;stroke:#008000;stroke-linejoin:miter;" x="309.945124" xlink:href="#mae1f0ca483" y="135.748613"/>
     <use style="fill:#008000;stroke:#008000;stroke-linejoin:miter;" x="313.224463" xlink:href="#mae1f0ca483" y="145.902058"/>
     <use style="fill:#008000;stroke:#008000;stroke-linejoin:miter;" x="316.503802" xlink:href="#mae1f0ca483" y="136.273171"/>
     <use style="fill:#008000;stroke:#008000;stroke-linejoin:miter;" x="319.78314" xlink:href="#mae1f0ca483" y="142.070977"/>
     <use style="fill:#008000;stroke:#008000;stroke-linejoin:miter;" x="323.062479" xlink:href="#mae1f0ca483" y="135.792443"/>
     <use style="fill:#008000;stroke:#008000;stroke-linejoin:miter;" x="326.341818" xlink:href="#mae1f0ca483" y="143.009122"/>
     <use style="fill:#008000;stroke:#008000;stroke-linejoin:miter;" x="329.621157" xlink:href="#mae1f0ca483" y="138.465065"/>
     <use style="fill:#008000;stroke:#008000;stroke-linejoin:miter;" x="332.900496" xlink:href="#mae1f0ca483" y="141.07555"/>
     <use style="fill:#008000;stroke:#008000;stroke-linejoin:miter;" x="336.179835" xlink:href="#mae1f0ca483" y="142.944683"/>
     <use style="fill:#008000;stroke:#008000;stroke-linejoin:miter;" x="339.459174" xlink:href="#mae1f0ca483" y="146.476662"/>
     <use style="fill:#008000;stroke:#008000;stroke-linejoin:miter;" x="342.738512" xlink:href="#mae1f0ca483" y="136.028809"/>
     <use style="fill:#008000;stroke:#008000;stroke-linejoin:miter;" x="346.017851" xlink:href="#mae1f0ca483" y="141.164221"/>
     <use style="fill:#008000;stroke:#008000;stroke-linejoin:miter;" x="349.29719" xlink:href="#mae1f0ca483" y="141.791068"/>
     <use style="fill:#008000;stroke:#008000;stroke-linejoin:miter;" x="352.576529" xlink:href="#mae1f0ca483" y="138.846336"/>
     <use style="fill:#008000;stroke:#008000;stroke-linejoin:miter;" x="355.855868" xlink:href="#mae1f0ca483" y="138.246999"/>
     <use style="fill:#008000;stroke:#008000;stroke-linejoin:miter;" x="359.135207" xlink:href="#mae1f0ca483" y="139.150326"/>
     <use style="fill:#008000;stroke:#008000;stroke-linejoin:miter;" x="362.414545" xlink:href="#mae1f0ca483" y="149.458237"/>
     <use style="fill:#008000;stroke:#008000;stroke-linejoin:miter;" x="365.693884" xlink:href="#mae1f0ca483" y="138.773526"/>
     <use style="fill:#008000;stroke:#008000;stroke-linejoin:miter;" x="368.973223" xlink:href="#mae1f0ca483" y="143.494574"/>
     <use style="fill:#008000;stroke:#008000;stroke-linejoin:miter;" x="372.252562" xlink:href="#mae1f0ca483" y="136.758616"/>
     <use style="fill:#008000;stroke:#008000;stroke-linejoin:miter;" x="375.531901" xlink:href="#mae1f0ca483" y="142.940087"/>
     <use style="fill:#008000;stroke:#008000;stroke-linejoin:miter;" x="378.81124" xlink:href="#mae1f0ca483" y="138.894776"/>
     <use style="fill:#008000;stroke:#008000;stroke-linejoin:miter;" x="382.090579" xlink:href="#mae1f0ca483" y="138.017751"/>
     <use style="fill:#008000;stroke:#008000;stroke-linejoin:miter;" x="385.369917" xlink:href="#mae1f0ca483" y="138.402665"/>
     <use style="fill:#008000;stroke:#008000;stroke-linejoin:miter;" x="388.649256" xlink:href="#mae1f0ca483" y="144.109192"/>
     <use style="fill:#008000;stroke:#008000;stroke-linejoin:miter;" x="391.928595" xlink:href="#mae1f0ca483" y="137.232903"/>
     <use style="fill:#008000;stroke:#008000;stroke-linejoin:miter;" x="395.207934" xlink:href="#mae1f0ca483" y="237.866758"/>
     <use style="fill:#008000;stroke:#008000;stroke-linejoin:miter;" x="398.487273" xlink:href="#mae1f0ca483" y="276.761587"/>
    </g>
   </g>
   <g id="line2d_18">
    <path clip-path="url(#p0f8e2d7d1e)" d="M 73.832727 119.851497 
L 77.112066 119.85652 
L 80.391405 119.857274 
L 83.670744 119.862251 
L 86.950083 119.85596 
L 90.229421 119.862162 
L 93.50876 119.861967 
L 96.788099 119.856076 
L 100.067438 119.851769 
L 103.346777 119.870484 
L 106.626116 119.853708 
L 109.905455 119.857321 
L 113.184793 119.861234 
L 116.464132 119.856605 
L 119.743471 119.854241 
L 123.02281 119.864767 
L 126.302149 119.865531 
L 129.581488 119.852321 
L 132.860826 119.858112 
L 136.140165 119.857969 
L 139.419504 119.855145 
L 142.698843 119.855082 
L 145.978182 119.868701 
L 149.257521 119.851586 
L 152.53686 119.85899 
L 155.816198 119.852522 
L 159.095537 119.861737 
L 162.374876 119.870543 
L 165.654215 119.851981 
L 168.933554 119.854692 
L 172.212893 119.85677 
L 175.492231 119.870662 
L 178.77157 119.866927 
L 182.050909 119.855291 
L 185.330248 119.884134 
L 188.609587 119.863414 
L 191.888926 119.870342 
L 195.168264 119.863818 
L 198.447603 119.861878 
L 201.726942 119.870572 
L 205.006281 119.851119 
L 208.28562 119.853255 
L 211.564959 119.872443 
L 214.844298 119.854216 
L 218.123636 119.850942 
L 221.402975 119.852462 
L 224.682314 119.868976 
L 227.961653 119.858129 
L 231.240992 119.874806 
L 234.520331 119.863739 
L 237.799669 119.856055 
L 241.079008 119.866169 
L 244.358347 119.856731 
L 247.637686 119.87003 
L 250.917025 119.85412 
L 254.196364 119.853199 
L 257.475702 119.857663 
L 260.755041 119.853339 
L 264.03438 119.851965 
L 267.313719 119.851057 
L 270.593058 119.865072 
L 273.872397 119.854259 
L 277.151736 119.865913 
L 280.431074 119.853915 
L 283.710413 119.86077 
L 286.989752 119.859172 
L 290.269091 119.853687 
L 293.54843 119.87712 
L 296.827769 119.866179 
L 300.107107 119.872924 
L 303.386446 119.867065 
L 306.665785 119.876907 
L 309.945124 119.855625 
L 313.224463 119.852052 
L 316.503802 119.855142 
L 319.78314 119.852704 
L 323.062479 119.859033 
L 326.341818 119.862771 
L 329.621157 119.857106 
L 332.900496 119.883145 
L 336.179835 119.870714 
L 339.459174 119.87148 
L 342.738512 119.8522 
L 346.017851 119.867007 
L 349.29719 119.85949 
L 352.576529 119.854143 
L 355.855868 119.869356 
L 359.135207 119.855567 
L 362.414545 119.874307 
L 365.693884 119.851476 
L 368.973223 119.874958 
L 372.252562 119.864809 
L 375.531901 119.858168 
L 378.81124 119.861888 
L 382.090579 119.853116 
L 385.369917 119.86273 
L 388.649256 119.865711 
L 391.928595 119.850995 
L 395.207934 235.674858 
L 398.487273 274.601047 
" style="fill:none;stroke:#ff0000;stroke-linecap:square;stroke-width:1.5;"/>
    <defs>
     <path d="M 3 0 
L 0 -4.5 
L -3 -0 
" id="mc32eac8d3f" style="stroke:#ff0000;stroke-linejoin:miter;"/>
    </defs>
    <g clip-path="url(#p0f8e2d7d1e)">
     <use style="fill:#ff0000;stroke:#ff0000;stroke-linejoin:miter;" x="73.832727" xlink:href="#mc32eac8d3f" y="119.851497"/>
     <use style="fill:#ff0000;stroke:#ff0000;stroke-linejoin:miter;" x="77.112066" xlink:href="#mc32eac8d3f" y="119.85652"/>
     <use style="fill:#ff0000;stroke:#ff0000;stroke-linejoin:miter;" x="80.391405" xlink:href="#mc32eac8d3f" y="119.857274"/>
     <use style="fill:#ff0000;stroke:#ff0000;stroke-linejoin:miter;" x="83.670744" xlink:href="#mc32eac8d3f" y="119.862251"/>
     <use style="fill:#ff0000;stroke:#ff0000;stroke-linejoin:miter;" x="86.950083" xlink:href="#mc32eac8d3f" y="119.85596"/>
     <use style="fill:#ff0000;stroke:#ff0000;stroke-linejoin:miter;" x="90.229421" xlink:href="#mc32eac8d3f" y="119.862162"/>
     <use style="fill:#ff0000;stroke:#ff0000;stroke-linejoin:miter;" x="93.50876" xlink:href="#mc32eac8d3f" y="119.861967"/>
     <use style="fill:#ff0000;stroke:#ff0000;stroke-linejoin:miter;" x="96.788099" xlink:href="#mc32eac8d3f" y="119.856076"/>
     <use style="fill:#ff0000;stroke:#ff0000;stroke-linejoin:miter;" x="100.067438" xlink:href="#mc32eac8d3f" y="119.851769"/>
     <use style="fill:#ff0000;stroke:#ff0000;stroke-linejoin:miter;" x="103.346777" xlink:href="#mc32eac8d3f" y="119.870484"/>
     <use style="fill:#ff0000;stroke:#ff0000;stroke-linejoin:miter;" x="106.626116" xlink:href="#mc32eac8d3f" y="119.853708"/>
     <use style="fill:#ff0000;stroke:#ff0000;stroke-linejoin:miter;" x="109.905455" xlink:href="#mc32eac8d3f" y="119.857321"/>
     <use style="fill:#ff0000;stroke:#ff0000;stroke-linejoin:miter;" x="113.184793" xlink:href="#mc32eac8d3f" y="119.861234"/>
     <use style="fill:#ff0000;stroke:#ff0000;stroke-linejoin:miter;" x="116.464132" xlink:href="#mc32eac8d3f" y="119.856605"/>
     <use style="fill:#ff0000;stroke:#ff0000;stroke-linejoin:miter;" x="119.743471" xlink:href="#mc32eac8d3f" y="119.854241"/>
     <use style="fill:#ff0000;stroke:#ff0000;stroke-linejoin:miter;" x="123.02281" xlink:href="#mc32eac8d3f" y="119.864767"/>
     <use style="fill:#ff0000;stroke:#ff0000;stroke-linejoin:miter;" x="126.302149" xlink:href="#mc32eac8d3f" y="119.865531"/>
     <use style="fill:#ff0000;stroke:#ff0000;stroke-linejoin:miter;" x="129.581488" xlink:href="#mc32eac8d3f" y="119.852321"/>
     <use style="fill:#ff0000;stroke:#ff0000;stroke-linejoin:miter;" x="132.860826" xlink:href="#mc32eac8d3f" y="119.858112"/>
     <use style="fill:#ff0000;stroke:#ff0000;stroke-linejoin:miter;" x="136.140165" xlink:href="#mc32eac8d3f" y="119.857969"/>
     <use style="fill:#ff0000;stroke:#ff0000;stroke-linejoin:miter;" x="139.419504" xlink:href="#mc32eac8d3f" y="119.855145"/>
     <use style="fill:#ff0000;stroke:#ff0000;stroke-linejoin:miter;" x="142.698843" xlink:href="#mc32eac8d3f" y="119.855082"/>
     <use style="fill:#ff0000;stroke:#ff0000;stroke-linejoin:miter;" x="145.978182" xlink:href="#mc32eac8d3f" y="119.868701"/>
     <use style="fill:#ff0000;stroke:#ff0000;stroke-linejoin:miter;" x="149.257521" xlink:href="#mc32eac8d3f" y="119.851586"/>
     <use style="fill:#ff0000;stroke:#ff0000;stroke-linejoin:miter;" x="152.53686" xlink:href="#mc32eac8d3f" y="119.85899"/>
     <use style="fill:#ff0000;stroke:#ff0000;stroke-linejoin:miter;" x="155.816198" xlink:href="#mc32eac8d3f" y="119.852522"/>
     <use style="fill:#ff0000;stroke:#ff0000;stroke-linejoin:miter;" x="159.095537" xlink:href="#mc32eac8d3f" y="119.861737"/>
     <use style="fill:#ff0000;stroke:#ff0000;stroke-linejoin:miter;" x="162.374876" xlink:href="#mc32eac8d3f" y="119.870543"/>
     <use style="fill:#ff0000;stroke:#ff0000;stroke-linejoin:miter;" x="165.654215" xlink:href="#mc32eac8d3f" y="119.851981"/>
     <use style="fill:#ff0000;stroke:#ff0000;stroke-linejoin:miter;" x="168.933554" xlink:href="#mc32eac8d3f" y="119.854692"/>
     <use style="fill:#ff0000;stroke:#ff0000;stroke-linejoin:miter;" x="172.212893" xlink:href="#mc32eac8d3f" y="119.85677"/>
     <use style="fill:#ff0000;stroke:#ff0000;stroke-linejoin:miter;" x="175.492231" xlink:href="#mc32eac8d3f" y="119.870662"/>
     <use style="fill:#ff0000;stroke:#ff0000;stroke-linejoin:miter;" x="178.77157" xlink:href="#mc32eac8d3f" y="119.866927"/>
     <use style="fill:#ff0000;stroke:#ff0000;stroke-linejoin:miter;" x="182.050909" xlink:href="#mc32eac8d3f" y="119.855291"/>
     <use style="fill:#ff0000;stroke:#ff0000;stroke-linejoin:miter;" x="185.330248" xlink:href="#mc32eac8d3f" y="119.884134"/>
     <use style="fill:#ff0000;stroke:#ff0000;stroke-linejoin:miter;" x="188.609587" xlink:href="#mc32eac8d3f" y="119.863414"/>
     <use style="fill:#ff0000;stroke:#ff0000;stroke-linejoin:miter;" x="191.888926" xlink:href="#mc32eac8d3f" y="119.870342"/>
     <use style="fill:#ff0000;stroke:#ff0000;stroke-linejoin:miter;" x="195.168264" xlink:href="#mc32eac8d3f" y="119.863818"/>
     <use style="fill:#ff0000;stroke:#ff0000;stroke-linejoin:miter;" x="198.447603" xlink:href="#mc32eac8d3f" y="119.861878"/>
     <use style="fill:#ff0000;stroke:#ff0000;stroke-linejoin:miter;" x="201.726942" xlink:href="#mc32eac8d3f" y="119.870572"/>
     <use style="fill:#ff0000;stroke:#ff0000;stroke-linejoin:miter;" x="205.006281" xlink:href="#mc32eac8d3f" y="119.851119"/>
     <use style="fill:#ff0000;stroke:#ff0000;stroke-linejoin:miter;" x="208.28562" xlink:href="#mc32eac8d3f" y="119.853255"/>
     <use style="fill:#ff0000;stroke:#ff0000;stroke-linejoin:miter;" x="211.564959" xlink:href="#mc32eac8d3f" y="119.872443"/>
     <use style="fill:#ff0000;stroke:#ff0000;stroke-linejoin:miter;" x="214.844298" xlink:href="#mc32eac8d3f" y="119.854216"/>
     <use style="fill:#ff0000;stroke:#ff0000;stroke-linejoin:miter;" x="218.123636" xlink:href="#mc32eac8d3f" y="119.850942"/>
     <use style="fill:#ff0000;stroke:#ff0000;stroke-linejoin:miter;" x="221.402975" xlink:href="#mc32eac8d3f" y="119.852462"/>
     <use style="fill:#ff0000;stroke:#ff0000;stroke-linejoin:miter;" x="224.682314" xlink:href="#mc32eac8d3f" y="119.868976"/>
     <use style="fill:#ff0000;stroke:#ff0000;stroke-linejoin:miter;" x="227.961653" xlink:href="#mc32eac8d3f" y="119.858129"/>
     <use style="fill:#ff0000;stroke:#ff0000;stroke-linejoin:miter;" x="231.240992" xlink:href="#mc32eac8d3f" y="119.874806"/>
     <use style="fill:#ff0000;stroke:#ff0000;stroke-linejoin:miter;" x="234.520331" xlink:href="#mc32eac8d3f" y="119.863739"/>
     <use style="fill:#ff0000;stroke:#ff0000;stroke-linejoin:miter;" x="237.799669" xlink:href="#mc32eac8d3f" y="119.856055"/>
     <use style="fill:#ff0000;stroke:#ff0000;stroke-linejoin:miter;" x="241.079008" xlink:href="#mc32eac8d3f" y="119.866169"/>
     <use style="fill:#ff0000;stroke:#ff0000;stroke-linejoin:miter;" x="244.358347" xlink:href="#mc32eac8d3f" y="119.856731"/>
     <use style="fill:#ff0000;stroke:#ff0000;stroke-linejoin:miter;" x="247.637686" xlink:href="#mc32eac8d3f" y="119.87003"/>
     <use style="fill:#ff0000;stroke:#ff0000;stroke-linejoin:miter;" x="250.917025" xlink:href="#mc32eac8d3f" y="119.85412"/>
     <use style="fill:#ff0000;stroke:#ff0000;stroke-linejoin:miter;" x="254.196364" xlink:href="#mc32eac8d3f" y="119.853199"/>
     <use style="fill:#ff0000;stroke:#ff0000;stroke-linejoin:miter;" x="257.475702" xlink:href="#mc32eac8d3f" y="119.857663"/>
     <use style="fill:#ff0000;stroke:#ff0000;stroke-linejoin:miter;" x="260.755041" xlink:href="#mc32eac8d3f" y="119.853339"/>
     <use style="fill:#ff0000;stroke:#ff0000;stroke-linejoin:miter;" x="264.03438" xlink:href="#mc32eac8d3f" y="119.851965"/>
     <use style="fill:#ff0000;stroke:#ff0000;stroke-linejoin:miter;" x="267.313719" xlink:href="#mc32eac8d3f" y="119.851057"/>
     <use style="fill:#ff0000;stroke:#ff0000;stroke-linejoin:miter;" x="270.593058" xlink:href="#mc32eac8d3f" y="119.865072"/>
     <use style="fill:#ff0000;stroke:#ff0000;stroke-linejoin:miter;" x="273.872397" xlink:href="#mc32eac8d3f" y="119.854259"/>
     <use style="fill:#ff0000;stroke:#ff0000;stroke-linejoin:miter;" x="277.151736" xlink:href="#mc32eac8d3f" y="119.865913"/>
     <use style="fill:#ff0000;stroke:#ff0000;stroke-linejoin:miter;" x="280.431074" xlink:href="#mc32eac8d3f" y="119.853915"/>
     <use style="fill:#ff0000;stroke:#ff0000;stroke-linejoin:miter;" x="283.710413" xlink:href="#mc32eac8d3f" y="119.86077"/>
     <use style="fill:#ff0000;stroke:#ff0000;stroke-linejoin:miter;" x="286.989752" xlink:href="#mc32eac8d3f" y="119.859172"/>
     <use style="fill:#ff0000;stroke:#ff0000;stroke-linejoin:miter;" x="290.269091" xlink:href="#mc32eac8d3f" y="119.853687"/>
     <use style="fill:#ff0000;stroke:#ff0000;stroke-linejoin:miter;" x="293.54843" xlink:href="#mc32eac8d3f" y="119.87712"/>
     <use style="fill:#ff0000;stroke:#ff0000;stroke-linejoin:miter;" x="296.827769" xlink:href="#mc32eac8d3f" y="119.866179"/>
     <use style="fill:#ff0000;stroke:#ff0000;stroke-linejoin:miter;" x="300.107107" xlink:href="#mc32eac8d3f" y="119.872924"/>
     <use style="fill:#ff0000;stroke:#ff0000;stroke-linejoin:miter;" x="303.386446" xlink:href="#mc32eac8d3f" y="119.867065"/>
     <use style="fill:#ff0000;stroke:#ff0000;stroke-linejoin:miter;" x="306.665785" xlink:href="#mc32eac8d3f" y="119.876907"/>
     <use style="fill:#ff0000;stroke:#ff0000;stroke-linejoin:miter;" x="309.945124" xlink:href="#mc32eac8d3f" y="119.855625"/>
     <use style="fill:#ff0000;stroke:#ff0000;stroke-linejoin:miter;" x="313.224463" xlink:href="#mc32eac8d3f" y="119.852052"/>
     <use style="fill:#ff0000;stroke:#ff0000;stroke-linejoin:miter;" x="316.503802" xlink:href="#mc32eac8d3f" y="119.855142"/>
     <use style="fill:#ff0000;stroke:#ff0000;stroke-linejoin:miter;" x="319.78314" xlink:href="#mc32eac8d3f" y="119.852704"/>
     <use style="fill:#ff0000;stroke:#ff0000;stroke-linejoin:miter;" x="323.062479" xlink:href="#mc32eac8d3f" y="119.859033"/>
     <use style="fill:#ff0000;stroke:#ff0000;stroke-linejoin:miter;" x="326.341818" xlink:href="#mc32eac8d3f" y="119.862771"/>
     <use style="fill:#ff0000;stroke:#ff0000;stroke-linejoin:miter;" x="329.621157" xlink:href="#mc32eac8d3f" y="119.857106"/>
     <use style="fill:#ff0000;stroke:#ff0000;stroke-linejoin:miter;" x="332.900496" xlink:href="#mc32eac8d3f" y="119.883145"/>
     <use style="fill:#ff0000;stroke:#ff0000;stroke-linejoin:miter;" x="336.179835" xlink:href="#mc32eac8d3f" y="119.870714"/>
     <use style="fill:#ff0000;stroke:#ff0000;stroke-linejoin:miter;" x="339.459174" xlink:href="#mc32eac8d3f" y="119.87148"/>
     <use style="fill:#ff0000;stroke:#ff0000;stroke-linejoin:miter;" x="342.738512" xlink:href="#mc32eac8d3f" y="119.8522"/>
     <use style="fill:#ff0000;stroke:#ff0000;stroke-linejoin:miter;" x="346.017851" xlink:href="#mc32eac8d3f" y="119.867007"/>
     <use style="fill:#ff0000;stroke:#ff0000;stroke-linejoin:miter;" x="349.29719" xlink:href="#mc32eac8d3f" y="119.85949"/>
     <use style="fill:#ff0000;stroke:#ff0000;stroke-linejoin:miter;" x="352.576529" xlink:href="#mc32eac8d3f" y="119.854143"/>
     <use style="fill:#ff0000;stroke:#ff0000;stroke-linejoin:miter;" x="355.855868" xlink:href="#mc32eac8d3f" y="119.869356"/>
     <use style="fill:#ff0000;stroke:#ff0000;stroke-linejoin:miter;" x="359.135207" xlink:href="#mc32eac8d3f" y="119.855567"/>
     <use style="fill:#ff0000;stroke:#ff0000;stroke-linejoin:miter;" x="362.414545" xlink:href="#mc32eac8d3f" y="119.874307"/>
     <use style="fill:#ff0000;stroke:#ff0000;stroke-linejoin:miter;" x="365.693884" xlink:href="#mc32eac8d3f" y="119.851476"/>
     <use style="fill:#ff0000;stroke:#ff0000;stroke-linejoin:miter;" x="368.973223" xlink:href="#mc32eac8d3f" y="119.874958"/>
     <use style="fill:#ff0000;stroke:#ff0000;stroke-linejoin:miter;" x="372.252562" xlink:href="#mc32eac8d3f" y="119.864809"/>
     <use style="fill:#ff0000;stroke:#ff0000;stroke-linejoin:miter;" x="375.531901" xlink:href="#mc32eac8d3f" y="119.858168"/>
     <use style="fill:#ff0000;stroke:#ff0000;stroke-linejoin:miter;" x="378.81124" xlink:href="#mc32eac8d3f" y="119.861888"/>
     <use style="fill:#ff0000;stroke:#ff0000;stroke-linejoin:miter;" x="382.090579" xlink:href="#mc32eac8d3f" y="119.853116"/>
     <use style="fill:#ff0000;stroke:#ff0000;stroke-linejoin:miter;" x="385.369917" xlink:href="#mc32eac8d3f" y="119.86273"/>
     <use style="fill:#ff0000;stroke:#ff0000;stroke-linejoin:miter;" x="388.649256" xlink:href="#mc32eac8d3f" y="119.865711"/>
     <use style="fill:#ff0000;stroke:#ff0000;stroke-linejoin:miter;" x="391.928595" xlink:href="#mc32eac8d3f" y="119.850995"/>
     <use style="fill:#ff0000;stroke:#ff0000;stroke-linejoin:miter;" x="395.207934" xlink:href="#mc32eac8d3f" y="235.674858"/>
     <use style="fill:#ff0000;stroke:#ff0000;stroke-linejoin:miter;" x="398.487273" xlink:href="#mc32eac8d3f" y="274.601047"/>
    </g>
   </g>
   <g id="patch_3">
    <path d="M 57.6 307.584 
L 57.6 41.472 
" style="fill:none;stroke:#000000;stroke-linecap:square;stroke-linejoin:miter;stroke-width:0.8;"/>
   </g>
   <g id="patch_4">
    <path d="M 414.72 307.584 
L 414.72 41.472 
" style="fill:none;stroke:#000000;stroke-linecap:square;stroke-linejoin:miter;stroke-width:0.8;"/>
   </g>
   <g id="patch_5">
    <path d="M 57.6 307.584 
L 414.72 307.584 
" style="fill:none;stroke:#000000;stroke-linecap:square;stroke-linejoin:miter;stroke-width:0.8;"/>
   </g>
   <g id="patch_6">
    <path d="M 57.6 41.472 
L 414.72 41.472 
" style="fill:none;stroke:#000000;stroke-linecap:square;stroke-linejoin:miter;stroke-width:0.8;"/>
   </g>
   <g id="text_17">
    <!-- Upper and lower bounds -->
    <g transform="translate(162.559687 35.472)scale(0.12 -0.12)">
     <defs>
      <path d="M 8.6875 72.90625 
L 18.609375 72.90625 
L 18.609375 28.609375 
Q 18.609375 16.890625 22.84375 11.734375 
Q 27.09375 6.59375 36.625 6.59375 
Q 46.09375 6.59375 50.34375 11.734375 
Q 54.59375 16.890625 54.59375 28.609375 
L 54.59375 72.90625 
L 64.5 72.90625 
L 64.5 27.390625 
Q 64.5 13.140625 57.4375 5.859375 
Q 50.390625 -1.421875 36.625 -1.421875 
Q 22.796875 -1.421875 15.734375 5.859375 
Q 8.6875 13.140625 8.6875 27.390625 
z
" id="DejaVuSans-85"/>
      <path d="M 18.109375 8.203125 
L 18.109375 -20.796875 
L 9.078125 -20.796875 
L 9.078125 54.6875 
L 18.109375 54.6875 
L 18.109375 46.390625 
Q 20.953125 51.265625 25.265625 53.625 
Q 29.59375 56 35.59375 56 
Q 45.5625 56 51.78125 48.09375 
Q 58.015625 40.1875 58.015625 27.296875 
Q 58.015625 14.40625 51.78125 6.484375 
Q 45.5625 -1.421875 35.59375 -1.421875 
Q 29.59375 -1.421875 25.265625 0.953125 
Q 20.953125 3.328125 18.109375 8.203125 
z
M 48.6875 27.296875 
Q 48.6875 37.203125 44.609375 42.84375 
Q 40.53125 48.484375 33.40625 48.484375 
Q 26.265625 48.484375 22.1875 42.84375 
Q 18.109375 37.203125 18.109375 27.296875 
Q 18.109375 17.390625 22.1875 11.75 
Q 26.265625 6.109375 33.40625 6.109375 
Q 40.53125 6.109375 44.609375 11.75 
Q 48.6875 17.390625 48.6875 27.296875 
z
" id="DejaVuSans-112"/>
      <path id="DejaVuSans-32"/>
      <path d="M 45.40625 46.390625 
L 45.40625 75.984375 
L 54.390625 75.984375 
L 54.390625 0 
L 45.40625 0 
L 45.40625 8.203125 
Q 42.578125 3.328125 38.25 0.953125 
Q 33.9375 -1.421875 27.875 -1.421875 
Q 17.96875 -1.421875 11.734375 6.484375 
Q 5.515625 14.40625 5.515625 27.296875 
Q 5.515625 40.1875 11.734375 48.09375 
Q 17.96875 56 27.875 56 
Q 33.9375 56 38.25 53.625 
Q 42.578125 51.265625 45.40625 46.390625 
z
M 14.796875 27.296875 
Q 14.796875 17.390625 18.875 11.75 
Q 22.953125 6.109375 30.078125 6.109375 
Q 37.203125 6.109375 41.296875 11.75 
Q 45.40625 17.390625 45.40625 27.296875 
Q 45.40625 37.203125 41.296875 42.84375 
Q 37.203125 48.484375 30.078125 48.484375 
Q 22.953125 48.484375 18.875 42.84375 
Q 14.796875 37.203125 14.796875 27.296875 
z
" id="DejaVuSans-100"/>
      <path d="M 9.421875 75.984375 
L 18.40625 75.984375 
L 18.40625 0 
L 9.421875 0 
z
" id="DejaVuSans-108"/>
      <path d="M 30.609375 48.390625 
Q 23.390625 48.390625 19.1875 42.75 
Q 14.984375 37.109375 14.984375 27.296875 
Q 14.984375 17.484375 19.15625 11.84375 
Q 23.34375 6.203125 30.609375 6.203125 
Q 37.796875 6.203125 41.984375 11.859375 
Q 46.1875 17.53125 46.1875 27.296875 
Q 46.1875 37.015625 41.984375 42.703125 
Q 37.796875 48.390625 30.609375 48.390625 
z
M 30.609375 56 
Q 42.328125 56 49.015625 48.375 
Q 55.71875 40.765625 55.71875 27.296875 
Q 55.71875 13.875 49.015625 6.21875 
Q 42.328125 -1.421875 30.609375 -1.421875 
Q 18.84375 -1.421875 12.171875 6.21875 
Q 5.515625 13.875 5.515625 27.296875 
Q 5.515625 40.765625 12.171875 48.375 
Q 18.84375 56 30.609375 56 
z
" id="DejaVuSans-111"/>
      <path d="M 4.203125 54.6875 
L 13.1875 54.6875 
L 24.421875 12.015625 
L 35.59375 54.6875 
L 46.1875 54.6875 
L 57.421875 12.015625 
L 68.609375 54.6875 
L 77.59375 54.6875 
L 63.28125 0 
L 52.6875 0 
L 40.921875 44.828125 
L 29.109375 0 
L 18.5 0 
z
" id="DejaVuSans-119"/>
      <path d="M 48.6875 27.296875 
Q 48.6875 37.203125 44.609375 42.84375 
Q 40.53125 48.484375 33.40625 48.484375 
Q 26.265625 48.484375 22.1875 42.84375 
Q 18.109375 37.203125 18.109375 27.296875 
Q 18.109375 17.390625 22.1875 11.75 
Q 26.265625 6.109375 33.40625 6.109375 
Q 40.53125 6.109375 44.609375 11.75 
Q 48.6875 17.390625 48.6875 27.296875 
z
M 18.109375 46.390625 
Q 20.953125 51.265625 25.265625 53.625 
Q 29.59375 56 35.59375 56 
Q 45.5625 56 51.78125 48.09375 
Q 58.015625 40.1875 58.015625 27.296875 
Q 58.015625 14.40625 51.78125 6.484375 
Q 45.5625 -1.421875 35.59375 -1.421875 
Q 29.59375 -1.421875 25.265625 0.953125 
Q 20.953125 3.328125 18.109375 8.203125 
L 18.109375 0 
L 9.078125 0 
L 9.078125 75.984375 
L 18.109375 75.984375 
z
" id="DejaVuSans-98"/>
      <path d="M 8.5 21.578125 
L 8.5 54.6875 
L 17.484375 54.6875 
L 17.484375 21.921875 
Q 17.484375 14.15625 20.5 10.265625 
Q 23.53125 6.390625 29.59375 6.390625 
Q 36.859375 6.390625 41.078125 11.03125 
Q 45.3125 15.671875 45.3125 23.6875 
L 45.3125 54.6875 
L 54.296875 54.6875 
L 54.296875 0 
L 45.3125 0 
L 45.3125 8.40625 
Q 42.046875 3.421875 37.71875 1 
Q 33.40625 -1.421875 27.6875 -1.421875 
Q 18.265625 -1.421875 13.375 4.4375 
Q 8.5 10.296875 8.5 21.578125 
z
M 31.109375 56 
z
" id="DejaVuSans-117"/>
      <path d="M 44.28125 53.078125 
L 44.28125 44.578125 
Q 40.484375 46.53125 36.375 47.5 
Q 32.28125 48.484375 27.875 48.484375 
Q 21.1875 48.484375 17.84375 46.4375 
Q 14.5 44.390625 14.5 40.28125 
Q 14.5 37.15625 16.890625 35.375 
Q 19.28125 33.59375 26.515625 31.984375 
L 29.59375 31.296875 
Q 39.15625 29.25 43.1875 25.515625 
Q 47.21875 21.78125 47.21875 15.09375 
Q 47.21875 7.46875 41.1875 3.015625 
Q 35.15625 -1.421875 24.609375 -1.421875 
Q 20.21875 -1.421875 15.453125 -0.5625 
Q 10.6875 0.296875 5.421875 2 
L 5.421875 11.28125 
Q 10.40625 8.6875 15.234375 7.390625 
Q 20.0625 6.109375 24.8125 6.109375 
Q 31.15625 6.109375 34.5625 8.28125 
Q 37.984375 10.453125 37.984375 14.40625 
Q 37.984375 18.0625 35.515625 20.015625 
Q 33.0625 21.96875 24.703125 23.78125 
L 21.578125 24.515625 
Q 13.234375 26.265625 9.515625 29.90625 
Q 5.8125 33.546875 5.8125 39.890625 
Q 5.8125 47.609375 11.28125 51.796875 
Q 16.75 56 26.8125 56 
Q 31.78125 56 36.171875 55.265625 
Q 40.578125 54.546875 44.28125 53.078125 
z
" id="DejaVuSans-115"/>
     </defs>
     <use xlink:href="#DejaVuSans-85"/>
     <use x="73.193359" xlink:href="#DejaVuSans-112"/>
     <use x="136.669922" xlink:href="#DejaVuSans-112"/>
     <use x="200.146484" xlink:href="#DejaVuSans-101"/>
     <use x="261.669922" xlink:href="#DejaVuSans-114"/>
     <use x="302.783203" xlink:href="#DejaVuSans-32"/>
     <use x="334.570312" xlink:href="#DejaVuSans-97"/>
     <use x="395.849609" xlink:href="#DejaVuSans-110"/>
     <use x="459.228516" xlink:href="#DejaVuSans-100"/>
     <use x="522.705078" xlink:href="#DejaVuSans-32"/>
     <use x="554.492188" xlink:href="#DejaVuSans-108"/>
     <use x="582.275391" xlink:href="#DejaVuSans-111"/>
     <use x="643.457031" xlink:href="#DejaVuSans-119"/>
     <use x="725.244141" xlink:href="#DejaVuSans-101"/>
     <use x="786.767578" xlink:href="#DejaVuSans-114"/>
     <use x="827.880859" xlink:href="#DejaVuSans-32"/>
     <use x="859.667969" xlink:href="#DejaVuSans-98"/>
     <use x="923.144531" xlink:href="#DejaVuSans-111"/>
     <use x="984.326172" xlink:href="#DejaVuSans-117"/>
     <use x="1047.705078" xlink:href="#DejaVuSans-110"/>
     <use x="1111.083984" xlink:href="#DejaVuSans-100"/>
     <use x="1174.560547" xlink:href="#DejaVuSans-115"/>
    </g>
   </g>
   <g id="legend_1">
    <g id="patch_7">
     <path d="M 326.443438 93.506375 
L 407.72 93.506375 
Q 409.72 93.506375 409.72 91.506375 
L 409.72 48.472 
Q 409.72 46.472 407.72 46.472 
L 326.443438 46.472 
Q 324.443438 46.472 324.443438 48.472 
L 324.443438 91.506375 
Q 324.443438 93.506375 326.443438 93.506375 
z
" style="fill:#ffffff;opacity:0.8;stroke:#cccccc;stroke-linejoin:miter;"/>
    </g>
    <g id="line2d_19">
     <path d="M 328.443438 54.570438 
L 348.443438 54.570438 
" style="fill:none;stroke:#0000ff;stroke-linecap:square;stroke-width:1.5;"/>
    </g>
    <g id="line2d_20">
     <g>
      <use style="fill:#0000ff;stroke:#0000ff;" x="338.443438" xlink:href="#m60aec2d95b" y="54.570438"/>
     </g>
    </g>
    <g id="text_18">
     <!-- empirical -->
     <g transform="translate(356.443438 58.070438)scale(0.1 -0.1)">
      <defs>
       <path d="M 9.421875 54.6875 
L 18.40625 54.6875 
L 18.40625 0 
L 9.421875 0 
z
M 9.421875 75.984375 
L 18.40625 75.984375 
L 18.40625 64.59375 
L 9.421875 64.59375 
z
" id="DejaVuSans-105"/>
       <path d="M 48.78125 52.59375 
L 48.78125 44.1875 
Q 44.96875 46.296875 41.140625 47.34375 
Q 37.3125 48.390625 33.40625 48.390625 
Q 24.65625 48.390625 19.8125 42.84375 
Q 14.984375 37.3125 14.984375 27.296875 
Q 14.984375 17.28125 19.8125 11.734375 
Q 24.65625 6.203125 33.40625 6.203125 
Q 37.3125 6.203125 41.140625 7.25 
Q 44.96875 8.296875 48.78125 10.40625 
L 48.78125 2.09375 
Q 45.015625 0.34375 40.984375 -0.53125 
Q 36.96875 -1.421875 32.421875 -1.421875 
Q 20.0625 -1.421875 12.78125 6.34375 
Q 5.515625 14.109375 5.515625 27.296875 
Q 5.515625 40.671875 12.859375 48.328125 
Q 20.21875 56 33.015625 56 
Q 37.15625 56 41.109375 55.140625 
Q 45.0625 54.296875 48.78125 52.59375 
z
" id="DejaVuSans-99"/>
      </defs>
      <use xlink:href="#DejaVuSans-101"/>
      <use x="61.523438" xlink:href="#DejaVuSans-109"/>
      <use x="158.935547" xlink:href="#DejaVuSans-112"/>
      <use x="222.412109" xlink:href="#DejaVuSans-105"/>
      <use x="250.195312" xlink:href="#DejaVuSans-114"/>
      <use x="291.308594" xlink:href="#DejaVuSans-105"/>
      <use x="319.091797" xlink:href="#DejaVuSans-99"/>
      <use x="374.072266" xlink:href="#DejaVuSans-97"/>
      <use x="435.351562" xlink:href="#DejaVuSans-108"/>
     </g>
    </g>
    <g id="line2d_21">
     <path d="M 328.443438 69.248563 
L 348.443438 69.248563 
" style="fill:none;stroke:#000000;stroke-linecap:square;stroke-width:1.5;"/>
    </g>
    <g id="line2d_22">
     <g>
      <use style="stroke:#000000;" x="338.443438" xlink:href="#mef50452339" y="69.248563"/>
     </g>
    </g>
    <g id="text_19">
     <!-- true -->
     <g transform="translate(356.443438 72.748563)scale(0.1 -0.1)">
      <defs>
       <path d="M 18.3125 70.21875 
L 18.3125 54.6875 
L 36.8125 54.6875 
L 36.8125 47.703125 
L 18.3125 47.703125 
L 18.3125 18.015625 
Q 18.3125 11.328125 20.140625 9.421875 
Q 21.96875 7.515625 27.59375 7.515625 
L 36.8125 7.515625 
L 36.8125 0 
L 27.59375 0 
Q 17.1875 0 13.234375 3.875 
Q 9.28125 7.765625 9.28125 18.015625 
L 9.28125 47.703125 
L 2.6875 47.703125 
L 2.6875 54.6875 
L 9.28125 54.6875 
L 9.28125 70.21875 
z
" id="DejaVuSans-116"/>
      </defs>
      <use xlink:href="#DejaVuSans-116"/>
      <use x="39.208984" xlink:href="#DejaVuSans-114"/>
      <use x="80.322266" xlink:href="#DejaVuSans-117"/>
      <use x="143.701172" xlink:href="#DejaVuSans-101"/>
     </g>
    </g>
    <g id="line2d_23">
     <path d="M 328.443438 83.926688 
L 348.443438 83.926688 
" style="fill:none;stroke:#1f77b4;stroke-width:1.5;"/>
    </g>
    <g id="text_20">
     <!-- Threshold -->
     <g transform="translate(356.443438 87.426688)scale(0.1 -0.1)">
      <defs>
       <path d="M -0.296875 72.90625 
L 61.375 72.90625 
L 61.375 64.59375 
L 35.5 64.59375 
L 35.5 0 
L 25.59375 0 
L 25.59375 64.59375 
L -0.296875 64.59375 
z
" id="DejaVuSans-84"/>
       <path d="M 54.890625 33.015625 
L 54.890625 0 
L 45.90625 0 
L 45.90625 32.71875 
Q 45.90625 40.484375 42.875 44.328125 
Q 39.84375 48.1875 33.796875 48.1875 
Q 26.515625 48.1875 22.3125 43.546875 
Q 18.109375 38.921875 18.109375 30.90625 
L 18.109375 0 
L 9.078125 0 
L 9.078125 75.984375 
L 18.109375 75.984375 
L 18.109375 46.1875 
Q 21.34375 51.125 25.703125 53.5625 
Q 30.078125 56 35.796875 56 
Q 45.21875 56 50.046875 50.171875 
Q 54.890625 44.34375 54.890625 33.015625 
z
" id="DejaVuSans-104"/>
      </defs>
      <use xlink:href="#DejaVuSans-84"/>
      <use x="61.083984" xlink:href="#DejaVuSans-104"/>
      <use x="124.462891" xlink:href="#DejaVuSans-114"/>
      <use x="163.326172" xlink:href="#DejaVuSans-101"/>
      <use x="224.849609" xlink:href="#DejaVuSans-115"/>
      <use x="276.949219" xlink:href="#DejaVuSans-104"/>
      <use x="340.328125" xlink:href="#DejaVuSans-111"/>
      <use x="401.509766" xlink:href="#DejaVuSans-108"/>
      <use x="429.292969" xlink:href="#DejaVuSans-100"/>
     </g>
    </g>
   </g>
  </g>
 </g>
 <defs>
  <clipPath id="p0f8e2d7d1e">
   <rect height="266.112" width="357.12" x="57.6" y="41.472"/>
  </clipPath>
 </defs>
</svg>
