<?xml version="1.0" encoding="utf-8" standalone="no"?>
<!DOCTYPE svg PUBLIC "-//W3C//DTD SVG 1.1//EN"
  "http://www.w3.org/Graphics/SVG/1.1/DTD/svg11.dtd">
<!-- Created with matplotlib (https://matplotlib.org/) -->
<svg height="345.6pt" version="1.1" viewBox="0 0 460.8 345.6" width="460.8pt" xmlns="http://www.w3.org/2000/svg" xmlns:xlink="http://www.w3.org/1999/xlink">
 <metadata>
  <rdf:RDF xmlns:cc="http://creativecommons.org/ns#" xmlns:dc="http://purl.org/dc/elements/1.1/" xmlns:rdf="http://www.w3.org/1999/02/22-rdf-syntax-ns#">
   <cc:Work>
    <dc:type rdf:resource="http://purl.org/dc/dcmitype/StillImage"/>
    <dc:date>2021-03-09T20:01:15.262464</dc:date>
    <dc:format>image/svg+xml</dc:format>
    <dc:creator>
     <cc:Agent>
      <dc:title>Matplotlib v3.3.3, https://matplotlib.org/</dc:title>
     </cc:Agent>
    </dc:creator>
   </cc:Work>
  </rdf:RDF>
 </metadata>
 <defs>
  <style type="text/css">*{stroke-linecap:butt;stroke-linejoin:round;}</style>
 </defs>
 <g id="figure_1">
  <g id="patch_1">
   <path d="M 0 345.6 
L 460.8 345.6 
L 460.8 0 
L 0 0 
z
" style="fill:#ffffff;"/>
  </g>
  <g id="axes_1">
   <g id="patch_2">
    <path d="M 57.6 307.584 
L 414.72 307.584 
L 414.72 41.472 
L 57.6 41.472 
z
" style="fill:#ffffff;"/>
   </g>
   <g id="matplotlib.axis_1">
    <g id="xtick_1">
     <g id="line2d_1">
      <defs>
       <path d="M 0 0 
L 0 3.5 
" id="m4c544dc9d7" style="stroke:#000000;stroke-width:0.8;"/>
      </defs>
      <g>
       <use style="stroke:#000000;stroke-width:0.8;" x="73.832727" xlink:href="#m4c544dc9d7" y="307.584"/>
      </g>
     </g>
     <g id="text_1">
      <!-- 0 -->
      <g transform="translate(70.651477 322.182437)scale(0.1 -0.1)">
       <defs>
        <path d="M 31.78125 66.40625 
Q 24.171875 66.40625 20.328125 58.90625 
Q 16.5 51.421875 16.5 36.375 
Q 16.5 21.390625 20.328125 13.890625 
Q 24.171875 6.390625 31.78125 6.390625 
Q 39.453125 6.390625 43.28125 13.890625 
Q 47.125 21.390625 47.125 36.375 
Q 47.125 51.421875 43.28125 58.90625 
Q 39.453125 66.40625 31.78125 66.40625 
z
M 31.78125 74.21875 
Q 44.046875 74.21875 50.515625 64.515625 
Q 56.984375 54.828125 56.984375 36.375 
Q 56.984375 17.96875 50.515625 8.265625 
Q 44.046875 -1.421875 31.78125 -1.421875 
Q 19.53125 -1.421875 13.0625 8.265625 
Q 6.59375 17.96875 6.59375 36.375 
Q 6.59375 54.828125 13.0625 64.515625 
Q 19.53125 74.21875 31.78125 74.21875 
z
" id="DejaVuSans-48"/>
       </defs>
       <use xlink:href="#DejaVuSans-48"/>
      </g>
     </g>
    </g>
    <g id="xtick_2">
     <g id="line2d_2">
      <g>
       <use style="stroke:#000000;stroke-width:0.8;" x="139.419504" xlink:href="#m4c544dc9d7" y="307.584"/>
      </g>
     </g>
     <g id="text_2">
      <!-- 20 -->
      <g transform="translate(133.057004 322.182437)scale(0.1 -0.1)">
       <defs>
        <path d="M 19.1875 8.296875 
L 53.609375 8.296875 
L 53.609375 0 
L 7.328125 0 
L 7.328125 8.296875 
Q 12.9375 14.109375 22.625 23.890625 
Q 32.328125 33.6875 34.8125 36.53125 
Q 39.546875 41.84375 41.421875 45.53125 
Q 43.3125 49.21875 43.3125 52.78125 
Q 43.3125 58.59375 39.234375 62.25 
Q 35.15625 65.921875 28.609375 65.921875 
Q 23.96875 65.921875 18.8125 64.3125 
Q 13.671875 62.703125 7.8125 59.421875 
L 7.8125 69.390625 
Q 13.765625 71.78125 18.9375 73 
Q 24.125 74.21875 28.421875 74.21875 
Q 39.75 74.21875 46.484375 68.546875 
Q 53.21875 62.890625 53.21875 53.421875 
Q 53.21875 48.921875 51.53125 44.890625 
Q 49.859375 40.875 45.40625 35.40625 
Q 44.1875 33.984375 37.640625 27.21875 
Q 31.109375 20.453125 19.1875 8.296875 
z
" id="DejaVuSans-50"/>
       </defs>
       <use xlink:href="#DejaVuSans-50"/>
       <use x="63.623047" xlink:href="#DejaVuSans-48"/>
      </g>
     </g>
    </g>
    <g id="xtick_3">
     <g id="line2d_3">
      <g>
       <use style="stroke:#000000;stroke-width:0.8;" x="205.006281" xlink:href="#m4c544dc9d7" y="307.584"/>
      </g>
     </g>
     <g id="text_3">
      <!-- 40 -->
      <g transform="translate(198.643781 322.182437)scale(0.1 -0.1)">
       <defs>
        <path d="M 37.796875 64.3125 
L 12.890625 25.390625 
L 37.796875 25.390625 
z
M 35.203125 72.90625 
L 47.609375 72.90625 
L 47.609375 25.390625 
L 58.015625 25.390625 
L 58.015625 17.1875 
L 47.609375 17.1875 
L 47.609375 0 
L 37.796875 0 
L 37.796875 17.1875 
L 4.890625 17.1875 
L 4.890625 26.703125 
z
" id="DejaVuSans-52"/>
       </defs>
       <use xlink:href="#DejaVuSans-52"/>
       <use x="63.623047" xlink:href="#DejaVuSans-48"/>
      </g>
     </g>
    </g>
    <g id="xtick_4">
     <g id="line2d_4">
      <g>
       <use style="stroke:#000000;stroke-width:0.8;" x="270.593058" xlink:href="#m4c544dc9d7" y="307.584"/>
      </g>
     </g>
     <g id="text_4">
      <!-- 60 -->
      <g transform="translate(264.230558 322.182437)scale(0.1 -0.1)">
       <defs>
        <path d="M 33.015625 40.375 
Q 26.375 40.375 22.484375 35.828125 
Q 18.609375 31.296875 18.609375 23.390625 
Q 18.609375 15.53125 22.484375 10.953125 
Q 26.375 6.390625 33.015625 6.390625 
Q 39.65625 6.390625 43.53125 10.953125 
Q 47.40625 15.53125 47.40625 23.390625 
Q 47.40625 31.296875 43.53125 35.828125 
Q 39.65625 40.375 33.015625 40.375 
z
M 52.59375 71.296875 
L 52.59375 62.3125 
Q 48.875 64.0625 45.09375 64.984375 
Q 41.3125 65.921875 37.59375 65.921875 
Q 27.828125 65.921875 22.671875 59.328125 
Q 17.53125 52.734375 16.796875 39.40625 
Q 19.671875 43.65625 24.015625 45.921875 
Q 28.375 48.1875 33.59375 48.1875 
Q 44.578125 48.1875 50.953125 41.515625 
Q 57.328125 34.859375 57.328125 23.390625 
Q 57.328125 12.15625 50.6875 5.359375 
Q 44.046875 -1.421875 33.015625 -1.421875 
Q 20.359375 -1.421875 13.671875 8.265625 
Q 6.984375 17.96875 6.984375 36.375 
Q 6.984375 53.65625 15.1875 63.9375 
Q 23.390625 74.21875 37.203125 74.21875 
Q 40.921875 74.21875 44.703125 73.484375 
Q 48.484375 72.75 52.59375 71.296875 
z
" id="DejaVuSans-54"/>
       </defs>
       <use xlink:href="#DejaVuSans-54"/>
       <use x="63.623047" xlink:href="#DejaVuSans-48"/>
      </g>
     </g>
    </g>
    <g id="xtick_5">
     <g id="line2d_5">
      <g>
       <use style="stroke:#000000;stroke-width:0.8;" x="336.179835" xlink:href="#m4c544dc9d7" y="307.584"/>
      </g>
     </g>
     <g id="text_5">
      <!-- 80 -->
      <g transform="translate(329.817335 322.182437)scale(0.1 -0.1)">
       <defs>
        <path d="M 31.78125 34.625 
Q 24.75 34.625 20.71875 30.859375 
Q 16.703125 27.09375 16.703125 20.515625 
Q 16.703125 13.921875 20.71875 10.15625 
Q 24.75 6.390625 31.78125 6.390625 
Q 38.8125 6.390625 42.859375 10.171875 
Q 46.921875 13.96875 46.921875 20.515625 
Q 46.921875 27.09375 42.890625 30.859375 
Q 38.875 34.625 31.78125 34.625 
z
M 21.921875 38.8125 
Q 15.578125 40.375 12.03125 44.71875 
Q 8.5 49.078125 8.5 55.328125 
Q 8.5 64.0625 14.71875 69.140625 
Q 20.953125 74.21875 31.78125 74.21875 
Q 42.671875 74.21875 48.875 69.140625 
Q 55.078125 64.0625 55.078125 55.328125 
Q 55.078125 49.078125 51.53125 44.71875 
Q 48 40.375 41.703125 38.8125 
Q 48.828125 37.15625 52.796875 32.3125 
Q 56.78125 27.484375 56.78125 20.515625 
Q 56.78125 9.90625 50.3125 4.234375 
Q 43.84375 -1.421875 31.78125 -1.421875 
Q 19.734375 -1.421875 13.25 4.234375 
Q 6.78125 9.90625 6.78125 20.515625 
Q 6.78125 27.484375 10.78125 32.3125 
Q 14.796875 37.15625 21.921875 38.8125 
z
M 18.3125 54.390625 
Q 18.3125 48.734375 21.84375 45.5625 
Q 25.390625 42.390625 31.78125 42.390625 
Q 38.140625 42.390625 41.71875 45.5625 
Q 45.3125 48.734375 45.3125 54.390625 
Q 45.3125 60.0625 41.71875 63.234375 
Q 38.140625 66.40625 31.78125 66.40625 
Q 25.390625 66.40625 21.84375 63.234375 
Q 18.3125 60.0625 18.3125 54.390625 
z
" id="DejaVuSans-56"/>
       </defs>
       <use xlink:href="#DejaVuSans-56"/>
       <use x="63.623047" xlink:href="#DejaVuSans-48"/>
      </g>
     </g>
    </g>
    <g id="xtick_6">
     <g id="line2d_6">
      <g>
       <use style="stroke:#000000;stroke-width:0.8;" x="401.766612" xlink:href="#m4c544dc9d7" y="307.584"/>
      </g>
     </g>
     <g id="text_6">
      <!-- 100 -->
      <g transform="translate(392.222862 322.182437)scale(0.1 -0.1)">
       <defs>
        <path d="M 12.40625 8.296875 
L 28.515625 8.296875 
L 28.515625 63.921875 
L 10.984375 60.40625 
L 10.984375 69.390625 
L 28.421875 72.90625 
L 38.28125 72.90625 
L 38.28125 8.296875 
L 54.390625 8.296875 
L 54.390625 0 
L 12.40625 0 
z
" id="DejaVuSans-49"/>
       </defs>
       <use xlink:href="#DejaVuSans-49"/>
       <use x="63.623047" xlink:href="#DejaVuSans-48"/>
       <use x="127.246094" xlink:href="#DejaVuSans-48"/>
      </g>
     </g>
    </g>
    <g id="text_7">
     <!-- Arm -->
     <g transform="translate(225.901406 335.860562)scale(0.1 -0.1)">
      <defs>
       <path d="M 34.1875 63.1875 
L 20.796875 26.90625 
L 47.609375 26.90625 
z
M 28.609375 72.90625 
L 39.796875 72.90625 
L 67.578125 0 
L 57.328125 0 
L 50.6875 18.703125 
L 17.828125 18.703125 
L 11.1875 0 
L 0.78125 0 
z
" id="DejaVuSans-65"/>
       <path d="M 41.109375 46.296875 
Q 39.59375 47.171875 37.8125 47.578125 
Q 36.03125 48 33.890625 48 
Q 26.265625 48 22.1875 43.046875 
Q 18.109375 38.09375 18.109375 28.8125 
L 18.109375 0 
L 9.078125 0 
L 9.078125 54.6875 
L 18.109375 54.6875 
L 18.109375 46.1875 
Q 20.953125 51.171875 25.484375 53.578125 
Q 30.03125 56 36.53125 56 
Q 37.453125 56 38.578125 55.875 
Q 39.703125 55.765625 41.0625 55.515625 
z
" id="DejaVuSans-114"/>
       <path d="M 52 44.1875 
Q 55.375 50.25 60.0625 53.125 
Q 64.75 56 71.09375 56 
Q 79.640625 56 84.28125 50.015625 
Q 88.921875 44.046875 88.921875 33.015625 
L 88.921875 0 
L 79.890625 0 
L 79.890625 32.71875 
Q 79.890625 40.578125 77.09375 44.375 
Q 74.3125 48.1875 68.609375 48.1875 
Q 61.625 48.1875 57.5625 43.546875 
Q 53.515625 38.921875 53.515625 30.90625 
L 53.515625 0 
L 44.484375 0 
L 44.484375 32.71875 
Q 44.484375 40.625 41.703125 44.40625 
Q 38.921875 48.1875 33.109375 48.1875 
Q 26.21875 48.1875 22.15625 43.53125 
Q 18.109375 38.875 18.109375 30.90625 
L 18.109375 0 
L 9.078125 0 
L 9.078125 54.6875 
L 18.109375 54.6875 
L 18.109375 46.1875 
Q 21.1875 51.21875 25.484375 53.609375 
Q 29.78125 56 35.6875 56 
Q 41.65625 56 45.828125 52.96875 
Q 50 49.953125 52 44.1875 
z
" id="DejaVuSans-109"/>
      </defs>
      <use xlink:href="#DejaVuSans-65"/>
      <use x="68.408203" xlink:href="#DejaVuSans-114"/>
      <use x="107.771484" xlink:href="#DejaVuSans-109"/>
     </g>
    </g>
   </g>
   <g id="matplotlib.axis_2">
    <g id="ytick_1">
     <g id="line2d_7">
      <defs>
       <path d="M 0 0 
L -3.5 0 
" id="m7c933ce8e1" style="stroke:#000000;stroke-width:0.8;"/>
      </defs>
      <g>
       <use style="stroke:#000000;stroke-width:0.8;" x="57.6" xlink:href="#m7c933ce8e1" y="307.584"/>
      </g>
     </g>
     <g id="text_8">
      <!-- 0.0 -->
      <g transform="translate(34.696875 311.383219)scale(0.1 -0.1)">
       <defs>
        <path d="M 10.6875 12.40625 
L 21 12.40625 
L 21 0 
L 10.6875 0 
z
" id="DejaVuSans-46"/>
       </defs>
       <use xlink:href="#DejaVuSans-48"/>
       <use x="63.623047" xlink:href="#DejaVuSans-46"/>
       <use x="95.410156" xlink:href="#DejaVuSans-48"/>
      </g>
     </g>
    </g>
    <g id="ytick_2">
     <g id="line2d_8">
      <g>
       <use style="stroke:#000000;stroke-width:0.8;" x="57.6" xlink:href="#m7c933ce8e1" y="272.1024"/>
      </g>
     </g>
     <g id="text_9">
      <!-- 0.2 -->
      <g transform="translate(34.696875 275.901619)scale(0.1 -0.1)">
       <use xlink:href="#DejaVuSans-48"/>
       <use x="63.623047" xlink:href="#DejaVuSans-46"/>
       <use x="95.410156" xlink:href="#DejaVuSans-50"/>
      </g>
     </g>
    </g>
    <g id="ytick_3">
     <g id="line2d_9">
      <g>
       <use style="stroke:#000000;stroke-width:0.8;" x="57.6" xlink:href="#m7c933ce8e1" y="236.6208"/>
      </g>
     </g>
     <g id="text_10">
      <!-- 0.4 -->
      <g transform="translate(34.696875 240.420019)scale(0.1 -0.1)">
       <use xlink:href="#DejaVuSans-48"/>
       <use x="63.623047" xlink:href="#DejaVuSans-46"/>
       <use x="95.410156" xlink:href="#DejaVuSans-52"/>
      </g>
     </g>
    </g>
    <g id="ytick_4">
     <g id="line2d_10">
      <g>
       <use style="stroke:#000000;stroke-width:0.8;" x="57.6" xlink:href="#m7c933ce8e1" y="201.1392"/>
      </g>
     </g>
     <g id="text_11">
      <!-- 0.6 -->
      <g transform="translate(34.696875 204.938419)scale(0.1 -0.1)">
       <use xlink:href="#DejaVuSans-48"/>
       <use x="63.623047" xlink:href="#DejaVuSans-46"/>
       <use x="95.410156" xlink:href="#DejaVuSans-54"/>
      </g>
     </g>
    </g>
    <g id="ytick_5">
     <g id="line2d_11">
      <g>
       <use style="stroke:#000000;stroke-width:0.8;" x="57.6" xlink:href="#m7c933ce8e1" y="165.6576"/>
      </g>
     </g>
     <g id="text_12">
      <!-- 0.8 -->
      <g transform="translate(34.696875 169.456819)scale(0.1 -0.1)">
       <use xlink:href="#DejaVuSans-48"/>
       <use x="63.623047" xlink:href="#DejaVuSans-46"/>
       <use x="95.410156" xlink:href="#DejaVuSans-56"/>
      </g>
     </g>
    </g>
    <g id="ytick_6">
     <g id="line2d_12">
      <g>
       <use style="stroke:#000000;stroke-width:0.8;" x="57.6" xlink:href="#m7c933ce8e1" y="130.176"/>
      </g>
     </g>
     <g id="text_13">
      <!-- 1.0 -->
      <g transform="translate(34.696875 133.975219)scale(0.1 -0.1)">
       <use xlink:href="#DejaVuSans-49"/>
       <use x="63.623047" xlink:href="#DejaVuSans-46"/>
       <use x="95.410156" xlink:href="#DejaVuSans-48"/>
      </g>
     </g>
    </g>
    <g id="ytick_7">
     <g id="line2d_13">
      <g>
       <use style="stroke:#000000;stroke-width:0.8;" x="57.6" xlink:href="#m7c933ce8e1" y="94.6944"/>
      </g>
     </g>
     <g id="text_14">
      <!-- 1.2 -->
      <g transform="translate(34.696875 98.493619)scale(0.1 -0.1)">
       <use xlink:href="#DejaVuSans-49"/>
       <use x="63.623047" xlink:href="#DejaVuSans-46"/>
       <use x="95.410156" xlink:href="#DejaVuSans-50"/>
      </g>
     </g>
    </g>
    <g id="ytick_8">
     <g id="line2d_14">
      <g>
       <use style="stroke:#000000;stroke-width:0.8;" x="57.6" xlink:href="#m7c933ce8e1" y="59.2128"/>
      </g>
     </g>
     <g id="text_15">
      <!-- 1.4 -->
      <g transform="translate(34.696875 63.012019)scale(0.1 -0.1)">
       <use xlink:href="#DejaVuSans-49"/>
       <use x="63.623047" xlink:href="#DejaVuSans-46"/>
       <use x="95.410156" xlink:href="#DejaVuSans-52"/>
      </g>
     </g>
    </g>
    <g id="text_16">
     <!-- Mean -->
     <g transform="translate(28.617188 188.151437)rotate(-90)scale(0.1 -0.1)">
      <defs>
       <path d="M 9.8125 72.90625 
L 24.515625 72.90625 
L 43.109375 23.296875 
L 61.8125 72.90625 
L 76.515625 72.90625 
L 76.515625 0 
L 66.890625 0 
L 66.890625 64.015625 
L 48.09375 14.015625 
L 38.1875 14.015625 
L 19.390625 64.015625 
L 19.390625 0 
L 9.8125 0 
z
" id="DejaVuSans-77"/>
       <path d="M 56.203125 29.59375 
L 56.203125 25.203125 
L 14.890625 25.203125 
Q 15.484375 15.921875 20.484375 11.0625 
Q 25.484375 6.203125 34.421875 6.203125 
Q 39.59375 6.203125 44.453125 7.46875 
Q 49.3125 8.734375 54.109375 11.28125 
L 54.109375 2.78125 
Q 49.265625 0.734375 44.1875 -0.34375 
Q 39.109375 -1.421875 33.890625 -1.421875 
Q 20.796875 -1.421875 13.15625 6.1875 
Q 5.515625 13.8125 5.515625 26.8125 
Q 5.515625 40.234375 12.765625 48.109375 
Q 20.015625 56 32.328125 56 
Q 43.359375 56 49.78125 48.890625 
Q 56.203125 41.796875 56.203125 29.59375 
z
M 47.21875 32.234375 
Q 47.125 39.59375 43.09375 43.984375 
Q 39.0625 48.390625 32.421875 48.390625 
Q 24.90625 48.390625 20.390625 44.140625 
Q 15.875 39.890625 15.1875 32.171875 
z
" id="DejaVuSans-101"/>
       <path d="M 34.28125 27.484375 
Q 23.390625 27.484375 19.1875 25 
Q 14.984375 22.515625 14.984375 16.5 
Q 14.984375 11.71875 18.140625 8.90625 
Q 21.296875 6.109375 26.703125 6.109375 
Q 34.1875 6.109375 38.703125 11.40625 
Q 43.21875 16.703125 43.21875 25.484375 
L 43.21875 27.484375 
z
M 52.203125 31.203125 
L 52.203125 0 
L 43.21875 0 
L 43.21875 8.296875 
Q 40.140625 3.328125 35.546875 0.953125 
Q 30.953125 -1.421875 24.3125 -1.421875 
Q 15.921875 -1.421875 10.953125 3.296875 
Q 6 8.015625 6 15.921875 
Q 6 25.140625 12.171875 29.828125 
Q 18.359375 34.515625 30.609375 34.515625 
L 43.21875 34.515625 
L 43.21875 35.40625 
Q 43.21875 41.609375 39.140625 45 
Q 35.0625 48.390625 27.6875 48.390625 
Q 23 48.390625 18.546875 47.265625 
Q 14.109375 46.140625 10.015625 43.890625 
L 10.015625 52.203125 
Q 14.9375 54.109375 19.578125 55.046875 
Q 24.21875 56 28.609375 56 
Q 40.484375 56 46.34375 49.84375 
Q 52.203125 43.703125 52.203125 31.203125 
z
" id="DejaVuSans-97"/>
       <path d="M 54.890625 33.015625 
L 54.890625 0 
L 45.90625 0 
L 45.90625 32.71875 
Q 45.90625 40.484375 42.875 44.328125 
Q 39.84375 48.1875 33.796875 48.1875 
Q 26.515625 48.1875 22.3125 43.546875 
Q 18.109375 38.921875 18.109375 30.90625 
L 18.109375 0 
L 9.078125 0 
L 9.078125 54.6875 
L 18.109375 54.6875 
L 18.109375 46.1875 
Q 21.34375 51.125 25.703125 53.5625 
Q 30.078125 56 35.796875 56 
Q 45.21875 56 50.046875 50.171875 
Q 54.890625 44.34375 54.890625 33.015625 
z
" id="DejaVuSans-110"/>
      </defs>
      <use xlink:href="#DejaVuSans-77"/>
      <use x="86.279297" xlink:href="#DejaVuSans-101"/>
      <use x="147.802734" xlink:href="#DejaVuSans-97"/>
      <use x="209.082031" xlink:href="#DejaVuSans-110"/>
     </g>
    </g>
   </g>
   <g id="LineCollection_1">
    <path clip-path="url(#p80ec28aaf4)" d="M 73.832727 245.4912 
L 398.487273 245.4912 
" style="fill:none;stroke:#1f77b4;stroke-width:1.5;"/>
   </g>
   <g id="line2d_15">
    <path clip-path="url(#p80ec28aaf4)" d="M 73.832727 129.504922 
L 77.112066 130.648999 
L 80.391405 130.505428 
L 83.670744 131.455253 
L 86.950083 130.576833 
L 90.229421 132.386817 
L 93.50876 130.919891 
L 96.788099 132.803364 
L 100.067438 131.160535 
L 103.346777 131.977928 
L 106.626116 129.633812 
L 109.905455 129.583541 
L 113.184793 131.606963 
L 116.464132 133.373911 
L 119.743471 129.679581 
L 123.02281 130.641159 
L 126.302149 130.246714 
L 129.581488 128.711084 
L 132.860826 130.914331 
L 136.140165 131.394244 
L 139.419504 129.120756 
L 142.698843 132.003452 
L 145.978182 129.376674 
L 149.257521 128.214602 
L 152.53686 129.609137 
L 155.816198 129.317806 
L 159.095537 132.166861 
L 162.374876 129.916788 
L 165.654215 132.555572 
L 168.933554 129.422892 
L 172.212893 130.906524 
L 175.492231 130.372715 
L 178.77157 129.367088 
L 182.050909 128.656526 
L 185.330248 129.475637 
L 188.609587 130.453391 
L 191.888926 129.255017 
L 195.168264 130.879917 
L 198.447603 130.206383 
L 201.726942 128.953306 
L 205.006281 131.682411 
L 208.28562 130.442298 
L 211.564959 129.754271 
L 214.844298 128.606896 
L 218.123636 130.098937 
L 221.402975 131.778134 
L 224.682314 131.427474 
L 227.961653 129.410769 
L 231.240992 129.870676 
L 234.520331 129.482246 
L 237.799669 127.882408 
L 241.079008 128.862555 
L 244.358347 132.462063 
L 247.637686 130.323678 
L 250.917025 130.255768 
L 254.196364 129.447253 
L 257.475702 130.020706 
L 260.755041 131.400982 
L 264.03438 129.211529 
L 267.313719 129.120687 
L 270.593058 129.597488 
L 273.872397 132.251405 
L 277.151736 131.237017 
L 280.431074 131.265553 
L 283.710413 128.040267 
L 286.989752 128.992746 
L 290.269091 129.508083 
L 293.54843 132.122582 
L 296.827769 130.118107 
L 300.107107 129.619354 
L 303.386446 129.691642 
L 306.665785 129.990623 
L 309.945124 130.675606 
L 313.224463 128.26323 
L 316.503802 130.729921 
L 319.78314 130.076164 
L 323.062479 129.958172 
L 326.341818 131.472063 
L 329.621157 131.617859 
L 332.900496 130.191078 
L 336.179835 130.938677 
L 339.459174 128.703382 
L 342.738512 132.047205 
L 346.017851 129.500878 
L 349.29719 130.316106 
L 352.576529 130.786842 
L 355.855868 130.212584 
L 359.135207 129.46466 
L 362.414545 134.448781 
L 365.693884 129.531356 
L 368.973223 128.649661 
L 372.252562 135.845157 
L 375.531901 131.084544 
L 378.81124 129.935287 
L 382.090579 129.043823 
L 385.369917 129.914197 
L 388.649256 131.833114 
L 391.928595 129.141904 
L 395.207934 236.599378 
L 398.487273 275.573809 
" style="fill:none;stroke:#0000ff;stroke-linecap:square;stroke-width:1.5;"/>
    <defs>
     <path d="M 0 3 
C 0.795609 3 1.55874 2.683901 2.12132 2.12132 
C 2.683901 1.55874 3 0.795609 3 0 
C 3 -0.795609 2.683901 -1.55874 2.12132 -2.12132 
C 1.55874 -2.683901 0.795609 -3 0 -3 
C -0.795609 -3 -1.55874 -2.683901 -2.12132 -2.12132 
C -2.683901 -1.55874 -3 -0.795609 -3 0 
C -3 0.795609 -2.683901 1.55874 -2.12132 2.12132 
C -1.55874 2.683901 -0.795609 3 0 3 
z
" id="m6c73e0b2aa" style="stroke:#0000ff;"/>
    </defs>
    <g clip-path="url(#p80ec28aaf4)">
     <use style="fill:#0000ff;stroke:#0000ff;" x="73.832727" xlink:href="#m6c73e0b2aa" y="129.504922"/>
     <use style="fill:#0000ff;stroke:#0000ff;" x="77.112066" xlink:href="#m6c73e0b2aa" y="130.648999"/>
     <use style="fill:#0000ff;stroke:#0000ff;" x="80.391405" xlink:href="#m6c73e0b2aa" y="130.505428"/>
     <use style="fill:#0000ff;stroke:#0000ff;" x="83.670744" xlink:href="#m6c73e0b2aa" y="131.455253"/>
     <use style="fill:#0000ff;stroke:#0000ff;" x="86.950083" xlink:href="#m6c73e0b2aa" y="130.576833"/>
     <use style="fill:#0000ff;stroke:#0000ff;" x="90.229421" xlink:href="#m6c73e0b2aa" y="132.386817"/>
     <use style="fill:#0000ff;stroke:#0000ff;" x="93.50876" xlink:href="#m6c73e0b2aa" y="130.919891"/>
     <use style="fill:#0000ff;stroke:#0000ff;" x="96.788099" xlink:href="#m6c73e0b2aa" y="132.803364"/>
     <use style="fill:#0000ff;stroke:#0000ff;" x="100.067438" xlink:href="#m6c73e0b2aa" y="131.160535"/>
     <use style="fill:#0000ff;stroke:#0000ff;" x="103.346777" xlink:href="#m6c73e0b2aa" y="131.977928"/>
     <use style="fill:#0000ff;stroke:#0000ff;" x="106.626116" xlink:href="#m6c73e0b2aa" y="129.633812"/>
     <use style="fill:#0000ff;stroke:#0000ff;" x="109.905455" xlink:href="#m6c73e0b2aa" y="129.583541"/>
     <use style="fill:#0000ff;stroke:#0000ff;" x="113.184793" xlink:href="#m6c73e0b2aa" y="131.606963"/>
     <use style="fill:#0000ff;stroke:#0000ff;" x="116.464132" xlink:href="#m6c73e0b2aa" y="133.373911"/>
     <use style="fill:#0000ff;stroke:#0000ff;" x="119.743471" xlink:href="#m6c73e0b2aa" y="129.679581"/>
     <use style="fill:#0000ff;stroke:#0000ff;" x="123.02281" xlink:href="#m6c73e0b2aa" y="130.641159"/>
     <use style="fill:#0000ff;stroke:#0000ff;" x="126.302149" xlink:href="#m6c73e0b2aa" y="130.246714"/>
     <use style="fill:#0000ff;stroke:#0000ff;" x="129.581488" xlink:href="#m6c73e0b2aa" y="128.711084"/>
     <use style="fill:#0000ff;stroke:#0000ff;" x="132.860826" xlink:href="#m6c73e0b2aa" y="130.914331"/>
     <use style="fill:#0000ff;stroke:#0000ff;" x="136.140165" xlink:href="#m6c73e0b2aa" y="131.394244"/>
     <use style="fill:#0000ff;stroke:#0000ff;" x="139.419504" xlink:href="#m6c73e0b2aa" y="129.120756"/>
     <use style="fill:#0000ff;stroke:#0000ff;" x="142.698843" xlink:href="#m6c73e0b2aa" y="132.003452"/>
     <use style="fill:#0000ff;stroke:#0000ff;" x="145.978182" xlink:href="#m6c73e0b2aa" y="129.376674"/>
     <use style="fill:#0000ff;stroke:#0000ff;" x="149.257521" xlink:href="#m6c73e0b2aa" y="128.214602"/>
     <use style="fill:#0000ff;stroke:#0000ff;" x="152.53686" xlink:href="#m6c73e0b2aa" y="129.609137"/>
     <use style="fill:#0000ff;stroke:#0000ff;" x="155.816198" xlink:href="#m6c73e0b2aa" y="129.317806"/>
     <use style="fill:#0000ff;stroke:#0000ff;" x="159.095537" xlink:href="#m6c73e0b2aa" y="132.166861"/>
     <use style="fill:#0000ff;stroke:#0000ff;" x="162.374876" xlink:href="#m6c73e0b2aa" y="129.916788"/>
     <use style="fill:#0000ff;stroke:#0000ff;" x="165.654215" xlink:href="#m6c73e0b2aa" y="132.555572"/>
     <use style="fill:#0000ff;stroke:#0000ff;" x="168.933554" xlink:href="#m6c73e0b2aa" y="129.422892"/>
     <use style="fill:#0000ff;stroke:#0000ff;" x="172.212893" xlink:href="#m6c73e0b2aa" y="130.906524"/>
     <use style="fill:#0000ff;stroke:#0000ff;" x="175.492231" xlink:href="#m6c73e0b2aa" y="130.372715"/>
     <use style="fill:#0000ff;stroke:#0000ff;" x="178.77157" xlink:href="#m6c73e0b2aa" y="129.367088"/>
     <use style="fill:#0000ff;stroke:#0000ff;" x="182.050909" xlink:href="#m6c73e0b2aa" y="128.656526"/>
     <use style="fill:#0000ff;stroke:#0000ff;" x="185.330248" xlink:href="#m6c73e0b2aa" y="129.475637"/>
     <use style="fill:#0000ff;stroke:#0000ff;" x="188.609587" xlink:href="#m6c73e0b2aa" y="130.453391"/>
     <use style="fill:#0000ff;stroke:#0000ff;" x="191.888926" xlink:href="#m6c73e0b2aa" y="129.255017"/>
     <use style="fill:#0000ff;stroke:#0000ff;" x="195.168264" xlink:href="#m6c73e0b2aa" y="130.879917"/>
     <use style="fill:#0000ff;stroke:#0000ff;" x="198.447603" xlink:href="#m6c73e0b2aa" y="130.206383"/>
     <use style="fill:#0000ff;stroke:#0000ff;" x="201.726942" xlink:href="#m6c73e0b2aa" y="128.953306"/>
     <use style="fill:#0000ff;stroke:#0000ff;" x="205.006281" xlink:href="#m6c73e0b2aa" y="131.682411"/>
     <use style="fill:#0000ff;stroke:#0000ff;" x="208.28562" xlink:href="#m6c73e0b2aa" y="130.442298"/>
     <use style="fill:#0000ff;stroke:#0000ff;" x="211.564959" xlink:href="#m6c73e0b2aa" y="129.754271"/>
     <use style="fill:#0000ff;stroke:#0000ff;" x="214.844298" xlink:href="#m6c73e0b2aa" y="128.606896"/>
     <use style="fill:#0000ff;stroke:#0000ff;" x="218.123636" xlink:href="#m6c73e0b2aa" y="130.098937"/>
     <use style="fill:#0000ff;stroke:#0000ff;" x="221.402975" xlink:href="#m6c73e0b2aa" y="131.778134"/>
     <use style="fill:#0000ff;stroke:#0000ff;" x="224.682314" xlink:href="#m6c73e0b2aa" y="131.427474"/>
     <use style="fill:#0000ff;stroke:#0000ff;" x="227.961653" xlink:href="#m6c73e0b2aa" y="129.410769"/>
     <use style="fill:#0000ff;stroke:#0000ff;" x="231.240992" xlink:href="#m6c73e0b2aa" y="129.870676"/>
     <use style="fill:#0000ff;stroke:#0000ff;" x="234.520331" xlink:href="#m6c73e0b2aa" y="129.482246"/>
     <use style="fill:#0000ff;stroke:#0000ff;" x="237.799669" xlink:href="#m6c73e0b2aa" y="127.882408"/>
     <use style="fill:#0000ff;stroke:#0000ff;" x="241.079008" xlink:href="#m6c73e0b2aa" y="128.862555"/>
     <use style="fill:#0000ff;stroke:#0000ff;" x="244.358347" xlink:href="#m6c73e0b2aa" y="132.462063"/>
     <use style="fill:#0000ff;stroke:#0000ff;" x="247.637686" xlink:href="#m6c73e0b2aa" y="130.323678"/>
     <use style="fill:#0000ff;stroke:#0000ff;" x="250.917025" xlink:href="#m6c73e0b2aa" y="130.255768"/>
     <use style="fill:#0000ff;stroke:#0000ff;" x="254.196364" xlink:href="#m6c73e0b2aa" y="129.447253"/>
     <use style="fill:#0000ff;stroke:#0000ff;" x="257.475702" xlink:href="#m6c73e0b2aa" y="130.020706"/>
     <use style="fill:#0000ff;stroke:#0000ff;" x="260.755041" xlink:href="#m6c73e0b2aa" y="131.400982"/>
     <use style="fill:#0000ff;stroke:#0000ff;" x="264.03438" xlink:href="#m6c73e0b2aa" y="129.211529"/>
     <use style="fill:#0000ff;stroke:#0000ff;" x="267.313719" xlink:href="#m6c73e0b2aa" y="129.120687"/>
     <use style="fill:#0000ff;stroke:#0000ff;" x="270.593058" xlink:href="#m6c73e0b2aa" y="129.597488"/>
     <use style="fill:#0000ff;stroke:#0000ff;" x="273.872397" xlink:href="#m6c73e0b2aa" y="132.251405"/>
     <use style="fill:#0000ff;stroke:#0000ff;" x="277.151736" xlink:href="#m6c73e0b2aa" y="131.237017"/>
     <use style="fill:#0000ff;stroke:#0000ff;" x="280.431074" xlink:href="#m6c73e0b2aa" y="131.265553"/>
     <use style="fill:#0000ff;stroke:#0000ff;" x="283.710413" xlink:href="#m6c73e0b2aa" y="128.040267"/>
     <use style="fill:#0000ff;stroke:#0000ff;" x="286.989752" xlink:href="#m6c73e0b2aa" y="128.992746"/>
     <use style="fill:#0000ff;stroke:#0000ff;" x="290.269091" xlink:href="#m6c73e0b2aa" y="129.508083"/>
     <use style="fill:#0000ff;stroke:#0000ff;" x="293.54843" xlink:href="#m6c73e0b2aa" y="132.122582"/>
     <use style="fill:#0000ff;stroke:#0000ff;" x="296.827769" xlink:href="#m6c73e0b2aa" y="130.118107"/>
     <use style="fill:#0000ff;stroke:#0000ff;" x="300.107107" xlink:href="#m6c73e0b2aa" y="129.619354"/>
     <use style="fill:#0000ff;stroke:#0000ff;" x="303.386446" xlink:href="#m6c73e0b2aa" y="129.691642"/>
     <use style="fill:#0000ff;stroke:#0000ff;" x="306.665785" xlink:href="#m6c73e0b2aa" y="129.990623"/>
     <use style="fill:#0000ff;stroke:#0000ff;" x="309.945124" xlink:href="#m6c73e0b2aa" y="130.675606"/>
     <use style="fill:#0000ff;stroke:#0000ff;" x="313.224463" xlink:href="#m6c73e0b2aa" y="128.26323"/>
     <use style="fill:#0000ff;stroke:#0000ff;" x="316.503802" xlink:href="#m6c73e0b2aa" y="130.729921"/>
     <use style="fill:#0000ff;stroke:#0000ff;" x="319.78314" xlink:href="#m6c73e0b2aa" y="130.076164"/>
     <use style="fill:#0000ff;stroke:#0000ff;" x="323.062479" xlink:href="#m6c73e0b2aa" y="129.958172"/>
     <use style="fill:#0000ff;stroke:#0000ff;" x="326.341818" xlink:href="#m6c73e0b2aa" y="131.472063"/>
     <use style="fill:#0000ff;stroke:#0000ff;" x="329.621157" xlink:href="#m6c73e0b2aa" y="131.617859"/>
     <use style="fill:#0000ff;stroke:#0000ff;" x="332.900496" xlink:href="#m6c73e0b2aa" y="130.191078"/>
     <use style="fill:#0000ff;stroke:#0000ff;" x="336.179835" xlink:href="#m6c73e0b2aa" y="130.938677"/>
     <use style="fill:#0000ff;stroke:#0000ff;" x="339.459174" xlink:href="#m6c73e0b2aa" y="128.703382"/>
     <use style="fill:#0000ff;stroke:#0000ff;" x="342.738512" xlink:href="#m6c73e0b2aa" y="132.047205"/>
     <use style="fill:#0000ff;stroke:#0000ff;" x="346.017851" xlink:href="#m6c73e0b2aa" y="129.500878"/>
     <use style="fill:#0000ff;stroke:#0000ff;" x="349.29719" xlink:href="#m6c73e0b2aa" y="130.316106"/>
     <use style="fill:#0000ff;stroke:#0000ff;" x="352.576529" xlink:href="#m6c73e0b2aa" y="130.786842"/>
     <use style="fill:#0000ff;stroke:#0000ff;" x="355.855868" xlink:href="#m6c73e0b2aa" y="130.212584"/>
     <use style="fill:#0000ff;stroke:#0000ff;" x="359.135207" xlink:href="#m6c73e0b2aa" y="129.46466"/>
     <use style="fill:#0000ff;stroke:#0000ff;" x="362.414545" xlink:href="#m6c73e0b2aa" y="134.448781"/>
     <use style="fill:#0000ff;stroke:#0000ff;" x="365.693884" xlink:href="#m6c73e0b2aa" y="129.531356"/>
     <use style="fill:#0000ff;stroke:#0000ff;" x="368.973223" xlink:href="#m6c73e0b2aa" y="128.649661"/>
     <use style="fill:#0000ff;stroke:#0000ff;" x="372.252562" xlink:href="#m6c73e0b2aa" y="135.845157"/>
     <use style="fill:#0000ff;stroke:#0000ff;" x="375.531901" xlink:href="#m6c73e0b2aa" y="131.084544"/>
     <use style="fill:#0000ff;stroke:#0000ff;" x="378.81124" xlink:href="#m6c73e0b2aa" y="129.935287"/>
     <use style="fill:#0000ff;stroke:#0000ff;" x="382.090579" xlink:href="#m6c73e0b2aa" y="129.043823"/>
     <use style="fill:#0000ff;stroke:#0000ff;" x="385.369917" xlink:href="#m6c73e0b2aa" y="129.914197"/>
     <use style="fill:#0000ff;stroke:#0000ff;" x="388.649256" xlink:href="#m6c73e0b2aa" y="131.833114"/>
     <use style="fill:#0000ff;stroke:#0000ff;" x="391.928595" xlink:href="#m6c73e0b2aa" y="129.141904"/>
     <use style="fill:#0000ff;stroke:#0000ff;" x="395.207934" xlink:href="#m6c73e0b2aa" y="236.599378"/>
     <use style="fill:#0000ff;stroke:#0000ff;" x="398.487273" xlink:href="#m6c73e0b2aa" y="275.573809"/>
    </g>
   </g>
   <g id="line2d_16">
    <path clip-path="url(#p80ec28aaf4)" d="M 73.832727 130.176 
L 77.112066 130.176 
L 80.391405 130.176 
L 83.670744 130.176 
L 86.950083 130.176 
L 90.229421 130.176 
L 93.50876 130.176 
L 96.788099 130.176 
L 100.067438 130.176 
L 103.346777 130.176 
L 106.626116 130.176 
L 109.905455 130.176 
L 113.184793 130.176 
L 116.464132 130.176 
L 119.743471 130.176 
L 123.02281 130.176 
L 126.302149 130.176 
L 129.581488 130.176 
L 132.860826 130.176 
L 136.140165 130.176 
L 139.419504 130.176 
L 142.698843 130.176 
L 145.978182 130.176 
L 149.257521 130.176 
L 152.53686 130.176 
L 155.816198 130.176 
L 159.095537 130.176 
L 162.374876 130.176 
L 165.654215 130.176 
L 168.933554 130.176 
L 172.212893 130.176 
L 175.492231 130.176 
L 178.77157 130.176 
L 182.050909 130.176 
L 185.330248 130.176 
L 188.609587 130.176 
L 191.888926 130.176 
L 195.168264 130.176 
L 198.447603 130.176 
L 201.726942 130.176 
L 205.006281 130.176 
L 208.28562 130.176 
L 211.564959 130.176 
L 214.844298 130.176 
L 218.123636 130.176 
L 221.402975 130.176 
L 224.682314 130.176 
L 227.961653 130.176 
L 231.240992 130.176 
L 234.520331 130.176 
L 237.799669 130.176 
L 241.079008 130.176 
L 244.358347 130.176 
L 247.637686 130.176 
L 250.917025 130.176 
L 254.196364 130.176 
L 257.475702 130.176 
L 260.755041 130.176 
L 264.03438 130.176 
L 267.313719 130.176 
L 270.593058 130.176 
L 273.872397 130.176 
L 277.151736 130.176 
L 280.431074 130.176 
L 283.710413 130.176 
L 286.989752 130.176 
L 290.269091 130.176 
L 293.54843 130.176 
L 296.827769 130.176 
L 300.107107 130.176 
L 303.386446 130.176 
L 306.665785 130.176 
L 309.945124 130.176 
L 313.224463 130.176 
L 316.503802 130.176 
L 319.78314 130.176 
L 323.062479 130.176 
L 326.341818 130.176 
L 329.621157 130.176 
L 332.900496 130.176 
L 336.179835 130.176 
L 339.459174 130.176 
L 342.738512 130.176 
L 346.017851 130.176 
L 349.29719 130.176 
L 352.576529 130.176 
L 355.855868 130.176 
L 359.135207 130.176 
L 362.414545 130.176 
L 365.693884 130.176 
L 368.973223 130.176 
L 372.252562 130.176 
L 375.531901 130.176 
L 378.81124 130.176 
L 382.090579 130.176 
L 385.369917 130.176 
L 388.649256 130.176 
L 391.928595 130.176 
L 395.207934 236.6208 
L 398.487273 275.65056 
" style="fill:none;stroke:#000000;stroke-linecap:square;stroke-width:1.5;"/>
    <defs>
     <path d="M 0 3 
C 0.795609 3 1.55874 2.683901 2.12132 2.12132 
C 2.683901 1.55874 3 0.795609 3 0 
C 3 -0.795609 2.683901 -1.55874 2.12132 -2.12132 
C 1.55874 -2.683901 0.795609 -3 0 -3 
C -0.795609 -3 -1.55874 -2.683901 -2.12132 -2.12132 
C -2.683901 -1.55874 -3 -0.795609 -3 0 
C -3 0.795609 -2.683901 1.55874 -2.12132 2.12132 
C -1.55874 2.683901 -0.795609 3 0 3 
z
" id="mac0261cfa6" style="stroke:#000000;"/>
    </defs>
    <g clip-path="url(#p80ec28aaf4)">
     <use style="stroke:#000000;" x="73.832727" xlink:href="#mac0261cfa6" y="130.176"/>
     <use style="stroke:#000000;" x="77.112066" xlink:href="#mac0261cfa6" y="130.176"/>
     <use style="stroke:#000000;" x="80.391405" xlink:href="#mac0261cfa6" y="130.176"/>
     <use style="stroke:#000000;" x="83.670744" xlink:href="#mac0261cfa6" y="130.176"/>
     <use style="stroke:#000000;" x="86.950083" xlink:href="#mac0261cfa6" y="130.176"/>
     <use style="stroke:#000000;" x="90.229421" xlink:href="#mac0261cfa6" y="130.176"/>
     <use style="stroke:#000000;" x="93.50876" xlink:href="#mac0261cfa6" y="130.176"/>
     <use style="stroke:#000000;" x="96.788099" xlink:href="#mac0261cfa6" y="130.176"/>
     <use style="stroke:#000000;" x="100.067438" xlink:href="#mac0261cfa6" y="130.176"/>
     <use style="stroke:#000000;" x="103.346777" xlink:href="#mac0261cfa6" y="130.176"/>
     <use style="stroke:#000000;" x="106.626116" xlink:href="#mac0261cfa6" y="130.176"/>
     <use style="stroke:#000000;" x="109.905455" xlink:href="#mac0261cfa6" y="130.176"/>
     <use style="stroke:#000000;" x="113.184793" xlink:href="#mac0261cfa6" y="130.176"/>
     <use style="stroke:#000000;" x="116.464132" xlink:href="#mac0261cfa6" y="130.176"/>
     <use style="stroke:#000000;" x="119.743471" xlink:href="#mac0261cfa6" y="130.176"/>
     <use style="stroke:#000000;" x="123.02281" xlink:href="#mac0261cfa6" y="130.176"/>
     <use style="stroke:#000000;" x="126.302149" xlink:href="#mac0261cfa6" y="130.176"/>
     <use style="stroke:#000000;" x="129.581488" xlink:href="#mac0261cfa6" y="130.176"/>
     <use style="stroke:#000000;" x="132.860826" xlink:href="#mac0261cfa6" y="130.176"/>
     <use style="stroke:#000000;" x="136.140165" xlink:href="#mac0261cfa6" y="130.176"/>
     <use style="stroke:#000000;" x="139.419504" xlink:href="#mac0261cfa6" y="130.176"/>
     <use style="stroke:#000000;" x="142.698843" xlink:href="#mac0261cfa6" y="130.176"/>
     <use style="stroke:#000000;" x="145.978182" xlink:href="#mac0261cfa6" y="130.176"/>
     <use style="stroke:#000000;" x="149.257521" xlink:href="#mac0261cfa6" y="130.176"/>
     <use style="stroke:#000000;" x="152.53686" xlink:href="#mac0261cfa6" y="130.176"/>
     <use style="stroke:#000000;" x="155.816198" xlink:href="#mac0261cfa6" y="130.176"/>
     <use style="stroke:#000000;" x="159.095537" xlink:href="#mac0261cfa6" y="130.176"/>
     <use style="stroke:#000000;" x="162.374876" xlink:href="#mac0261cfa6" y="130.176"/>
     <use style="stroke:#000000;" x="165.654215" xlink:href="#mac0261cfa6" y="130.176"/>
     <use style="stroke:#000000;" x="168.933554" xlink:href="#mac0261cfa6" y="130.176"/>
     <use style="stroke:#000000;" x="172.212893" xlink:href="#mac0261cfa6" y="130.176"/>
     <use style="stroke:#000000;" x="175.492231" xlink:href="#mac0261cfa6" y="130.176"/>
     <use style="stroke:#000000;" x="178.77157" xlink:href="#mac0261cfa6" y="130.176"/>
     <use style="stroke:#000000;" x="182.050909" xlink:href="#mac0261cfa6" y="130.176"/>
     <use style="stroke:#000000;" x="185.330248" xlink:href="#mac0261cfa6" y="130.176"/>
     <use style="stroke:#000000;" x="188.609587" xlink:href="#mac0261cfa6" y="130.176"/>
     <use style="stroke:#000000;" x="191.888926" xlink:href="#mac0261cfa6" y="130.176"/>
     <use style="stroke:#000000;" x="195.168264" xlink:href="#mac0261cfa6" y="130.176"/>
     <use style="stroke:#000000;" x="198.447603" xlink:href="#mac0261cfa6" y="130.176"/>
     <use style="stroke:#000000;" x="201.726942" xlink:href="#mac0261cfa6" y="130.176"/>
     <use style="stroke:#000000;" x="205.006281" xlink:href="#mac0261cfa6" y="130.176"/>
     <use style="stroke:#000000;" x="208.28562" xlink:href="#mac0261cfa6" y="130.176"/>
     <use style="stroke:#000000;" x="211.564959" xlink:href="#mac0261cfa6" y="130.176"/>
     <use style="stroke:#000000;" x="214.844298" xlink:href="#mac0261cfa6" y="130.176"/>
     <use style="stroke:#000000;" x="218.123636" xlink:href="#mac0261cfa6" y="130.176"/>
     <use style="stroke:#000000;" x="221.402975" xlink:href="#mac0261cfa6" y="130.176"/>
     <use style="stroke:#000000;" x="224.682314" xlink:href="#mac0261cfa6" y="130.176"/>
     <use style="stroke:#000000;" x="227.961653" xlink:href="#mac0261cfa6" y="130.176"/>
     <use style="stroke:#000000;" x="231.240992" xlink:href="#mac0261cfa6" y="130.176"/>
     <use style="stroke:#000000;" x="234.520331" xlink:href="#mac0261cfa6" y="130.176"/>
     <use style="stroke:#000000;" x="237.799669" xlink:href="#mac0261cfa6" y="130.176"/>
     <use style="stroke:#000000;" x="241.079008" xlink:href="#mac0261cfa6" y="130.176"/>
     <use style="stroke:#000000;" x="244.358347" xlink:href="#mac0261cfa6" y="130.176"/>
     <use style="stroke:#000000;" x="247.637686" xlink:href="#mac0261cfa6" y="130.176"/>
     <use style="stroke:#000000;" x="250.917025" xlink:href="#mac0261cfa6" y="130.176"/>
     <use style="stroke:#000000;" x="254.196364" xlink:href="#mac0261cfa6" y="130.176"/>
     <use style="stroke:#000000;" x="257.475702" xlink:href="#mac0261cfa6" y="130.176"/>
     <use style="stroke:#000000;" x="260.755041" xlink:href="#mac0261cfa6" y="130.176"/>
     <use style="stroke:#000000;" x="264.03438" xlink:href="#mac0261cfa6" y="130.176"/>
     <use style="stroke:#000000;" x="267.313719" xlink:href="#mac0261cfa6" y="130.176"/>
     <use style="stroke:#000000;" x="270.593058" xlink:href="#mac0261cfa6" y="130.176"/>
     <use style="stroke:#000000;" x="273.872397" xlink:href="#mac0261cfa6" y="130.176"/>
     <use style="stroke:#000000;" x="277.151736" xlink:href="#mac0261cfa6" y="130.176"/>
     <use style="stroke:#000000;" x="280.431074" xlink:href="#mac0261cfa6" y="130.176"/>
     <use style="stroke:#000000;" x="283.710413" xlink:href="#mac0261cfa6" y="130.176"/>
     <use style="stroke:#000000;" x="286.989752" xlink:href="#mac0261cfa6" y="130.176"/>
     <use style="stroke:#000000;" x="290.269091" xlink:href="#mac0261cfa6" y="130.176"/>
     <use style="stroke:#000000;" x="293.54843" xlink:href="#mac0261cfa6" y="130.176"/>
     <use style="stroke:#000000;" x="296.827769" xlink:href="#mac0261cfa6" y="130.176"/>
     <use style="stroke:#000000;" x="300.107107" xlink:href="#mac0261cfa6" y="130.176"/>
     <use style="stroke:#000000;" x="303.386446" xlink:href="#mac0261cfa6" y="130.176"/>
     <use style="stroke:#000000;" x="306.665785" xlink:href="#mac0261cfa6" y="130.176"/>
     <use style="stroke:#000000;" x="309.945124" xlink:href="#mac0261cfa6" y="130.176"/>
     <use style="stroke:#000000;" x="313.224463" xlink:href="#mac0261cfa6" y="130.176"/>
     <use style="stroke:#000000;" x="316.503802" xlink:href="#mac0261cfa6" y="130.176"/>
     <use style="stroke:#000000;" x="319.78314" xlink:href="#mac0261cfa6" y="130.176"/>
     <use style="stroke:#000000;" x="323.062479" xlink:href="#mac0261cfa6" y="130.176"/>
     <use style="stroke:#000000;" x="326.341818" xlink:href="#mac0261cfa6" y="130.176"/>
     <use style="stroke:#000000;" x="329.621157" xlink:href="#mac0261cfa6" y="130.176"/>
     <use style="stroke:#000000;" x="332.900496" xlink:href="#mac0261cfa6" y="130.176"/>
     <use style="stroke:#000000;" x="336.179835" xlink:href="#mac0261cfa6" y="130.176"/>
     <use style="stroke:#000000;" x="339.459174" xlink:href="#mac0261cfa6" y="130.176"/>
     <use style="stroke:#000000;" x="342.738512" xlink:href="#mac0261cfa6" y="130.176"/>
     <use style="stroke:#000000;" x="346.017851" xlink:href="#mac0261cfa6" y="130.176"/>
     <use style="stroke:#000000;" x="349.29719" xlink:href="#mac0261cfa6" y="130.176"/>
     <use style="stroke:#000000;" x="352.576529" xlink:href="#mac0261cfa6" y="130.176"/>
     <use style="stroke:#000000;" x="355.855868" xlink:href="#mac0261cfa6" y="130.176"/>
     <use style="stroke:#000000;" x="359.135207" xlink:href="#mac0261cfa6" y="130.176"/>
     <use style="stroke:#000000;" x="362.414545" xlink:href="#mac0261cfa6" y="130.176"/>
     <use style="stroke:#000000;" x="365.693884" xlink:href="#mac0261cfa6" y="130.176"/>
     <use style="stroke:#000000;" x="368.973223" xlink:href="#mac0261cfa6" y="130.176"/>
     <use style="stroke:#000000;" x="372.252562" xlink:href="#mac0261cfa6" y="130.176"/>
     <use style="stroke:#000000;" x="375.531901" xlink:href="#mac0261cfa6" y="130.176"/>
     <use style="stroke:#000000;" x="378.81124" xlink:href="#mac0261cfa6" y="130.176"/>
     <use style="stroke:#000000;" x="382.090579" xlink:href="#mac0261cfa6" y="130.176"/>
     <use style="stroke:#000000;" x="385.369917" xlink:href="#mac0261cfa6" y="130.176"/>
     <use style="stroke:#000000;" x="388.649256" xlink:href="#mac0261cfa6" y="130.176"/>
     <use style="stroke:#000000;" x="391.928595" xlink:href="#mac0261cfa6" y="130.176"/>
     <use style="stroke:#000000;" x="395.207934" xlink:href="#mac0261cfa6" y="236.6208"/>
     <use style="stroke:#000000;" x="398.487273" xlink:href="#mac0261cfa6" y="275.65056"/>
    </g>
   </g>
   <g id="line2d_17">
    <path clip-path="url(#p80ec28aaf4)" d="M 73.832727 136.380232 
L 77.112066 138.757078 
L 80.391405 138.59164 
L 83.670744 140.30673 
L 86.950083 138.776866 
L 90.229421 141.878714 
L 93.50876 139.607847 
L 96.788099 143.179764 
L 100.067438 139.94635 
L 103.346777 141.390463 
L 106.626116 136.812674 
L 109.905455 136.377591 
L 113.184793 140.908099 
L 116.464132 144.203791 
L 119.743471 136.502586 
L 123.02281 138.993766 
L 126.302149 137.464696 
L 129.581488 135.266809 
L 132.860826 139.445557 
L 136.140165 140.351558 
L 139.419504 135.825836 
L 142.698843 141.571681 
L 145.978182 136.166349 
L 149.257521 133.98734 
L 152.53686 136.504384 
L 155.816198 136.437819 
L 159.095537 141.975514 
L 162.374876 137.350312 
L 165.654215 142.564895 
L 168.933554 136.651086 
L 172.212893 139.202167 
L 175.492231 138.49825 
L 178.77157 136.507917 
L 182.050909 135.070776 
L 185.330248 136.649814 
L 188.609587 138.359284 
L 191.888926 135.912687 
L 195.168264 138.785375 
L 198.447603 138.096056 
L 201.726942 135.225723 
L 205.006281 140.970103 
L 208.28562 138.63693 
L 211.564959 136.813368 
L 214.844298 134.949932 
L 218.123636 137.94747 
L 221.402975 140.576456 
L 224.682314 140.450616 
L 227.961653 136.554916 
L 231.240992 136.913547 
L 234.520331 136.28691 
L 237.799669 133.433704 
L 241.079008 135.520915 
L 244.358347 142.570485 
L 247.637686 138.465399 
L 250.917025 137.779178 
L 254.196364 136.563789 
L 257.475702 137.653526 
L 260.755041 140.453749 
L 264.03438 136.229009 
L 267.313719 135.516588 
L 270.593058 136.915335 
L 273.872397 142.046127 
L 277.151736 140.041248 
L 280.431074 140.06082 
L 283.710413 133.710047 
L 286.989752 135.345198 
L 290.269091 136.686026 
L 293.54843 141.920564 
L 296.827769 137.880676 
L 300.107107 136.694124 
L 303.386446 137.183108 
L 306.665785 137.756006 
L 309.945124 138.420433 
L 313.224463 134.101605 
L 316.503802 138.795682 
L 319.78314 137.816535 
L 323.062479 137.577152 
L 326.341818 140.542884 
L 329.621157 140.683544 
L 332.900496 137.555062 
L 336.179835 139.492099 
L 339.459174 135.134084 
L 342.738512 141.730296 
L 346.017851 136.682426 
L 349.29719 138.284243 
L 352.576529 139.270338 
L 355.855868 138.042758 
L 359.135207 136.638022 
L 362.414545 146.323159 
L 365.693884 136.856317 
L 368.973223 134.982142 
L 372.252562 149.252595 
L 375.531901 139.734622 
L 378.81124 137.574105 
L 382.090579 135.714709 
L 385.369917 137.59315 
L 388.649256 141.271908 
L 391.928595 135.8795 
L 395.207934 237.385349 
L 398.487273 276.403606 
" style="fill:none;stroke:#008000;stroke-linecap:square;stroke-width:1.5;"/>
    <defs>
     <path d="M -3 0 
L 0 4.5 
L 3 0 
" id="m71a7575cb7" style="stroke:#008000;stroke-linejoin:miter;"/>
    </defs>
    <g clip-path="url(#p80ec28aaf4)">
     <use style="fill:#008000;stroke:#008000;stroke-linejoin:miter;" x="73.832727" xlink:href="#m71a7575cb7" y="136.380232"/>
     <use style="fill:#008000;stroke:#008000;stroke-linejoin:miter;" x="77.112066" xlink:href="#m71a7575cb7" y="138.757078"/>
     <use style="fill:#008000;stroke:#008000;stroke-linejoin:miter;" x="80.391405" xlink:href="#m71a7575cb7" y="138.59164"/>
     <use style="fill:#008000;stroke:#008000;stroke-linejoin:miter;" x="83.670744" xlink:href="#m71a7575cb7" y="140.30673"/>
     <use style="fill:#008000;stroke:#008000;stroke-linejoin:miter;" x="86.950083" xlink:href="#m71a7575cb7" y="138.776866"/>
     <use style="fill:#008000;stroke:#008000;stroke-linejoin:miter;" x="90.229421" xlink:href="#m71a7575cb7" y="141.878714"/>
     <use style="fill:#008000;stroke:#008000;stroke-linejoin:miter;" x="93.50876" xlink:href="#m71a7575cb7" y="139.607847"/>
     <use style="fill:#008000;stroke:#008000;stroke-linejoin:miter;" x="96.788099" xlink:href="#m71a7575cb7" y="143.179764"/>
     <use style="fill:#008000;stroke:#008000;stroke-linejoin:miter;" x="100.067438" xlink:href="#m71a7575cb7" y="139.94635"/>
     <use style="fill:#008000;stroke:#008000;stroke-linejoin:miter;" x="103.346777" xlink:href="#m71a7575cb7" y="141.390463"/>
     <use style="fill:#008000;stroke:#008000;stroke-linejoin:miter;" x="106.626116" xlink:href="#m71a7575cb7" y="136.812674"/>
     <use style="fill:#008000;stroke:#008000;stroke-linejoin:miter;" x="109.905455" xlink:href="#m71a7575cb7" y="136.377591"/>
     <use style="fill:#008000;stroke:#008000;stroke-linejoin:miter;" x="113.184793" xlink:href="#m71a7575cb7" y="140.908099"/>
     <use style="fill:#008000;stroke:#008000;stroke-linejoin:miter;" x="116.464132" xlink:href="#m71a7575cb7" y="144.203791"/>
     <use style="fill:#008000;stroke:#008000;stroke-linejoin:miter;" x="119.743471" xlink:href="#m71a7575cb7" y="136.502586"/>
     <use style="fill:#008000;stroke:#008000;stroke-linejoin:miter;" x="123.02281" xlink:href="#m71a7575cb7" y="138.993766"/>
     <use style="fill:#008000;stroke:#008000;stroke-linejoin:miter;" x="126.302149" xlink:href="#m71a7575cb7" y="137.464696"/>
     <use style="fill:#008000;stroke:#008000;stroke-linejoin:miter;" x="129.581488" xlink:href="#m71a7575cb7" y="135.266809"/>
     <use style="fill:#008000;stroke:#008000;stroke-linejoin:miter;" x="132.860826" xlink:href="#m71a7575cb7" y="139.445557"/>
     <use style="fill:#008000;stroke:#008000;stroke-linejoin:miter;" x="136.140165" xlink:href="#m71a7575cb7" y="140.351558"/>
     <use style="fill:#008000;stroke:#008000;stroke-linejoin:miter;" x="139.419504" xlink:href="#m71a7575cb7" y="135.825836"/>
     <use style="fill:#008000;stroke:#008000;stroke-linejoin:miter;" x="142.698843" xlink:href="#m71a7575cb7" y="141.571681"/>
     <use style="fill:#008000;stroke:#008000;stroke-linejoin:miter;" x="145.978182" xlink:href="#m71a7575cb7" y="136.166349"/>
     <use style="fill:#008000;stroke:#008000;stroke-linejoin:miter;" x="149.257521" xlink:href="#m71a7575cb7" y="133.98734"/>
     <use style="fill:#008000;stroke:#008000;stroke-linejoin:miter;" x="152.53686" xlink:href="#m71a7575cb7" y="136.504384"/>
     <use style="fill:#008000;stroke:#008000;stroke-linejoin:miter;" x="155.816198" xlink:href="#m71a7575cb7" y="136.437819"/>
     <use style="fill:#008000;stroke:#008000;stroke-linejoin:miter;" x="159.095537" xlink:href="#m71a7575cb7" y="141.975514"/>
     <use style="fill:#008000;stroke:#008000;stroke-linejoin:miter;" x="162.374876" xlink:href="#m71a7575cb7" y="137.350312"/>
     <use style="fill:#008000;stroke:#008000;stroke-linejoin:miter;" x="165.654215" xlink:href="#m71a7575cb7" y="142.564895"/>
     <use style="fill:#008000;stroke:#008000;stroke-linejoin:miter;" x="168.933554" xlink:href="#m71a7575cb7" y="136.651086"/>
     <use style="fill:#008000;stroke:#008000;stroke-linejoin:miter;" x="172.212893" xlink:href="#m71a7575cb7" y="139.202167"/>
     <use style="fill:#008000;stroke:#008000;stroke-linejoin:miter;" x="175.492231" xlink:href="#m71a7575cb7" y="138.49825"/>
     <use style="fill:#008000;stroke:#008000;stroke-linejoin:miter;" x="178.77157" xlink:href="#m71a7575cb7" y="136.507917"/>
     <use style="fill:#008000;stroke:#008000;stroke-linejoin:miter;" x="182.050909" xlink:href="#m71a7575cb7" y="135.070776"/>
     <use style="fill:#008000;stroke:#008000;stroke-linejoin:miter;" x="185.330248" xlink:href="#m71a7575cb7" y="136.649814"/>
     <use style="fill:#008000;stroke:#008000;stroke-linejoin:miter;" x="188.609587" xlink:href="#m71a7575cb7" y="138.359284"/>
     <use style="fill:#008000;stroke:#008000;stroke-linejoin:miter;" x="191.888926" xlink:href="#m71a7575cb7" y="135.912687"/>
     <use style="fill:#008000;stroke:#008000;stroke-linejoin:miter;" x="195.168264" xlink:href="#m71a7575cb7" y="138.785375"/>
     <use style="fill:#008000;stroke:#008000;stroke-linejoin:miter;" x="198.447603" xlink:href="#m71a7575cb7" y="138.096056"/>
     <use style="fill:#008000;stroke:#008000;stroke-linejoin:miter;" x="201.726942" xlink:href="#m71a7575cb7" y="135.225723"/>
     <use style="fill:#008000;stroke:#008000;stroke-linejoin:miter;" x="205.006281" xlink:href="#m71a7575cb7" y="140.970103"/>
     <use style="fill:#008000;stroke:#008000;stroke-linejoin:miter;" x="208.28562" xlink:href="#m71a7575cb7" y="138.63693"/>
     <use style="fill:#008000;stroke:#008000;stroke-linejoin:miter;" x="211.564959" xlink:href="#m71a7575cb7" y="136.813368"/>
     <use style="fill:#008000;stroke:#008000;stroke-linejoin:miter;" x="214.844298" xlink:href="#m71a7575cb7" y="134.949932"/>
     <use style="fill:#008000;stroke:#008000;stroke-linejoin:miter;" x="218.123636" xlink:href="#m71a7575cb7" y="137.94747"/>
     <use style="fill:#008000;stroke:#008000;stroke-linejoin:miter;" x="221.402975" xlink:href="#m71a7575cb7" y="140.576456"/>
     <use style="fill:#008000;stroke:#008000;stroke-linejoin:miter;" x="224.682314" xlink:href="#m71a7575cb7" y="140.450616"/>
     <use style="fill:#008000;stroke:#008000;stroke-linejoin:miter;" x="227.961653" xlink:href="#m71a7575cb7" y="136.554916"/>
     <use style="fill:#008000;stroke:#008000;stroke-linejoin:miter;" x="231.240992" xlink:href="#m71a7575cb7" y="136.913547"/>
     <use style="fill:#008000;stroke:#008000;stroke-linejoin:miter;" x="234.520331" xlink:href="#m71a7575cb7" y="136.28691"/>
     <use style="fill:#008000;stroke:#008000;stroke-linejoin:miter;" x="237.799669" xlink:href="#m71a7575cb7" y="133.433704"/>
     <use style="fill:#008000;stroke:#008000;stroke-linejoin:miter;" x="241.079008" xlink:href="#m71a7575cb7" y="135.520915"/>
     <use style="fill:#008000;stroke:#008000;stroke-linejoin:miter;" x="244.358347" xlink:href="#m71a7575cb7" y="142.570485"/>
     <use style="fill:#008000;stroke:#008000;stroke-linejoin:miter;" x="247.637686" xlink:href="#m71a7575cb7" y="138.465399"/>
     <use style="fill:#008000;stroke:#008000;stroke-linejoin:miter;" x="250.917025" xlink:href="#m71a7575cb7" y="137.779178"/>
     <use style="fill:#008000;stroke:#008000;stroke-linejoin:miter;" x="254.196364" xlink:href="#m71a7575cb7" y="136.563789"/>
     <use style="fill:#008000;stroke:#008000;stroke-linejoin:miter;" x="257.475702" xlink:href="#m71a7575cb7" y="137.653526"/>
     <use style="fill:#008000;stroke:#008000;stroke-linejoin:miter;" x="260.755041" xlink:href="#m71a7575cb7" y="140.453749"/>
     <use style="fill:#008000;stroke:#008000;stroke-linejoin:miter;" x="264.03438" xlink:href="#m71a7575cb7" y="136.229009"/>
     <use style="fill:#008000;stroke:#008000;stroke-linejoin:miter;" x="267.313719" xlink:href="#m71a7575cb7" y="135.516588"/>
     <use style="fill:#008000;stroke:#008000;stroke-linejoin:miter;" x="270.593058" xlink:href="#m71a7575cb7" y="136.915335"/>
     <use style="fill:#008000;stroke:#008000;stroke-linejoin:miter;" x="273.872397" xlink:href="#m71a7575cb7" y="142.046127"/>
     <use style="fill:#008000;stroke:#008000;stroke-linejoin:miter;" x="277.151736" xlink:href="#m71a7575cb7" y="140.041248"/>
     <use style="fill:#008000;stroke:#008000;stroke-linejoin:miter;" x="280.431074" xlink:href="#m71a7575cb7" y="140.06082"/>
     <use style="fill:#008000;stroke:#008000;stroke-linejoin:miter;" x="283.710413" xlink:href="#m71a7575cb7" y="133.710047"/>
     <use style="fill:#008000;stroke:#008000;stroke-linejoin:miter;" x="286.989752" xlink:href="#m71a7575cb7" y="135.345198"/>
     <use style="fill:#008000;stroke:#008000;stroke-linejoin:miter;" x="290.269091" xlink:href="#m71a7575cb7" y="136.686026"/>
     <use style="fill:#008000;stroke:#008000;stroke-linejoin:miter;" x="293.54843" xlink:href="#m71a7575cb7" y="141.920564"/>
     <use style="fill:#008000;stroke:#008000;stroke-linejoin:miter;" x="296.827769" xlink:href="#m71a7575cb7" y="137.880676"/>
     <use style="fill:#008000;stroke:#008000;stroke-linejoin:miter;" x="300.107107" xlink:href="#m71a7575cb7" y="136.694124"/>
     <use style="fill:#008000;stroke:#008000;stroke-linejoin:miter;" x="303.386446" xlink:href="#m71a7575cb7" y="137.183108"/>
     <use style="fill:#008000;stroke:#008000;stroke-linejoin:miter;" x="306.665785" xlink:href="#m71a7575cb7" y="137.756006"/>
     <use style="fill:#008000;stroke:#008000;stroke-linejoin:miter;" x="309.945124" xlink:href="#m71a7575cb7" y="138.420433"/>
     <use style="fill:#008000;stroke:#008000;stroke-linejoin:miter;" x="313.224463" xlink:href="#m71a7575cb7" y="134.101605"/>
     <use style="fill:#008000;stroke:#008000;stroke-linejoin:miter;" x="316.503802" xlink:href="#m71a7575cb7" y="138.795682"/>
     <use style="fill:#008000;stroke:#008000;stroke-linejoin:miter;" x="319.78314" xlink:href="#m71a7575cb7" y="137.816535"/>
     <use style="fill:#008000;stroke:#008000;stroke-linejoin:miter;" x="323.062479" xlink:href="#m71a7575cb7" y="137.577152"/>
     <use style="fill:#008000;stroke:#008000;stroke-linejoin:miter;" x="326.341818" xlink:href="#m71a7575cb7" y="140.542884"/>
     <use style="fill:#008000;stroke:#008000;stroke-linejoin:miter;" x="329.621157" xlink:href="#m71a7575cb7" y="140.683544"/>
     <use style="fill:#008000;stroke:#008000;stroke-linejoin:miter;" x="332.900496" xlink:href="#m71a7575cb7" y="137.555062"/>
     <use style="fill:#008000;stroke:#008000;stroke-linejoin:miter;" x="336.179835" xlink:href="#m71a7575cb7" y="139.492099"/>
     <use style="fill:#008000;stroke:#008000;stroke-linejoin:miter;" x="339.459174" xlink:href="#m71a7575cb7" y="135.134084"/>
     <use style="fill:#008000;stroke:#008000;stroke-linejoin:miter;" x="342.738512" xlink:href="#m71a7575cb7" y="141.730296"/>
     <use style="fill:#008000;stroke:#008000;stroke-linejoin:miter;" x="346.017851" xlink:href="#m71a7575cb7" y="136.682426"/>
     <use style="fill:#008000;stroke:#008000;stroke-linejoin:miter;" x="349.29719" xlink:href="#m71a7575cb7" y="138.284243"/>
     <use style="fill:#008000;stroke:#008000;stroke-linejoin:miter;" x="352.576529" xlink:href="#m71a7575cb7" y="139.270338"/>
     <use style="fill:#008000;stroke:#008000;stroke-linejoin:miter;" x="355.855868" xlink:href="#m71a7575cb7" y="138.042758"/>
     <use style="fill:#008000;stroke:#008000;stroke-linejoin:miter;" x="359.135207" xlink:href="#m71a7575cb7" y="136.638022"/>
     <use style="fill:#008000;stroke:#008000;stroke-linejoin:miter;" x="362.414545" xlink:href="#m71a7575cb7" y="146.323159"/>
     <use style="fill:#008000;stroke:#008000;stroke-linejoin:miter;" x="365.693884" xlink:href="#m71a7575cb7" y="136.856317"/>
     <use style="fill:#008000;stroke:#008000;stroke-linejoin:miter;" x="368.973223" xlink:href="#m71a7575cb7" y="134.982142"/>
     <use style="fill:#008000;stroke:#008000;stroke-linejoin:miter;" x="372.252562" xlink:href="#m71a7575cb7" y="149.252595"/>
     <use style="fill:#008000;stroke:#008000;stroke-linejoin:miter;" x="375.531901" xlink:href="#m71a7575cb7" y="139.734622"/>
     <use style="fill:#008000;stroke:#008000;stroke-linejoin:miter;" x="378.81124" xlink:href="#m71a7575cb7" y="137.574105"/>
     <use style="fill:#008000;stroke:#008000;stroke-linejoin:miter;" x="382.090579" xlink:href="#m71a7575cb7" y="135.714709"/>
     <use style="fill:#008000;stroke:#008000;stroke-linejoin:miter;" x="385.369917" xlink:href="#m71a7575cb7" y="137.59315"/>
     <use style="fill:#008000;stroke:#008000;stroke-linejoin:miter;" x="388.649256" xlink:href="#m71a7575cb7" y="141.271908"/>
     <use style="fill:#008000;stroke:#008000;stroke-linejoin:miter;" x="391.928595" xlink:href="#m71a7575cb7" y="135.8795"/>
     <use style="fill:#008000;stroke:#008000;stroke-linejoin:miter;" x="395.207934" xlink:href="#m71a7575cb7" y="237.385349"/>
     <use style="fill:#008000;stroke:#008000;stroke-linejoin:miter;" x="398.487273" xlink:href="#m71a7575cb7" y="276.403606"/>
    </g>
   </g>
   <g id="line2d_18">
    <path clip-path="url(#p80ec28aaf4)" d="M 73.832727 122.077211 
L 77.112066 122.07026 
L 80.391405 122.07168 
L 83.670744 122.073006 
L 86.950083 122.070505 
L 90.229421 122.071881 
L 93.50876 122.081168 
L 96.788099 122.077916 
L 100.067438 122.073188 
L 103.346777 122.075436 
L 106.626116 122.073593 
L 109.905455 122.070981 
L 113.184793 122.07462 
L 116.464132 122.075112 
L 119.743471 122.07542 
L 123.02281 122.071989 
L 126.302149 122.072194 
L 129.581488 122.073247 
L 132.860826 122.070361 
L 136.140165 122.079754 
L 139.419504 122.077484 
L 142.698843 122.070635 
L 145.978182 122.072015 
L 149.257521 122.073082 
L 152.53686 122.07272 
L 155.816198 122.073228 
L 159.095537 122.078103 
L 162.374876 122.077417 
L 165.654215 122.074727 
L 168.933554 122.073809 
L 172.212893 122.07304 
L 175.492231 122.073798 
L 178.77157 122.082368 
L 182.050909 122.073963 
L 185.330248 122.073704 
L 188.609587 122.073159 
L 191.888926 122.070641 
L 195.168264 122.076095 
L 198.447603 122.077947 
L 201.726942 122.070835 
L 205.006281 122.070344 
L 208.28562 122.075817 
L 211.564959 122.072741 
L 214.844298 122.070728 
L 218.123636 122.070623 
L 221.402975 122.070417 
L 224.682314 122.076454 
L 227.961653 122.076411 
L 231.240992 122.072892 
L 234.520331 122.077507 
L 237.799669 122.071612 
L 241.079008 122.076887 
L 244.358347 122.072601 
L 247.637686 122.07094 
L 250.917025 122.07096 
L 254.196364 122.074133 
L 257.475702 122.073047 
L 260.755041 122.070429 
L 264.03438 122.073335 
L 267.313719 122.074998 
L 270.593058 122.074151 
L 273.872397 122.070353 
L 277.151736 122.07311 
L 280.431074 122.073554 
L 283.710413 122.072745 
L 286.989752 122.086447 
L 290.269091 122.071447 
L 293.54843 122.071318 
L 296.827769 122.081078 
L 300.107107 122.072481 
L 303.386446 122.075428 
L 306.665785 122.07226 
L 309.945124 122.073854 
L 313.224463 122.074055 
L 316.503802 122.084569 
L 319.78314 122.079902 
L 323.062479 122.07557 
L 326.341818 122.074221 
L 329.621157 122.080071 
L 332.900496 122.074657 
L 336.179835 122.074999 
L 339.459174 122.073706 
L 342.738512 122.071327 
L 346.017851 122.072086 
L 349.29719 122.073731 
L 352.576529 122.07089 
L 355.855868 122.073322 
L 359.135207 122.080691 
L 362.414545 122.079521 
L 365.693884 122.071859 
L 368.973223 122.072251 
L 372.252562 122.078914 
L 375.531901 122.079588 
L 378.81124 122.076311 
L 382.090579 122.072449 
L 385.369917 122.071012 
L 388.649256 122.073257 
L 391.928595 122.070403 
L 395.207934 235.763001 
L 398.487273 274.707019 
" style="fill:none;stroke:#ff0000;stroke-linecap:square;stroke-width:1.5;"/>
    <defs>
     <path d="M 3 0 
L 0 -4.5 
L -3 -0 
" id="mec8e8593c1" style="stroke:#ff0000;stroke-linejoin:miter;"/>
    </defs>
    <g clip-path="url(#p80ec28aaf4)">
     <use style="fill:#ff0000;stroke:#ff0000;stroke-linejoin:miter;" x="73.832727" xlink:href="#mec8e8593c1" y="122.077211"/>
     <use style="fill:#ff0000;stroke:#ff0000;stroke-linejoin:miter;" x="77.112066" xlink:href="#mec8e8593c1" y="122.07026"/>
     <use style="fill:#ff0000;stroke:#ff0000;stroke-linejoin:miter;" x="80.391405" xlink:href="#mec8e8593c1" y="122.07168"/>
     <use style="fill:#ff0000;stroke:#ff0000;stroke-linejoin:miter;" x="83.670744" xlink:href="#mec8e8593c1" y="122.073006"/>
     <use style="fill:#ff0000;stroke:#ff0000;stroke-linejoin:miter;" x="86.950083" xlink:href="#mec8e8593c1" y="122.070505"/>
     <use style="fill:#ff0000;stroke:#ff0000;stroke-linejoin:miter;" x="90.229421" xlink:href="#mec8e8593c1" y="122.071881"/>
     <use style="fill:#ff0000;stroke:#ff0000;stroke-linejoin:miter;" x="93.50876" xlink:href="#mec8e8593c1" y="122.081168"/>
     <use style="fill:#ff0000;stroke:#ff0000;stroke-linejoin:miter;" x="96.788099" xlink:href="#mec8e8593c1" y="122.077916"/>
     <use style="fill:#ff0000;stroke:#ff0000;stroke-linejoin:miter;" x="100.067438" xlink:href="#mec8e8593c1" y="122.073188"/>
     <use style="fill:#ff0000;stroke:#ff0000;stroke-linejoin:miter;" x="103.346777" xlink:href="#mec8e8593c1" y="122.075436"/>
     <use style="fill:#ff0000;stroke:#ff0000;stroke-linejoin:miter;" x="106.626116" xlink:href="#mec8e8593c1" y="122.073593"/>
     <use style="fill:#ff0000;stroke:#ff0000;stroke-linejoin:miter;" x="109.905455" xlink:href="#mec8e8593c1" y="122.070981"/>
     <use style="fill:#ff0000;stroke:#ff0000;stroke-linejoin:miter;" x="113.184793" xlink:href="#mec8e8593c1" y="122.07462"/>
     <use style="fill:#ff0000;stroke:#ff0000;stroke-linejoin:miter;" x="116.464132" xlink:href="#mec8e8593c1" y="122.075112"/>
     <use style="fill:#ff0000;stroke:#ff0000;stroke-linejoin:miter;" x="119.743471" xlink:href="#mec8e8593c1" y="122.07542"/>
     <use style="fill:#ff0000;stroke:#ff0000;stroke-linejoin:miter;" x="123.02281" xlink:href="#mec8e8593c1" y="122.071989"/>
     <use style="fill:#ff0000;stroke:#ff0000;stroke-linejoin:miter;" x="126.302149" xlink:href="#mec8e8593c1" y="122.072194"/>
     <use style="fill:#ff0000;stroke:#ff0000;stroke-linejoin:miter;" x="129.581488" xlink:href="#mec8e8593c1" y="122.073247"/>
     <use style="fill:#ff0000;stroke:#ff0000;stroke-linejoin:miter;" x="132.860826" xlink:href="#mec8e8593c1" y="122.070361"/>
     <use style="fill:#ff0000;stroke:#ff0000;stroke-linejoin:miter;" x="136.140165" xlink:href="#mec8e8593c1" y="122.079754"/>
     <use style="fill:#ff0000;stroke:#ff0000;stroke-linejoin:miter;" x="139.419504" xlink:href="#mec8e8593c1" y="122.077484"/>
     <use style="fill:#ff0000;stroke:#ff0000;stroke-linejoin:miter;" x="142.698843" xlink:href="#mec8e8593c1" y="122.070635"/>
     <use style="fill:#ff0000;stroke:#ff0000;stroke-linejoin:miter;" x="145.978182" xlink:href="#mec8e8593c1" y="122.072015"/>
     <use style="fill:#ff0000;stroke:#ff0000;stroke-linejoin:miter;" x="149.257521" xlink:href="#mec8e8593c1" y="122.073082"/>
     <use style="fill:#ff0000;stroke:#ff0000;stroke-linejoin:miter;" x="152.53686" xlink:href="#mec8e8593c1" y="122.07272"/>
     <use style="fill:#ff0000;stroke:#ff0000;stroke-linejoin:miter;" x="155.816198" xlink:href="#mec8e8593c1" y="122.073228"/>
     <use style="fill:#ff0000;stroke:#ff0000;stroke-linejoin:miter;" x="159.095537" xlink:href="#mec8e8593c1" y="122.078103"/>
     <use style="fill:#ff0000;stroke:#ff0000;stroke-linejoin:miter;" x="162.374876" xlink:href="#mec8e8593c1" y="122.077417"/>
     <use style="fill:#ff0000;stroke:#ff0000;stroke-linejoin:miter;" x="165.654215" xlink:href="#mec8e8593c1" y="122.074727"/>
     <use style="fill:#ff0000;stroke:#ff0000;stroke-linejoin:miter;" x="168.933554" xlink:href="#mec8e8593c1" y="122.073809"/>
     <use style="fill:#ff0000;stroke:#ff0000;stroke-linejoin:miter;" x="172.212893" xlink:href="#mec8e8593c1" y="122.07304"/>
     <use style="fill:#ff0000;stroke:#ff0000;stroke-linejoin:miter;" x="175.492231" xlink:href="#mec8e8593c1" y="122.073798"/>
     <use style="fill:#ff0000;stroke:#ff0000;stroke-linejoin:miter;" x="178.77157" xlink:href="#mec8e8593c1" y="122.082368"/>
     <use style="fill:#ff0000;stroke:#ff0000;stroke-linejoin:miter;" x="182.050909" xlink:href="#mec8e8593c1" y="122.073963"/>
     <use style="fill:#ff0000;stroke:#ff0000;stroke-linejoin:miter;" x="185.330248" xlink:href="#mec8e8593c1" y="122.073704"/>
     <use style="fill:#ff0000;stroke:#ff0000;stroke-linejoin:miter;" x="188.609587" xlink:href="#mec8e8593c1" y="122.073159"/>
     <use style="fill:#ff0000;stroke:#ff0000;stroke-linejoin:miter;" x="191.888926" xlink:href="#mec8e8593c1" y="122.070641"/>
     <use style="fill:#ff0000;stroke:#ff0000;stroke-linejoin:miter;" x="195.168264" xlink:href="#mec8e8593c1" y="122.076095"/>
     <use style="fill:#ff0000;stroke:#ff0000;stroke-linejoin:miter;" x="198.447603" xlink:href="#mec8e8593c1" y="122.077947"/>
     <use style="fill:#ff0000;stroke:#ff0000;stroke-linejoin:miter;" x="201.726942" xlink:href="#mec8e8593c1" y="122.070835"/>
     <use style="fill:#ff0000;stroke:#ff0000;stroke-linejoin:miter;" x="205.006281" xlink:href="#mec8e8593c1" y="122.070344"/>
     <use style="fill:#ff0000;stroke:#ff0000;stroke-linejoin:miter;" x="208.28562" xlink:href="#mec8e8593c1" y="122.075817"/>
     <use style="fill:#ff0000;stroke:#ff0000;stroke-linejoin:miter;" x="211.564959" xlink:href="#mec8e8593c1" y="122.072741"/>
     <use style="fill:#ff0000;stroke:#ff0000;stroke-linejoin:miter;" x="214.844298" xlink:href="#mec8e8593c1" y="122.070728"/>
     <use style="fill:#ff0000;stroke:#ff0000;stroke-linejoin:miter;" x="218.123636" xlink:href="#mec8e8593c1" y="122.070623"/>
     <use style="fill:#ff0000;stroke:#ff0000;stroke-linejoin:miter;" x="221.402975" xlink:href="#mec8e8593c1" y="122.070417"/>
     <use style="fill:#ff0000;stroke:#ff0000;stroke-linejoin:miter;" x="224.682314" xlink:href="#mec8e8593c1" y="122.076454"/>
     <use style="fill:#ff0000;stroke:#ff0000;stroke-linejoin:miter;" x="227.961653" xlink:href="#mec8e8593c1" y="122.076411"/>
     <use style="fill:#ff0000;stroke:#ff0000;stroke-linejoin:miter;" x="231.240992" xlink:href="#mec8e8593c1" y="122.072892"/>
     <use style="fill:#ff0000;stroke:#ff0000;stroke-linejoin:miter;" x="234.520331" xlink:href="#mec8e8593c1" y="122.077507"/>
     <use style="fill:#ff0000;stroke:#ff0000;stroke-linejoin:miter;" x="237.799669" xlink:href="#mec8e8593c1" y="122.071612"/>
     <use style="fill:#ff0000;stroke:#ff0000;stroke-linejoin:miter;" x="241.079008" xlink:href="#mec8e8593c1" y="122.076887"/>
     <use style="fill:#ff0000;stroke:#ff0000;stroke-linejoin:miter;" x="244.358347" xlink:href="#mec8e8593c1" y="122.072601"/>
     <use style="fill:#ff0000;stroke:#ff0000;stroke-linejoin:miter;" x="247.637686" xlink:href="#mec8e8593c1" y="122.07094"/>
     <use style="fill:#ff0000;stroke:#ff0000;stroke-linejoin:miter;" x="250.917025" xlink:href="#mec8e8593c1" y="122.07096"/>
     <use style="fill:#ff0000;stroke:#ff0000;stroke-linejoin:miter;" x="254.196364" xlink:href="#mec8e8593c1" y="122.074133"/>
     <use style="fill:#ff0000;stroke:#ff0000;stroke-linejoin:miter;" x="257.475702" xlink:href="#mec8e8593c1" y="122.073047"/>
     <use style="fill:#ff0000;stroke:#ff0000;stroke-linejoin:miter;" x="260.755041" xlink:href="#mec8e8593c1" y="122.070429"/>
     <use style="fill:#ff0000;stroke:#ff0000;stroke-linejoin:miter;" x="264.03438" xlink:href="#mec8e8593c1" y="122.073335"/>
     <use style="fill:#ff0000;stroke:#ff0000;stroke-linejoin:miter;" x="267.313719" xlink:href="#mec8e8593c1" y="122.074998"/>
     <use style="fill:#ff0000;stroke:#ff0000;stroke-linejoin:miter;" x="270.593058" xlink:href="#mec8e8593c1" y="122.074151"/>
     <use style="fill:#ff0000;stroke:#ff0000;stroke-linejoin:miter;" x="273.872397" xlink:href="#mec8e8593c1" y="122.070353"/>
     <use style="fill:#ff0000;stroke:#ff0000;stroke-linejoin:miter;" x="277.151736" xlink:href="#mec8e8593c1" y="122.07311"/>
     <use style="fill:#ff0000;stroke:#ff0000;stroke-linejoin:miter;" x="280.431074" xlink:href="#mec8e8593c1" y="122.073554"/>
     <use style="fill:#ff0000;stroke:#ff0000;stroke-linejoin:miter;" x="283.710413" xlink:href="#mec8e8593c1" y="122.072745"/>
     <use style="fill:#ff0000;stroke:#ff0000;stroke-linejoin:miter;" x="286.989752" xlink:href="#mec8e8593c1" y="122.086447"/>
     <use style="fill:#ff0000;stroke:#ff0000;stroke-linejoin:miter;" x="290.269091" xlink:href="#mec8e8593c1" y="122.071447"/>
     <use style="fill:#ff0000;stroke:#ff0000;stroke-linejoin:miter;" x="293.54843" xlink:href="#mec8e8593c1" y="122.071318"/>
     <use style="fill:#ff0000;stroke:#ff0000;stroke-linejoin:miter;" x="296.827769" xlink:href="#mec8e8593c1" y="122.081078"/>
     <use style="fill:#ff0000;stroke:#ff0000;stroke-linejoin:miter;" x="300.107107" xlink:href="#mec8e8593c1" y="122.072481"/>
     <use style="fill:#ff0000;stroke:#ff0000;stroke-linejoin:miter;" x="303.386446" xlink:href="#mec8e8593c1" y="122.075428"/>
     <use style="fill:#ff0000;stroke:#ff0000;stroke-linejoin:miter;" x="306.665785" xlink:href="#mec8e8593c1" y="122.07226"/>
     <use style="fill:#ff0000;stroke:#ff0000;stroke-linejoin:miter;" x="309.945124" xlink:href="#mec8e8593c1" y="122.073854"/>
     <use style="fill:#ff0000;stroke:#ff0000;stroke-linejoin:miter;" x="313.224463" xlink:href="#mec8e8593c1" y="122.074055"/>
     <use style="fill:#ff0000;stroke:#ff0000;stroke-linejoin:miter;" x="316.503802" xlink:href="#mec8e8593c1" y="122.084569"/>
     <use style="fill:#ff0000;stroke:#ff0000;stroke-linejoin:miter;" x="319.78314" xlink:href="#mec8e8593c1" y="122.079902"/>
     <use style="fill:#ff0000;stroke:#ff0000;stroke-linejoin:miter;" x="323.062479" xlink:href="#mec8e8593c1" y="122.07557"/>
     <use style="fill:#ff0000;stroke:#ff0000;stroke-linejoin:miter;" x="326.341818" xlink:href="#mec8e8593c1" y="122.074221"/>
     <use style="fill:#ff0000;stroke:#ff0000;stroke-linejoin:miter;" x="329.621157" xlink:href="#mec8e8593c1" y="122.080071"/>
     <use style="fill:#ff0000;stroke:#ff0000;stroke-linejoin:miter;" x="332.900496" xlink:href="#mec8e8593c1" y="122.074657"/>
     <use style="fill:#ff0000;stroke:#ff0000;stroke-linejoin:miter;" x="336.179835" xlink:href="#mec8e8593c1" y="122.074999"/>
     <use style="fill:#ff0000;stroke:#ff0000;stroke-linejoin:miter;" x="339.459174" xlink:href="#mec8e8593c1" y="122.073706"/>
     <use style="fill:#ff0000;stroke:#ff0000;stroke-linejoin:miter;" x="342.738512" xlink:href="#mec8e8593c1" y="122.071327"/>
     <use style="fill:#ff0000;stroke:#ff0000;stroke-linejoin:miter;" x="346.017851" xlink:href="#mec8e8593c1" y="122.072086"/>
     <use style="fill:#ff0000;stroke:#ff0000;stroke-linejoin:miter;" x="349.29719" xlink:href="#mec8e8593c1" y="122.073731"/>
     <use style="fill:#ff0000;stroke:#ff0000;stroke-linejoin:miter;" x="352.576529" xlink:href="#mec8e8593c1" y="122.07089"/>
     <use style="fill:#ff0000;stroke:#ff0000;stroke-linejoin:miter;" x="355.855868" xlink:href="#mec8e8593c1" y="122.073322"/>
     <use style="fill:#ff0000;stroke:#ff0000;stroke-linejoin:miter;" x="359.135207" xlink:href="#mec8e8593c1" y="122.080691"/>
     <use style="fill:#ff0000;stroke:#ff0000;stroke-linejoin:miter;" x="362.414545" xlink:href="#mec8e8593c1" y="122.079521"/>
     <use style="fill:#ff0000;stroke:#ff0000;stroke-linejoin:miter;" x="365.693884" xlink:href="#mec8e8593c1" y="122.071859"/>
     <use style="fill:#ff0000;stroke:#ff0000;stroke-linejoin:miter;" x="368.973223" xlink:href="#mec8e8593c1" y="122.072251"/>
     <use style="fill:#ff0000;stroke:#ff0000;stroke-linejoin:miter;" x="372.252562" xlink:href="#mec8e8593c1" y="122.078914"/>
     <use style="fill:#ff0000;stroke:#ff0000;stroke-linejoin:miter;" x="375.531901" xlink:href="#mec8e8593c1" y="122.079588"/>
     <use style="fill:#ff0000;stroke:#ff0000;stroke-linejoin:miter;" x="378.81124" xlink:href="#mec8e8593c1" y="122.076311"/>
     <use style="fill:#ff0000;stroke:#ff0000;stroke-linejoin:miter;" x="382.090579" xlink:href="#mec8e8593c1" y="122.072449"/>
     <use style="fill:#ff0000;stroke:#ff0000;stroke-linejoin:miter;" x="385.369917" xlink:href="#mec8e8593c1" y="122.071012"/>
     <use style="fill:#ff0000;stroke:#ff0000;stroke-linejoin:miter;" x="388.649256" xlink:href="#mec8e8593c1" y="122.073257"/>
     <use style="fill:#ff0000;stroke:#ff0000;stroke-linejoin:miter;" x="391.928595" xlink:href="#mec8e8593c1" y="122.070403"/>
     <use style="fill:#ff0000;stroke:#ff0000;stroke-linejoin:miter;" x="395.207934" xlink:href="#mec8e8593c1" y="235.763001"/>
     <use style="fill:#ff0000;stroke:#ff0000;stroke-linejoin:miter;" x="398.487273" xlink:href="#mec8e8593c1" y="274.707019"/>
    </g>
   </g>
   <g id="patch_3">
    <path d="M 57.6 307.584 
L 57.6 41.472 
" style="fill:none;stroke:#000000;stroke-linecap:square;stroke-linejoin:miter;stroke-width:0.8;"/>
   </g>
   <g id="patch_4">
    <path d="M 414.72 307.584 
L 414.72 41.472 
" style="fill:none;stroke:#000000;stroke-linecap:square;stroke-linejoin:miter;stroke-width:0.8;"/>
   </g>
   <g id="patch_5">
    <path d="M 57.6 307.584 
L 414.72 307.584 
" style="fill:none;stroke:#000000;stroke-linecap:square;stroke-linejoin:miter;stroke-width:0.8;"/>
   </g>
   <g id="patch_6">
    <path d="M 57.6 41.472 
L 414.72 41.472 
" style="fill:none;stroke:#000000;stroke-linecap:square;stroke-linejoin:miter;stroke-width:0.8;"/>
   </g>
   <g id="text_17">
    <!-- Upper and lower bounds -->
    <g transform="translate(162.559687 35.472)scale(0.12 -0.12)">
     <defs>
      <path d="M 8.6875 72.90625 
L 18.609375 72.90625 
L 18.609375 28.609375 
Q 18.609375 16.890625 22.84375 11.734375 
Q 27.09375 6.59375 36.625 6.59375 
Q 46.09375 6.59375 50.34375 11.734375 
Q 54.59375 16.890625 54.59375 28.609375 
L 54.59375 72.90625 
L 64.5 72.90625 
L 64.5 27.390625 
Q 64.5 13.140625 57.4375 5.859375 
Q 50.390625 -1.421875 36.625 -1.421875 
Q 22.796875 -1.421875 15.734375 5.859375 
Q 8.6875 13.140625 8.6875 27.390625 
z
" id="DejaVuSans-85"/>
      <path d="M 18.109375 8.203125 
L 18.109375 -20.796875 
L 9.078125 -20.796875 
L 9.078125 54.6875 
L 18.109375 54.6875 
L 18.109375 46.390625 
Q 20.953125 51.265625 25.265625 53.625 
Q 29.59375 56 35.59375 56 
Q 45.5625 56 51.78125 48.09375 
Q 58.015625 40.1875 58.015625 27.296875 
Q 58.015625 14.40625 51.78125 6.484375 
Q 45.5625 -1.421875 35.59375 -1.421875 
Q 29.59375 -1.421875 25.265625 0.953125 
Q 20.953125 3.328125 18.109375 8.203125 
z
M 48.6875 27.296875 
Q 48.6875 37.203125 44.609375 42.84375 
Q 40.53125 48.484375 33.40625 48.484375 
Q 26.265625 48.484375 22.1875 42.84375 
Q 18.109375 37.203125 18.109375 27.296875 
Q 18.109375 17.390625 22.1875 11.75 
Q 26.265625 6.109375 33.40625 6.109375 
Q 40.53125 6.109375 44.609375 11.75 
Q 48.6875 17.390625 48.6875 27.296875 
z
" id="DejaVuSans-112"/>
      <path id="DejaVuSans-32"/>
      <path d="M 45.40625 46.390625 
L 45.40625 75.984375 
L 54.390625 75.984375 
L 54.390625 0 
L 45.40625 0 
L 45.40625 8.203125 
Q 42.578125 3.328125 38.25 0.953125 
Q 33.9375 -1.421875 27.875 -1.421875 
Q 17.96875 -1.421875 11.734375 6.484375 
Q 5.515625 14.40625 5.515625 27.296875 
Q 5.515625 40.1875 11.734375 48.09375 
Q 17.96875 56 27.875 56 
Q 33.9375 56 38.25 53.625 
Q 42.578125 51.265625 45.40625 46.390625 
z
M 14.796875 27.296875 
Q 14.796875 17.390625 18.875 11.75 
Q 22.953125 6.109375 30.078125 6.109375 
Q 37.203125 6.109375 41.296875 11.75 
Q 45.40625 17.390625 45.40625 27.296875 
Q 45.40625 37.203125 41.296875 42.84375 
Q 37.203125 48.484375 30.078125 48.484375 
Q 22.953125 48.484375 18.875 42.84375 
Q 14.796875 37.203125 14.796875 27.296875 
z
" id="DejaVuSans-100"/>
      <path d="M 9.421875 75.984375 
L 18.40625 75.984375 
L 18.40625 0 
L 9.421875 0 
z
" id="DejaVuSans-108"/>
      <path d="M 30.609375 48.390625 
Q 23.390625 48.390625 19.1875 42.75 
Q 14.984375 37.109375 14.984375 27.296875 
Q 14.984375 17.484375 19.15625 11.84375 
Q 23.34375 6.203125 30.609375 6.203125 
Q 37.796875 6.203125 41.984375 11.859375 
Q 46.1875 17.53125 46.1875 27.296875 
Q 46.1875 37.015625 41.984375 42.703125 
Q 37.796875 48.390625 30.609375 48.390625 
z
M 30.609375 56 
Q 42.328125 56 49.015625 48.375 
Q 55.71875 40.765625 55.71875 27.296875 
Q 55.71875 13.875 49.015625 6.21875 
Q 42.328125 -1.421875 30.609375 -1.421875 
Q 18.84375 -1.421875 12.171875 6.21875 
Q 5.515625 13.875 5.515625 27.296875 
Q 5.515625 40.765625 12.171875 48.375 
Q 18.84375 56 30.609375 56 
z
" id="DejaVuSans-111"/>
      <path d="M 4.203125 54.6875 
L 13.1875 54.6875 
L 24.421875 12.015625 
L 35.59375 54.6875 
L 46.1875 54.6875 
L 57.421875 12.015625 
L 68.609375 54.6875 
L 77.59375 54.6875 
L 63.28125 0 
L 52.6875 0 
L 40.921875 44.828125 
L 29.109375 0 
L 18.5 0 
z
" id="DejaVuSans-119"/>
      <path d="M 48.6875 27.296875 
Q 48.6875 37.203125 44.609375 42.84375 
Q 40.53125 48.484375 33.40625 48.484375 
Q 26.265625 48.484375 22.1875 42.84375 
Q 18.109375 37.203125 18.109375 27.296875 
Q 18.109375 17.390625 22.1875 11.75 
Q 26.265625 6.109375 33.40625 6.109375 
Q 40.53125 6.109375 44.609375 11.75 
Q 48.6875 17.390625 48.6875 27.296875 
z
M 18.109375 46.390625 
Q 20.953125 51.265625 25.265625 53.625 
Q 29.59375 56 35.59375 56 
Q 45.5625 56 51.78125 48.09375 
Q 58.015625 40.1875 58.015625 27.296875 
Q 58.015625 14.40625 51.78125 6.484375 
Q 45.5625 -1.421875 35.59375 -1.421875 
Q 29.59375 -1.421875 25.265625 0.953125 
Q 20.953125 3.328125 18.109375 8.203125 
L 18.109375 0 
L 9.078125 0 
L 9.078125 75.984375 
L 18.109375 75.984375 
z
" id="DejaVuSans-98"/>
      <path d="M 8.5 21.578125 
L 8.5 54.6875 
L 17.484375 54.6875 
L 17.484375 21.921875 
Q 17.484375 14.15625 20.5 10.265625 
Q 23.53125 6.390625 29.59375 6.390625 
Q 36.859375 6.390625 41.078125 11.03125 
Q 45.3125 15.671875 45.3125 23.6875 
L 45.3125 54.6875 
L 54.296875 54.6875 
L 54.296875 0 
L 45.3125 0 
L 45.3125 8.40625 
Q 42.046875 3.421875 37.71875 1 
Q 33.40625 -1.421875 27.6875 -1.421875 
Q 18.265625 -1.421875 13.375 4.4375 
Q 8.5 10.296875 8.5 21.578125 
z
M 31.109375 56 
z
" id="DejaVuSans-117"/>
      <path d="M 44.28125 53.078125 
L 44.28125 44.578125 
Q 40.484375 46.53125 36.375 47.5 
Q 32.28125 48.484375 27.875 48.484375 
Q 21.1875 48.484375 17.84375 46.4375 
Q 14.5 44.390625 14.5 40.28125 
Q 14.5 37.15625 16.890625 35.375 
Q 19.28125 33.59375 26.515625 31.984375 
L 29.59375 31.296875 
Q 39.15625 29.25 43.1875 25.515625 
Q 47.21875 21.78125 47.21875 15.09375 
Q 47.21875 7.46875 41.1875 3.015625 
Q 35.15625 -1.421875 24.609375 -1.421875 
Q 20.21875 -1.421875 15.453125 -0.5625 
Q 10.6875 0.296875 5.421875 2 
L 5.421875 11.28125 
Q 10.40625 8.6875 15.234375 7.390625 
Q 20.0625 6.109375 24.8125 6.109375 
Q 31.15625 6.109375 34.5625 8.28125 
Q 37.984375 10.453125 37.984375 14.40625 
Q 37.984375 18.0625 35.515625 20.015625 
Q 33.0625 21.96875 24.703125 23.78125 
L 21.578125 24.515625 
Q 13.234375 26.265625 9.515625 29.90625 
Q 5.8125 33.546875 5.8125 39.890625 
Q 5.8125 47.609375 11.28125 51.796875 
Q 16.75 56 26.8125 56 
Q 31.78125 56 36.171875 55.265625 
Q 40.578125 54.546875 44.28125 53.078125 
z
" id="DejaVuSans-115"/>
     </defs>
     <use xlink:href="#DejaVuSans-85"/>
     <use x="73.193359" xlink:href="#DejaVuSans-112"/>
     <use x="136.669922" xlink:href="#DejaVuSans-112"/>
     <use x="200.146484" xlink:href="#DejaVuSans-101"/>
     <use x="261.669922" xlink:href="#DejaVuSans-114"/>
     <use x="302.783203" xlink:href="#DejaVuSans-32"/>
     <use x="334.570312" xlink:href="#DejaVuSans-97"/>
     <use x="395.849609" xlink:href="#DejaVuSans-110"/>
     <use x="459.228516" xlink:href="#DejaVuSans-100"/>
     <use x="522.705078" xlink:href="#DejaVuSans-32"/>
     <use x="554.492188" xlink:href="#DejaVuSans-108"/>
     <use x="582.275391" xlink:href="#DejaVuSans-111"/>
     <use x="643.457031" xlink:href="#DejaVuSans-119"/>
     <use x="725.244141" xlink:href="#DejaVuSans-101"/>
     <use x="786.767578" xlink:href="#DejaVuSans-114"/>
     <use x="827.880859" xlink:href="#DejaVuSans-32"/>
     <use x="859.667969" xlink:href="#DejaVuSans-98"/>
     <use x="923.144531" xlink:href="#DejaVuSans-111"/>
     <use x="984.326172" xlink:href="#DejaVuSans-117"/>
     <use x="1047.705078" xlink:href="#DejaVuSans-110"/>
     <use x="1111.083984" xlink:href="#DejaVuSans-100"/>
     <use x="1174.560547" xlink:href="#DejaVuSans-115"/>
    </g>
   </g>
   <g id="legend_1">
    <g id="patch_7">
     <path d="M 326.443438 93.506375 
L 407.72 93.506375 
Q 409.72 93.506375 409.72 91.506375 
L 409.72 48.472 
Q 409.72 46.472 407.72 46.472 
L 326.443438 46.472 
Q 324.443438 46.472 324.443438 48.472 
L 324.443438 91.506375 
Q 324.443438 93.506375 326.443438 93.506375 
z
" style="fill:#ffffff;opacity:0.8;stroke:#cccccc;stroke-linejoin:miter;"/>
    </g>
    <g id="line2d_19">
     <path d="M 328.443438 54.570438 
L 348.443438 54.570438 
" style="fill:none;stroke:#0000ff;stroke-linecap:square;stroke-width:1.5;"/>
    </g>
    <g id="line2d_20">
     <g>
      <use style="fill:#0000ff;stroke:#0000ff;" x="338.443438" xlink:href="#m6c73e0b2aa" y="54.570438"/>
     </g>
    </g>
    <g id="text_18">
     <!-- empirical -->
     <g transform="translate(356.443438 58.070438)scale(0.1 -0.1)">
      <defs>
       <path d="M 9.421875 54.6875 
L 18.40625 54.6875 
L 18.40625 0 
L 9.421875 0 
z
M 9.421875 75.984375 
L 18.40625 75.984375 
L 18.40625 64.59375 
L 9.421875 64.59375 
z
" id="DejaVuSans-105"/>
       <path d="M 48.78125 52.59375 
L 48.78125 44.1875 
Q 44.96875 46.296875 41.140625 47.34375 
Q 37.3125 48.390625 33.40625 48.390625 
Q 24.65625 48.390625 19.8125 42.84375 
Q 14.984375 37.3125 14.984375 27.296875 
Q 14.984375 17.28125 19.8125 11.734375 
Q 24.65625 6.203125 33.40625 6.203125 
Q 37.3125 6.203125 41.140625 7.25 
Q 44.96875 8.296875 48.78125 10.40625 
L 48.78125 2.09375 
Q 45.015625 0.34375 40.984375 -0.53125 
Q 36.96875 -1.421875 32.421875 -1.421875 
Q 20.0625 -1.421875 12.78125 6.34375 
Q 5.515625 14.109375 5.515625 27.296875 
Q 5.515625 40.671875 12.859375 48.328125 
Q 20.21875 56 33.015625 56 
Q 37.15625 56 41.109375 55.140625 
Q 45.0625 54.296875 48.78125 52.59375 
z
" id="DejaVuSans-99"/>
      </defs>
      <use xlink:href="#DejaVuSans-101"/>
      <use x="61.523438" xlink:href="#DejaVuSans-109"/>
      <use x="158.935547" xlink:href="#DejaVuSans-112"/>
      <use x="222.412109" xlink:href="#DejaVuSans-105"/>
      <use x="250.195312" xlink:href="#DejaVuSans-114"/>
      <use x="291.308594" xlink:href="#DejaVuSans-105"/>
      <use x="319.091797" xlink:href="#DejaVuSans-99"/>
      <use x="374.072266" xlink:href="#DejaVuSans-97"/>
      <use x="435.351562" xlink:href="#DejaVuSans-108"/>
     </g>
    </g>
    <g id="line2d_21">
     <path d="M 328.443438 69.248563 
L 348.443438 69.248563 
" style="fill:none;stroke:#000000;stroke-linecap:square;stroke-width:1.5;"/>
    </g>
    <g id="line2d_22">
     <g>
      <use style="stroke:#000000;" x="338.443438" xlink:href="#mac0261cfa6" y="69.248563"/>
     </g>
    </g>
    <g id="text_19">
     <!-- true -->
     <g transform="translate(356.443438 72.748563)scale(0.1 -0.1)">
      <defs>
       <path d="M 18.3125 70.21875 
L 18.3125 54.6875 
L 36.8125 54.6875 
L 36.8125 47.703125 
L 18.3125 47.703125 
L 18.3125 18.015625 
Q 18.3125 11.328125 20.140625 9.421875 
Q 21.96875 7.515625 27.59375 7.515625 
L 36.8125 7.515625 
L 36.8125 0 
L 27.59375 0 
Q 17.1875 0 13.234375 3.875 
Q 9.28125 7.765625 9.28125 18.015625 
L 9.28125 47.703125 
L 2.6875 47.703125 
L 2.6875 54.6875 
L 9.28125 54.6875 
L 9.28125 70.21875 
z
" id="DejaVuSans-116"/>
      </defs>
      <use xlink:href="#DejaVuSans-116"/>
      <use x="39.208984" xlink:href="#DejaVuSans-114"/>
      <use x="80.322266" xlink:href="#DejaVuSans-117"/>
      <use x="143.701172" xlink:href="#DejaVuSans-101"/>
     </g>
    </g>
    <g id="line2d_23">
     <path d="M 328.443438 83.926688 
L 348.443438 83.926688 
" style="fill:none;stroke:#1f77b4;stroke-width:1.5;"/>
    </g>
    <g id="text_20">
     <!-- Threshold -->
     <g transform="translate(356.443438 87.426688)scale(0.1 -0.1)">
      <defs>
       <path d="M -0.296875 72.90625 
L 61.375 72.90625 
L 61.375 64.59375 
L 35.5 64.59375 
L 35.5 0 
L 25.59375 0 
L 25.59375 64.59375 
L -0.296875 64.59375 
z
" id="DejaVuSans-84"/>
       <path d="M 54.890625 33.015625 
L 54.890625 0 
L 45.90625 0 
L 45.90625 32.71875 
Q 45.90625 40.484375 42.875 44.328125 
Q 39.84375 48.1875 33.796875 48.1875 
Q 26.515625 48.1875 22.3125 43.546875 
Q 18.109375 38.921875 18.109375 30.90625 
L 18.109375 0 
L 9.078125 0 
L 9.078125 75.984375 
L 18.109375 75.984375 
L 18.109375 46.1875 
Q 21.34375 51.125 25.703125 53.5625 
Q 30.078125 56 35.796875 56 
Q 45.21875 56 50.046875 50.171875 
Q 54.890625 44.34375 54.890625 33.015625 
z
" id="DejaVuSans-104"/>
      </defs>
      <use xlink:href="#DejaVuSans-84"/>
      <use x="61.083984" xlink:href="#DejaVuSans-104"/>
      <use x="124.462891" xlink:href="#DejaVuSans-114"/>
      <use x="163.326172" xlink:href="#DejaVuSans-101"/>
      <use x="224.849609" xlink:href="#DejaVuSans-115"/>
      <use x="276.949219" xlink:href="#DejaVuSans-104"/>
      <use x="340.328125" xlink:href="#DejaVuSans-111"/>
      <use x="401.509766" xlink:href="#DejaVuSans-108"/>
      <use x="429.292969" xlink:href="#DejaVuSans-100"/>
     </g>
    </g>
   </g>
  </g>
 </g>
 <defs>
  <clipPath id="p80ec28aaf4">
   <rect height="266.112" width="357.12" x="57.6" y="41.472"/>
  </clipPath>
 </defs>
</svg>
