<?xml version="1.0" encoding="utf-8" standalone="no"?>
<!DOCTYPE svg PUBLIC "-//W3C//DTD SVG 1.1//EN"
  "http://www.w3.org/Graphics/SVG/1.1/DTD/svg11.dtd">
<!-- Created with matplotlib (https://matplotlib.org/) -->
<svg height="345.6pt" version="1.1" viewBox="0 0 460.8 345.6" width="460.8pt" xmlns="http://www.w3.org/2000/svg" xmlns:xlink="http://www.w3.org/1999/xlink">
 <metadata>
  <rdf:RDF xmlns:cc="http://creativecommons.org/ns#" xmlns:dc="http://purl.org/dc/elements/1.1/" xmlns:rdf="http://www.w3.org/1999/02/22-rdf-syntax-ns#">
   <cc:Work>
    <dc:type rdf:resource="http://purl.org/dc/dcmitype/StillImage"/>
    <dc:date>2021-03-09T18:58:56.232974</dc:date>
    <dc:format>image/svg+xml</dc:format>
    <dc:creator>
     <cc:Agent>
      <dc:title>Matplotlib v3.3.3, https://matplotlib.org/</dc:title>
     </cc:Agent>
    </dc:creator>
   </cc:Work>
  </rdf:RDF>
 </metadata>
 <defs>
  <style type="text/css">*{stroke-linecap:butt;stroke-linejoin:round;}</style>
 </defs>
 <g id="figure_1">
  <g id="patch_1">
   <path d="M 0 345.6 
L 460.8 345.6 
L 460.8 0 
L 0 0 
z
" style="fill:#ffffff;"/>
  </g>
  <g id="axes_1">
   <g id="patch_2">
    <path d="M 57.6 307.584 
L 414.72 307.584 
L 414.72 41.472 
L 57.6 41.472 
z
" style="fill:#ffffff;"/>
   </g>
   <g id="matplotlib.axis_1">
    <g id="xtick_1">
     <g id="line2d_1">
      <defs>
       <path d="M 0 0 
L 0 3.5 
" id="mf586e7f894" style="stroke:#000000;stroke-width:0.8;"/>
      </defs>
      <g>
       <use style="stroke:#000000;stroke-width:0.8;" x="73.832727" xlink:href="#mf586e7f894" y="307.584"/>
      </g>
     </g>
     <g id="text_1">
      <!-- 0 -->
      <g transform="translate(70.651477 322.182437)scale(0.1 -0.1)">
       <defs>
        <path d="M 31.78125 66.40625 
Q 24.171875 66.40625 20.328125 58.90625 
Q 16.5 51.421875 16.5 36.375 
Q 16.5 21.390625 20.328125 13.890625 
Q 24.171875 6.390625 31.78125 6.390625 
Q 39.453125 6.390625 43.28125 13.890625 
Q 47.125 21.390625 47.125 36.375 
Q 47.125 51.421875 43.28125 58.90625 
Q 39.453125 66.40625 31.78125 66.40625 
z
M 31.78125 74.21875 
Q 44.046875 74.21875 50.515625 64.515625 
Q 56.984375 54.828125 56.984375 36.375 
Q 56.984375 17.96875 50.515625 8.265625 
Q 44.046875 -1.421875 31.78125 -1.421875 
Q 19.53125 -1.421875 13.0625 8.265625 
Q 6.59375 17.96875 6.59375 36.375 
Q 6.59375 54.828125 13.0625 64.515625 
Q 19.53125 74.21875 31.78125 74.21875 
z
" id="DejaVuSans-48"/>
       </defs>
       <use xlink:href="#DejaVuSans-48"/>
      </g>
     </g>
    </g>
    <g id="xtick_2">
     <g id="line2d_2">
      <g>
       <use style="stroke:#000000;stroke-width:0.8;" x="139.419504" xlink:href="#mf586e7f894" y="307.584"/>
      </g>
     </g>
     <g id="text_2">
      <!-- 20 -->
      <g transform="translate(133.057004 322.182437)scale(0.1 -0.1)">
       <defs>
        <path d="M 19.1875 8.296875 
L 53.609375 8.296875 
L 53.609375 0 
L 7.328125 0 
L 7.328125 8.296875 
Q 12.9375 14.109375 22.625 23.890625 
Q 32.328125 33.6875 34.8125 36.53125 
Q 39.546875 41.84375 41.421875 45.53125 
Q 43.3125 49.21875 43.3125 52.78125 
Q 43.3125 58.59375 39.234375 62.25 
Q 35.15625 65.921875 28.609375 65.921875 
Q 23.96875 65.921875 18.8125 64.3125 
Q 13.671875 62.703125 7.8125 59.421875 
L 7.8125 69.390625 
Q 13.765625 71.78125 18.9375 73 
Q 24.125 74.21875 28.421875 74.21875 
Q 39.75 74.21875 46.484375 68.546875 
Q 53.21875 62.890625 53.21875 53.421875 
Q 53.21875 48.921875 51.53125 44.890625 
Q 49.859375 40.875 45.40625 35.40625 
Q 44.1875 33.984375 37.640625 27.21875 
Q 31.109375 20.453125 19.1875 8.296875 
z
" id="DejaVuSans-50"/>
       </defs>
       <use xlink:href="#DejaVuSans-50"/>
       <use x="63.623047" xlink:href="#DejaVuSans-48"/>
      </g>
     </g>
    </g>
    <g id="xtick_3">
     <g id="line2d_3">
      <g>
       <use style="stroke:#000000;stroke-width:0.8;" x="205.006281" xlink:href="#mf586e7f894" y="307.584"/>
      </g>
     </g>
     <g id="text_3">
      <!-- 40 -->
      <g transform="translate(198.643781 322.182437)scale(0.1 -0.1)">
       <defs>
        <path d="M 37.796875 64.3125 
L 12.890625 25.390625 
L 37.796875 25.390625 
z
M 35.203125 72.90625 
L 47.609375 72.90625 
L 47.609375 25.390625 
L 58.015625 25.390625 
L 58.015625 17.1875 
L 47.609375 17.1875 
L 47.609375 0 
L 37.796875 0 
L 37.796875 17.1875 
L 4.890625 17.1875 
L 4.890625 26.703125 
z
" id="DejaVuSans-52"/>
       </defs>
       <use xlink:href="#DejaVuSans-52"/>
       <use x="63.623047" xlink:href="#DejaVuSans-48"/>
      </g>
     </g>
    </g>
    <g id="xtick_4">
     <g id="line2d_4">
      <g>
       <use style="stroke:#000000;stroke-width:0.8;" x="270.593058" xlink:href="#mf586e7f894" y="307.584"/>
      </g>
     </g>
     <g id="text_4">
      <!-- 60 -->
      <g transform="translate(264.230558 322.182437)scale(0.1 -0.1)">
       <defs>
        <path d="M 33.015625 40.375 
Q 26.375 40.375 22.484375 35.828125 
Q 18.609375 31.296875 18.609375 23.390625 
Q 18.609375 15.53125 22.484375 10.953125 
Q 26.375 6.390625 33.015625 6.390625 
Q 39.65625 6.390625 43.53125 10.953125 
Q 47.40625 15.53125 47.40625 23.390625 
Q 47.40625 31.296875 43.53125 35.828125 
Q 39.65625 40.375 33.015625 40.375 
z
M 52.59375 71.296875 
L 52.59375 62.3125 
Q 48.875 64.0625 45.09375 64.984375 
Q 41.3125 65.921875 37.59375 65.921875 
Q 27.828125 65.921875 22.671875 59.328125 
Q 17.53125 52.734375 16.796875 39.40625 
Q 19.671875 43.65625 24.015625 45.921875 
Q 28.375 48.1875 33.59375 48.1875 
Q 44.578125 48.1875 50.953125 41.515625 
Q 57.328125 34.859375 57.328125 23.390625 
Q 57.328125 12.15625 50.6875 5.359375 
Q 44.046875 -1.421875 33.015625 -1.421875 
Q 20.359375 -1.421875 13.671875 8.265625 
Q 6.984375 17.96875 6.984375 36.375 
Q 6.984375 53.65625 15.1875 63.9375 
Q 23.390625 74.21875 37.203125 74.21875 
Q 40.921875 74.21875 44.703125 73.484375 
Q 48.484375 72.75 52.59375 71.296875 
z
" id="DejaVuSans-54"/>
       </defs>
       <use xlink:href="#DejaVuSans-54"/>
       <use x="63.623047" xlink:href="#DejaVuSans-48"/>
      </g>
     </g>
    </g>
    <g id="xtick_5">
     <g id="line2d_5">
      <g>
       <use style="stroke:#000000;stroke-width:0.8;" x="336.179835" xlink:href="#mf586e7f894" y="307.584"/>
      </g>
     </g>
     <g id="text_5">
      <!-- 80 -->
      <g transform="translate(329.817335 322.182437)scale(0.1 -0.1)">
       <defs>
        <path d="M 31.78125 34.625 
Q 24.75 34.625 20.71875 30.859375 
Q 16.703125 27.09375 16.703125 20.515625 
Q 16.703125 13.921875 20.71875 10.15625 
Q 24.75 6.390625 31.78125 6.390625 
Q 38.8125 6.390625 42.859375 10.171875 
Q 46.921875 13.96875 46.921875 20.515625 
Q 46.921875 27.09375 42.890625 30.859375 
Q 38.875 34.625 31.78125 34.625 
z
M 21.921875 38.8125 
Q 15.578125 40.375 12.03125 44.71875 
Q 8.5 49.078125 8.5 55.328125 
Q 8.5 64.0625 14.71875 69.140625 
Q 20.953125 74.21875 31.78125 74.21875 
Q 42.671875 74.21875 48.875 69.140625 
Q 55.078125 64.0625 55.078125 55.328125 
Q 55.078125 49.078125 51.53125 44.71875 
Q 48 40.375 41.703125 38.8125 
Q 48.828125 37.15625 52.796875 32.3125 
Q 56.78125 27.484375 56.78125 20.515625 
Q 56.78125 9.90625 50.3125 4.234375 
Q 43.84375 -1.421875 31.78125 -1.421875 
Q 19.734375 -1.421875 13.25 4.234375 
Q 6.78125 9.90625 6.78125 20.515625 
Q 6.78125 27.484375 10.78125 32.3125 
Q 14.796875 37.15625 21.921875 38.8125 
z
M 18.3125 54.390625 
Q 18.3125 48.734375 21.84375 45.5625 
Q 25.390625 42.390625 31.78125 42.390625 
Q 38.140625 42.390625 41.71875 45.5625 
Q 45.3125 48.734375 45.3125 54.390625 
Q 45.3125 60.0625 41.71875 63.234375 
Q 38.140625 66.40625 31.78125 66.40625 
Q 25.390625 66.40625 21.84375 63.234375 
Q 18.3125 60.0625 18.3125 54.390625 
z
" id="DejaVuSans-56"/>
       </defs>
       <use xlink:href="#DejaVuSans-56"/>
       <use x="63.623047" xlink:href="#DejaVuSans-48"/>
      </g>
     </g>
    </g>
    <g id="xtick_6">
     <g id="line2d_6">
      <g>
       <use style="stroke:#000000;stroke-width:0.8;" x="401.766612" xlink:href="#mf586e7f894" y="307.584"/>
      </g>
     </g>
     <g id="text_6">
      <!-- 100 -->
      <g transform="translate(392.222862 322.182437)scale(0.1 -0.1)">
       <defs>
        <path d="M 12.40625 8.296875 
L 28.515625 8.296875 
L 28.515625 63.921875 
L 10.984375 60.40625 
L 10.984375 69.390625 
L 28.421875 72.90625 
L 38.28125 72.90625 
L 38.28125 8.296875 
L 54.390625 8.296875 
L 54.390625 0 
L 12.40625 0 
z
" id="DejaVuSans-49"/>
       </defs>
       <use xlink:href="#DejaVuSans-49"/>
       <use x="63.623047" xlink:href="#DejaVuSans-48"/>
       <use x="127.246094" xlink:href="#DejaVuSans-48"/>
      </g>
     </g>
    </g>
    <g id="text_7">
     <!-- Arm -->
     <g transform="translate(225.901406 335.860562)scale(0.1 -0.1)">
      <defs>
       <path d="M 34.1875 63.1875 
L 20.796875 26.90625 
L 47.609375 26.90625 
z
M 28.609375 72.90625 
L 39.796875 72.90625 
L 67.578125 0 
L 57.328125 0 
L 50.6875 18.703125 
L 17.828125 18.703125 
L 11.1875 0 
L 0.78125 0 
z
" id="DejaVuSans-65"/>
       <path d="M 41.109375 46.296875 
Q 39.59375 47.171875 37.8125 47.578125 
Q 36.03125 48 33.890625 48 
Q 26.265625 48 22.1875 43.046875 
Q 18.109375 38.09375 18.109375 28.8125 
L 18.109375 0 
L 9.078125 0 
L 9.078125 54.6875 
L 18.109375 54.6875 
L 18.109375 46.1875 
Q 20.953125 51.171875 25.484375 53.578125 
Q 30.03125 56 36.53125 56 
Q 37.453125 56 38.578125 55.875 
Q 39.703125 55.765625 41.0625 55.515625 
z
" id="DejaVuSans-114"/>
       <path d="M 52 44.1875 
Q 55.375 50.25 60.0625 53.125 
Q 64.75 56 71.09375 56 
Q 79.640625 56 84.28125 50.015625 
Q 88.921875 44.046875 88.921875 33.015625 
L 88.921875 0 
L 79.890625 0 
L 79.890625 32.71875 
Q 79.890625 40.578125 77.09375 44.375 
Q 74.3125 48.1875 68.609375 48.1875 
Q 61.625 48.1875 57.5625 43.546875 
Q 53.515625 38.921875 53.515625 30.90625 
L 53.515625 0 
L 44.484375 0 
L 44.484375 32.71875 
Q 44.484375 40.625 41.703125 44.40625 
Q 38.921875 48.1875 33.109375 48.1875 
Q 26.21875 48.1875 22.15625 43.53125 
Q 18.109375 38.875 18.109375 30.90625 
L 18.109375 0 
L 9.078125 0 
L 9.078125 54.6875 
L 18.109375 54.6875 
L 18.109375 46.1875 
Q 21.1875 51.21875 25.484375 53.609375 
Q 29.78125 56 35.6875 56 
Q 41.65625 56 45.828125 52.96875 
Q 50 49.953125 52 44.1875 
z
" id="DejaVuSans-109"/>
      </defs>
      <use xlink:href="#DejaVuSans-65"/>
      <use x="68.408203" xlink:href="#DejaVuSans-114"/>
      <use x="107.771484" xlink:href="#DejaVuSans-109"/>
     </g>
    </g>
   </g>
   <g id="matplotlib.axis_2">
    <g id="ytick_1">
     <g id="line2d_7">
      <defs>
       <path d="M 0 0 
L -3.5 0 
" id="m125190311c" style="stroke:#000000;stroke-width:0.8;"/>
      </defs>
      <g>
       <use style="stroke:#000000;stroke-width:0.8;" x="57.6" xlink:href="#m125190311c" y="307.584"/>
      </g>
     </g>
     <g id="text_8">
      <!-- 0.0 -->
      <g transform="translate(34.696875 311.383219)scale(0.1 -0.1)">
       <defs>
        <path d="M 10.6875 12.40625 
L 21 12.40625 
L 21 0 
L 10.6875 0 
z
" id="DejaVuSans-46"/>
       </defs>
       <use xlink:href="#DejaVuSans-48"/>
       <use x="63.623047" xlink:href="#DejaVuSans-46"/>
       <use x="95.410156" xlink:href="#DejaVuSans-48"/>
      </g>
     </g>
    </g>
    <g id="ytick_2">
     <g id="line2d_8">
      <g>
       <use style="stroke:#000000;stroke-width:0.8;" x="57.6" xlink:href="#m125190311c" y="272.1024"/>
      </g>
     </g>
     <g id="text_9">
      <!-- 0.2 -->
      <g transform="translate(34.696875 275.901619)scale(0.1 -0.1)">
       <use xlink:href="#DejaVuSans-48"/>
       <use x="63.623047" xlink:href="#DejaVuSans-46"/>
       <use x="95.410156" xlink:href="#DejaVuSans-50"/>
      </g>
     </g>
    </g>
    <g id="ytick_3">
     <g id="line2d_9">
      <g>
       <use style="stroke:#000000;stroke-width:0.8;" x="57.6" xlink:href="#m125190311c" y="236.6208"/>
      </g>
     </g>
     <g id="text_10">
      <!-- 0.4 -->
      <g transform="translate(34.696875 240.420019)scale(0.1 -0.1)">
       <use xlink:href="#DejaVuSans-48"/>
       <use x="63.623047" xlink:href="#DejaVuSans-46"/>
       <use x="95.410156" xlink:href="#DejaVuSans-52"/>
      </g>
     </g>
    </g>
    <g id="ytick_4">
     <g id="line2d_10">
      <g>
       <use style="stroke:#000000;stroke-width:0.8;" x="57.6" xlink:href="#m125190311c" y="201.1392"/>
      </g>
     </g>
     <g id="text_11">
      <!-- 0.6 -->
      <g transform="translate(34.696875 204.938419)scale(0.1 -0.1)">
       <use xlink:href="#DejaVuSans-48"/>
       <use x="63.623047" xlink:href="#DejaVuSans-46"/>
       <use x="95.410156" xlink:href="#DejaVuSans-54"/>
      </g>
     </g>
    </g>
    <g id="ytick_5">
     <g id="line2d_11">
      <g>
       <use style="stroke:#000000;stroke-width:0.8;" x="57.6" xlink:href="#m125190311c" y="165.6576"/>
      </g>
     </g>
     <g id="text_12">
      <!-- 0.8 -->
      <g transform="translate(34.696875 169.456819)scale(0.1 -0.1)">
       <use xlink:href="#DejaVuSans-48"/>
       <use x="63.623047" xlink:href="#DejaVuSans-46"/>
       <use x="95.410156" xlink:href="#DejaVuSans-56"/>
      </g>
     </g>
    </g>
    <g id="ytick_6">
     <g id="line2d_12">
      <g>
       <use style="stroke:#000000;stroke-width:0.8;" x="57.6" xlink:href="#m125190311c" y="130.176"/>
      </g>
     </g>
     <g id="text_13">
      <!-- 1.0 -->
      <g transform="translate(34.696875 133.975219)scale(0.1 -0.1)">
       <use xlink:href="#DejaVuSans-49"/>
       <use x="63.623047" xlink:href="#DejaVuSans-46"/>
       <use x="95.410156" xlink:href="#DejaVuSans-48"/>
      </g>
     </g>
    </g>
    <g id="ytick_7">
     <g id="line2d_13">
      <g>
       <use style="stroke:#000000;stroke-width:0.8;" x="57.6" xlink:href="#m125190311c" y="94.6944"/>
      </g>
     </g>
     <g id="text_14">
      <!-- 1.2 -->
      <g transform="translate(34.696875 98.493619)scale(0.1 -0.1)">
       <use xlink:href="#DejaVuSans-49"/>
       <use x="63.623047" xlink:href="#DejaVuSans-46"/>
       <use x="95.410156" xlink:href="#DejaVuSans-50"/>
      </g>
     </g>
    </g>
    <g id="ytick_8">
     <g id="line2d_14">
      <g>
       <use style="stroke:#000000;stroke-width:0.8;" x="57.6" xlink:href="#m125190311c" y="59.2128"/>
      </g>
     </g>
     <g id="text_15">
      <!-- 1.4 -->
      <g transform="translate(34.696875 63.012019)scale(0.1 -0.1)">
       <use xlink:href="#DejaVuSans-49"/>
       <use x="63.623047" xlink:href="#DejaVuSans-46"/>
       <use x="95.410156" xlink:href="#DejaVuSans-52"/>
      </g>
     </g>
    </g>
    <g id="text_16">
     <!-- Mean -->
     <g transform="translate(28.617188 188.151437)rotate(-90)scale(0.1 -0.1)">
      <defs>
       <path d="M 9.8125 72.90625 
L 24.515625 72.90625 
L 43.109375 23.296875 
L 61.8125 72.90625 
L 76.515625 72.90625 
L 76.515625 0 
L 66.890625 0 
L 66.890625 64.015625 
L 48.09375 14.015625 
L 38.1875 14.015625 
L 19.390625 64.015625 
L 19.390625 0 
L 9.8125 0 
z
" id="DejaVuSans-77"/>
       <path d="M 56.203125 29.59375 
L 56.203125 25.203125 
L 14.890625 25.203125 
Q 15.484375 15.921875 20.484375 11.0625 
Q 25.484375 6.203125 34.421875 6.203125 
Q 39.59375 6.203125 44.453125 7.46875 
Q 49.3125 8.734375 54.109375 11.28125 
L 54.109375 2.78125 
Q 49.265625 0.734375 44.1875 -0.34375 
Q 39.109375 -1.421875 33.890625 -1.421875 
Q 20.796875 -1.421875 13.15625 6.1875 
Q 5.515625 13.8125 5.515625 26.8125 
Q 5.515625 40.234375 12.765625 48.109375 
Q 20.015625 56 32.328125 56 
Q 43.359375 56 49.78125 48.890625 
Q 56.203125 41.796875 56.203125 29.59375 
z
M 47.21875 32.234375 
Q 47.125 39.59375 43.09375 43.984375 
Q 39.0625 48.390625 32.421875 48.390625 
Q 24.90625 48.390625 20.390625 44.140625 
Q 15.875 39.890625 15.1875 32.171875 
z
" id="DejaVuSans-101"/>
       <path d="M 34.28125 27.484375 
Q 23.390625 27.484375 19.1875 25 
Q 14.984375 22.515625 14.984375 16.5 
Q 14.984375 11.71875 18.140625 8.90625 
Q 21.296875 6.109375 26.703125 6.109375 
Q 34.1875 6.109375 38.703125 11.40625 
Q 43.21875 16.703125 43.21875 25.484375 
L 43.21875 27.484375 
z
M 52.203125 31.203125 
L 52.203125 0 
L 43.21875 0 
L 43.21875 8.296875 
Q 40.140625 3.328125 35.546875 0.953125 
Q 30.953125 -1.421875 24.3125 -1.421875 
Q 15.921875 -1.421875 10.953125 3.296875 
Q 6 8.015625 6 15.921875 
Q 6 25.140625 12.171875 29.828125 
Q 18.359375 34.515625 30.609375 34.515625 
L 43.21875 34.515625 
L 43.21875 35.40625 
Q 43.21875 41.609375 39.140625 45 
Q 35.0625 48.390625 27.6875 48.390625 
Q 23 48.390625 18.546875 47.265625 
Q 14.109375 46.140625 10.015625 43.890625 
L 10.015625 52.203125 
Q 14.9375 54.109375 19.578125 55.046875 
Q 24.21875 56 28.609375 56 
Q 40.484375 56 46.34375 49.84375 
Q 52.203125 43.703125 52.203125 31.203125 
z
" id="DejaVuSans-97"/>
       <path d="M 54.890625 33.015625 
L 54.890625 0 
L 45.90625 0 
L 45.90625 32.71875 
Q 45.90625 40.484375 42.875 44.328125 
Q 39.84375 48.1875 33.796875 48.1875 
Q 26.515625 48.1875 22.3125 43.546875 
Q 18.109375 38.921875 18.109375 30.90625 
L 18.109375 0 
L 9.078125 0 
L 9.078125 54.6875 
L 18.109375 54.6875 
L 18.109375 46.1875 
Q 21.34375 51.125 25.703125 53.5625 
Q 30.078125 56 35.796875 56 
Q 45.21875 56 50.046875 50.171875 
Q 54.890625 44.34375 54.890625 33.015625 
z
" id="DejaVuSans-110"/>
      </defs>
      <use xlink:href="#DejaVuSans-77"/>
      <use x="86.279297" xlink:href="#DejaVuSans-101"/>
      <use x="147.802734" xlink:href="#DejaVuSans-97"/>
      <use x="209.082031" xlink:href="#DejaVuSans-110"/>
     </g>
    </g>
   </g>
   <g id="LineCollection_1">
    <path clip-path="url(#p1a59f6f51f)" d="M 73.832727 272.1024 
L 398.487273 272.1024 
" style="fill:none;stroke:#1f77b4;stroke-width:1.5;"/>
   </g>
   <g id="line2d_15">
    <path clip-path="url(#p1a59f6f51f)" d="M 73.832727 128.2661 
L 77.112066 129.69393 
L 80.391405 131.99452 
L 83.670744 130.330672 
L 86.950083 133.303568 
L 90.229421 130.336486 
L 93.50876 130.262273 
L 96.788099 129.53356 
L 100.067438 130.998045 
L 103.346777 129.17316 
L 106.626116 127.057691 
L 109.905455 130.390883 
L 113.184793 130.546698 
L 116.464132 130.879092 
L 119.743471 131.989577 
L 123.02281 130.397657 
L 126.302149 124.797178 
L 129.581488 130.346933 
L 132.860826 130.678879 
L 136.140165 131.035399 
L 139.419504 129.475504 
L 142.698843 133.565928 
L 145.978182 128.785755 
L 149.257521 131.176397 
L 152.53686 128.84963 
L 155.816198 131.099332 
L 159.095537 130.088188 
L 162.374876 130.326532 
L 165.654215 128.736484 
L 168.933554 133.426998 
L 172.212893 130.894893 
L 175.492231 129.424611 
L 178.77157 129.30934 
L 182.050909 129.436068 
L 185.330248 131.315762 
L 188.609587 129.596589 
L 191.888926 129.121478 
L 195.168264 130.230199 
L 198.447603 130.185653 
L 201.726942 131.009734 
L 205.006281 130.271211 
L 208.28562 132.858039 
L 211.564959 129.861462 
L 214.844298 132.692326 
L 218.123636 129.748488 
L 221.402975 127.337981 
L 224.682314 128.372814 
L 227.961653 128.108227 
L 231.240992 129.505173 
L 234.520331 129.70783 
L 237.799669 127.364648 
L 241.079008 129.411422 
L 244.358347 131.086561 
L 247.637686 132.782392 
L 250.917025 129.304014 
L 254.196364 125.671329 
L 257.475702 131.422782 
L 260.755041 129.106699 
L 264.03438 131.061776 
L 267.313719 129.007655 
L 270.593058 128.203175 
L 273.872397 128.948067 
L 277.151736 128.180469 
L 280.431074 130.161294 
L 283.710413 129.641809 
L 286.989752 129.780838 
L 290.269091 129.877643 
L 293.54843 131.069174 
L 296.827769 130.120734 
L 300.107107 129.448374 
L 303.386446 127.175751 
L 306.665785 127.832507 
L 309.945124 128.105263 
L 313.224463 130.599838 
L 316.503802 129.889481 
L 319.78314 130.264894 
L 323.062479 130.794343 
L 326.341818 129.628947 
L 329.621157 129.511427 
L 332.900496 131.033422 
L 336.179835 131.499115 
L 339.459174 130.56658 
L 342.738512 131.393431 
L 346.017851 131.363023 
L 349.29719 130.086715 
L 352.576529 131.087881 
L 355.855868 129.522456 
L 359.135207 131.244516 
L 362.414545 131.016971 
L 365.693884 129.510531 
L 368.973223 132.387842 
L 372.252562 127.929321 
L 375.531901 130.260245 
L 378.81124 133.248411 
L 382.090579 131.124263 
L 385.369917 130.532438 
L 388.649256 125.950214 
L 391.928595 130.47828 
L 395.207934 238.037562 
L 398.487273 276.324231 
" style="fill:none;stroke:#0000ff;stroke-linecap:square;stroke-width:1.5;"/>
    <defs>
     <path d="M 0 3 
C 0.795609 3 1.55874 2.683901 2.12132 2.12132 
C 2.683901 1.55874 3 0.795609 3 0 
C 3 -0.795609 2.683901 -1.55874 2.12132 -2.12132 
C 1.55874 -2.683901 0.795609 -3 0 -3 
C -0.795609 -3 -1.55874 -2.683901 -2.12132 -2.12132 
C -2.683901 -1.55874 -3 -0.795609 -3 0 
C -3 0.795609 -2.683901 1.55874 -2.12132 2.12132 
C -1.55874 2.683901 -0.795609 3 0 3 
z
" id="m29a54c6939" style="stroke:#0000ff;"/>
    </defs>
    <g clip-path="url(#p1a59f6f51f)">
     <use style="fill:#0000ff;stroke:#0000ff;" x="73.832727" xlink:href="#m29a54c6939" y="128.2661"/>
     <use style="fill:#0000ff;stroke:#0000ff;" x="77.112066" xlink:href="#m29a54c6939" y="129.69393"/>
     <use style="fill:#0000ff;stroke:#0000ff;" x="80.391405" xlink:href="#m29a54c6939" y="131.99452"/>
     <use style="fill:#0000ff;stroke:#0000ff;" x="83.670744" xlink:href="#m29a54c6939" y="130.330672"/>
     <use style="fill:#0000ff;stroke:#0000ff;" x="86.950083" xlink:href="#m29a54c6939" y="133.303568"/>
     <use style="fill:#0000ff;stroke:#0000ff;" x="90.229421" xlink:href="#m29a54c6939" y="130.336486"/>
     <use style="fill:#0000ff;stroke:#0000ff;" x="93.50876" xlink:href="#m29a54c6939" y="130.262273"/>
     <use style="fill:#0000ff;stroke:#0000ff;" x="96.788099" xlink:href="#m29a54c6939" y="129.53356"/>
     <use style="fill:#0000ff;stroke:#0000ff;" x="100.067438" xlink:href="#m29a54c6939" y="130.998045"/>
     <use style="fill:#0000ff;stroke:#0000ff;" x="103.346777" xlink:href="#m29a54c6939" y="129.17316"/>
     <use style="fill:#0000ff;stroke:#0000ff;" x="106.626116" xlink:href="#m29a54c6939" y="127.057691"/>
     <use style="fill:#0000ff;stroke:#0000ff;" x="109.905455" xlink:href="#m29a54c6939" y="130.390883"/>
     <use style="fill:#0000ff;stroke:#0000ff;" x="113.184793" xlink:href="#m29a54c6939" y="130.546698"/>
     <use style="fill:#0000ff;stroke:#0000ff;" x="116.464132" xlink:href="#m29a54c6939" y="130.879092"/>
     <use style="fill:#0000ff;stroke:#0000ff;" x="119.743471" xlink:href="#m29a54c6939" y="131.989577"/>
     <use style="fill:#0000ff;stroke:#0000ff;" x="123.02281" xlink:href="#m29a54c6939" y="130.397657"/>
     <use style="fill:#0000ff;stroke:#0000ff;" x="126.302149" xlink:href="#m29a54c6939" y="124.797178"/>
     <use style="fill:#0000ff;stroke:#0000ff;" x="129.581488" xlink:href="#m29a54c6939" y="130.346933"/>
     <use style="fill:#0000ff;stroke:#0000ff;" x="132.860826" xlink:href="#m29a54c6939" y="130.678879"/>
     <use style="fill:#0000ff;stroke:#0000ff;" x="136.140165" xlink:href="#m29a54c6939" y="131.035399"/>
     <use style="fill:#0000ff;stroke:#0000ff;" x="139.419504" xlink:href="#m29a54c6939" y="129.475504"/>
     <use style="fill:#0000ff;stroke:#0000ff;" x="142.698843" xlink:href="#m29a54c6939" y="133.565928"/>
     <use style="fill:#0000ff;stroke:#0000ff;" x="145.978182" xlink:href="#m29a54c6939" y="128.785755"/>
     <use style="fill:#0000ff;stroke:#0000ff;" x="149.257521" xlink:href="#m29a54c6939" y="131.176397"/>
     <use style="fill:#0000ff;stroke:#0000ff;" x="152.53686" xlink:href="#m29a54c6939" y="128.84963"/>
     <use style="fill:#0000ff;stroke:#0000ff;" x="155.816198" xlink:href="#m29a54c6939" y="131.099332"/>
     <use style="fill:#0000ff;stroke:#0000ff;" x="159.095537" xlink:href="#m29a54c6939" y="130.088188"/>
     <use style="fill:#0000ff;stroke:#0000ff;" x="162.374876" xlink:href="#m29a54c6939" y="130.326532"/>
     <use style="fill:#0000ff;stroke:#0000ff;" x="165.654215" xlink:href="#m29a54c6939" y="128.736484"/>
     <use style="fill:#0000ff;stroke:#0000ff;" x="168.933554" xlink:href="#m29a54c6939" y="133.426998"/>
     <use style="fill:#0000ff;stroke:#0000ff;" x="172.212893" xlink:href="#m29a54c6939" y="130.894893"/>
     <use style="fill:#0000ff;stroke:#0000ff;" x="175.492231" xlink:href="#m29a54c6939" y="129.424611"/>
     <use style="fill:#0000ff;stroke:#0000ff;" x="178.77157" xlink:href="#m29a54c6939" y="129.30934"/>
     <use style="fill:#0000ff;stroke:#0000ff;" x="182.050909" xlink:href="#m29a54c6939" y="129.436068"/>
     <use style="fill:#0000ff;stroke:#0000ff;" x="185.330248" xlink:href="#m29a54c6939" y="131.315762"/>
     <use style="fill:#0000ff;stroke:#0000ff;" x="188.609587" xlink:href="#m29a54c6939" y="129.596589"/>
     <use style="fill:#0000ff;stroke:#0000ff;" x="191.888926" xlink:href="#m29a54c6939" y="129.121478"/>
     <use style="fill:#0000ff;stroke:#0000ff;" x="195.168264" xlink:href="#m29a54c6939" y="130.230199"/>
     <use style="fill:#0000ff;stroke:#0000ff;" x="198.447603" xlink:href="#m29a54c6939" y="130.185653"/>
     <use style="fill:#0000ff;stroke:#0000ff;" x="201.726942" xlink:href="#m29a54c6939" y="131.009734"/>
     <use style="fill:#0000ff;stroke:#0000ff;" x="205.006281" xlink:href="#m29a54c6939" y="130.271211"/>
     <use style="fill:#0000ff;stroke:#0000ff;" x="208.28562" xlink:href="#m29a54c6939" y="132.858039"/>
     <use style="fill:#0000ff;stroke:#0000ff;" x="211.564959" xlink:href="#m29a54c6939" y="129.861462"/>
     <use style="fill:#0000ff;stroke:#0000ff;" x="214.844298" xlink:href="#m29a54c6939" y="132.692326"/>
     <use style="fill:#0000ff;stroke:#0000ff;" x="218.123636" xlink:href="#m29a54c6939" y="129.748488"/>
     <use style="fill:#0000ff;stroke:#0000ff;" x="221.402975" xlink:href="#m29a54c6939" y="127.337981"/>
     <use style="fill:#0000ff;stroke:#0000ff;" x="224.682314" xlink:href="#m29a54c6939" y="128.372814"/>
     <use style="fill:#0000ff;stroke:#0000ff;" x="227.961653" xlink:href="#m29a54c6939" y="128.108227"/>
     <use style="fill:#0000ff;stroke:#0000ff;" x="231.240992" xlink:href="#m29a54c6939" y="129.505173"/>
     <use style="fill:#0000ff;stroke:#0000ff;" x="234.520331" xlink:href="#m29a54c6939" y="129.70783"/>
     <use style="fill:#0000ff;stroke:#0000ff;" x="237.799669" xlink:href="#m29a54c6939" y="127.364648"/>
     <use style="fill:#0000ff;stroke:#0000ff;" x="241.079008" xlink:href="#m29a54c6939" y="129.411422"/>
     <use style="fill:#0000ff;stroke:#0000ff;" x="244.358347" xlink:href="#m29a54c6939" y="131.086561"/>
     <use style="fill:#0000ff;stroke:#0000ff;" x="247.637686" xlink:href="#m29a54c6939" y="132.782392"/>
     <use style="fill:#0000ff;stroke:#0000ff;" x="250.917025" xlink:href="#m29a54c6939" y="129.304014"/>
     <use style="fill:#0000ff;stroke:#0000ff;" x="254.196364" xlink:href="#m29a54c6939" y="125.671329"/>
     <use style="fill:#0000ff;stroke:#0000ff;" x="257.475702" xlink:href="#m29a54c6939" y="131.422782"/>
     <use style="fill:#0000ff;stroke:#0000ff;" x="260.755041" xlink:href="#m29a54c6939" y="129.106699"/>
     <use style="fill:#0000ff;stroke:#0000ff;" x="264.03438" xlink:href="#m29a54c6939" y="131.061776"/>
     <use style="fill:#0000ff;stroke:#0000ff;" x="267.313719" xlink:href="#m29a54c6939" y="129.007655"/>
     <use style="fill:#0000ff;stroke:#0000ff;" x="270.593058" xlink:href="#m29a54c6939" y="128.203175"/>
     <use style="fill:#0000ff;stroke:#0000ff;" x="273.872397" xlink:href="#m29a54c6939" y="128.948067"/>
     <use style="fill:#0000ff;stroke:#0000ff;" x="277.151736" xlink:href="#m29a54c6939" y="128.180469"/>
     <use style="fill:#0000ff;stroke:#0000ff;" x="280.431074" xlink:href="#m29a54c6939" y="130.161294"/>
     <use style="fill:#0000ff;stroke:#0000ff;" x="283.710413" xlink:href="#m29a54c6939" y="129.641809"/>
     <use style="fill:#0000ff;stroke:#0000ff;" x="286.989752" xlink:href="#m29a54c6939" y="129.780838"/>
     <use style="fill:#0000ff;stroke:#0000ff;" x="290.269091" xlink:href="#m29a54c6939" y="129.877643"/>
     <use style="fill:#0000ff;stroke:#0000ff;" x="293.54843" xlink:href="#m29a54c6939" y="131.069174"/>
     <use style="fill:#0000ff;stroke:#0000ff;" x="296.827769" xlink:href="#m29a54c6939" y="130.120734"/>
     <use style="fill:#0000ff;stroke:#0000ff;" x="300.107107" xlink:href="#m29a54c6939" y="129.448374"/>
     <use style="fill:#0000ff;stroke:#0000ff;" x="303.386446" xlink:href="#m29a54c6939" y="127.175751"/>
     <use style="fill:#0000ff;stroke:#0000ff;" x="306.665785" xlink:href="#m29a54c6939" y="127.832507"/>
     <use style="fill:#0000ff;stroke:#0000ff;" x="309.945124" xlink:href="#m29a54c6939" y="128.105263"/>
     <use style="fill:#0000ff;stroke:#0000ff;" x="313.224463" xlink:href="#m29a54c6939" y="130.599838"/>
     <use style="fill:#0000ff;stroke:#0000ff;" x="316.503802" xlink:href="#m29a54c6939" y="129.889481"/>
     <use style="fill:#0000ff;stroke:#0000ff;" x="319.78314" xlink:href="#m29a54c6939" y="130.264894"/>
     <use style="fill:#0000ff;stroke:#0000ff;" x="323.062479" xlink:href="#m29a54c6939" y="130.794343"/>
     <use style="fill:#0000ff;stroke:#0000ff;" x="326.341818" xlink:href="#m29a54c6939" y="129.628947"/>
     <use style="fill:#0000ff;stroke:#0000ff;" x="329.621157" xlink:href="#m29a54c6939" y="129.511427"/>
     <use style="fill:#0000ff;stroke:#0000ff;" x="332.900496" xlink:href="#m29a54c6939" y="131.033422"/>
     <use style="fill:#0000ff;stroke:#0000ff;" x="336.179835" xlink:href="#m29a54c6939" y="131.499115"/>
     <use style="fill:#0000ff;stroke:#0000ff;" x="339.459174" xlink:href="#m29a54c6939" y="130.56658"/>
     <use style="fill:#0000ff;stroke:#0000ff;" x="342.738512" xlink:href="#m29a54c6939" y="131.393431"/>
     <use style="fill:#0000ff;stroke:#0000ff;" x="346.017851" xlink:href="#m29a54c6939" y="131.363023"/>
     <use style="fill:#0000ff;stroke:#0000ff;" x="349.29719" xlink:href="#m29a54c6939" y="130.086715"/>
     <use style="fill:#0000ff;stroke:#0000ff;" x="352.576529" xlink:href="#m29a54c6939" y="131.087881"/>
     <use style="fill:#0000ff;stroke:#0000ff;" x="355.855868" xlink:href="#m29a54c6939" y="129.522456"/>
     <use style="fill:#0000ff;stroke:#0000ff;" x="359.135207" xlink:href="#m29a54c6939" y="131.244516"/>
     <use style="fill:#0000ff;stroke:#0000ff;" x="362.414545" xlink:href="#m29a54c6939" y="131.016971"/>
     <use style="fill:#0000ff;stroke:#0000ff;" x="365.693884" xlink:href="#m29a54c6939" y="129.510531"/>
     <use style="fill:#0000ff;stroke:#0000ff;" x="368.973223" xlink:href="#m29a54c6939" y="132.387842"/>
     <use style="fill:#0000ff;stroke:#0000ff;" x="372.252562" xlink:href="#m29a54c6939" y="127.929321"/>
     <use style="fill:#0000ff;stroke:#0000ff;" x="375.531901" xlink:href="#m29a54c6939" y="130.260245"/>
     <use style="fill:#0000ff;stroke:#0000ff;" x="378.81124" xlink:href="#m29a54c6939" y="133.248411"/>
     <use style="fill:#0000ff;stroke:#0000ff;" x="382.090579" xlink:href="#m29a54c6939" y="131.124263"/>
     <use style="fill:#0000ff;stroke:#0000ff;" x="385.369917" xlink:href="#m29a54c6939" y="130.532438"/>
     <use style="fill:#0000ff;stroke:#0000ff;" x="388.649256" xlink:href="#m29a54c6939" y="125.950214"/>
     <use style="fill:#0000ff;stroke:#0000ff;" x="391.928595" xlink:href="#m29a54c6939" y="130.47828"/>
     <use style="fill:#0000ff;stroke:#0000ff;" x="395.207934" xlink:href="#m29a54c6939" y="238.037562"/>
     <use style="fill:#0000ff;stroke:#0000ff;" x="398.487273" xlink:href="#m29a54c6939" y="276.324231"/>
    </g>
   </g>
   <g id="line2d_16">
    <path clip-path="url(#p1a59f6f51f)" d="M 73.832727 130.176 
L 77.112066 130.176 
L 80.391405 130.176 
L 83.670744 130.176 
L 86.950083 130.176 
L 90.229421 130.176 
L 93.50876 130.176 
L 96.788099 130.176 
L 100.067438 130.176 
L 103.346777 130.176 
L 106.626116 130.176 
L 109.905455 130.176 
L 113.184793 130.176 
L 116.464132 130.176 
L 119.743471 130.176 
L 123.02281 130.176 
L 126.302149 130.176 
L 129.581488 130.176 
L 132.860826 130.176 
L 136.140165 130.176 
L 139.419504 130.176 
L 142.698843 130.176 
L 145.978182 130.176 
L 149.257521 130.176 
L 152.53686 130.176 
L 155.816198 130.176 
L 159.095537 130.176 
L 162.374876 130.176 
L 165.654215 130.176 
L 168.933554 130.176 
L 172.212893 130.176 
L 175.492231 130.176 
L 178.77157 130.176 
L 182.050909 130.176 
L 185.330248 130.176 
L 188.609587 130.176 
L 191.888926 130.176 
L 195.168264 130.176 
L 198.447603 130.176 
L 201.726942 130.176 
L 205.006281 130.176 
L 208.28562 130.176 
L 211.564959 130.176 
L 214.844298 130.176 
L 218.123636 130.176 
L 221.402975 130.176 
L 224.682314 130.176 
L 227.961653 130.176 
L 231.240992 130.176 
L 234.520331 130.176 
L 237.799669 130.176 
L 241.079008 130.176 
L 244.358347 130.176 
L 247.637686 130.176 
L 250.917025 130.176 
L 254.196364 130.176 
L 257.475702 130.176 
L 260.755041 130.176 
L 264.03438 130.176 
L 267.313719 130.176 
L 270.593058 130.176 
L 273.872397 130.176 
L 277.151736 130.176 
L 280.431074 130.176 
L 283.710413 130.176 
L 286.989752 130.176 
L 290.269091 130.176 
L 293.54843 130.176 
L 296.827769 130.176 
L 300.107107 130.176 
L 303.386446 130.176 
L 306.665785 130.176 
L 309.945124 130.176 
L 313.224463 130.176 
L 316.503802 130.176 
L 319.78314 130.176 
L 323.062479 130.176 
L 326.341818 130.176 
L 329.621157 130.176 
L 332.900496 130.176 
L 336.179835 130.176 
L 339.459174 130.176 
L 342.738512 130.176 
L 346.017851 130.176 
L 349.29719 130.176 
L 352.576529 130.176 
L 355.855868 130.176 
L 359.135207 130.176 
L 362.414545 130.176 
L 365.693884 130.176 
L 368.973223 130.176 
L 372.252562 130.176 
L 375.531901 130.176 
L 378.81124 130.176 
L 382.090579 130.176 
L 385.369917 130.176 
L 388.649256 130.176 
L 391.928595 130.176 
L 395.207934 236.6208 
L 398.487273 275.65056 
" style="fill:none;stroke:#000000;stroke-linecap:square;stroke-width:1.5;"/>
    <defs>
     <path d="M 0 3 
C 0.795609 3 1.55874 2.683901 2.12132 2.12132 
C 2.683901 1.55874 3 0.795609 3 0 
C 3 -0.795609 2.683901 -1.55874 2.12132 -2.12132 
C 1.55874 -2.683901 0.795609 -3 0 -3 
C -0.795609 -3 -1.55874 -2.683901 -2.12132 -2.12132 
C -2.683901 -1.55874 -3 -0.795609 -3 0 
C -3 0.795609 -2.683901 1.55874 -2.12132 2.12132 
C -1.55874 2.683901 -0.795609 3 0 3 
z
" id="mee25a7fa11" style="stroke:#000000;"/>
    </defs>
    <g clip-path="url(#p1a59f6f51f)">
     <use style="stroke:#000000;" x="73.832727" xlink:href="#mee25a7fa11" y="130.176"/>
     <use style="stroke:#000000;" x="77.112066" xlink:href="#mee25a7fa11" y="130.176"/>
     <use style="stroke:#000000;" x="80.391405" xlink:href="#mee25a7fa11" y="130.176"/>
     <use style="stroke:#000000;" x="83.670744" xlink:href="#mee25a7fa11" y="130.176"/>
     <use style="stroke:#000000;" x="86.950083" xlink:href="#mee25a7fa11" y="130.176"/>
     <use style="stroke:#000000;" x="90.229421" xlink:href="#mee25a7fa11" y="130.176"/>
     <use style="stroke:#000000;" x="93.50876" xlink:href="#mee25a7fa11" y="130.176"/>
     <use style="stroke:#000000;" x="96.788099" xlink:href="#mee25a7fa11" y="130.176"/>
     <use style="stroke:#000000;" x="100.067438" xlink:href="#mee25a7fa11" y="130.176"/>
     <use style="stroke:#000000;" x="103.346777" xlink:href="#mee25a7fa11" y="130.176"/>
     <use style="stroke:#000000;" x="106.626116" xlink:href="#mee25a7fa11" y="130.176"/>
     <use style="stroke:#000000;" x="109.905455" xlink:href="#mee25a7fa11" y="130.176"/>
     <use style="stroke:#000000;" x="113.184793" xlink:href="#mee25a7fa11" y="130.176"/>
     <use style="stroke:#000000;" x="116.464132" xlink:href="#mee25a7fa11" y="130.176"/>
     <use style="stroke:#000000;" x="119.743471" xlink:href="#mee25a7fa11" y="130.176"/>
     <use style="stroke:#000000;" x="123.02281" xlink:href="#mee25a7fa11" y="130.176"/>
     <use style="stroke:#000000;" x="126.302149" xlink:href="#mee25a7fa11" y="130.176"/>
     <use style="stroke:#000000;" x="129.581488" xlink:href="#mee25a7fa11" y="130.176"/>
     <use style="stroke:#000000;" x="132.860826" xlink:href="#mee25a7fa11" y="130.176"/>
     <use style="stroke:#000000;" x="136.140165" xlink:href="#mee25a7fa11" y="130.176"/>
     <use style="stroke:#000000;" x="139.419504" xlink:href="#mee25a7fa11" y="130.176"/>
     <use style="stroke:#000000;" x="142.698843" xlink:href="#mee25a7fa11" y="130.176"/>
     <use style="stroke:#000000;" x="145.978182" xlink:href="#mee25a7fa11" y="130.176"/>
     <use style="stroke:#000000;" x="149.257521" xlink:href="#mee25a7fa11" y="130.176"/>
     <use style="stroke:#000000;" x="152.53686" xlink:href="#mee25a7fa11" y="130.176"/>
     <use style="stroke:#000000;" x="155.816198" xlink:href="#mee25a7fa11" y="130.176"/>
     <use style="stroke:#000000;" x="159.095537" xlink:href="#mee25a7fa11" y="130.176"/>
     <use style="stroke:#000000;" x="162.374876" xlink:href="#mee25a7fa11" y="130.176"/>
     <use style="stroke:#000000;" x="165.654215" xlink:href="#mee25a7fa11" y="130.176"/>
     <use style="stroke:#000000;" x="168.933554" xlink:href="#mee25a7fa11" y="130.176"/>
     <use style="stroke:#000000;" x="172.212893" xlink:href="#mee25a7fa11" y="130.176"/>
     <use style="stroke:#000000;" x="175.492231" xlink:href="#mee25a7fa11" y="130.176"/>
     <use style="stroke:#000000;" x="178.77157" xlink:href="#mee25a7fa11" y="130.176"/>
     <use style="stroke:#000000;" x="182.050909" xlink:href="#mee25a7fa11" y="130.176"/>
     <use style="stroke:#000000;" x="185.330248" xlink:href="#mee25a7fa11" y="130.176"/>
     <use style="stroke:#000000;" x="188.609587" xlink:href="#mee25a7fa11" y="130.176"/>
     <use style="stroke:#000000;" x="191.888926" xlink:href="#mee25a7fa11" y="130.176"/>
     <use style="stroke:#000000;" x="195.168264" xlink:href="#mee25a7fa11" y="130.176"/>
     <use style="stroke:#000000;" x="198.447603" xlink:href="#mee25a7fa11" y="130.176"/>
     <use style="stroke:#000000;" x="201.726942" xlink:href="#mee25a7fa11" y="130.176"/>
     <use style="stroke:#000000;" x="205.006281" xlink:href="#mee25a7fa11" y="130.176"/>
     <use style="stroke:#000000;" x="208.28562" xlink:href="#mee25a7fa11" y="130.176"/>
     <use style="stroke:#000000;" x="211.564959" xlink:href="#mee25a7fa11" y="130.176"/>
     <use style="stroke:#000000;" x="214.844298" xlink:href="#mee25a7fa11" y="130.176"/>
     <use style="stroke:#000000;" x="218.123636" xlink:href="#mee25a7fa11" y="130.176"/>
     <use style="stroke:#000000;" x="221.402975" xlink:href="#mee25a7fa11" y="130.176"/>
     <use style="stroke:#000000;" x="224.682314" xlink:href="#mee25a7fa11" y="130.176"/>
     <use style="stroke:#000000;" x="227.961653" xlink:href="#mee25a7fa11" y="130.176"/>
     <use style="stroke:#000000;" x="231.240992" xlink:href="#mee25a7fa11" y="130.176"/>
     <use style="stroke:#000000;" x="234.520331" xlink:href="#mee25a7fa11" y="130.176"/>
     <use style="stroke:#000000;" x="237.799669" xlink:href="#mee25a7fa11" y="130.176"/>
     <use style="stroke:#000000;" x="241.079008" xlink:href="#mee25a7fa11" y="130.176"/>
     <use style="stroke:#000000;" x="244.358347" xlink:href="#mee25a7fa11" y="130.176"/>
     <use style="stroke:#000000;" x="247.637686" xlink:href="#mee25a7fa11" y="130.176"/>
     <use style="stroke:#000000;" x="250.917025" xlink:href="#mee25a7fa11" y="130.176"/>
     <use style="stroke:#000000;" x="254.196364" xlink:href="#mee25a7fa11" y="130.176"/>
     <use style="stroke:#000000;" x="257.475702" xlink:href="#mee25a7fa11" y="130.176"/>
     <use style="stroke:#000000;" x="260.755041" xlink:href="#mee25a7fa11" y="130.176"/>
     <use style="stroke:#000000;" x="264.03438" xlink:href="#mee25a7fa11" y="130.176"/>
     <use style="stroke:#000000;" x="267.313719" xlink:href="#mee25a7fa11" y="130.176"/>
     <use style="stroke:#000000;" x="270.593058" xlink:href="#mee25a7fa11" y="130.176"/>
     <use style="stroke:#000000;" x="273.872397" xlink:href="#mee25a7fa11" y="130.176"/>
     <use style="stroke:#000000;" x="277.151736" xlink:href="#mee25a7fa11" y="130.176"/>
     <use style="stroke:#000000;" x="280.431074" xlink:href="#mee25a7fa11" y="130.176"/>
     <use style="stroke:#000000;" x="283.710413" xlink:href="#mee25a7fa11" y="130.176"/>
     <use style="stroke:#000000;" x="286.989752" xlink:href="#mee25a7fa11" y="130.176"/>
     <use style="stroke:#000000;" x="290.269091" xlink:href="#mee25a7fa11" y="130.176"/>
     <use style="stroke:#000000;" x="293.54843" xlink:href="#mee25a7fa11" y="130.176"/>
     <use style="stroke:#000000;" x="296.827769" xlink:href="#mee25a7fa11" y="130.176"/>
     <use style="stroke:#000000;" x="300.107107" xlink:href="#mee25a7fa11" y="130.176"/>
     <use style="stroke:#000000;" x="303.386446" xlink:href="#mee25a7fa11" y="130.176"/>
     <use style="stroke:#000000;" x="306.665785" xlink:href="#mee25a7fa11" y="130.176"/>
     <use style="stroke:#000000;" x="309.945124" xlink:href="#mee25a7fa11" y="130.176"/>
     <use style="stroke:#000000;" x="313.224463" xlink:href="#mee25a7fa11" y="130.176"/>
     <use style="stroke:#000000;" x="316.503802" xlink:href="#mee25a7fa11" y="130.176"/>
     <use style="stroke:#000000;" x="319.78314" xlink:href="#mee25a7fa11" y="130.176"/>
     <use style="stroke:#000000;" x="323.062479" xlink:href="#mee25a7fa11" y="130.176"/>
     <use style="stroke:#000000;" x="326.341818" xlink:href="#mee25a7fa11" y="130.176"/>
     <use style="stroke:#000000;" x="329.621157" xlink:href="#mee25a7fa11" y="130.176"/>
     <use style="stroke:#000000;" x="332.900496" xlink:href="#mee25a7fa11" y="130.176"/>
     <use style="stroke:#000000;" x="336.179835" xlink:href="#mee25a7fa11" y="130.176"/>
     <use style="stroke:#000000;" x="339.459174" xlink:href="#mee25a7fa11" y="130.176"/>
     <use style="stroke:#000000;" x="342.738512" xlink:href="#mee25a7fa11" y="130.176"/>
     <use style="stroke:#000000;" x="346.017851" xlink:href="#mee25a7fa11" y="130.176"/>
     <use style="stroke:#000000;" x="349.29719" xlink:href="#mee25a7fa11" y="130.176"/>
     <use style="stroke:#000000;" x="352.576529" xlink:href="#mee25a7fa11" y="130.176"/>
     <use style="stroke:#000000;" x="355.855868" xlink:href="#mee25a7fa11" y="130.176"/>
     <use style="stroke:#000000;" x="359.135207" xlink:href="#mee25a7fa11" y="130.176"/>
     <use style="stroke:#000000;" x="362.414545" xlink:href="#mee25a7fa11" y="130.176"/>
     <use style="stroke:#000000;" x="365.693884" xlink:href="#mee25a7fa11" y="130.176"/>
     <use style="stroke:#000000;" x="368.973223" xlink:href="#mee25a7fa11" y="130.176"/>
     <use style="stroke:#000000;" x="372.252562" xlink:href="#mee25a7fa11" y="130.176"/>
     <use style="stroke:#000000;" x="375.531901" xlink:href="#mee25a7fa11" y="130.176"/>
     <use style="stroke:#000000;" x="378.81124" xlink:href="#mee25a7fa11" y="130.176"/>
     <use style="stroke:#000000;" x="382.090579" xlink:href="#mee25a7fa11" y="130.176"/>
     <use style="stroke:#000000;" x="385.369917" xlink:href="#mee25a7fa11" y="130.176"/>
     <use style="stroke:#000000;" x="388.649256" xlink:href="#mee25a7fa11" y="130.176"/>
     <use style="stroke:#000000;" x="391.928595" xlink:href="#mee25a7fa11" y="130.176"/>
     <use style="stroke:#000000;" x="395.207934" xlink:href="#mee25a7fa11" y="236.6208"/>
     <use style="stroke:#000000;" x="398.487273" xlink:href="#mee25a7fa11" y="275.65056"/>
    </g>
   </g>
   <g id="line2d_17">
    <path clip-path="url(#p1a59f6f51f)" d="M 73.832727 140.053521 
L 77.112066 141.472084 
L 80.391405 143.421008 
L 83.670744 142.091952 
L 86.950083 145.061394 
L 90.229421 141.847395 
L 93.50876 141.701784 
L 96.788099 140.433157 
L 100.067438 142.80683 
L 103.346777 140.900826 
L 106.626116 138.576023 
L 109.905455 142.17895 
L 113.184793 142.335227 
L 116.464132 142.60263 
L 119.743471 143.803725 
L 123.02281 141.901629 
L 126.302149 136.443821 
L 129.581488 141.820698 
L 132.860826 142.431862 
L 136.140165 142.847137 
L 139.419504 140.856072 
L 142.698843 144.984285 
L 145.978182 140.475956 
L 149.257521 142.85321 
L 152.53686 140.372522 
L 155.816198 142.846018 
L 159.095537 141.870341 
L 162.374876 141.727481 
L 165.654215 140.279634 
L 168.933554 145.236913 
L 172.212893 142.629608 
L 175.492231 141.238759 
L 178.77157 140.936807 
L 182.050909 140.821864 
L 185.330248 142.864378 
L 188.609587 140.862361 
L 191.888926 140.914465 
L 195.168264 141.93348 
L 198.447603 141.973768 
L 201.726942 142.561049 
L 205.006281 141.904259 
L 208.28562 144.566769 
L 211.564959 140.652285 
L 214.844298 144.463828 
L 218.123636 141.302055 
L 221.402975 138.895966 
L 224.682314 139.867636 
L 227.961653 139.753216 
L 231.240992 141.230623 
L 234.520331 141.362779 
L 237.799669 138.978878 
L 241.079008 141.068895 
L 244.358347 142.19861 
L 247.637686 144.54569 
L 250.917025 140.933613 
L 254.196364 137.458311 
L 257.475702 142.951122 
L 260.755041 140.920847 
L 264.03438 142.822962 
L 267.313719 140.000155 
L 270.593058 139.866625 
L 273.872397 140.463184 
L 277.151736 139.668592 
L 280.431074 141.935135 
L 283.710413 141.39891 
L 286.989752 141.06748 
L 290.269091 141.515972 
L 293.54843 142.57771 
L 296.827769 141.854299 
L 300.107107 140.814996 
L 303.386446 138.850205 
L 306.665785 139.582975 
L 309.945124 138.384946 
L 313.224463 142.097505 
L 316.503802 141.316673 
L 319.78314 142.036024 
L 323.062479 142.312486 
L 326.341818 141.341684 
L 329.621157 141.239012 
L 332.900496 142.676442 
L 336.179835 143.306538 
L 339.459174 142.012025 
L 342.738512 142.826436 
L 346.017851 142.969914 
L 349.29719 141.687835 
L 352.576529 142.738008 
L 355.855868 141.287735 
L 359.135207 142.842846 
L 362.414545 142.774471 
L 365.693884 141.233501 
L 368.973223 144.045703 
L 372.252562 139.354641 
L 375.531901 142.005629 
L 378.81124 145.062559 
L 382.090579 142.78404 
L 385.369917 142.335618 
L 388.649256 137.692041 
L 391.928595 142.280081 
L 395.207934 252.195858 
L 398.487273 287.78091 
" style="fill:none;stroke:#008000;stroke-linecap:square;stroke-width:1.5;"/>
    <defs>
     <path d="M -3 0 
L 0 4.5 
L 3 0 
" id="mb3dce7e77a" style="stroke:#008000;stroke-linejoin:miter;"/>
    </defs>
    <g clip-path="url(#p1a59f6f51f)">
     <use style="fill:#008000;stroke:#008000;stroke-linejoin:miter;" x="73.832727" xlink:href="#mb3dce7e77a" y="140.053521"/>
     <use style="fill:#008000;stroke:#008000;stroke-linejoin:miter;" x="77.112066" xlink:href="#mb3dce7e77a" y="141.472084"/>
     <use style="fill:#008000;stroke:#008000;stroke-linejoin:miter;" x="80.391405" xlink:href="#mb3dce7e77a" y="143.421008"/>
     <use style="fill:#008000;stroke:#008000;stroke-linejoin:miter;" x="83.670744" xlink:href="#mb3dce7e77a" y="142.091952"/>
     <use style="fill:#008000;stroke:#008000;stroke-linejoin:miter;" x="86.950083" xlink:href="#mb3dce7e77a" y="145.061394"/>
     <use style="fill:#008000;stroke:#008000;stroke-linejoin:miter;" x="90.229421" xlink:href="#mb3dce7e77a" y="141.847395"/>
     <use style="fill:#008000;stroke:#008000;stroke-linejoin:miter;" x="93.50876" xlink:href="#mb3dce7e77a" y="141.701784"/>
     <use style="fill:#008000;stroke:#008000;stroke-linejoin:miter;" x="96.788099" xlink:href="#mb3dce7e77a" y="140.433157"/>
     <use style="fill:#008000;stroke:#008000;stroke-linejoin:miter;" x="100.067438" xlink:href="#mb3dce7e77a" y="142.80683"/>
     <use style="fill:#008000;stroke:#008000;stroke-linejoin:miter;" x="103.346777" xlink:href="#mb3dce7e77a" y="140.900826"/>
     <use style="fill:#008000;stroke:#008000;stroke-linejoin:miter;" x="106.626116" xlink:href="#mb3dce7e77a" y="138.576023"/>
     <use style="fill:#008000;stroke:#008000;stroke-linejoin:miter;" x="109.905455" xlink:href="#mb3dce7e77a" y="142.17895"/>
     <use style="fill:#008000;stroke:#008000;stroke-linejoin:miter;" x="113.184793" xlink:href="#mb3dce7e77a" y="142.335227"/>
     <use style="fill:#008000;stroke:#008000;stroke-linejoin:miter;" x="116.464132" xlink:href="#mb3dce7e77a" y="142.60263"/>
     <use style="fill:#008000;stroke:#008000;stroke-linejoin:miter;" x="119.743471" xlink:href="#mb3dce7e77a" y="143.803725"/>
     <use style="fill:#008000;stroke:#008000;stroke-linejoin:miter;" x="123.02281" xlink:href="#mb3dce7e77a" y="141.901629"/>
     <use style="fill:#008000;stroke:#008000;stroke-linejoin:miter;" x="126.302149" xlink:href="#mb3dce7e77a" y="136.443821"/>
     <use style="fill:#008000;stroke:#008000;stroke-linejoin:miter;" x="129.581488" xlink:href="#mb3dce7e77a" y="141.820698"/>
     <use style="fill:#008000;stroke:#008000;stroke-linejoin:miter;" x="132.860826" xlink:href="#mb3dce7e77a" y="142.431862"/>
     <use style="fill:#008000;stroke:#008000;stroke-linejoin:miter;" x="136.140165" xlink:href="#mb3dce7e77a" y="142.847137"/>
     <use style="fill:#008000;stroke:#008000;stroke-linejoin:miter;" x="139.419504" xlink:href="#mb3dce7e77a" y="140.856072"/>
     <use style="fill:#008000;stroke:#008000;stroke-linejoin:miter;" x="142.698843" xlink:href="#mb3dce7e77a" y="144.984285"/>
     <use style="fill:#008000;stroke:#008000;stroke-linejoin:miter;" x="145.978182" xlink:href="#mb3dce7e77a" y="140.475956"/>
     <use style="fill:#008000;stroke:#008000;stroke-linejoin:miter;" x="149.257521" xlink:href="#mb3dce7e77a" y="142.85321"/>
     <use style="fill:#008000;stroke:#008000;stroke-linejoin:miter;" x="152.53686" xlink:href="#mb3dce7e77a" y="140.372522"/>
     <use style="fill:#008000;stroke:#008000;stroke-linejoin:miter;" x="155.816198" xlink:href="#mb3dce7e77a" y="142.846018"/>
     <use style="fill:#008000;stroke:#008000;stroke-linejoin:miter;" x="159.095537" xlink:href="#mb3dce7e77a" y="141.870341"/>
     <use style="fill:#008000;stroke:#008000;stroke-linejoin:miter;" x="162.374876" xlink:href="#mb3dce7e77a" y="141.727481"/>
     <use style="fill:#008000;stroke:#008000;stroke-linejoin:miter;" x="165.654215" xlink:href="#mb3dce7e77a" y="140.279634"/>
     <use style="fill:#008000;stroke:#008000;stroke-linejoin:miter;" x="168.933554" xlink:href="#mb3dce7e77a" y="145.236913"/>
     <use style="fill:#008000;stroke:#008000;stroke-linejoin:miter;" x="172.212893" xlink:href="#mb3dce7e77a" y="142.629608"/>
     <use style="fill:#008000;stroke:#008000;stroke-linejoin:miter;" x="175.492231" xlink:href="#mb3dce7e77a" y="141.238759"/>
     <use style="fill:#008000;stroke:#008000;stroke-linejoin:miter;" x="178.77157" xlink:href="#mb3dce7e77a" y="140.936807"/>
     <use style="fill:#008000;stroke:#008000;stroke-linejoin:miter;" x="182.050909" xlink:href="#mb3dce7e77a" y="140.821864"/>
     <use style="fill:#008000;stroke:#008000;stroke-linejoin:miter;" x="185.330248" xlink:href="#mb3dce7e77a" y="142.864378"/>
     <use style="fill:#008000;stroke:#008000;stroke-linejoin:miter;" x="188.609587" xlink:href="#mb3dce7e77a" y="140.862361"/>
     <use style="fill:#008000;stroke:#008000;stroke-linejoin:miter;" x="191.888926" xlink:href="#mb3dce7e77a" y="140.914465"/>
     <use style="fill:#008000;stroke:#008000;stroke-linejoin:miter;" x="195.168264" xlink:href="#mb3dce7e77a" y="141.93348"/>
     <use style="fill:#008000;stroke:#008000;stroke-linejoin:miter;" x="198.447603" xlink:href="#mb3dce7e77a" y="141.973768"/>
     <use style="fill:#008000;stroke:#008000;stroke-linejoin:miter;" x="201.726942" xlink:href="#mb3dce7e77a" y="142.561049"/>
     <use style="fill:#008000;stroke:#008000;stroke-linejoin:miter;" x="205.006281" xlink:href="#mb3dce7e77a" y="141.904259"/>
     <use style="fill:#008000;stroke:#008000;stroke-linejoin:miter;" x="208.28562" xlink:href="#mb3dce7e77a" y="144.566769"/>
     <use style="fill:#008000;stroke:#008000;stroke-linejoin:miter;" x="211.564959" xlink:href="#mb3dce7e77a" y="140.652285"/>
     <use style="fill:#008000;stroke:#008000;stroke-linejoin:miter;" x="214.844298" xlink:href="#mb3dce7e77a" y="144.463828"/>
     <use style="fill:#008000;stroke:#008000;stroke-linejoin:miter;" x="218.123636" xlink:href="#mb3dce7e77a" y="141.302055"/>
     <use style="fill:#008000;stroke:#008000;stroke-linejoin:miter;" x="221.402975" xlink:href="#mb3dce7e77a" y="138.895966"/>
     <use style="fill:#008000;stroke:#008000;stroke-linejoin:miter;" x="224.682314" xlink:href="#mb3dce7e77a" y="139.867636"/>
     <use style="fill:#008000;stroke:#008000;stroke-linejoin:miter;" x="227.961653" xlink:href="#mb3dce7e77a" y="139.753216"/>
     <use style="fill:#008000;stroke:#008000;stroke-linejoin:miter;" x="231.240992" xlink:href="#mb3dce7e77a" y="141.230623"/>
     <use style="fill:#008000;stroke:#008000;stroke-linejoin:miter;" x="234.520331" xlink:href="#mb3dce7e77a" y="141.362779"/>
     <use style="fill:#008000;stroke:#008000;stroke-linejoin:miter;" x="237.799669" xlink:href="#mb3dce7e77a" y="138.978878"/>
     <use style="fill:#008000;stroke:#008000;stroke-linejoin:miter;" x="241.079008" xlink:href="#mb3dce7e77a" y="141.068895"/>
     <use style="fill:#008000;stroke:#008000;stroke-linejoin:miter;" x="244.358347" xlink:href="#mb3dce7e77a" y="142.19861"/>
     <use style="fill:#008000;stroke:#008000;stroke-linejoin:miter;" x="247.637686" xlink:href="#mb3dce7e77a" y="144.54569"/>
     <use style="fill:#008000;stroke:#008000;stroke-linejoin:miter;" x="250.917025" xlink:href="#mb3dce7e77a" y="140.933613"/>
     <use style="fill:#008000;stroke:#008000;stroke-linejoin:miter;" x="254.196364" xlink:href="#mb3dce7e77a" y="137.458311"/>
     <use style="fill:#008000;stroke:#008000;stroke-linejoin:miter;" x="257.475702" xlink:href="#mb3dce7e77a" y="142.951122"/>
     <use style="fill:#008000;stroke:#008000;stroke-linejoin:miter;" x="260.755041" xlink:href="#mb3dce7e77a" y="140.920847"/>
     <use style="fill:#008000;stroke:#008000;stroke-linejoin:miter;" x="264.03438" xlink:href="#mb3dce7e77a" y="142.822962"/>
     <use style="fill:#008000;stroke:#008000;stroke-linejoin:miter;" x="267.313719" xlink:href="#mb3dce7e77a" y="140.000155"/>
     <use style="fill:#008000;stroke:#008000;stroke-linejoin:miter;" x="270.593058" xlink:href="#mb3dce7e77a" y="139.866625"/>
     <use style="fill:#008000;stroke:#008000;stroke-linejoin:miter;" x="273.872397" xlink:href="#mb3dce7e77a" y="140.463184"/>
     <use style="fill:#008000;stroke:#008000;stroke-linejoin:miter;" x="277.151736" xlink:href="#mb3dce7e77a" y="139.668592"/>
     <use style="fill:#008000;stroke:#008000;stroke-linejoin:miter;" x="280.431074" xlink:href="#mb3dce7e77a" y="141.935135"/>
     <use style="fill:#008000;stroke:#008000;stroke-linejoin:miter;" x="283.710413" xlink:href="#mb3dce7e77a" y="141.39891"/>
     <use style="fill:#008000;stroke:#008000;stroke-linejoin:miter;" x="286.989752" xlink:href="#mb3dce7e77a" y="141.06748"/>
     <use style="fill:#008000;stroke:#008000;stroke-linejoin:miter;" x="290.269091" xlink:href="#mb3dce7e77a" y="141.515972"/>
     <use style="fill:#008000;stroke:#008000;stroke-linejoin:miter;" x="293.54843" xlink:href="#mb3dce7e77a" y="142.57771"/>
     <use style="fill:#008000;stroke:#008000;stroke-linejoin:miter;" x="296.827769" xlink:href="#mb3dce7e77a" y="141.854299"/>
     <use style="fill:#008000;stroke:#008000;stroke-linejoin:miter;" x="300.107107" xlink:href="#mb3dce7e77a" y="140.814996"/>
     <use style="fill:#008000;stroke:#008000;stroke-linejoin:miter;" x="303.386446" xlink:href="#mb3dce7e77a" y="138.850205"/>
     <use style="fill:#008000;stroke:#008000;stroke-linejoin:miter;" x="306.665785" xlink:href="#mb3dce7e77a" y="139.582975"/>
     <use style="fill:#008000;stroke:#008000;stroke-linejoin:miter;" x="309.945124" xlink:href="#mb3dce7e77a" y="138.384946"/>
     <use style="fill:#008000;stroke:#008000;stroke-linejoin:miter;" x="313.224463" xlink:href="#mb3dce7e77a" y="142.097505"/>
     <use style="fill:#008000;stroke:#008000;stroke-linejoin:miter;" x="316.503802" xlink:href="#mb3dce7e77a" y="141.316673"/>
     <use style="fill:#008000;stroke:#008000;stroke-linejoin:miter;" x="319.78314" xlink:href="#mb3dce7e77a" y="142.036024"/>
     <use style="fill:#008000;stroke:#008000;stroke-linejoin:miter;" x="323.062479" xlink:href="#mb3dce7e77a" y="142.312486"/>
     <use style="fill:#008000;stroke:#008000;stroke-linejoin:miter;" x="326.341818" xlink:href="#mb3dce7e77a" y="141.341684"/>
     <use style="fill:#008000;stroke:#008000;stroke-linejoin:miter;" x="329.621157" xlink:href="#mb3dce7e77a" y="141.239012"/>
     <use style="fill:#008000;stroke:#008000;stroke-linejoin:miter;" x="332.900496" xlink:href="#mb3dce7e77a" y="142.676442"/>
     <use style="fill:#008000;stroke:#008000;stroke-linejoin:miter;" x="336.179835" xlink:href="#mb3dce7e77a" y="143.306538"/>
     <use style="fill:#008000;stroke:#008000;stroke-linejoin:miter;" x="339.459174" xlink:href="#mb3dce7e77a" y="142.012025"/>
     <use style="fill:#008000;stroke:#008000;stroke-linejoin:miter;" x="342.738512" xlink:href="#mb3dce7e77a" y="142.826436"/>
     <use style="fill:#008000;stroke:#008000;stroke-linejoin:miter;" x="346.017851" xlink:href="#mb3dce7e77a" y="142.969914"/>
     <use style="fill:#008000;stroke:#008000;stroke-linejoin:miter;" x="349.29719" xlink:href="#mb3dce7e77a" y="141.687835"/>
     <use style="fill:#008000;stroke:#008000;stroke-linejoin:miter;" x="352.576529" xlink:href="#mb3dce7e77a" y="142.738008"/>
     <use style="fill:#008000;stroke:#008000;stroke-linejoin:miter;" x="355.855868" xlink:href="#mb3dce7e77a" y="141.287735"/>
     <use style="fill:#008000;stroke:#008000;stroke-linejoin:miter;" x="359.135207" xlink:href="#mb3dce7e77a" y="142.842846"/>
     <use style="fill:#008000;stroke:#008000;stroke-linejoin:miter;" x="362.414545" xlink:href="#mb3dce7e77a" y="142.774471"/>
     <use style="fill:#008000;stroke:#008000;stroke-linejoin:miter;" x="365.693884" xlink:href="#mb3dce7e77a" y="141.233501"/>
     <use style="fill:#008000;stroke:#008000;stroke-linejoin:miter;" x="368.973223" xlink:href="#mb3dce7e77a" y="144.045703"/>
     <use style="fill:#008000;stroke:#008000;stroke-linejoin:miter;" x="372.252562" xlink:href="#mb3dce7e77a" y="139.354641"/>
     <use style="fill:#008000;stroke:#008000;stroke-linejoin:miter;" x="375.531901" xlink:href="#mb3dce7e77a" y="142.005629"/>
     <use style="fill:#008000;stroke:#008000;stroke-linejoin:miter;" x="378.81124" xlink:href="#mb3dce7e77a" y="145.062559"/>
     <use style="fill:#008000;stroke:#008000;stroke-linejoin:miter;" x="382.090579" xlink:href="#mb3dce7e77a" y="142.78404"/>
     <use style="fill:#008000;stroke:#008000;stroke-linejoin:miter;" x="385.369917" xlink:href="#mb3dce7e77a" y="142.335618"/>
     <use style="fill:#008000;stroke:#008000;stroke-linejoin:miter;" x="388.649256" xlink:href="#mb3dce7e77a" y="137.692041"/>
     <use style="fill:#008000;stroke:#008000;stroke-linejoin:miter;" x="391.928595" xlink:href="#mb3dce7e77a" y="142.280081"/>
     <use style="fill:#008000;stroke:#008000;stroke-linejoin:miter;" x="395.207934" xlink:href="#mb3dce7e77a" y="252.195858"/>
     <use style="fill:#008000;stroke:#008000;stroke-linejoin:miter;" x="398.487273" xlink:href="#mb3dce7e77a" y="287.78091"/>
    </g>
   </g>
   <g id="line2d_18">
    <path clip-path="url(#p1a59f6f51f)" d="M 73.832727 116.980544 
L 77.112066 118.063429 
L 80.391405 120.180372 
L 83.670744 118.720885 
L 86.950083 121.650398 
L 90.229421 118.522338 
L 93.50876 118.795478 
L 96.788099 117.823776 
L 100.067438 119.493628 
L 103.346777 117.71803 
L 106.626116 115.329949 
L 109.905455 119.064592 
L 113.184793 119.03306 
L 116.464132 119.21947 
L 119.743471 120.688075 
L 123.02281 118.637822 
L 126.302149 113.450296 
L 129.581488 118.615526 
L 132.860826 119.295378 
L 136.140165 119.400276 
L 139.419504 117.674022 
L 142.698843 121.832314 
L 145.978182 117.020257 
L 149.257521 119.600032 
L 152.53686 117.966874 
L 155.816198 119.378961 
L 159.095537 118.485767 
L 162.374876 118.655761 
L 165.654215 116.936462 
L 168.933554 122.130369 
L 172.212893 119.681888 
L 175.492231 117.963473 
L 178.77157 117.495192 
L 182.050909 117.697073 
L 185.330248 119.540138 
L 188.609587 117.782441 
L 191.888926 118.014406 
L 195.168264 118.428864 
L 198.447603 118.665024 
L 201.726942 119.203502 
L 205.006281 118.510243 
L 208.28562 121.133701 
L 211.564959 118.214394 
L 214.844298 121.11015 
L 218.123636 118.101168 
L 221.402975 115.636384 
L 224.682314 116.619489 
L 227.961653 116.334481 
L 231.240992 117.886218 
L 234.520331 117.90898 
L 237.799669 115.762134 
L 241.079008 117.784768 
L 244.358347 119.324942 
L 247.637686 121.377121 
L 250.917025 118.106555 
L 254.196364 114.337606 
L 257.475702 119.678905 
L 260.755041 117.474394 
L 264.03438 119.486403 
L 267.313719 117.21791 
L 270.593058 116.605323 
L 273.872397 117.688788 
L 277.151736 116.397863 
L 280.431074 118.707079 
L 283.710413 118.287313 
L 286.989752 117.986928 
L 290.269091 118.199729 
L 293.54843 119.297864 
L 296.827769 118.709455 
L 300.107107 117.707765 
L 303.386446 115.588368 
L 306.665785 116.138437 
L 309.945124 116.364272 
L 313.224463 118.792132 
L 316.503802 118.1225 
L 319.78314 118.601474 
L 323.062479 119.01852 
L 326.341818 117.989259 
L 329.621157 118.047893 
L 332.900496 119.470449 
L 336.179835 119.954314 
L 339.459174 118.752432 
L 342.738512 119.579283 
L 346.017851 119.615667 
L 349.29719 118.514864 
L 352.576529 119.462222 
L 355.855868 118.687065 
L 359.135207 119.713948 
L 362.414545 119.328032 
L 365.693884 118.166398 
L 368.973223 120.884963 
L 372.252562 116.282092 
L 375.531901 118.570923 
L 378.81124 122.010535 
L 382.090579 119.445112 
L 385.369917 119.20587 
L 388.649256 114.165425 
L 391.928595 118.833526 
L 395.207934 223.760153 
L 398.487273 264.588075 
" style="fill:none;stroke:#ff0000;stroke-linecap:square;stroke-width:1.5;"/>
    <defs>
     <path d="M 3 0 
L 0 -4.5 
L -3 -0 
" id="mf99a79236d" style="stroke:#ff0000;stroke-linejoin:miter;"/>
    </defs>
    <g clip-path="url(#p1a59f6f51f)">
     <use style="fill:#ff0000;stroke:#ff0000;stroke-linejoin:miter;" x="73.832727" xlink:href="#mf99a79236d" y="116.980544"/>
     <use style="fill:#ff0000;stroke:#ff0000;stroke-linejoin:miter;" x="77.112066" xlink:href="#mf99a79236d" y="118.063429"/>
     <use style="fill:#ff0000;stroke:#ff0000;stroke-linejoin:miter;" x="80.391405" xlink:href="#mf99a79236d" y="120.180372"/>
     <use style="fill:#ff0000;stroke:#ff0000;stroke-linejoin:miter;" x="83.670744" xlink:href="#mf99a79236d" y="118.720885"/>
     <use style="fill:#ff0000;stroke:#ff0000;stroke-linejoin:miter;" x="86.950083" xlink:href="#mf99a79236d" y="121.650398"/>
     <use style="fill:#ff0000;stroke:#ff0000;stroke-linejoin:miter;" x="90.229421" xlink:href="#mf99a79236d" y="118.522338"/>
     <use style="fill:#ff0000;stroke:#ff0000;stroke-linejoin:miter;" x="93.50876" xlink:href="#mf99a79236d" y="118.795478"/>
     <use style="fill:#ff0000;stroke:#ff0000;stroke-linejoin:miter;" x="96.788099" xlink:href="#mf99a79236d" y="117.823776"/>
     <use style="fill:#ff0000;stroke:#ff0000;stroke-linejoin:miter;" x="100.067438" xlink:href="#mf99a79236d" y="119.493628"/>
     <use style="fill:#ff0000;stroke:#ff0000;stroke-linejoin:miter;" x="103.346777" xlink:href="#mf99a79236d" y="117.71803"/>
     <use style="fill:#ff0000;stroke:#ff0000;stroke-linejoin:miter;" x="106.626116" xlink:href="#mf99a79236d" y="115.329949"/>
     <use style="fill:#ff0000;stroke:#ff0000;stroke-linejoin:miter;" x="109.905455" xlink:href="#mf99a79236d" y="119.064592"/>
     <use style="fill:#ff0000;stroke:#ff0000;stroke-linejoin:miter;" x="113.184793" xlink:href="#mf99a79236d" y="119.03306"/>
     <use style="fill:#ff0000;stroke:#ff0000;stroke-linejoin:miter;" x="116.464132" xlink:href="#mf99a79236d" y="119.21947"/>
     <use style="fill:#ff0000;stroke:#ff0000;stroke-linejoin:miter;" x="119.743471" xlink:href="#mf99a79236d" y="120.688075"/>
     <use style="fill:#ff0000;stroke:#ff0000;stroke-linejoin:miter;" x="123.02281" xlink:href="#mf99a79236d" y="118.637822"/>
     <use style="fill:#ff0000;stroke:#ff0000;stroke-linejoin:miter;" x="126.302149" xlink:href="#mf99a79236d" y="113.450296"/>
     <use style="fill:#ff0000;stroke:#ff0000;stroke-linejoin:miter;" x="129.581488" xlink:href="#mf99a79236d" y="118.615526"/>
     <use style="fill:#ff0000;stroke:#ff0000;stroke-linejoin:miter;" x="132.860826" xlink:href="#mf99a79236d" y="119.295378"/>
     <use style="fill:#ff0000;stroke:#ff0000;stroke-linejoin:miter;" x="136.140165" xlink:href="#mf99a79236d" y="119.400276"/>
     <use style="fill:#ff0000;stroke:#ff0000;stroke-linejoin:miter;" x="139.419504" xlink:href="#mf99a79236d" y="117.674022"/>
     <use style="fill:#ff0000;stroke:#ff0000;stroke-linejoin:miter;" x="142.698843" xlink:href="#mf99a79236d" y="121.832314"/>
     <use style="fill:#ff0000;stroke:#ff0000;stroke-linejoin:miter;" x="145.978182" xlink:href="#mf99a79236d" y="117.020257"/>
     <use style="fill:#ff0000;stroke:#ff0000;stroke-linejoin:miter;" x="149.257521" xlink:href="#mf99a79236d" y="119.600032"/>
     <use style="fill:#ff0000;stroke:#ff0000;stroke-linejoin:miter;" x="152.53686" xlink:href="#mf99a79236d" y="117.966874"/>
     <use style="fill:#ff0000;stroke:#ff0000;stroke-linejoin:miter;" x="155.816198" xlink:href="#mf99a79236d" y="119.378961"/>
     <use style="fill:#ff0000;stroke:#ff0000;stroke-linejoin:miter;" x="159.095537" xlink:href="#mf99a79236d" y="118.485767"/>
     <use style="fill:#ff0000;stroke:#ff0000;stroke-linejoin:miter;" x="162.374876" xlink:href="#mf99a79236d" y="118.655761"/>
     <use style="fill:#ff0000;stroke:#ff0000;stroke-linejoin:miter;" x="165.654215" xlink:href="#mf99a79236d" y="116.936462"/>
     <use style="fill:#ff0000;stroke:#ff0000;stroke-linejoin:miter;" x="168.933554" xlink:href="#mf99a79236d" y="122.130369"/>
     <use style="fill:#ff0000;stroke:#ff0000;stroke-linejoin:miter;" x="172.212893" xlink:href="#mf99a79236d" y="119.681888"/>
     <use style="fill:#ff0000;stroke:#ff0000;stroke-linejoin:miter;" x="175.492231" xlink:href="#mf99a79236d" y="117.963473"/>
     <use style="fill:#ff0000;stroke:#ff0000;stroke-linejoin:miter;" x="178.77157" xlink:href="#mf99a79236d" y="117.495192"/>
     <use style="fill:#ff0000;stroke:#ff0000;stroke-linejoin:miter;" x="182.050909" xlink:href="#mf99a79236d" y="117.697073"/>
     <use style="fill:#ff0000;stroke:#ff0000;stroke-linejoin:miter;" x="185.330248" xlink:href="#mf99a79236d" y="119.540138"/>
     <use style="fill:#ff0000;stroke:#ff0000;stroke-linejoin:miter;" x="188.609587" xlink:href="#mf99a79236d" y="117.782441"/>
     <use style="fill:#ff0000;stroke:#ff0000;stroke-linejoin:miter;" x="191.888926" xlink:href="#mf99a79236d" y="118.014406"/>
     <use style="fill:#ff0000;stroke:#ff0000;stroke-linejoin:miter;" x="195.168264" xlink:href="#mf99a79236d" y="118.428864"/>
     <use style="fill:#ff0000;stroke:#ff0000;stroke-linejoin:miter;" x="198.447603" xlink:href="#mf99a79236d" y="118.665024"/>
     <use style="fill:#ff0000;stroke:#ff0000;stroke-linejoin:miter;" x="201.726942" xlink:href="#mf99a79236d" y="119.203502"/>
     <use style="fill:#ff0000;stroke:#ff0000;stroke-linejoin:miter;" x="205.006281" xlink:href="#mf99a79236d" y="118.510243"/>
     <use style="fill:#ff0000;stroke:#ff0000;stroke-linejoin:miter;" x="208.28562" xlink:href="#mf99a79236d" y="121.133701"/>
     <use style="fill:#ff0000;stroke:#ff0000;stroke-linejoin:miter;" x="211.564959" xlink:href="#mf99a79236d" y="118.214394"/>
     <use style="fill:#ff0000;stroke:#ff0000;stroke-linejoin:miter;" x="214.844298" xlink:href="#mf99a79236d" y="121.11015"/>
     <use style="fill:#ff0000;stroke:#ff0000;stroke-linejoin:miter;" x="218.123636" xlink:href="#mf99a79236d" y="118.101168"/>
     <use style="fill:#ff0000;stroke:#ff0000;stroke-linejoin:miter;" x="221.402975" xlink:href="#mf99a79236d" y="115.636384"/>
     <use style="fill:#ff0000;stroke:#ff0000;stroke-linejoin:miter;" x="224.682314" xlink:href="#mf99a79236d" y="116.619489"/>
     <use style="fill:#ff0000;stroke:#ff0000;stroke-linejoin:miter;" x="227.961653" xlink:href="#mf99a79236d" y="116.334481"/>
     <use style="fill:#ff0000;stroke:#ff0000;stroke-linejoin:miter;" x="231.240992" xlink:href="#mf99a79236d" y="117.886218"/>
     <use style="fill:#ff0000;stroke:#ff0000;stroke-linejoin:miter;" x="234.520331" xlink:href="#mf99a79236d" y="117.90898"/>
     <use style="fill:#ff0000;stroke:#ff0000;stroke-linejoin:miter;" x="237.799669" xlink:href="#mf99a79236d" y="115.762134"/>
     <use style="fill:#ff0000;stroke:#ff0000;stroke-linejoin:miter;" x="241.079008" xlink:href="#mf99a79236d" y="117.784768"/>
     <use style="fill:#ff0000;stroke:#ff0000;stroke-linejoin:miter;" x="244.358347" xlink:href="#mf99a79236d" y="119.324942"/>
     <use style="fill:#ff0000;stroke:#ff0000;stroke-linejoin:miter;" x="247.637686" xlink:href="#mf99a79236d" y="121.377121"/>
     <use style="fill:#ff0000;stroke:#ff0000;stroke-linejoin:miter;" x="250.917025" xlink:href="#mf99a79236d" y="118.106555"/>
     <use style="fill:#ff0000;stroke:#ff0000;stroke-linejoin:miter;" x="254.196364" xlink:href="#mf99a79236d" y="114.337606"/>
     <use style="fill:#ff0000;stroke:#ff0000;stroke-linejoin:miter;" x="257.475702" xlink:href="#mf99a79236d" y="119.678905"/>
     <use style="fill:#ff0000;stroke:#ff0000;stroke-linejoin:miter;" x="260.755041" xlink:href="#mf99a79236d" y="117.474394"/>
     <use style="fill:#ff0000;stroke:#ff0000;stroke-linejoin:miter;" x="264.03438" xlink:href="#mf99a79236d" y="119.486403"/>
     <use style="fill:#ff0000;stroke:#ff0000;stroke-linejoin:miter;" x="267.313719" xlink:href="#mf99a79236d" y="117.21791"/>
     <use style="fill:#ff0000;stroke:#ff0000;stroke-linejoin:miter;" x="270.593058" xlink:href="#mf99a79236d" y="116.605323"/>
     <use style="fill:#ff0000;stroke:#ff0000;stroke-linejoin:miter;" x="273.872397" xlink:href="#mf99a79236d" y="117.688788"/>
     <use style="fill:#ff0000;stroke:#ff0000;stroke-linejoin:miter;" x="277.151736" xlink:href="#mf99a79236d" y="116.397863"/>
     <use style="fill:#ff0000;stroke:#ff0000;stroke-linejoin:miter;" x="280.431074" xlink:href="#mf99a79236d" y="118.707079"/>
     <use style="fill:#ff0000;stroke:#ff0000;stroke-linejoin:miter;" x="283.710413" xlink:href="#mf99a79236d" y="118.287313"/>
     <use style="fill:#ff0000;stroke:#ff0000;stroke-linejoin:miter;" x="286.989752" xlink:href="#mf99a79236d" y="117.986928"/>
     <use style="fill:#ff0000;stroke:#ff0000;stroke-linejoin:miter;" x="290.269091" xlink:href="#mf99a79236d" y="118.199729"/>
     <use style="fill:#ff0000;stroke:#ff0000;stroke-linejoin:miter;" x="293.54843" xlink:href="#mf99a79236d" y="119.297864"/>
     <use style="fill:#ff0000;stroke:#ff0000;stroke-linejoin:miter;" x="296.827769" xlink:href="#mf99a79236d" y="118.709455"/>
     <use style="fill:#ff0000;stroke:#ff0000;stroke-linejoin:miter;" x="300.107107" xlink:href="#mf99a79236d" y="117.707765"/>
     <use style="fill:#ff0000;stroke:#ff0000;stroke-linejoin:miter;" x="303.386446" xlink:href="#mf99a79236d" y="115.588368"/>
     <use style="fill:#ff0000;stroke:#ff0000;stroke-linejoin:miter;" x="306.665785" xlink:href="#mf99a79236d" y="116.138437"/>
     <use style="fill:#ff0000;stroke:#ff0000;stroke-linejoin:miter;" x="309.945124" xlink:href="#mf99a79236d" y="116.364272"/>
     <use style="fill:#ff0000;stroke:#ff0000;stroke-linejoin:miter;" x="313.224463" xlink:href="#mf99a79236d" y="118.792132"/>
     <use style="fill:#ff0000;stroke:#ff0000;stroke-linejoin:miter;" x="316.503802" xlink:href="#mf99a79236d" y="118.1225"/>
     <use style="fill:#ff0000;stroke:#ff0000;stroke-linejoin:miter;" x="319.78314" xlink:href="#mf99a79236d" y="118.601474"/>
     <use style="fill:#ff0000;stroke:#ff0000;stroke-linejoin:miter;" x="323.062479" xlink:href="#mf99a79236d" y="119.01852"/>
     <use style="fill:#ff0000;stroke:#ff0000;stroke-linejoin:miter;" x="326.341818" xlink:href="#mf99a79236d" y="117.989259"/>
     <use style="fill:#ff0000;stroke:#ff0000;stroke-linejoin:miter;" x="329.621157" xlink:href="#mf99a79236d" y="118.047893"/>
     <use style="fill:#ff0000;stroke:#ff0000;stroke-linejoin:miter;" x="332.900496" xlink:href="#mf99a79236d" y="119.470449"/>
     <use style="fill:#ff0000;stroke:#ff0000;stroke-linejoin:miter;" x="336.179835" xlink:href="#mf99a79236d" y="119.954314"/>
     <use style="fill:#ff0000;stroke:#ff0000;stroke-linejoin:miter;" x="339.459174" xlink:href="#mf99a79236d" y="118.752432"/>
     <use style="fill:#ff0000;stroke:#ff0000;stroke-linejoin:miter;" x="342.738512" xlink:href="#mf99a79236d" y="119.579283"/>
     <use style="fill:#ff0000;stroke:#ff0000;stroke-linejoin:miter;" x="346.017851" xlink:href="#mf99a79236d" y="119.615667"/>
     <use style="fill:#ff0000;stroke:#ff0000;stroke-linejoin:miter;" x="349.29719" xlink:href="#mf99a79236d" y="118.514864"/>
     <use style="fill:#ff0000;stroke:#ff0000;stroke-linejoin:miter;" x="352.576529" xlink:href="#mf99a79236d" y="119.462222"/>
     <use style="fill:#ff0000;stroke:#ff0000;stroke-linejoin:miter;" x="355.855868" xlink:href="#mf99a79236d" y="118.687065"/>
     <use style="fill:#ff0000;stroke:#ff0000;stroke-linejoin:miter;" x="359.135207" xlink:href="#mf99a79236d" y="119.713948"/>
     <use style="fill:#ff0000;stroke:#ff0000;stroke-linejoin:miter;" x="362.414545" xlink:href="#mf99a79236d" y="119.328032"/>
     <use style="fill:#ff0000;stroke:#ff0000;stroke-linejoin:miter;" x="365.693884" xlink:href="#mf99a79236d" y="118.166398"/>
     <use style="fill:#ff0000;stroke:#ff0000;stroke-linejoin:miter;" x="368.973223" xlink:href="#mf99a79236d" y="120.884963"/>
     <use style="fill:#ff0000;stroke:#ff0000;stroke-linejoin:miter;" x="372.252562" xlink:href="#mf99a79236d" y="116.282092"/>
     <use style="fill:#ff0000;stroke:#ff0000;stroke-linejoin:miter;" x="375.531901" xlink:href="#mf99a79236d" y="118.570923"/>
     <use style="fill:#ff0000;stroke:#ff0000;stroke-linejoin:miter;" x="378.81124" xlink:href="#mf99a79236d" y="122.010535"/>
     <use style="fill:#ff0000;stroke:#ff0000;stroke-linejoin:miter;" x="382.090579" xlink:href="#mf99a79236d" y="119.445112"/>
     <use style="fill:#ff0000;stroke:#ff0000;stroke-linejoin:miter;" x="385.369917" xlink:href="#mf99a79236d" y="119.20587"/>
     <use style="fill:#ff0000;stroke:#ff0000;stroke-linejoin:miter;" x="388.649256" xlink:href="#mf99a79236d" y="114.165425"/>
     <use style="fill:#ff0000;stroke:#ff0000;stroke-linejoin:miter;" x="391.928595" xlink:href="#mf99a79236d" y="118.833526"/>
     <use style="fill:#ff0000;stroke:#ff0000;stroke-linejoin:miter;" x="395.207934" xlink:href="#mf99a79236d" y="223.760153"/>
     <use style="fill:#ff0000;stroke:#ff0000;stroke-linejoin:miter;" x="398.487273" xlink:href="#mf99a79236d" y="264.588075"/>
    </g>
   </g>
   <g id="patch_3">
    <path d="M 57.6 307.584 
L 57.6 41.472 
" style="fill:none;stroke:#000000;stroke-linecap:square;stroke-linejoin:miter;stroke-width:0.8;"/>
   </g>
   <g id="patch_4">
    <path d="M 414.72 307.584 
L 414.72 41.472 
" style="fill:none;stroke:#000000;stroke-linecap:square;stroke-linejoin:miter;stroke-width:0.8;"/>
   </g>
   <g id="patch_5">
    <path d="M 57.6 307.584 
L 414.72 307.584 
" style="fill:none;stroke:#000000;stroke-linecap:square;stroke-linejoin:miter;stroke-width:0.8;"/>
   </g>
   <g id="patch_6">
    <path d="M 57.6 41.472 
L 414.72 41.472 
" style="fill:none;stroke:#000000;stroke-linecap:square;stroke-linejoin:miter;stroke-width:0.8;"/>
   </g>
   <g id="text_17">
    <!-- Upper and lower bounds -->
    <g transform="translate(162.559687 35.472)scale(0.12 -0.12)">
     <defs>
      <path d="M 8.6875 72.90625 
L 18.609375 72.90625 
L 18.609375 28.609375 
Q 18.609375 16.890625 22.84375 11.734375 
Q 27.09375 6.59375 36.625 6.59375 
Q 46.09375 6.59375 50.34375 11.734375 
Q 54.59375 16.890625 54.59375 28.609375 
L 54.59375 72.90625 
L 64.5 72.90625 
L 64.5 27.390625 
Q 64.5 13.140625 57.4375 5.859375 
Q 50.390625 -1.421875 36.625 -1.421875 
Q 22.796875 -1.421875 15.734375 5.859375 
Q 8.6875 13.140625 8.6875 27.390625 
z
" id="DejaVuSans-85"/>
      <path d="M 18.109375 8.203125 
L 18.109375 -20.796875 
L 9.078125 -20.796875 
L 9.078125 54.6875 
L 18.109375 54.6875 
L 18.109375 46.390625 
Q 20.953125 51.265625 25.265625 53.625 
Q 29.59375 56 35.59375 56 
Q 45.5625 56 51.78125 48.09375 
Q 58.015625 40.1875 58.015625 27.296875 
Q 58.015625 14.40625 51.78125 6.484375 
Q 45.5625 -1.421875 35.59375 -1.421875 
Q 29.59375 -1.421875 25.265625 0.953125 
Q 20.953125 3.328125 18.109375 8.203125 
z
M 48.6875 27.296875 
Q 48.6875 37.203125 44.609375 42.84375 
Q 40.53125 48.484375 33.40625 48.484375 
Q 26.265625 48.484375 22.1875 42.84375 
Q 18.109375 37.203125 18.109375 27.296875 
Q 18.109375 17.390625 22.1875 11.75 
Q 26.265625 6.109375 33.40625 6.109375 
Q 40.53125 6.109375 44.609375 11.75 
Q 48.6875 17.390625 48.6875 27.296875 
z
" id="DejaVuSans-112"/>
      <path id="DejaVuSans-32"/>
      <path d="M 45.40625 46.390625 
L 45.40625 75.984375 
L 54.390625 75.984375 
L 54.390625 0 
L 45.40625 0 
L 45.40625 8.203125 
Q 42.578125 3.328125 38.25 0.953125 
Q 33.9375 -1.421875 27.875 -1.421875 
Q 17.96875 -1.421875 11.734375 6.484375 
Q 5.515625 14.40625 5.515625 27.296875 
Q 5.515625 40.1875 11.734375 48.09375 
Q 17.96875 56 27.875 56 
Q 33.9375 56 38.25 53.625 
Q 42.578125 51.265625 45.40625 46.390625 
z
M 14.796875 27.296875 
Q 14.796875 17.390625 18.875 11.75 
Q 22.953125 6.109375 30.078125 6.109375 
Q 37.203125 6.109375 41.296875 11.75 
Q 45.40625 17.390625 45.40625 27.296875 
Q 45.40625 37.203125 41.296875 42.84375 
Q 37.203125 48.484375 30.078125 48.484375 
Q 22.953125 48.484375 18.875 42.84375 
Q 14.796875 37.203125 14.796875 27.296875 
z
" id="DejaVuSans-100"/>
      <path d="M 9.421875 75.984375 
L 18.40625 75.984375 
L 18.40625 0 
L 9.421875 0 
z
" id="DejaVuSans-108"/>
      <path d="M 30.609375 48.390625 
Q 23.390625 48.390625 19.1875 42.75 
Q 14.984375 37.109375 14.984375 27.296875 
Q 14.984375 17.484375 19.15625 11.84375 
Q 23.34375 6.203125 30.609375 6.203125 
Q 37.796875 6.203125 41.984375 11.859375 
Q 46.1875 17.53125 46.1875 27.296875 
Q 46.1875 37.015625 41.984375 42.703125 
Q 37.796875 48.390625 30.609375 48.390625 
z
M 30.609375 56 
Q 42.328125 56 49.015625 48.375 
Q 55.71875 40.765625 55.71875 27.296875 
Q 55.71875 13.875 49.015625 6.21875 
Q 42.328125 -1.421875 30.609375 -1.421875 
Q 18.84375 -1.421875 12.171875 6.21875 
Q 5.515625 13.875 5.515625 27.296875 
Q 5.515625 40.765625 12.171875 48.375 
Q 18.84375 56 30.609375 56 
z
" id="DejaVuSans-111"/>
      <path d="M 4.203125 54.6875 
L 13.1875 54.6875 
L 24.421875 12.015625 
L 35.59375 54.6875 
L 46.1875 54.6875 
L 57.421875 12.015625 
L 68.609375 54.6875 
L 77.59375 54.6875 
L 63.28125 0 
L 52.6875 0 
L 40.921875 44.828125 
L 29.109375 0 
L 18.5 0 
z
" id="DejaVuSans-119"/>
      <path d="M 48.6875 27.296875 
Q 48.6875 37.203125 44.609375 42.84375 
Q 40.53125 48.484375 33.40625 48.484375 
Q 26.265625 48.484375 22.1875 42.84375 
Q 18.109375 37.203125 18.109375 27.296875 
Q 18.109375 17.390625 22.1875 11.75 
Q 26.265625 6.109375 33.40625 6.109375 
Q 40.53125 6.109375 44.609375 11.75 
Q 48.6875 17.390625 48.6875 27.296875 
z
M 18.109375 46.390625 
Q 20.953125 51.265625 25.265625 53.625 
Q 29.59375 56 35.59375 56 
Q 45.5625 56 51.78125 48.09375 
Q 58.015625 40.1875 58.015625 27.296875 
Q 58.015625 14.40625 51.78125 6.484375 
Q 45.5625 -1.421875 35.59375 -1.421875 
Q 29.59375 -1.421875 25.265625 0.953125 
Q 20.953125 3.328125 18.109375 8.203125 
L 18.109375 0 
L 9.078125 0 
L 9.078125 75.984375 
L 18.109375 75.984375 
z
" id="DejaVuSans-98"/>
      <path d="M 8.5 21.578125 
L 8.5 54.6875 
L 17.484375 54.6875 
L 17.484375 21.921875 
Q 17.484375 14.15625 20.5 10.265625 
Q 23.53125 6.390625 29.59375 6.390625 
Q 36.859375 6.390625 41.078125 11.03125 
Q 45.3125 15.671875 45.3125 23.6875 
L 45.3125 54.6875 
L 54.296875 54.6875 
L 54.296875 0 
L 45.3125 0 
L 45.3125 8.40625 
Q 42.046875 3.421875 37.71875 1 
Q 33.40625 -1.421875 27.6875 -1.421875 
Q 18.265625 -1.421875 13.375 4.4375 
Q 8.5 10.296875 8.5 21.578125 
z
M 31.109375 56 
z
" id="DejaVuSans-117"/>
      <path d="M 44.28125 53.078125 
L 44.28125 44.578125 
Q 40.484375 46.53125 36.375 47.5 
Q 32.28125 48.484375 27.875 48.484375 
Q 21.1875 48.484375 17.84375 46.4375 
Q 14.5 44.390625 14.5 40.28125 
Q 14.5 37.15625 16.890625 35.375 
Q 19.28125 33.59375 26.515625 31.984375 
L 29.59375 31.296875 
Q 39.15625 29.25 43.1875 25.515625 
Q 47.21875 21.78125 47.21875 15.09375 
Q 47.21875 7.46875 41.1875 3.015625 
Q 35.15625 -1.421875 24.609375 -1.421875 
Q 20.21875 -1.421875 15.453125 -0.5625 
Q 10.6875 0.296875 5.421875 2 
L 5.421875 11.28125 
Q 10.40625 8.6875 15.234375 7.390625 
Q 20.0625 6.109375 24.8125 6.109375 
Q 31.15625 6.109375 34.5625 8.28125 
Q 37.984375 10.453125 37.984375 14.40625 
Q 37.984375 18.0625 35.515625 20.015625 
Q 33.0625 21.96875 24.703125 23.78125 
L 21.578125 24.515625 
Q 13.234375 26.265625 9.515625 29.90625 
Q 5.8125 33.546875 5.8125 39.890625 
Q 5.8125 47.609375 11.28125 51.796875 
Q 16.75 56 26.8125 56 
Q 31.78125 56 36.171875 55.265625 
Q 40.578125 54.546875 44.28125 53.078125 
z
" id="DejaVuSans-115"/>
     </defs>
     <use xlink:href="#DejaVuSans-85"/>
     <use x="73.193359" xlink:href="#DejaVuSans-112"/>
     <use x="136.669922" xlink:href="#DejaVuSans-112"/>
     <use x="200.146484" xlink:href="#DejaVuSans-101"/>
     <use x="261.669922" xlink:href="#DejaVuSans-114"/>
     <use x="302.783203" xlink:href="#DejaVuSans-32"/>
     <use x="334.570312" xlink:href="#DejaVuSans-97"/>
     <use x="395.849609" xlink:href="#DejaVuSans-110"/>
     <use x="459.228516" xlink:href="#DejaVuSans-100"/>
     <use x="522.705078" xlink:href="#DejaVuSans-32"/>
     <use x="554.492188" xlink:href="#DejaVuSans-108"/>
     <use x="582.275391" xlink:href="#DejaVuSans-111"/>
     <use x="643.457031" xlink:href="#DejaVuSans-119"/>
     <use x="725.244141" xlink:href="#DejaVuSans-101"/>
     <use x="786.767578" xlink:href="#DejaVuSans-114"/>
     <use x="827.880859" xlink:href="#DejaVuSans-32"/>
     <use x="859.667969" xlink:href="#DejaVuSans-98"/>
     <use x="923.144531" xlink:href="#DejaVuSans-111"/>
     <use x="984.326172" xlink:href="#DejaVuSans-117"/>
     <use x="1047.705078" xlink:href="#DejaVuSans-110"/>
     <use x="1111.083984" xlink:href="#DejaVuSans-100"/>
     <use x="1174.560547" xlink:href="#DejaVuSans-115"/>
    </g>
   </g>
   <g id="legend_1">
    <g id="patch_7">
     <path d="M 326.443438 93.506375 
L 407.72 93.506375 
Q 409.72 93.506375 409.72 91.506375 
L 409.72 48.472 
Q 409.72 46.472 407.72 46.472 
L 326.443438 46.472 
Q 324.443438 46.472 324.443438 48.472 
L 324.443438 91.506375 
Q 324.443438 93.506375 326.443438 93.506375 
z
" style="fill:#ffffff;opacity:0.8;stroke:#cccccc;stroke-linejoin:miter;"/>
    </g>
    <g id="line2d_19">
     <path d="M 328.443438 54.570438 
L 348.443438 54.570438 
" style="fill:none;stroke:#0000ff;stroke-linecap:square;stroke-width:1.5;"/>
    </g>
    <g id="line2d_20">
     <g>
      <use style="fill:#0000ff;stroke:#0000ff;" x="338.443438" xlink:href="#m29a54c6939" y="54.570438"/>
     </g>
    </g>
    <g id="text_18">
     <!-- empirical -->
     <g transform="translate(356.443438 58.070438)scale(0.1 -0.1)">
      <defs>
       <path d="M 9.421875 54.6875 
L 18.40625 54.6875 
L 18.40625 0 
L 9.421875 0 
z
M 9.421875 75.984375 
L 18.40625 75.984375 
L 18.40625 64.59375 
L 9.421875 64.59375 
z
" id="DejaVuSans-105"/>
       <path d="M 48.78125 52.59375 
L 48.78125 44.1875 
Q 44.96875 46.296875 41.140625 47.34375 
Q 37.3125 48.390625 33.40625 48.390625 
Q 24.65625 48.390625 19.8125 42.84375 
Q 14.984375 37.3125 14.984375 27.296875 
Q 14.984375 17.28125 19.8125 11.734375 
Q 24.65625 6.203125 33.40625 6.203125 
Q 37.3125 6.203125 41.140625 7.25 
Q 44.96875 8.296875 48.78125 10.40625 
L 48.78125 2.09375 
Q 45.015625 0.34375 40.984375 -0.53125 
Q 36.96875 -1.421875 32.421875 -1.421875 
Q 20.0625 -1.421875 12.78125 6.34375 
Q 5.515625 14.109375 5.515625 27.296875 
Q 5.515625 40.671875 12.859375 48.328125 
Q 20.21875 56 33.015625 56 
Q 37.15625 56 41.109375 55.140625 
Q 45.0625 54.296875 48.78125 52.59375 
z
" id="DejaVuSans-99"/>
      </defs>
      <use xlink:href="#DejaVuSans-101"/>
      <use x="61.523438" xlink:href="#DejaVuSans-109"/>
      <use x="158.935547" xlink:href="#DejaVuSans-112"/>
      <use x="222.412109" xlink:href="#DejaVuSans-105"/>
      <use x="250.195312" xlink:href="#DejaVuSans-114"/>
      <use x="291.308594" xlink:href="#DejaVuSans-105"/>
      <use x="319.091797" xlink:href="#DejaVuSans-99"/>
      <use x="374.072266" xlink:href="#DejaVuSans-97"/>
      <use x="435.351562" xlink:href="#DejaVuSans-108"/>
     </g>
    </g>
    <g id="line2d_21">
     <path d="M 328.443438 69.248563 
L 348.443438 69.248563 
" style="fill:none;stroke:#000000;stroke-linecap:square;stroke-width:1.5;"/>
    </g>
    <g id="line2d_22">
     <g>
      <use style="stroke:#000000;" x="338.443438" xlink:href="#mee25a7fa11" y="69.248563"/>
     </g>
    </g>
    <g id="text_19">
     <!-- true -->
     <g transform="translate(356.443438 72.748563)scale(0.1 -0.1)">
      <defs>
       <path d="M 18.3125 70.21875 
L 18.3125 54.6875 
L 36.8125 54.6875 
L 36.8125 47.703125 
L 18.3125 47.703125 
L 18.3125 18.015625 
Q 18.3125 11.328125 20.140625 9.421875 
Q 21.96875 7.515625 27.59375 7.515625 
L 36.8125 7.515625 
L 36.8125 0 
L 27.59375 0 
Q 17.1875 0 13.234375 3.875 
Q 9.28125 7.765625 9.28125 18.015625 
L 9.28125 47.703125 
L 2.6875 47.703125 
L 2.6875 54.6875 
L 9.28125 54.6875 
L 9.28125 70.21875 
z
" id="DejaVuSans-116"/>
      </defs>
      <use xlink:href="#DejaVuSans-116"/>
      <use x="39.208984" xlink:href="#DejaVuSans-114"/>
      <use x="80.322266" xlink:href="#DejaVuSans-117"/>
      <use x="143.701172" xlink:href="#DejaVuSans-101"/>
     </g>
    </g>
    <g id="line2d_23">
     <path d="M 328.443438 83.926688 
L 348.443438 83.926688 
" style="fill:none;stroke:#1f77b4;stroke-width:1.5;"/>
    </g>
    <g id="text_20">
     <!-- Threshold -->
     <g transform="translate(356.443438 87.426688)scale(0.1 -0.1)">
      <defs>
       <path d="M -0.296875 72.90625 
L 61.375 72.90625 
L 61.375 64.59375 
L 35.5 64.59375 
L 35.5 0 
L 25.59375 0 
L 25.59375 64.59375 
L -0.296875 64.59375 
z
" id="DejaVuSans-84"/>
       <path d="M 54.890625 33.015625 
L 54.890625 0 
L 45.90625 0 
L 45.90625 32.71875 
Q 45.90625 40.484375 42.875 44.328125 
Q 39.84375 48.1875 33.796875 48.1875 
Q 26.515625 48.1875 22.3125 43.546875 
Q 18.109375 38.921875 18.109375 30.90625 
L 18.109375 0 
L 9.078125 0 
L 9.078125 75.984375 
L 18.109375 75.984375 
L 18.109375 46.1875 
Q 21.34375 51.125 25.703125 53.5625 
Q 30.078125 56 35.796875 56 
Q 45.21875 56 50.046875 50.171875 
Q 54.890625 44.34375 54.890625 33.015625 
z
" id="DejaVuSans-104"/>
      </defs>
      <use xlink:href="#DejaVuSans-84"/>
      <use x="61.083984" xlink:href="#DejaVuSans-104"/>
      <use x="124.462891" xlink:href="#DejaVuSans-114"/>
      <use x="163.326172" xlink:href="#DejaVuSans-101"/>
      <use x="224.849609" xlink:href="#DejaVuSans-115"/>
      <use x="276.949219" xlink:href="#DejaVuSans-104"/>
      <use x="340.328125" xlink:href="#DejaVuSans-111"/>
      <use x="401.509766" xlink:href="#DejaVuSans-108"/>
      <use x="429.292969" xlink:href="#DejaVuSans-100"/>
     </g>
    </g>
   </g>
  </g>
 </g>
 <defs>
  <clipPath id="p1a59f6f51f">
   <rect height="266.112" width="357.12" x="57.6" y="41.472"/>
  </clipPath>
 </defs>
</svg>
