<?xml version="1.0" encoding="utf-8" standalone="no"?>
<!DOCTYPE svg PUBLIC "-//W3C//DTD SVG 1.1//EN"
  "http://www.w3.org/Graphics/SVG/1.1/DTD/svg11.dtd">
<!-- Created with matplotlib (https://matplotlib.org/) -->
<svg height="345.6pt" version="1.1" viewBox="0 0 460.8 345.6" width="460.8pt" xmlns="http://www.w3.org/2000/svg" xmlns:xlink="http://www.w3.org/1999/xlink">
 <metadata>
  <rdf:RDF xmlns:cc="http://creativecommons.org/ns#" xmlns:dc="http://purl.org/dc/elements/1.1/" xmlns:rdf="http://www.w3.org/1999/02/22-rdf-syntax-ns#">
   <cc:Work>
    <dc:type rdf:resource="http://purl.org/dc/dcmitype/StillImage"/>
    <dc:date>2021-03-01T15:00:24.185400</dc:date>
    <dc:format>image/svg+xml</dc:format>
    <dc:creator>
     <cc:Agent>
      <dc:title>Matplotlib v3.3.3, https://matplotlib.org/</dc:title>
     </cc:Agent>
    </dc:creator>
   </cc:Work>
  </rdf:RDF>
 </metadata>
 <defs>
  <style type="text/css">*{stroke-linecap:butt;stroke-linejoin:round;}</style>
 </defs>
 <g id="figure_1">
  <g id="patch_1">
   <path d="M 0 345.6 
L 460.8 345.6 
L 460.8 0 
L 0 0 
z
" style="fill:#ffffff;"/>
  </g>
  <g id="axes_1">
   <g id="patch_2">
    <path d="M 57.6 307.584 
L 414.72 307.584 
L 414.72 41.472 
L 57.6 41.472 
z
" style="fill:#ffffff;"/>
   </g>
   <g id="matplotlib.axis_1">
    <g id="xtick_1">
     <g id="line2d_1">
      <defs>
       <path d="M 0 0 
L 0 3.5 
" id="m8fffaf6197" style="stroke:#000000;stroke-width:0.8;"/>
      </defs>
      <g>
       <use style="stroke:#000000;stroke-width:0.8;" x="73.832727" xlink:href="#m8fffaf6197" y="307.584"/>
      </g>
     </g>
     <g id="text_1">
      <!-- 0 -->
      <g transform="translate(70.651477 322.182437)scale(0.1 -0.1)">
       <defs>
        <path d="M 31.78125 66.40625 
Q 24.171875 66.40625 20.328125 58.90625 
Q 16.5 51.421875 16.5 36.375 
Q 16.5 21.390625 20.328125 13.890625 
Q 24.171875 6.390625 31.78125 6.390625 
Q 39.453125 6.390625 43.28125 13.890625 
Q 47.125 21.390625 47.125 36.375 
Q 47.125 51.421875 43.28125 58.90625 
Q 39.453125 66.40625 31.78125 66.40625 
z
M 31.78125 74.21875 
Q 44.046875 74.21875 50.515625 64.515625 
Q 56.984375 54.828125 56.984375 36.375 
Q 56.984375 17.96875 50.515625 8.265625 
Q 44.046875 -1.421875 31.78125 -1.421875 
Q 19.53125 -1.421875 13.0625 8.265625 
Q 6.59375 17.96875 6.59375 36.375 
Q 6.59375 54.828125 13.0625 64.515625 
Q 19.53125 74.21875 31.78125 74.21875 
z
" id="DejaVuSans-48"/>
       </defs>
       <use xlink:href="#DejaVuSans-48"/>
      </g>
     </g>
    </g>
    <g id="xtick_2">
     <g id="line2d_2">
      <g>
       <use style="stroke:#000000;stroke-width:0.8;" x="139.419504" xlink:href="#m8fffaf6197" y="307.584"/>
      </g>
     </g>
     <g id="text_2">
      <!-- 20 -->
      <g transform="translate(133.057004 322.182437)scale(0.1 -0.1)">
       <defs>
        <path d="M 19.1875 8.296875 
L 53.609375 8.296875 
L 53.609375 0 
L 7.328125 0 
L 7.328125 8.296875 
Q 12.9375 14.109375 22.625 23.890625 
Q 32.328125 33.6875 34.8125 36.53125 
Q 39.546875 41.84375 41.421875 45.53125 
Q 43.3125 49.21875 43.3125 52.78125 
Q 43.3125 58.59375 39.234375 62.25 
Q 35.15625 65.921875 28.609375 65.921875 
Q 23.96875 65.921875 18.8125 64.3125 
Q 13.671875 62.703125 7.8125 59.421875 
L 7.8125 69.390625 
Q 13.765625 71.78125 18.9375 73 
Q 24.125 74.21875 28.421875 74.21875 
Q 39.75 74.21875 46.484375 68.546875 
Q 53.21875 62.890625 53.21875 53.421875 
Q 53.21875 48.921875 51.53125 44.890625 
Q 49.859375 40.875 45.40625 35.40625 
Q 44.1875 33.984375 37.640625 27.21875 
Q 31.109375 20.453125 19.1875 8.296875 
z
" id="DejaVuSans-50"/>
       </defs>
       <use xlink:href="#DejaVuSans-50"/>
       <use x="63.623047" xlink:href="#DejaVuSans-48"/>
      </g>
     </g>
    </g>
    <g id="xtick_3">
     <g id="line2d_3">
      <g>
       <use style="stroke:#000000;stroke-width:0.8;" x="205.006281" xlink:href="#m8fffaf6197" y="307.584"/>
      </g>
     </g>
     <g id="text_3">
      <!-- 40 -->
      <g transform="translate(198.643781 322.182437)scale(0.1 -0.1)">
       <defs>
        <path d="M 37.796875 64.3125 
L 12.890625 25.390625 
L 37.796875 25.390625 
z
M 35.203125 72.90625 
L 47.609375 72.90625 
L 47.609375 25.390625 
L 58.015625 25.390625 
L 58.015625 17.1875 
L 47.609375 17.1875 
L 47.609375 0 
L 37.796875 0 
L 37.796875 17.1875 
L 4.890625 17.1875 
L 4.890625 26.703125 
z
" id="DejaVuSans-52"/>
       </defs>
       <use xlink:href="#DejaVuSans-52"/>
       <use x="63.623047" xlink:href="#DejaVuSans-48"/>
      </g>
     </g>
    </g>
    <g id="xtick_4">
     <g id="line2d_4">
      <g>
       <use style="stroke:#000000;stroke-width:0.8;" x="270.593058" xlink:href="#m8fffaf6197" y="307.584"/>
      </g>
     </g>
     <g id="text_4">
      <!-- 60 -->
      <g transform="translate(264.230558 322.182437)scale(0.1 -0.1)">
       <defs>
        <path d="M 33.015625 40.375 
Q 26.375 40.375 22.484375 35.828125 
Q 18.609375 31.296875 18.609375 23.390625 
Q 18.609375 15.53125 22.484375 10.953125 
Q 26.375 6.390625 33.015625 6.390625 
Q 39.65625 6.390625 43.53125 10.953125 
Q 47.40625 15.53125 47.40625 23.390625 
Q 47.40625 31.296875 43.53125 35.828125 
Q 39.65625 40.375 33.015625 40.375 
z
M 52.59375 71.296875 
L 52.59375 62.3125 
Q 48.875 64.0625 45.09375 64.984375 
Q 41.3125 65.921875 37.59375 65.921875 
Q 27.828125 65.921875 22.671875 59.328125 
Q 17.53125 52.734375 16.796875 39.40625 
Q 19.671875 43.65625 24.015625 45.921875 
Q 28.375 48.1875 33.59375 48.1875 
Q 44.578125 48.1875 50.953125 41.515625 
Q 57.328125 34.859375 57.328125 23.390625 
Q 57.328125 12.15625 50.6875 5.359375 
Q 44.046875 -1.421875 33.015625 -1.421875 
Q 20.359375 -1.421875 13.671875 8.265625 
Q 6.984375 17.96875 6.984375 36.375 
Q 6.984375 53.65625 15.1875 63.9375 
Q 23.390625 74.21875 37.203125 74.21875 
Q 40.921875 74.21875 44.703125 73.484375 
Q 48.484375 72.75 52.59375 71.296875 
z
" id="DejaVuSans-54"/>
       </defs>
       <use xlink:href="#DejaVuSans-54"/>
       <use x="63.623047" xlink:href="#DejaVuSans-48"/>
      </g>
     </g>
    </g>
    <g id="xtick_5">
     <g id="line2d_5">
      <g>
       <use style="stroke:#000000;stroke-width:0.8;" x="336.179835" xlink:href="#m8fffaf6197" y="307.584"/>
      </g>
     </g>
     <g id="text_5">
      <!-- 80 -->
      <g transform="translate(329.817335 322.182437)scale(0.1 -0.1)">
       <defs>
        <path d="M 31.78125 34.625 
Q 24.75 34.625 20.71875 30.859375 
Q 16.703125 27.09375 16.703125 20.515625 
Q 16.703125 13.921875 20.71875 10.15625 
Q 24.75 6.390625 31.78125 6.390625 
Q 38.8125 6.390625 42.859375 10.171875 
Q 46.921875 13.96875 46.921875 20.515625 
Q 46.921875 27.09375 42.890625 30.859375 
Q 38.875 34.625 31.78125 34.625 
z
M 21.921875 38.8125 
Q 15.578125 40.375 12.03125 44.71875 
Q 8.5 49.078125 8.5 55.328125 
Q 8.5 64.0625 14.71875 69.140625 
Q 20.953125 74.21875 31.78125 74.21875 
Q 42.671875 74.21875 48.875 69.140625 
Q 55.078125 64.0625 55.078125 55.328125 
Q 55.078125 49.078125 51.53125 44.71875 
Q 48 40.375 41.703125 38.8125 
Q 48.828125 37.15625 52.796875 32.3125 
Q 56.78125 27.484375 56.78125 20.515625 
Q 56.78125 9.90625 50.3125 4.234375 
Q 43.84375 -1.421875 31.78125 -1.421875 
Q 19.734375 -1.421875 13.25 4.234375 
Q 6.78125 9.90625 6.78125 20.515625 
Q 6.78125 27.484375 10.78125 32.3125 
Q 14.796875 37.15625 21.921875 38.8125 
z
M 18.3125 54.390625 
Q 18.3125 48.734375 21.84375 45.5625 
Q 25.390625 42.390625 31.78125 42.390625 
Q 38.140625 42.390625 41.71875 45.5625 
Q 45.3125 48.734375 45.3125 54.390625 
Q 45.3125 60.0625 41.71875 63.234375 
Q 38.140625 66.40625 31.78125 66.40625 
Q 25.390625 66.40625 21.84375 63.234375 
Q 18.3125 60.0625 18.3125 54.390625 
z
" id="DejaVuSans-56"/>
       </defs>
       <use xlink:href="#DejaVuSans-56"/>
       <use x="63.623047" xlink:href="#DejaVuSans-48"/>
      </g>
     </g>
    </g>
    <g id="xtick_6">
     <g id="line2d_6">
      <g>
       <use style="stroke:#000000;stroke-width:0.8;" x="401.766612" xlink:href="#m8fffaf6197" y="307.584"/>
      </g>
     </g>
     <g id="text_6">
      <!-- 100 -->
      <g transform="translate(392.222862 322.182437)scale(0.1 -0.1)">
       <defs>
        <path d="M 12.40625 8.296875 
L 28.515625 8.296875 
L 28.515625 63.921875 
L 10.984375 60.40625 
L 10.984375 69.390625 
L 28.421875 72.90625 
L 38.28125 72.90625 
L 38.28125 8.296875 
L 54.390625 8.296875 
L 54.390625 0 
L 12.40625 0 
z
" id="DejaVuSans-49"/>
       </defs>
       <use xlink:href="#DejaVuSans-49"/>
       <use x="63.623047" xlink:href="#DejaVuSans-48"/>
       <use x="127.246094" xlink:href="#DejaVuSans-48"/>
      </g>
     </g>
    </g>
    <g id="text_7">
     <!-- Arm -->
     <g transform="translate(225.901406 335.860562)scale(0.1 -0.1)">
      <defs>
       <path d="M 34.1875 63.1875 
L 20.796875 26.90625 
L 47.609375 26.90625 
z
M 28.609375 72.90625 
L 39.796875 72.90625 
L 67.578125 0 
L 57.328125 0 
L 50.6875 18.703125 
L 17.828125 18.703125 
L 11.1875 0 
L 0.78125 0 
z
" id="DejaVuSans-65"/>
       <path d="M 41.109375 46.296875 
Q 39.59375 47.171875 37.8125 47.578125 
Q 36.03125 48 33.890625 48 
Q 26.265625 48 22.1875 43.046875 
Q 18.109375 38.09375 18.109375 28.8125 
L 18.109375 0 
L 9.078125 0 
L 9.078125 54.6875 
L 18.109375 54.6875 
L 18.109375 46.1875 
Q 20.953125 51.171875 25.484375 53.578125 
Q 30.03125 56 36.53125 56 
Q 37.453125 56 38.578125 55.875 
Q 39.703125 55.765625 41.0625 55.515625 
z
" id="DejaVuSans-114"/>
       <path d="M 52 44.1875 
Q 55.375 50.25 60.0625 53.125 
Q 64.75 56 71.09375 56 
Q 79.640625 56 84.28125 50.015625 
Q 88.921875 44.046875 88.921875 33.015625 
L 88.921875 0 
L 79.890625 0 
L 79.890625 32.71875 
Q 79.890625 40.578125 77.09375 44.375 
Q 74.3125 48.1875 68.609375 48.1875 
Q 61.625 48.1875 57.5625 43.546875 
Q 53.515625 38.921875 53.515625 30.90625 
L 53.515625 0 
L 44.484375 0 
L 44.484375 32.71875 
Q 44.484375 40.625 41.703125 44.40625 
Q 38.921875 48.1875 33.109375 48.1875 
Q 26.21875 48.1875 22.15625 43.53125 
Q 18.109375 38.875 18.109375 30.90625 
L 18.109375 0 
L 9.078125 0 
L 9.078125 54.6875 
L 18.109375 54.6875 
L 18.109375 46.1875 
Q 21.1875 51.21875 25.484375 53.609375 
Q 29.78125 56 35.6875 56 
Q 41.65625 56 45.828125 52.96875 
Q 50 49.953125 52 44.1875 
z
" id="DejaVuSans-109"/>
      </defs>
      <use xlink:href="#DejaVuSans-65"/>
      <use x="68.408203" xlink:href="#DejaVuSans-114"/>
      <use x="107.771484" xlink:href="#DejaVuSans-109"/>
     </g>
    </g>
   </g>
   <g id="matplotlib.axis_2">
    <g id="ytick_1">
     <g id="line2d_7">
      <defs>
       <path d="M 0 0 
L -3.5 0 
" id="md2122406c2" style="stroke:#000000;stroke-width:0.8;"/>
      </defs>
      <g>
       <use style="stroke:#000000;stroke-width:0.8;" x="57.6" xlink:href="#md2122406c2" y="307.584"/>
      </g>
     </g>
     <g id="text_8">
      <!-- 0.0 -->
      <g transform="translate(34.696875 311.383219)scale(0.1 -0.1)">
       <defs>
        <path d="M 10.6875 12.40625 
L 21 12.40625 
L 21 0 
L 10.6875 0 
z
" id="DejaVuSans-46"/>
       </defs>
       <use xlink:href="#DejaVuSans-48"/>
       <use x="63.623047" xlink:href="#DejaVuSans-46"/>
       <use x="95.410156" xlink:href="#DejaVuSans-48"/>
      </g>
     </g>
    </g>
    <g id="ytick_2">
     <g id="line2d_8">
      <g>
       <use style="stroke:#000000;stroke-width:0.8;" x="57.6" xlink:href="#md2122406c2" y="272.1024"/>
      </g>
     </g>
     <g id="text_9">
      <!-- 0.2 -->
      <g transform="translate(34.696875 275.901619)scale(0.1 -0.1)">
       <use xlink:href="#DejaVuSans-48"/>
       <use x="63.623047" xlink:href="#DejaVuSans-46"/>
       <use x="95.410156" xlink:href="#DejaVuSans-50"/>
      </g>
     </g>
    </g>
    <g id="ytick_3">
     <g id="line2d_9">
      <g>
       <use style="stroke:#000000;stroke-width:0.8;" x="57.6" xlink:href="#md2122406c2" y="236.6208"/>
      </g>
     </g>
     <g id="text_10">
      <!-- 0.4 -->
      <g transform="translate(34.696875 240.420019)scale(0.1 -0.1)">
       <use xlink:href="#DejaVuSans-48"/>
       <use x="63.623047" xlink:href="#DejaVuSans-46"/>
       <use x="95.410156" xlink:href="#DejaVuSans-52"/>
      </g>
     </g>
    </g>
    <g id="ytick_4">
     <g id="line2d_10">
      <g>
       <use style="stroke:#000000;stroke-width:0.8;" x="57.6" xlink:href="#md2122406c2" y="201.1392"/>
      </g>
     </g>
     <g id="text_11">
      <!-- 0.6 -->
      <g transform="translate(34.696875 204.938419)scale(0.1 -0.1)">
       <use xlink:href="#DejaVuSans-48"/>
       <use x="63.623047" xlink:href="#DejaVuSans-46"/>
       <use x="95.410156" xlink:href="#DejaVuSans-54"/>
      </g>
     </g>
    </g>
    <g id="ytick_5">
     <g id="line2d_11">
      <g>
       <use style="stroke:#000000;stroke-width:0.8;" x="57.6" xlink:href="#md2122406c2" y="165.6576"/>
      </g>
     </g>
     <g id="text_12">
      <!-- 0.8 -->
      <g transform="translate(34.696875 169.456819)scale(0.1 -0.1)">
       <use xlink:href="#DejaVuSans-48"/>
       <use x="63.623047" xlink:href="#DejaVuSans-46"/>
       <use x="95.410156" xlink:href="#DejaVuSans-56"/>
      </g>
     </g>
    </g>
    <g id="ytick_6">
     <g id="line2d_12">
      <g>
       <use style="stroke:#000000;stroke-width:0.8;" x="57.6" xlink:href="#md2122406c2" y="130.176"/>
      </g>
     </g>
     <g id="text_13">
      <!-- 1.0 -->
      <g transform="translate(34.696875 133.975219)scale(0.1 -0.1)">
       <use xlink:href="#DejaVuSans-49"/>
       <use x="63.623047" xlink:href="#DejaVuSans-46"/>
       <use x="95.410156" xlink:href="#DejaVuSans-48"/>
      </g>
     </g>
    </g>
    <g id="ytick_7">
     <g id="line2d_13">
      <g>
       <use style="stroke:#000000;stroke-width:0.8;" x="57.6" xlink:href="#md2122406c2" y="94.6944"/>
      </g>
     </g>
     <g id="text_14">
      <!-- 1.2 -->
      <g transform="translate(34.696875 98.493619)scale(0.1 -0.1)">
       <use xlink:href="#DejaVuSans-49"/>
       <use x="63.623047" xlink:href="#DejaVuSans-46"/>
       <use x="95.410156" xlink:href="#DejaVuSans-50"/>
      </g>
     </g>
    </g>
    <g id="ytick_8">
     <g id="line2d_14">
      <g>
       <use style="stroke:#000000;stroke-width:0.8;" x="57.6" xlink:href="#md2122406c2" y="59.2128"/>
      </g>
     </g>
     <g id="text_15">
      <!-- 1.4 -->
      <g transform="translate(34.696875 63.012019)scale(0.1 -0.1)">
       <use xlink:href="#DejaVuSans-49"/>
       <use x="63.623047" xlink:href="#DejaVuSans-46"/>
       <use x="95.410156" xlink:href="#DejaVuSans-52"/>
      </g>
     </g>
    </g>
    <g id="text_16">
     <!-- Mean -->
     <g transform="translate(28.617188 188.151437)rotate(-90)scale(0.1 -0.1)">
      <defs>
       <path d="M 9.8125 72.90625 
L 24.515625 72.90625 
L 43.109375 23.296875 
L 61.8125 72.90625 
L 76.515625 72.90625 
L 76.515625 0 
L 66.890625 0 
L 66.890625 64.015625 
L 48.09375 14.015625 
L 38.1875 14.015625 
L 19.390625 64.015625 
L 19.390625 0 
L 9.8125 0 
z
" id="DejaVuSans-77"/>
       <path d="M 56.203125 29.59375 
L 56.203125 25.203125 
L 14.890625 25.203125 
Q 15.484375 15.921875 20.484375 11.0625 
Q 25.484375 6.203125 34.421875 6.203125 
Q 39.59375 6.203125 44.453125 7.46875 
Q 49.3125 8.734375 54.109375 11.28125 
L 54.109375 2.78125 
Q 49.265625 0.734375 44.1875 -0.34375 
Q 39.109375 -1.421875 33.890625 -1.421875 
Q 20.796875 -1.421875 13.15625 6.1875 
Q 5.515625 13.8125 5.515625 26.8125 
Q 5.515625 40.234375 12.765625 48.109375 
Q 20.015625 56 32.328125 56 
Q 43.359375 56 49.78125 48.890625 
Q 56.203125 41.796875 56.203125 29.59375 
z
M 47.21875 32.234375 
Q 47.125 39.59375 43.09375 43.984375 
Q 39.0625 48.390625 32.421875 48.390625 
Q 24.90625 48.390625 20.390625 44.140625 
Q 15.875 39.890625 15.1875 32.171875 
z
" id="DejaVuSans-101"/>
       <path d="M 34.28125 27.484375 
Q 23.390625 27.484375 19.1875 25 
Q 14.984375 22.515625 14.984375 16.5 
Q 14.984375 11.71875 18.140625 8.90625 
Q 21.296875 6.109375 26.703125 6.109375 
Q 34.1875 6.109375 38.703125 11.40625 
Q 43.21875 16.703125 43.21875 25.484375 
L 43.21875 27.484375 
z
M 52.203125 31.203125 
L 52.203125 0 
L 43.21875 0 
L 43.21875 8.296875 
Q 40.140625 3.328125 35.546875 0.953125 
Q 30.953125 -1.421875 24.3125 -1.421875 
Q 15.921875 -1.421875 10.953125 3.296875 
Q 6 8.015625 6 15.921875 
Q 6 25.140625 12.171875 29.828125 
Q 18.359375 34.515625 30.609375 34.515625 
L 43.21875 34.515625 
L 43.21875 35.40625 
Q 43.21875 41.609375 39.140625 45 
Q 35.0625 48.390625 27.6875 48.390625 
Q 23 48.390625 18.546875 47.265625 
Q 14.109375 46.140625 10.015625 43.890625 
L 10.015625 52.203125 
Q 14.9375 54.109375 19.578125 55.046875 
Q 24.21875 56 28.609375 56 
Q 40.484375 56 46.34375 49.84375 
Q 52.203125 43.703125 52.203125 31.203125 
z
" id="DejaVuSans-97"/>
       <path d="M 54.890625 33.015625 
L 54.890625 0 
L 45.90625 0 
L 45.90625 32.71875 
Q 45.90625 40.484375 42.875 44.328125 
Q 39.84375 48.1875 33.796875 48.1875 
Q 26.515625 48.1875 22.3125 43.546875 
Q 18.109375 38.921875 18.109375 30.90625 
L 18.109375 0 
L 9.078125 0 
L 9.078125 54.6875 
L 18.109375 54.6875 
L 18.109375 46.1875 
Q 21.34375 51.125 25.703125 53.5625 
Q 30.078125 56 35.796875 56 
Q 45.21875 56 50.046875 50.171875 
Q 54.890625 44.34375 54.890625 33.015625 
z
" id="DejaVuSans-110"/>
      </defs>
      <use xlink:href="#DejaVuSans-77"/>
      <use x="86.279297" xlink:href="#DejaVuSans-101"/>
      <use x="147.802734" xlink:href="#DejaVuSans-97"/>
      <use x="209.082031" xlink:href="#DejaVuSans-110"/>
     </g>
    </g>
   </g>
   <g id="LineCollection_1">
    <path clip-path="url(#p234199d4a6)" d="M 73.832727 272.1024 
L 398.487273 272.1024 
" style="fill:none;stroke:#1f77b4;stroke-width:1.5;"/>
   </g>
   <g id="line2d_15">
    <path clip-path="url(#p234199d4a6)" d="M 73.832727 130.430488 
L 77.112066 133.103067 
L 80.391405 130.630138 
L 83.670744 128.914366 
L 86.950083 129.115802 
L 90.229421 129.880974 
L 93.50876 131.794988 
L 96.788099 130.225198 
L 100.067438 129.875795 
L 103.346777 129.986564 
L 106.626116 129.343896 
L 109.905455 130.755444 
L 113.184793 131.130383 
L 116.464132 128.992756 
L 119.743471 131.38584 
L 123.02281 131.009307 
L 126.302149 129.741879 
L 129.581488 132.294331 
L 132.860826 129.777355 
L 136.140165 129.019405 
L 139.419504 129.474208 
L 142.698843 130.377167 
L 145.978182 128.425825 
L 149.257521 133.852687 
L 152.53686 130.79248 
L 155.816198 131.560316 
L 159.095537 132.58222 
L 162.374876 128.144287 
L 165.654215 130.732743 
L 168.933554 131.530437 
L 172.212893 128.375506 
L 175.492231 129.328239 
L 178.77157 132.436792 
L 182.050909 129.637588 
L 185.330248 128.56442 
L 188.609587 130.718213 
L 191.888926 130.442514 
L 195.168264 129.679744 
L 198.447603 131.283024 
L 201.726942 129.924294 
L 205.006281 130.587713 
L 208.28562 131.841905 
L 211.564959 132.86582 
L 214.844298 127.878443 
L 218.123636 132.204997 
L 221.402975 129.680865 
L 224.682314 129.769011 
L 227.961653 129.978056 
L 231.240992 131.142727 
L 234.520331 129.741362 
L 237.799669 130.570869 
L 241.079008 129.071159 
L 244.358347 131.545509 
L 247.637686 129.044206 
L 250.917025 130.056913 
L 254.196364 130.56765 
L 257.475702 130.019015 
L 260.755041 132.344386 
L 264.03438 130.336941 
L 267.313719 130.33457 
L 270.593058 131.499206 
L 273.872397 128.52742 
L 277.151736 131.865378 
L 280.431074 128.471285 
L 283.710413 130.952751 
L 286.989752 133.307303 
L 290.269091 133.628778 
L 293.54843 131.061469 
L 296.827769 129.145084 
L 300.107107 128.296661 
L 303.386446 129.800074 
L 306.665785 127.96936 
L 309.945124 132.275705 
L 313.224463 133.155122 
L 316.503802 130.240366 
L 319.78314 132.11254 
L 323.062479 133.676736 
L 326.341818 131.485533 
L 329.621157 129.803764 
L 332.900496 129.973582 
L 336.179835 131.33747 
L 339.459174 130.941649 
L 342.738512 132.919656 
L 346.017851 130.226909 
L 349.29719 129.207405 
L 352.576529 130.941216 
L 355.855868 130.497813 
L 359.135207 134.396306 
L 362.414545 131.431704 
L 365.693884 132.125617 
L 368.973223 131.767495 
L 372.252562 130.688301 
L 375.531901 129.816214 
L 378.81124 128.656797 
L 382.090579 132.43404 
L 385.369917 131.221561 
L 388.649256 128.541019 
L 391.928595 130.417483 
L 395.207934 236.70782 
L 398.487273 275.785774 
" style="fill:none;stroke:#0000ff;stroke-linecap:square;stroke-width:1.5;"/>
    <defs>
     <path d="M 0 3 
C 0.795609 3 1.55874 2.683901 2.12132 2.12132 
C 2.683901 1.55874 3 0.795609 3 0 
C 3 -0.795609 2.683901 -1.55874 2.12132 -2.12132 
C 1.55874 -2.683901 0.795609 -3 0 -3 
C -0.795609 -3 -1.55874 -2.683901 -2.12132 -2.12132 
C -2.683901 -1.55874 -3 -0.795609 -3 0 
C -3 0.795609 -2.683901 1.55874 -2.12132 2.12132 
C -1.55874 2.683901 -0.795609 3 0 3 
z
" id="md019c1ac1c" style="stroke:#0000ff;"/>
    </defs>
    <g clip-path="url(#p234199d4a6)">
     <use style="fill:#0000ff;stroke:#0000ff;" x="73.832727" xlink:href="#md019c1ac1c" y="130.430488"/>
     <use style="fill:#0000ff;stroke:#0000ff;" x="77.112066" xlink:href="#md019c1ac1c" y="133.103067"/>
     <use style="fill:#0000ff;stroke:#0000ff;" x="80.391405" xlink:href="#md019c1ac1c" y="130.630138"/>
     <use style="fill:#0000ff;stroke:#0000ff;" x="83.670744" xlink:href="#md019c1ac1c" y="128.914366"/>
     <use style="fill:#0000ff;stroke:#0000ff;" x="86.950083" xlink:href="#md019c1ac1c" y="129.115802"/>
     <use style="fill:#0000ff;stroke:#0000ff;" x="90.229421" xlink:href="#md019c1ac1c" y="129.880974"/>
     <use style="fill:#0000ff;stroke:#0000ff;" x="93.50876" xlink:href="#md019c1ac1c" y="131.794988"/>
     <use style="fill:#0000ff;stroke:#0000ff;" x="96.788099" xlink:href="#md019c1ac1c" y="130.225198"/>
     <use style="fill:#0000ff;stroke:#0000ff;" x="100.067438" xlink:href="#md019c1ac1c" y="129.875795"/>
     <use style="fill:#0000ff;stroke:#0000ff;" x="103.346777" xlink:href="#md019c1ac1c" y="129.986564"/>
     <use style="fill:#0000ff;stroke:#0000ff;" x="106.626116" xlink:href="#md019c1ac1c" y="129.343896"/>
     <use style="fill:#0000ff;stroke:#0000ff;" x="109.905455" xlink:href="#md019c1ac1c" y="130.755444"/>
     <use style="fill:#0000ff;stroke:#0000ff;" x="113.184793" xlink:href="#md019c1ac1c" y="131.130383"/>
     <use style="fill:#0000ff;stroke:#0000ff;" x="116.464132" xlink:href="#md019c1ac1c" y="128.992756"/>
     <use style="fill:#0000ff;stroke:#0000ff;" x="119.743471" xlink:href="#md019c1ac1c" y="131.38584"/>
     <use style="fill:#0000ff;stroke:#0000ff;" x="123.02281" xlink:href="#md019c1ac1c" y="131.009307"/>
     <use style="fill:#0000ff;stroke:#0000ff;" x="126.302149" xlink:href="#md019c1ac1c" y="129.741879"/>
     <use style="fill:#0000ff;stroke:#0000ff;" x="129.581488" xlink:href="#md019c1ac1c" y="132.294331"/>
     <use style="fill:#0000ff;stroke:#0000ff;" x="132.860826" xlink:href="#md019c1ac1c" y="129.777355"/>
     <use style="fill:#0000ff;stroke:#0000ff;" x="136.140165" xlink:href="#md019c1ac1c" y="129.019405"/>
     <use style="fill:#0000ff;stroke:#0000ff;" x="139.419504" xlink:href="#md019c1ac1c" y="129.474208"/>
     <use style="fill:#0000ff;stroke:#0000ff;" x="142.698843" xlink:href="#md019c1ac1c" y="130.377167"/>
     <use style="fill:#0000ff;stroke:#0000ff;" x="145.978182" xlink:href="#md019c1ac1c" y="128.425825"/>
     <use style="fill:#0000ff;stroke:#0000ff;" x="149.257521" xlink:href="#md019c1ac1c" y="133.852687"/>
     <use style="fill:#0000ff;stroke:#0000ff;" x="152.53686" xlink:href="#md019c1ac1c" y="130.79248"/>
     <use style="fill:#0000ff;stroke:#0000ff;" x="155.816198" xlink:href="#md019c1ac1c" y="131.560316"/>
     <use style="fill:#0000ff;stroke:#0000ff;" x="159.095537" xlink:href="#md019c1ac1c" y="132.58222"/>
     <use style="fill:#0000ff;stroke:#0000ff;" x="162.374876" xlink:href="#md019c1ac1c" y="128.144287"/>
     <use style="fill:#0000ff;stroke:#0000ff;" x="165.654215" xlink:href="#md019c1ac1c" y="130.732743"/>
     <use style="fill:#0000ff;stroke:#0000ff;" x="168.933554" xlink:href="#md019c1ac1c" y="131.530437"/>
     <use style="fill:#0000ff;stroke:#0000ff;" x="172.212893" xlink:href="#md019c1ac1c" y="128.375506"/>
     <use style="fill:#0000ff;stroke:#0000ff;" x="175.492231" xlink:href="#md019c1ac1c" y="129.328239"/>
     <use style="fill:#0000ff;stroke:#0000ff;" x="178.77157" xlink:href="#md019c1ac1c" y="132.436792"/>
     <use style="fill:#0000ff;stroke:#0000ff;" x="182.050909" xlink:href="#md019c1ac1c" y="129.637588"/>
     <use style="fill:#0000ff;stroke:#0000ff;" x="185.330248" xlink:href="#md019c1ac1c" y="128.56442"/>
     <use style="fill:#0000ff;stroke:#0000ff;" x="188.609587" xlink:href="#md019c1ac1c" y="130.718213"/>
     <use style="fill:#0000ff;stroke:#0000ff;" x="191.888926" xlink:href="#md019c1ac1c" y="130.442514"/>
     <use style="fill:#0000ff;stroke:#0000ff;" x="195.168264" xlink:href="#md019c1ac1c" y="129.679744"/>
     <use style="fill:#0000ff;stroke:#0000ff;" x="198.447603" xlink:href="#md019c1ac1c" y="131.283024"/>
     <use style="fill:#0000ff;stroke:#0000ff;" x="201.726942" xlink:href="#md019c1ac1c" y="129.924294"/>
     <use style="fill:#0000ff;stroke:#0000ff;" x="205.006281" xlink:href="#md019c1ac1c" y="130.587713"/>
     <use style="fill:#0000ff;stroke:#0000ff;" x="208.28562" xlink:href="#md019c1ac1c" y="131.841905"/>
     <use style="fill:#0000ff;stroke:#0000ff;" x="211.564959" xlink:href="#md019c1ac1c" y="132.86582"/>
     <use style="fill:#0000ff;stroke:#0000ff;" x="214.844298" xlink:href="#md019c1ac1c" y="127.878443"/>
     <use style="fill:#0000ff;stroke:#0000ff;" x="218.123636" xlink:href="#md019c1ac1c" y="132.204997"/>
     <use style="fill:#0000ff;stroke:#0000ff;" x="221.402975" xlink:href="#md019c1ac1c" y="129.680865"/>
     <use style="fill:#0000ff;stroke:#0000ff;" x="224.682314" xlink:href="#md019c1ac1c" y="129.769011"/>
     <use style="fill:#0000ff;stroke:#0000ff;" x="227.961653" xlink:href="#md019c1ac1c" y="129.978056"/>
     <use style="fill:#0000ff;stroke:#0000ff;" x="231.240992" xlink:href="#md019c1ac1c" y="131.142727"/>
     <use style="fill:#0000ff;stroke:#0000ff;" x="234.520331" xlink:href="#md019c1ac1c" y="129.741362"/>
     <use style="fill:#0000ff;stroke:#0000ff;" x="237.799669" xlink:href="#md019c1ac1c" y="130.570869"/>
     <use style="fill:#0000ff;stroke:#0000ff;" x="241.079008" xlink:href="#md019c1ac1c" y="129.071159"/>
     <use style="fill:#0000ff;stroke:#0000ff;" x="244.358347" xlink:href="#md019c1ac1c" y="131.545509"/>
     <use style="fill:#0000ff;stroke:#0000ff;" x="247.637686" xlink:href="#md019c1ac1c" y="129.044206"/>
     <use style="fill:#0000ff;stroke:#0000ff;" x="250.917025" xlink:href="#md019c1ac1c" y="130.056913"/>
     <use style="fill:#0000ff;stroke:#0000ff;" x="254.196364" xlink:href="#md019c1ac1c" y="130.56765"/>
     <use style="fill:#0000ff;stroke:#0000ff;" x="257.475702" xlink:href="#md019c1ac1c" y="130.019015"/>
     <use style="fill:#0000ff;stroke:#0000ff;" x="260.755041" xlink:href="#md019c1ac1c" y="132.344386"/>
     <use style="fill:#0000ff;stroke:#0000ff;" x="264.03438" xlink:href="#md019c1ac1c" y="130.336941"/>
     <use style="fill:#0000ff;stroke:#0000ff;" x="267.313719" xlink:href="#md019c1ac1c" y="130.33457"/>
     <use style="fill:#0000ff;stroke:#0000ff;" x="270.593058" xlink:href="#md019c1ac1c" y="131.499206"/>
     <use style="fill:#0000ff;stroke:#0000ff;" x="273.872397" xlink:href="#md019c1ac1c" y="128.52742"/>
     <use style="fill:#0000ff;stroke:#0000ff;" x="277.151736" xlink:href="#md019c1ac1c" y="131.865378"/>
     <use style="fill:#0000ff;stroke:#0000ff;" x="280.431074" xlink:href="#md019c1ac1c" y="128.471285"/>
     <use style="fill:#0000ff;stroke:#0000ff;" x="283.710413" xlink:href="#md019c1ac1c" y="130.952751"/>
     <use style="fill:#0000ff;stroke:#0000ff;" x="286.989752" xlink:href="#md019c1ac1c" y="133.307303"/>
     <use style="fill:#0000ff;stroke:#0000ff;" x="290.269091" xlink:href="#md019c1ac1c" y="133.628778"/>
     <use style="fill:#0000ff;stroke:#0000ff;" x="293.54843" xlink:href="#md019c1ac1c" y="131.061469"/>
     <use style="fill:#0000ff;stroke:#0000ff;" x="296.827769" xlink:href="#md019c1ac1c" y="129.145084"/>
     <use style="fill:#0000ff;stroke:#0000ff;" x="300.107107" xlink:href="#md019c1ac1c" y="128.296661"/>
     <use style="fill:#0000ff;stroke:#0000ff;" x="303.386446" xlink:href="#md019c1ac1c" y="129.800074"/>
     <use style="fill:#0000ff;stroke:#0000ff;" x="306.665785" xlink:href="#md019c1ac1c" y="127.96936"/>
     <use style="fill:#0000ff;stroke:#0000ff;" x="309.945124" xlink:href="#md019c1ac1c" y="132.275705"/>
     <use style="fill:#0000ff;stroke:#0000ff;" x="313.224463" xlink:href="#md019c1ac1c" y="133.155122"/>
     <use style="fill:#0000ff;stroke:#0000ff;" x="316.503802" xlink:href="#md019c1ac1c" y="130.240366"/>
     <use style="fill:#0000ff;stroke:#0000ff;" x="319.78314" xlink:href="#md019c1ac1c" y="132.11254"/>
     <use style="fill:#0000ff;stroke:#0000ff;" x="323.062479" xlink:href="#md019c1ac1c" y="133.676736"/>
     <use style="fill:#0000ff;stroke:#0000ff;" x="326.341818" xlink:href="#md019c1ac1c" y="131.485533"/>
     <use style="fill:#0000ff;stroke:#0000ff;" x="329.621157" xlink:href="#md019c1ac1c" y="129.803764"/>
     <use style="fill:#0000ff;stroke:#0000ff;" x="332.900496" xlink:href="#md019c1ac1c" y="129.973582"/>
     <use style="fill:#0000ff;stroke:#0000ff;" x="336.179835" xlink:href="#md019c1ac1c" y="131.33747"/>
     <use style="fill:#0000ff;stroke:#0000ff;" x="339.459174" xlink:href="#md019c1ac1c" y="130.941649"/>
     <use style="fill:#0000ff;stroke:#0000ff;" x="342.738512" xlink:href="#md019c1ac1c" y="132.919656"/>
     <use style="fill:#0000ff;stroke:#0000ff;" x="346.017851" xlink:href="#md019c1ac1c" y="130.226909"/>
     <use style="fill:#0000ff;stroke:#0000ff;" x="349.29719" xlink:href="#md019c1ac1c" y="129.207405"/>
     <use style="fill:#0000ff;stroke:#0000ff;" x="352.576529" xlink:href="#md019c1ac1c" y="130.941216"/>
     <use style="fill:#0000ff;stroke:#0000ff;" x="355.855868" xlink:href="#md019c1ac1c" y="130.497813"/>
     <use style="fill:#0000ff;stroke:#0000ff;" x="359.135207" xlink:href="#md019c1ac1c" y="134.396306"/>
     <use style="fill:#0000ff;stroke:#0000ff;" x="362.414545" xlink:href="#md019c1ac1c" y="131.431704"/>
     <use style="fill:#0000ff;stroke:#0000ff;" x="365.693884" xlink:href="#md019c1ac1c" y="132.125617"/>
     <use style="fill:#0000ff;stroke:#0000ff;" x="368.973223" xlink:href="#md019c1ac1c" y="131.767495"/>
     <use style="fill:#0000ff;stroke:#0000ff;" x="372.252562" xlink:href="#md019c1ac1c" y="130.688301"/>
     <use style="fill:#0000ff;stroke:#0000ff;" x="375.531901" xlink:href="#md019c1ac1c" y="129.816214"/>
     <use style="fill:#0000ff;stroke:#0000ff;" x="378.81124" xlink:href="#md019c1ac1c" y="128.656797"/>
     <use style="fill:#0000ff;stroke:#0000ff;" x="382.090579" xlink:href="#md019c1ac1c" y="132.43404"/>
     <use style="fill:#0000ff;stroke:#0000ff;" x="385.369917" xlink:href="#md019c1ac1c" y="131.221561"/>
     <use style="fill:#0000ff;stroke:#0000ff;" x="388.649256" xlink:href="#md019c1ac1c" y="128.541019"/>
     <use style="fill:#0000ff;stroke:#0000ff;" x="391.928595" xlink:href="#md019c1ac1c" y="130.417483"/>
     <use style="fill:#0000ff;stroke:#0000ff;" x="395.207934" xlink:href="#md019c1ac1c" y="236.70782"/>
     <use style="fill:#0000ff;stroke:#0000ff;" x="398.487273" xlink:href="#md019c1ac1c" y="275.785774"/>
    </g>
   </g>
   <g id="line2d_16">
    <path clip-path="url(#p234199d4a6)" d="M 73.832727 130.176 
L 77.112066 130.176 
L 80.391405 130.176 
L 83.670744 130.176 
L 86.950083 130.176 
L 90.229421 130.176 
L 93.50876 130.176 
L 96.788099 130.176 
L 100.067438 130.176 
L 103.346777 130.176 
L 106.626116 130.176 
L 109.905455 130.176 
L 113.184793 130.176 
L 116.464132 130.176 
L 119.743471 130.176 
L 123.02281 130.176 
L 126.302149 130.176 
L 129.581488 130.176 
L 132.860826 130.176 
L 136.140165 130.176 
L 139.419504 130.176 
L 142.698843 130.176 
L 145.978182 130.176 
L 149.257521 130.176 
L 152.53686 130.176 
L 155.816198 130.176 
L 159.095537 130.176 
L 162.374876 130.176 
L 165.654215 130.176 
L 168.933554 130.176 
L 172.212893 130.176 
L 175.492231 130.176 
L 178.77157 130.176 
L 182.050909 130.176 
L 185.330248 130.176 
L 188.609587 130.176 
L 191.888926 130.176 
L 195.168264 130.176 
L 198.447603 130.176 
L 201.726942 130.176 
L 205.006281 130.176 
L 208.28562 130.176 
L 211.564959 130.176 
L 214.844298 130.176 
L 218.123636 130.176 
L 221.402975 130.176 
L 224.682314 130.176 
L 227.961653 130.176 
L 231.240992 130.176 
L 234.520331 130.176 
L 237.799669 130.176 
L 241.079008 130.176 
L 244.358347 130.176 
L 247.637686 130.176 
L 250.917025 130.176 
L 254.196364 130.176 
L 257.475702 130.176 
L 260.755041 130.176 
L 264.03438 130.176 
L 267.313719 130.176 
L 270.593058 130.176 
L 273.872397 130.176 
L 277.151736 130.176 
L 280.431074 130.176 
L 283.710413 130.176 
L 286.989752 130.176 
L 290.269091 130.176 
L 293.54843 130.176 
L 296.827769 130.176 
L 300.107107 130.176 
L 303.386446 130.176 
L 306.665785 130.176 
L 309.945124 130.176 
L 313.224463 130.176 
L 316.503802 130.176 
L 319.78314 130.176 
L 323.062479 130.176 
L 326.341818 130.176 
L 329.621157 130.176 
L 332.900496 130.176 
L 336.179835 130.176 
L 339.459174 130.176 
L 342.738512 130.176 
L 346.017851 130.176 
L 349.29719 130.176 
L 352.576529 130.176 
L 355.855868 130.176 
L 359.135207 130.176 
L 362.414545 130.176 
L 365.693884 130.176 
L 368.973223 130.176 
L 372.252562 130.176 
L 375.531901 130.176 
L 378.81124 130.176 
L 382.090579 130.176 
L 385.369917 130.176 
L 388.649256 130.176 
L 391.928595 130.176 
L 395.207934 236.6208 
L 398.487273 275.65056 
" style="fill:none;stroke:#000000;stroke-linecap:square;stroke-width:1.5;"/>
    <defs>
     <path d="M 0 3 
C 0.795609 3 1.55874 2.683901 2.12132 2.12132 
C 2.683901 1.55874 3 0.795609 3 0 
C 3 -0.795609 2.683901 -1.55874 2.12132 -2.12132 
C 1.55874 -2.683901 0.795609 -3 0 -3 
C -0.795609 -3 -1.55874 -2.683901 -2.12132 -2.12132 
C -2.683901 -1.55874 -3 -0.795609 -3 0 
C -3 0.795609 -2.683901 1.55874 -2.12132 2.12132 
C -1.55874 2.683901 -0.795609 3 0 3 
z
" id="m19f9ba98ec" style="stroke:#000000;"/>
    </defs>
    <g clip-path="url(#p234199d4a6)">
     <use style="stroke:#000000;" x="73.832727" xlink:href="#m19f9ba98ec" y="130.176"/>
     <use style="stroke:#000000;" x="77.112066" xlink:href="#m19f9ba98ec" y="130.176"/>
     <use style="stroke:#000000;" x="80.391405" xlink:href="#m19f9ba98ec" y="130.176"/>
     <use style="stroke:#000000;" x="83.670744" xlink:href="#m19f9ba98ec" y="130.176"/>
     <use style="stroke:#000000;" x="86.950083" xlink:href="#m19f9ba98ec" y="130.176"/>
     <use style="stroke:#000000;" x="90.229421" xlink:href="#m19f9ba98ec" y="130.176"/>
     <use style="stroke:#000000;" x="93.50876" xlink:href="#m19f9ba98ec" y="130.176"/>
     <use style="stroke:#000000;" x="96.788099" xlink:href="#m19f9ba98ec" y="130.176"/>
     <use style="stroke:#000000;" x="100.067438" xlink:href="#m19f9ba98ec" y="130.176"/>
     <use style="stroke:#000000;" x="103.346777" xlink:href="#m19f9ba98ec" y="130.176"/>
     <use style="stroke:#000000;" x="106.626116" xlink:href="#m19f9ba98ec" y="130.176"/>
     <use style="stroke:#000000;" x="109.905455" xlink:href="#m19f9ba98ec" y="130.176"/>
     <use style="stroke:#000000;" x="113.184793" xlink:href="#m19f9ba98ec" y="130.176"/>
     <use style="stroke:#000000;" x="116.464132" xlink:href="#m19f9ba98ec" y="130.176"/>
     <use style="stroke:#000000;" x="119.743471" xlink:href="#m19f9ba98ec" y="130.176"/>
     <use style="stroke:#000000;" x="123.02281" xlink:href="#m19f9ba98ec" y="130.176"/>
     <use style="stroke:#000000;" x="126.302149" xlink:href="#m19f9ba98ec" y="130.176"/>
     <use style="stroke:#000000;" x="129.581488" xlink:href="#m19f9ba98ec" y="130.176"/>
     <use style="stroke:#000000;" x="132.860826" xlink:href="#m19f9ba98ec" y="130.176"/>
     <use style="stroke:#000000;" x="136.140165" xlink:href="#m19f9ba98ec" y="130.176"/>
     <use style="stroke:#000000;" x="139.419504" xlink:href="#m19f9ba98ec" y="130.176"/>
     <use style="stroke:#000000;" x="142.698843" xlink:href="#m19f9ba98ec" y="130.176"/>
     <use style="stroke:#000000;" x="145.978182" xlink:href="#m19f9ba98ec" y="130.176"/>
     <use style="stroke:#000000;" x="149.257521" xlink:href="#m19f9ba98ec" y="130.176"/>
     <use style="stroke:#000000;" x="152.53686" xlink:href="#m19f9ba98ec" y="130.176"/>
     <use style="stroke:#000000;" x="155.816198" xlink:href="#m19f9ba98ec" y="130.176"/>
     <use style="stroke:#000000;" x="159.095537" xlink:href="#m19f9ba98ec" y="130.176"/>
     <use style="stroke:#000000;" x="162.374876" xlink:href="#m19f9ba98ec" y="130.176"/>
     <use style="stroke:#000000;" x="165.654215" xlink:href="#m19f9ba98ec" y="130.176"/>
     <use style="stroke:#000000;" x="168.933554" xlink:href="#m19f9ba98ec" y="130.176"/>
     <use style="stroke:#000000;" x="172.212893" xlink:href="#m19f9ba98ec" y="130.176"/>
     <use style="stroke:#000000;" x="175.492231" xlink:href="#m19f9ba98ec" y="130.176"/>
     <use style="stroke:#000000;" x="178.77157" xlink:href="#m19f9ba98ec" y="130.176"/>
     <use style="stroke:#000000;" x="182.050909" xlink:href="#m19f9ba98ec" y="130.176"/>
     <use style="stroke:#000000;" x="185.330248" xlink:href="#m19f9ba98ec" y="130.176"/>
     <use style="stroke:#000000;" x="188.609587" xlink:href="#m19f9ba98ec" y="130.176"/>
     <use style="stroke:#000000;" x="191.888926" xlink:href="#m19f9ba98ec" y="130.176"/>
     <use style="stroke:#000000;" x="195.168264" xlink:href="#m19f9ba98ec" y="130.176"/>
     <use style="stroke:#000000;" x="198.447603" xlink:href="#m19f9ba98ec" y="130.176"/>
     <use style="stroke:#000000;" x="201.726942" xlink:href="#m19f9ba98ec" y="130.176"/>
     <use style="stroke:#000000;" x="205.006281" xlink:href="#m19f9ba98ec" y="130.176"/>
     <use style="stroke:#000000;" x="208.28562" xlink:href="#m19f9ba98ec" y="130.176"/>
     <use style="stroke:#000000;" x="211.564959" xlink:href="#m19f9ba98ec" y="130.176"/>
     <use style="stroke:#000000;" x="214.844298" xlink:href="#m19f9ba98ec" y="130.176"/>
     <use style="stroke:#000000;" x="218.123636" xlink:href="#m19f9ba98ec" y="130.176"/>
     <use style="stroke:#000000;" x="221.402975" xlink:href="#m19f9ba98ec" y="130.176"/>
     <use style="stroke:#000000;" x="224.682314" xlink:href="#m19f9ba98ec" y="130.176"/>
     <use style="stroke:#000000;" x="227.961653" xlink:href="#m19f9ba98ec" y="130.176"/>
     <use style="stroke:#000000;" x="231.240992" xlink:href="#m19f9ba98ec" y="130.176"/>
     <use style="stroke:#000000;" x="234.520331" xlink:href="#m19f9ba98ec" y="130.176"/>
     <use style="stroke:#000000;" x="237.799669" xlink:href="#m19f9ba98ec" y="130.176"/>
     <use style="stroke:#000000;" x="241.079008" xlink:href="#m19f9ba98ec" y="130.176"/>
     <use style="stroke:#000000;" x="244.358347" xlink:href="#m19f9ba98ec" y="130.176"/>
     <use style="stroke:#000000;" x="247.637686" xlink:href="#m19f9ba98ec" y="130.176"/>
     <use style="stroke:#000000;" x="250.917025" xlink:href="#m19f9ba98ec" y="130.176"/>
     <use style="stroke:#000000;" x="254.196364" xlink:href="#m19f9ba98ec" y="130.176"/>
     <use style="stroke:#000000;" x="257.475702" xlink:href="#m19f9ba98ec" y="130.176"/>
     <use style="stroke:#000000;" x="260.755041" xlink:href="#m19f9ba98ec" y="130.176"/>
     <use style="stroke:#000000;" x="264.03438" xlink:href="#m19f9ba98ec" y="130.176"/>
     <use style="stroke:#000000;" x="267.313719" xlink:href="#m19f9ba98ec" y="130.176"/>
     <use style="stroke:#000000;" x="270.593058" xlink:href="#m19f9ba98ec" y="130.176"/>
     <use style="stroke:#000000;" x="273.872397" xlink:href="#m19f9ba98ec" y="130.176"/>
     <use style="stroke:#000000;" x="277.151736" xlink:href="#m19f9ba98ec" y="130.176"/>
     <use style="stroke:#000000;" x="280.431074" xlink:href="#m19f9ba98ec" y="130.176"/>
     <use style="stroke:#000000;" x="283.710413" xlink:href="#m19f9ba98ec" y="130.176"/>
     <use style="stroke:#000000;" x="286.989752" xlink:href="#m19f9ba98ec" y="130.176"/>
     <use style="stroke:#000000;" x="290.269091" xlink:href="#m19f9ba98ec" y="130.176"/>
     <use style="stroke:#000000;" x="293.54843" xlink:href="#m19f9ba98ec" y="130.176"/>
     <use style="stroke:#000000;" x="296.827769" xlink:href="#m19f9ba98ec" y="130.176"/>
     <use style="stroke:#000000;" x="300.107107" xlink:href="#m19f9ba98ec" y="130.176"/>
     <use style="stroke:#000000;" x="303.386446" xlink:href="#m19f9ba98ec" y="130.176"/>
     <use style="stroke:#000000;" x="306.665785" xlink:href="#m19f9ba98ec" y="130.176"/>
     <use style="stroke:#000000;" x="309.945124" xlink:href="#m19f9ba98ec" y="130.176"/>
     <use style="stroke:#000000;" x="313.224463" xlink:href="#m19f9ba98ec" y="130.176"/>
     <use style="stroke:#000000;" x="316.503802" xlink:href="#m19f9ba98ec" y="130.176"/>
     <use style="stroke:#000000;" x="319.78314" xlink:href="#m19f9ba98ec" y="130.176"/>
     <use style="stroke:#000000;" x="323.062479" xlink:href="#m19f9ba98ec" y="130.176"/>
     <use style="stroke:#000000;" x="326.341818" xlink:href="#m19f9ba98ec" y="130.176"/>
     <use style="stroke:#000000;" x="329.621157" xlink:href="#m19f9ba98ec" y="130.176"/>
     <use style="stroke:#000000;" x="332.900496" xlink:href="#m19f9ba98ec" y="130.176"/>
     <use style="stroke:#000000;" x="336.179835" xlink:href="#m19f9ba98ec" y="130.176"/>
     <use style="stroke:#000000;" x="339.459174" xlink:href="#m19f9ba98ec" y="130.176"/>
     <use style="stroke:#000000;" x="342.738512" xlink:href="#m19f9ba98ec" y="130.176"/>
     <use style="stroke:#000000;" x="346.017851" xlink:href="#m19f9ba98ec" y="130.176"/>
     <use style="stroke:#000000;" x="349.29719" xlink:href="#m19f9ba98ec" y="130.176"/>
     <use style="stroke:#000000;" x="352.576529" xlink:href="#m19f9ba98ec" y="130.176"/>
     <use style="stroke:#000000;" x="355.855868" xlink:href="#m19f9ba98ec" y="130.176"/>
     <use style="stroke:#000000;" x="359.135207" xlink:href="#m19f9ba98ec" y="130.176"/>
     <use style="stroke:#000000;" x="362.414545" xlink:href="#m19f9ba98ec" y="130.176"/>
     <use style="stroke:#000000;" x="365.693884" xlink:href="#m19f9ba98ec" y="130.176"/>
     <use style="stroke:#000000;" x="368.973223" xlink:href="#m19f9ba98ec" y="130.176"/>
     <use style="stroke:#000000;" x="372.252562" xlink:href="#m19f9ba98ec" y="130.176"/>
     <use style="stroke:#000000;" x="375.531901" xlink:href="#m19f9ba98ec" y="130.176"/>
     <use style="stroke:#000000;" x="378.81124" xlink:href="#m19f9ba98ec" y="130.176"/>
     <use style="stroke:#000000;" x="382.090579" xlink:href="#m19f9ba98ec" y="130.176"/>
     <use style="stroke:#000000;" x="385.369917" xlink:href="#m19f9ba98ec" y="130.176"/>
     <use style="stroke:#000000;" x="388.649256" xlink:href="#m19f9ba98ec" y="130.176"/>
     <use style="stroke:#000000;" x="391.928595" xlink:href="#m19f9ba98ec" y="130.176"/>
     <use style="stroke:#000000;" x="395.207934" xlink:href="#m19f9ba98ec" y="236.6208"/>
     <use style="stroke:#000000;" x="398.487273" xlink:href="#m19f9ba98ec" y="275.65056"/>
    </g>
   </g>
   <g id="line2d_17">
    <path clip-path="url(#p234199d4a6)" d="M 73.832727 139.527143 
L 77.112066 144.617853 
L 80.391405 139.596856 
L 83.670744 136.430396 
L 86.950083 136.728224 
L 90.229421 138.309271 
L 93.50876 141.29157 
L 96.788099 138.906319 
L 100.067438 138.325932 
L 103.346777 138.29413 
L 106.626116 137.08693 
L 109.905455 140.1579 
L 113.184793 140.488582 
L 116.464132 136.446568 
L 119.743471 141.300101 
L 123.02281 139.977574 
L 126.302149 137.974919 
L 129.581488 142.828223 
L 132.860826 138.041552 
L 136.140165 136.649617 
L 139.419504 137.322649 
L 142.698843 139.337875 
L 145.978182 135.466425 
L 149.257521 145.940354 
L 152.53686 139.826238 
L 155.816198 141.726374 
L 159.095537 143.401115 
L 162.374876 134.678505 
L 165.654215 139.484152 
L 168.933554 141.085374 
L 172.212893 135.297578 
L 175.492231 137.021642 
L 178.77157 142.669539 
L 182.050909 137.616414 
L 185.330248 135.599054 
L 188.609587 139.64232 
L 191.888926 139.062142 
L 195.168264 137.906557 
L 198.447603 141.01545 
L 201.726942 138.163869 
L 205.006281 139.711008 
L 208.28562 142.135444 
L 211.564959 144.124868 
L 214.844298 132.927603 
L 218.123636 142.881944 
L 221.402975 137.844611 
L 224.682314 137.987142 
L 227.961653 138.449111 
L 231.240992 140.726551 
L 234.520331 137.99136 
L 237.799669 139.653566 
L 241.079008 136.627823 
L 244.358347 141.498597 
L 247.637686 136.641703 
L 250.917025 138.286926 
L 254.196364 139.679844 
L 257.475702 138.57419 
L 260.755041 143.18243 
L 264.03438 139.112194 
L 267.313719 139.129999 
L 270.593058 141.54397 
L 273.872397 135.46991 
L 277.151736 142.276736 
L 280.431074 135.525634 
L 283.710413 140.354762 
L 286.989752 144.277908 
L 290.269091 145.221881 
L 293.54843 140.465047 
L 296.827769 136.806052 
L 300.107107 135.226075 
L 303.386446 138.164699 
L 306.665785 134.395994 
L 309.945124 142.913186 
L 313.224463 144.736502 
L 316.503802 138.989685 
L 319.78314 142.570511 
L 323.062479 145.660427 
L 326.341818 141.322549 
L 329.621157 138.045066 
L 332.900496 138.446893 
L 336.179835 141.287981 
L 339.459174 140.395528 
L 342.738512 144.324348 
L 346.017851 138.86106 
L 349.29719 136.699568 
L 352.576529 140.441103 
L 355.855868 139.503042 
L 359.135207 146.951816 
L 362.414545 141.357566 
L 365.693884 142.621459 
L 368.973223 142.012276 
L 372.252562 138.733465 
L 375.531901 138.146937 
L 378.81124 135.104278 
L 382.090579 143.126397 
L 385.369917 140.77343 
L 388.649256 135.415499 
L 391.928595 138.697046 
L 395.207934 237.636637 
L 398.487273 276.70117 
" style="fill:none;stroke:#008000;stroke-linecap:square;stroke-width:1.5;"/>
    <defs>
     <path d="M -3 0 
L 0 4.5 
L 3 0 
" id="md60258bcd1" style="stroke:#008000;stroke-linejoin:miter;"/>
    </defs>
    <g clip-path="url(#p234199d4a6)">
     <use style="fill:#008000;stroke:#008000;stroke-linejoin:miter;" x="73.832727" xlink:href="#md60258bcd1" y="139.527143"/>
     <use style="fill:#008000;stroke:#008000;stroke-linejoin:miter;" x="77.112066" xlink:href="#md60258bcd1" y="144.617853"/>
     <use style="fill:#008000;stroke:#008000;stroke-linejoin:miter;" x="80.391405" xlink:href="#md60258bcd1" y="139.596856"/>
     <use style="fill:#008000;stroke:#008000;stroke-linejoin:miter;" x="83.670744" xlink:href="#md60258bcd1" y="136.430396"/>
     <use style="fill:#008000;stroke:#008000;stroke-linejoin:miter;" x="86.950083" xlink:href="#md60258bcd1" y="136.728224"/>
     <use style="fill:#008000;stroke:#008000;stroke-linejoin:miter;" x="90.229421" xlink:href="#md60258bcd1" y="138.309271"/>
     <use style="fill:#008000;stroke:#008000;stroke-linejoin:miter;" x="93.50876" xlink:href="#md60258bcd1" y="141.29157"/>
     <use style="fill:#008000;stroke:#008000;stroke-linejoin:miter;" x="96.788099" xlink:href="#md60258bcd1" y="138.906319"/>
     <use style="fill:#008000;stroke:#008000;stroke-linejoin:miter;" x="100.067438" xlink:href="#md60258bcd1" y="138.325932"/>
     <use style="fill:#008000;stroke:#008000;stroke-linejoin:miter;" x="103.346777" xlink:href="#md60258bcd1" y="138.29413"/>
     <use style="fill:#008000;stroke:#008000;stroke-linejoin:miter;" x="106.626116" xlink:href="#md60258bcd1" y="137.08693"/>
     <use style="fill:#008000;stroke:#008000;stroke-linejoin:miter;" x="109.905455" xlink:href="#md60258bcd1" y="140.1579"/>
     <use style="fill:#008000;stroke:#008000;stroke-linejoin:miter;" x="113.184793" xlink:href="#md60258bcd1" y="140.488582"/>
     <use style="fill:#008000;stroke:#008000;stroke-linejoin:miter;" x="116.464132" xlink:href="#md60258bcd1" y="136.446568"/>
     <use style="fill:#008000;stroke:#008000;stroke-linejoin:miter;" x="119.743471" xlink:href="#md60258bcd1" y="141.300101"/>
     <use style="fill:#008000;stroke:#008000;stroke-linejoin:miter;" x="123.02281" xlink:href="#md60258bcd1" y="139.977574"/>
     <use style="fill:#008000;stroke:#008000;stroke-linejoin:miter;" x="126.302149" xlink:href="#md60258bcd1" y="137.974919"/>
     <use style="fill:#008000;stroke:#008000;stroke-linejoin:miter;" x="129.581488" xlink:href="#md60258bcd1" y="142.828223"/>
     <use style="fill:#008000;stroke:#008000;stroke-linejoin:miter;" x="132.860826" xlink:href="#md60258bcd1" y="138.041552"/>
     <use style="fill:#008000;stroke:#008000;stroke-linejoin:miter;" x="136.140165" xlink:href="#md60258bcd1" y="136.649617"/>
     <use style="fill:#008000;stroke:#008000;stroke-linejoin:miter;" x="139.419504" xlink:href="#md60258bcd1" y="137.322649"/>
     <use style="fill:#008000;stroke:#008000;stroke-linejoin:miter;" x="142.698843" xlink:href="#md60258bcd1" y="139.337875"/>
     <use style="fill:#008000;stroke:#008000;stroke-linejoin:miter;" x="145.978182" xlink:href="#md60258bcd1" y="135.466425"/>
     <use style="fill:#008000;stroke:#008000;stroke-linejoin:miter;" x="149.257521" xlink:href="#md60258bcd1" y="145.940354"/>
     <use style="fill:#008000;stroke:#008000;stroke-linejoin:miter;" x="152.53686" xlink:href="#md60258bcd1" y="139.826238"/>
     <use style="fill:#008000;stroke:#008000;stroke-linejoin:miter;" x="155.816198" xlink:href="#md60258bcd1" y="141.726374"/>
     <use style="fill:#008000;stroke:#008000;stroke-linejoin:miter;" x="159.095537" xlink:href="#md60258bcd1" y="143.401115"/>
     <use style="fill:#008000;stroke:#008000;stroke-linejoin:miter;" x="162.374876" xlink:href="#md60258bcd1" y="134.678505"/>
     <use style="fill:#008000;stroke:#008000;stroke-linejoin:miter;" x="165.654215" xlink:href="#md60258bcd1" y="139.484152"/>
     <use style="fill:#008000;stroke:#008000;stroke-linejoin:miter;" x="168.933554" xlink:href="#md60258bcd1" y="141.085374"/>
     <use style="fill:#008000;stroke:#008000;stroke-linejoin:miter;" x="172.212893" xlink:href="#md60258bcd1" y="135.297578"/>
     <use style="fill:#008000;stroke:#008000;stroke-linejoin:miter;" x="175.492231" xlink:href="#md60258bcd1" y="137.021642"/>
     <use style="fill:#008000;stroke:#008000;stroke-linejoin:miter;" x="178.77157" xlink:href="#md60258bcd1" y="142.669539"/>
     <use style="fill:#008000;stroke:#008000;stroke-linejoin:miter;" x="182.050909" xlink:href="#md60258bcd1" y="137.616414"/>
     <use style="fill:#008000;stroke:#008000;stroke-linejoin:miter;" x="185.330248" xlink:href="#md60258bcd1" y="135.599054"/>
     <use style="fill:#008000;stroke:#008000;stroke-linejoin:miter;" x="188.609587" xlink:href="#md60258bcd1" y="139.64232"/>
     <use style="fill:#008000;stroke:#008000;stroke-linejoin:miter;" x="191.888926" xlink:href="#md60258bcd1" y="139.062142"/>
     <use style="fill:#008000;stroke:#008000;stroke-linejoin:miter;" x="195.168264" xlink:href="#md60258bcd1" y="137.906557"/>
     <use style="fill:#008000;stroke:#008000;stroke-linejoin:miter;" x="198.447603" xlink:href="#md60258bcd1" y="141.01545"/>
     <use style="fill:#008000;stroke:#008000;stroke-linejoin:miter;" x="201.726942" xlink:href="#md60258bcd1" y="138.163869"/>
     <use style="fill:#008000;stroke:#008000;stroke-linejoin:miter;" x="205.006281" xlink:href="#md60258bcd1" y="139.711008"/>
     <use style="fill:#008000;stroke:#008000;stroke-linejoin:miter;" x="208.28562" xlink:href="#md60258bcd1" y="142.135444"/>
     <use style="fill:#008000;stroke:#008000;stroke-linejoin:miter;" x="211.564959" xlink:href="#md60258bcd1" y="144.124868"/>
     <use style="fill:#008000;stroke:#008000;stroke-linejoin:miter;" x="214.844298" xlink:href="#md60258bcd1" y="132.927603"/>
     <use style="fill:#008000;stroke:#008000;stroke-linejoin:miter;" x="218.123636" xlink:href="#md60258bcd1" y="142.881944"/>
     <use style="fill:#008000;stroke:#008000;stroke-linejoin:miter;" x="221.402975" xlink:href="#md60258bcd1" y="137.844611"/>
     <use style="fill:#008000;stroke:#008000;stroke-linejoin:miter;" x="224.682314" xlink:href="#md60258bcd1" y="137.987142"/>
     <use style="fill:#008000;stroke:#008000;stroke-linejoin:miter;" x="227.961653" xlink:href="#md60258bcd1" y="138.449111"/>
     <use style="fill:#008000;stroke:#008000;stroke-linejoin:miter;" x="231.240992" xlink:href="#md60258bcd1" y="140.726551"/>
     <use style="fill:#008000;stroke:#008000;stroke-linejoin:miter;" x="234.520331" xlink:href="#md60258bcd1" y="137.99136"/>
     <use style="fill:#008000;stroke:#008000;stroke-linejoin:miter;" x="237.799669" xlink:href="#md60258bcd1" y="139.653566"/>
     <use style="fill:#008000;stroke:#008000;stroke-linejoin:miter;" x="241.079008" xlink:href="#md60258bcd1" y="136.627823"/>
     <use style="fill:#008000;stroke:#008000;stroke-linejoin:miter;" x="244.358347" xlink:href="#md60258bcd1" y="141.498597"/>
     <use style="fill:#008000;stroke:#008000;stroke-linejoin:miter;" x="247.637686" xlink:href="#md60258bcd1" y="136.641703"/>
     <use style="fill:#008000;stroke:#008000;stroke-linejoin:miter;" x="250.917025" xlink:href="#md60258bcd1" y="138.286926"/>
     <use style="fill:#008000;stroke:#008000;stroke-linejoin:miter;" x="254.196364" xlink:href="#md60258bcd1" y="139.679844"/>
     <use style="fill:#008000;stroke:#008000;stroke-linejoin:miter;" x="257.475702" xlink:href="#md60258bcd1" y="138.57419"/>
     <use style="fill:#008000;stroke:#008000;stroke-linejoin:miter;" x="260.755041" xlink:href="#md60258bcd1" y="143.18243"/>
     <use style="fill:#008000;stroke:#008000;stroke-linejoin:miter;" x="264.03438" xlink:href="#md60258bcd1" y="139.112194"/>
     <use style="fill:#008000;stroke:#008000;stroke-linejoin:miter;" x="267.313719" xlink:href="#md60258bcd1" y="139.129999"/>
     <use style="fill:#008000;stroke:#008000;stroke-linejoin:miter;" x="270.593058" xlink:href="#md60258bcd1" y="141.54397"/>
     <use style="fill:#008000;stroke:#008000;stroke-linejoin:miter;" x="273.872397" xlink:href="#md60258bcd1" y="135.46991"/>
     <use style="fill:#008000;stroke:#008000;stroke-linejoin:miter;" x="277.151736" xlink:href="#md60258bcd1" y="142.276736"/>
     <use style="fill:#008000;stroke:#008000;stroke-linejoin:miter;" x="280.431074" xlink:href="#md60258bcd1" y="135.525634"/>
     <use style="fill:#008000;stroke:#008000;stroke-linejoin:miter;" x="283.710413" xlink:href="#md60258bcd1" y="140.354762"/>
     <use style="fill:#008000;stroke:#008000;stroke-linejoin:miter;" x="286.989752" xlink:href="#md60258bcd1" y="144.277908"/>
     <use style="fill:#008000;stroke:#008000;stroke-linejoin:miter;" x="290.269091" xlink:href="#md60258bcd1" y="145.221881"/>
     <use style="fill:#008000;stroke:#008000;stroke-linejoin:miter;" x="293.54843" xlink:href="#md60258bcd1" y="140.465047"/>
     <use style="fill:#008000;stroke:#008000;stroke-linejoin:miter;" x="296.827769" xlink:href="#md60258bcd1" y="136.806052"/>
     <use style="fill:#008000;stroke:#008000;stroke-linejoin:miter;" x="300.107107" xlink:href="#md60258bcd1" y="135.226075"/>
     <use style="fill:#008000;stroke:#008000;stroke-linejoin:miter;" x="303.386446" xlink:href="#md60258bcd1" y="138.164699"/>
     <use style="fill:#008000;stroke:#008000;stroke-linejoin:miter;" x="306.665785" xlink:href="#md60258bcd1" y="134.395994"/>
     <use style="fill:#008000;stroke:#008000;stroke-linejoin:miter;" x="309.945124" xlink:href="#md60258bcd1" y="142.913186"/>
     <use style="fill:#008000;stroke:#008000;stroke-linejoin:miter;" x="313.224463" xlink:href="#md60258bcd1" y="144.736502"/>
     <use style="fill:#008000;stroke:#008000;stroke-linejoin:miter;" x="316.503802" xlink:href="#md60258bcd1" y="138.989685"/>
     <use style="fill:#008000;stroke:#008000;stroke-linejoin:miter;" x="319.78314" xlink:href="#md60258bcd1" y="142.570511"/>
     <use style="fill:#008000;stroke:#008000;stroke-linejoin:miter;" x="323.062479" xlink:href="#md60258bcd1" y="145.660427"/>
     <use style="fill:#008000;stroke:#008000;stroke-linejoin:miter;" x="326.341818" xlink:href="#md60258bcd1" y="141.322549"/>
     <use style="fill:#008000;stroke:#008000;stroke-linejoin:miter;" x="329.621157" xlink:href="#md60258bcd1" y="138.045066"/>
     <use style="fill:#008000;stroke:#008000;stroke-linejoin:miter;" x="332.900496" xlink:href="#md60258bcd1" y="138.446893"/>
     <use style="fill:#008000;stroke:#008000;stroke-linejoin:miter;" x="336.179835" xlink:href="#md60258bcd1" y="141.287981"/>
     <use style="fill:#008000;stroke:#008000;stroke-linejoin:miter;" x="339.459174" xlink:href="#md60258bcd1" y="140.395528"/>
     <use style="fill:#008000;stroke:#008000;stroke-linejoin:miter;" x="342.738512" xlink:href="#md60258bcd1" y="144.324348"/>
     <use style="fill:#008000;stroke:#008000;stroke-linejoin:miter;" x="346.017851" xlink:href="#md60258bcd1" y="138.86106"/>
     <use style="fill:#008000;stroke:#008000;stroke-linejoin:miter;" x="349.29719" xlink:href="#md60258bcd1" y="136.699568"/>
     <use style="fill:#008000;stroke:#008000;stroke-linejoin:miter;" x="352.576529" xlink:href="#md60258bcd1" y="140.441103"/>
     <use style="fill:#008000;stroke:#008000;stroke-linejoin:miter;" x="355.855868" xlink:href="#md60258bcd1" y="139.503042"/>
     <use style="fill:#008000;stroke:#008000;stroke-linejoin:miter;" x="359.135207" xlink:href="#md60258bcd1" y="146.951816"/>
     <use style="fill:#008000;stroke:#008000;stroke-linejoin:miter;" x="362.414545" xlink:href="#md60258bcd1" y="141.357566"/>
     <use style="fill:#008000;stroke:#008000;stroke-linejoin:miter;" x="365.693884" xlink:href="#md60258bcd1" y="142.621459"/>
     <use style="fill:#008000;stroke:#008000;stroke-linejoin:miter;" x="368.973223" xlink:href="#md60258bcd1" y="142.012276"/>
     <use style="fill:#008000;stroke:#008000;stroke-linejoin:miter;" x="372.252562" xlink:href="#md60258bcd1" y="138.733465"/>
     <use style="fill:#008000;stroke:#008000;stroke-linejoin:miter;" x="375.531901" xlink:href="#md60258bcd1" y="138.146937"/>
     <use style="fill:#008000;stroke:#008000;stroke-linejoin:miter;" x="378.81124" xlink:href="#md60258bcd1" y="135.104278"/>
     <use style="fill:#008000;stroke:#008000;stroke-linejoin:miter;" x="382.090579" xlink:href="#md60258bcd1" y="143.126397"/>
     <use style="fill:#008000;stroke:#008000;stroke-linejoin:miter;" x="385.369917" xlink:href="#md60258bcd1" y="140.77343"/>
     <use style="fill:#008000;stroke:#008000;stroke-linejoin:miter;" x="388.649256" xlink:href="#md60258bcd1" y="135.415499"/>
     <use style="fill:#008000;stroke:#008000;stroke-linejoin:miter;" x="391.928595" xlink:href="#md60258bcd1" y="138.697046"/>
     <use style="fill:#008000;stroke:#008000;stroke-linejoin:miter;" x="395.207934" xlink:href="#md60258bcd1" y="237.636637"/>
     <use style="fill:#008000;stroke:#008000;stroke-linejoin:miter;" x="398.487273" xlink:href="#md60258bcd1" y="276.70117"/>
    </g>
   </g>
   <g id="line2d_18">
    <path clip-path="url(#p234199d4a6)" d="M 73.832727 121.216085 
L 77.112066 121.206802 
L 80.391405 121.221306 
L 83.670744 121.203697 
L 86.950083 121.203324 
L 90.229421 121.216792 
L 93.50876 121.205387 
L 96.788099 121.204767 
L 100.067438 121.210754 
L 103.346777 121.204512 
L 106.626116 121.202677 
L 109.905455 121.216796 
L 113.184793 121.224036 
L 116.464132 121.208842 
L 119.743471 121.216639 
L 123.02281 121.225075 
L 126.302149 121.207178 
L 129.581488 121.234778 
L 132.860826 121.20486 
L 136.140165 121.207046 
L 139.419504 121.206598 
L 142.698843 121.205879 
L 145.978182 121.206649 
L 149.257521 121.228964 
L 152.53686 121.203521 
L 155.816198 121.214005 
L 159.095537 121.218821 
L 162.374876 121.207438 
L 165.654215 121.204691 
L 168.933554 121.213685 
L 172.212893 121.211914 
L 175.492231 121.208643 
L 178.77157 121.221648 
L 182.050909 121.205422 
L 185.330248 121.207482 
L 188.609587 121.204139 
L 191.888926 121.202639 
L 195.168264 121.203718 
L 198.447603 121.209517 
L 201.726942 121.203091 
L 205.006281 121.204101 
L 208.28562 121.217538 
L 211.564959 121.208338 
L 214.844298 121.204731 
L 218.123636 121.209847 
L 221.402975 121.207048 
L 224.682314 121.205442 
L 227.961653 121.2185 
L 231.240992 121.203422 
L 234.520331 121.203787 
L 237.799669 121.226058 
L 241.079008 121.211383 
L 244.358347 121.212732 
L 247.637686 121.218614 
L 250.917025 121.206541 
L 254.196364 121.204449 
L 257.475702 121.203906 
L 260.755041 121.216997 
L 264.03438 121.205652 
L 267.313719 121.210315 
L 270.593058 121.206352 
L 273.872397 121.209506 
L 277.151736 121.212711 
L 280.431074 121.204572 
L 283.710413 121.208532 
L 286.989752 121.204194 
L 290.269091 121.203884 
L 293.54843 121.208378 
L 296.827769 121.216225 
L 300.107107 121.208692 
L 303.386446 121.20734 
L 306.665785 121.206902 
L 309.945124 121.203134 
L 313.224463 121.225779 
L 316.503802 121.205599 
L 319.78314 121.202676 
L 323.062479 121.209618 
L 326.341818 121.209237 
L 329.621157 121.204532 
L 332.900496 121.204025 
L 336.179835 121.208387 
L 339.459174 121.207205 
L 342.738512 121.222053 
L 346.017851 121.206236 
L 349.29719 121.209456 
L 352.576529 121.204941 
L 355.855868 121.206466 
L 359.135207 121.206299 
L 362.414545 121.204957 
L 365.693884 121.203259 
L 368.973223 121.204914 
L 372.252562 121.202844 
L 375.531901 121.204995 
L 378.81124 121.205489 
L 382.090579 121.206256 
L 385.369917 121.20405 
L 388.649256 121.209388 
L 391.928595 121.211855 
L 395.207934 235.799318 
L 398.487273 274.854047 
" style="fill:none;stroke:#ff0000;stroke-linecap:square;stroke-width:1.5;"/>
    <defs>
     <path d="M 3 0 
L 0 -4.5 
L -3 -0 
" id="m24119c892a" style="stroke:#ff0000;stroke-linejoin:miter;"/>
    </defs>
    <g clip-path="url(#p234199d4a6)">
     <use style="fill:#ff0000;stroke:#ff0000;stroke-linejoin:miter;" x="73.832727" xlink:href="#m24119c892a" y="121.216085"/>
     <use style="fill:#ff0000;stroke:#ff0000;stroke-linejoin:miter;" x="77.112066" xlink:href="#m24119c892a" y="121.206802"/>
     <use style="fill:#ff0000;stroke:#ff0000;stroke-linejoin:miter;" x="80.391405" xlink:href="#m24119c892a" y="121.221306"/>
     <use style="fill:#ff0000;stroke:#ff0000;stroke-linejoin:miter;" x="83.670744" xlink:href="#m24119c892a" y="121.203697"/>
     <use style="fill:#ff0000;stroke:#ff0000;stroke-linejoin:miter;" x="86.950083" xlink:href="#m24119c892a" y="121.203324"/>
     <use style="fill:#ff0000;stroke:#ff0000;stroke-linejoin:miter;" x="90.229421" xlink:href="#m24119c892a" y="121.216792"/>
     <use style="fill:#ff0000;stroke:#ff0000;stroke-linejoin:miter;" x="93.50876" xlink:href="#m24119c892a" y="121.205387"/>
     <use style="fill:#ff0000;stroke:#ff0000;stroke-linejoin:miter;" x="96.788099" xlink:href="#m24119c892a" y="121.204767"/>
     <use style="fill:#ff0000;stroke:#ff0000;stroke-linejoin:miter;" x="100.067438" xlink:href="#m24119c892a" y="121.210754"/>
     <use style="fill:#ff0000;stroke:#ff0000;stroke-linejoin:miter;" x="103.346777" xlink:href="#m24119c892a" y="121.204512"/>
     <use style="fill:#ff0000;stroke:#ff0000;stroke-linejoin:miter;" x="106.626116" xlink:href="#m24119c892a" y="121.202677"/>
     <use style="fill:#ff0000;stroke:#ff0000;stroke-linejoin:miter;" x="109.905455" xlink:href="#m24119c892a" y="121.216796"/>
     <use style="fill:#ff0000;stroke:#ff0000;stroke-linejoin:miter;" x="113.184793" xlink:href="#m24119c892a" y="121.224036"/>
     <use style="fill:#ff0000;stroke:#ff0000;stroke-linejoin:miter;" x="116.464132" xlink:href="#m24119c892a" y="121.208842"/>
     <use style="fill:#ff0000;stroke:#ff0000;stroke-linejoin:miter;" x="119.743471" xlink:href="#m24119c892a" y="121.216639"/>
     <use style="fill:#ff0000;stroke:#ff0000;stroke-linejoin:miter;" x="123.02281" xlink:href="#m24119c892a" y="121.225075"/>
     <use style="fill:#ff0000;stroke:#ff0000;stroke-linejoin:miter;" x="126.302149" xlink:href="#m24119c892a" y="121.207178"/>
     <use style="fill:#ff0000;stroke:#ff0000;stroke-linejoin:miter;" x="129.581488" xlink:href="#m24119c892a" y="121.234778"/>
     <use style="fill:#ff0000;stroke:#ff0000;stroke-linejoin:miter;" x="132.860826" xlink:href="#m24119c892a" y="121.20486"/>
     <use style="fill:#ff0000;stroke:#ff0000;stroke-linejoin:miter;" x="136.140165" xlink:href="#m24119c892a" y="121.207046"/>
     <use style="fill:#ff0000;stroke:#ff0000;stroke-linejoin:miter;" x="139.419504" xlink:href="#m24119c892a" y="121.206598"/>
     <use style="fill:#ff0000;stroke:#ff0000;stroke-linejoin:miter;" x="142.698843" xlink:href="#m24119c892a" y="121.205879"/>
     <use style="fill:#ff0000;stroke:#ff0000;stroke-linejoin:miter;" x="145.978182" xlink:href="#m24119c892a" y="121.206649"/>
     <use style="fill:#ff0000;stroke:#ff0000;stroke-linejoin:miter;" x="149.257521" xlink:href="#m24119c892a" y="121.228964"/>
     <use style="fill:#ff0000;stroke:#ff0000;stroke-linejoin:miter;" x="152.53686" xlink:href="#m24119c892a" y="121.203521"/>
     <use style="fill:#ff0000;stroke:#ff0000;stroke-linejoin:miter;" x="155.816198" xlink:href="#m24119c892a" y="121.214005"/>
     <use style="fill:#ff0000;stroke:#ff0000;stroke-linejoin:miter;" x="159.095537" xlink:href="#m24119c892a" y="121.218821"/>
     <use style="fill:#ff0000;stroke:#ff0000;stroke-linejoin:miter;" x="162.374876" xlink:href="#m24119c892a" y="121.207438"/>
     <use style="fill:#ff0000;stroke:#ff0000;stroke-linejoin:miter;" x="165.654215" xlink:href="#m24119c892a" y="121.204691"/>
     <use style="fill:#ff0000;stroke:#ff0000;stroke-linejoin:miter;" x="168.933554" xlink:href="#m24119c892a" y="121.213685"/>
     <use style="fill:#ff0000;stroke:#ff0000;stroke-linejoin:miter;" x="172.212893" xlink:href="#m24119c892a" y="121.211914"/>
     <use style="fill:#ff0000;stroke:#ff0000;stroke-linejoin:miter;" x="175.492231" xlink:href="#m24119c892a" y="121.208643"/>
     <use style="fill:#ff0000;stroke:#ff0000;stroke-linejoin:miter;" x="178.77157" xlink:href="#m24119c892a" y="121.221648"/>
     <use style="fill:#ff0000;stroke:#ff0000;stroke-linejoin:miter;" x="182.050909" xlink:href="#m24119c892a" y="121.205422"/>
     <use style="fill:#ff0000;stroke:#ff0000;stroke-linejoin:miter;" x="185.330248" xlink:href="#m24119c892a" y="121.207482"/>
     <use style="fill:#ff0000;stroke:#ff0000;stroke-linejoin:miter;" x="188.609587" xlink:href="#m24119c892a" y="121.204139"/>
     <use style="fill:#ff0000;stroke:#ff0000;stroke-linejoin:miter;" x="191.888926" xlink:href="#m24119c892a" y="121.202639"/>
     <use style="fill:#ff0000;stroke:#ff0000;stroke-linejoin:miter;" x="195.168264" xlink:href="#m24119c892a" y="121.203718"/>
     <use style="fill:#ff0000;stroke:#ff0000;stroke-linejoin:miter;" x="198.447603" xlink:href="#m24119c892a" y="121.209517"/>
     <use style="fill:#ff0000;stroke:#ff0000;stroke-linejoin:miter;" x="201.726942" xlink:href="#m24119c892a" y="121.203091"/>
     <use style="fill:#ff0000;stroke:#ff0000;stroke-linejoin:miter;" x="205.006281" xlink:href="#m24119c892a" y="121.204101"/>
     <use style="fill:#ff0000;stroke:#ff0000;stroke-linejoin:miter;" x="208.28562" xlink:href="#m24119c892a" y="121.217538"/>
     <use style="fill:#ff0000;stroke:#ff0000;stroke-linejoin:miter;" x="211.564959" xlink:href="#m24119c892a" y="121.208338"/>
     <use style="fill:#ff0000;stroke:#ff0000;stroke-linejoin:miter;" x="214.844298" xlink:href="#m24119c892a" y="121.204731"/>
     <use style="fill:#ff0000;stroke:#ff0000;stroke-linejoin:miter;" x="218.123636" xlink:href="#m24119c892a" y="121.209847"/>
     <use style="fill:#ff0000;stroke:#ff0000;stroke-linejoin:miter;" x="221.402975" xlink:href="#m24119c892a" y="121.207048"/>
     <use style="fill:#ff0000;stroke:#ff0000;stroke-linejoin:miter;" x="224.682314" xlink:href="#m24119c892a" y="121.205442"/>
     <use style="fill:#ff0000;stroke:#ff0000;stroke-linejoin:miter;" x="227.961653" xlink:href="#m24119c892a" y="121.2185"/>
     <use style="fill:#ff0000;stroke:#ff0000;stroke-linejoin:miter;" x="231.240992" xlink:href="#m24119c892a" y="121.203422"/>
     <use style="fill:#ff0000;stroke:#ff0000;stroke-linejoin:miter;" x="234.520331" xlink:href="#m24119c892a" y="121.203787"/>
     <use style="fill:#ff0000;stroke:#ff0000;stroke-linejoin:miter;" x="237.799669" xlink:href="#m24119c892a" y="121.226058"/>
     <use style="fill:#ff0000;stroke:#ff0000;stroke-linejoin:miter;" x="241.079008" xlink:href="#m24119c892a" y="121.211383"/>
     <use style="fill:#ff0000;stroke:#ff0000;stroke-linejoin:miter;" x="244.358347" xlink:href="#m24119c892a" y="121.212732"/>
     <use style="fill:#ff0000;stroke:#ff0000;stroke-linejoin:miter;" x="247.637686" xlink:href="#m24119c892a" y="121.218614"/>
     <use style="fill:#ff0000;stroke:#ff0000;stroke-linejoin:miter;" x="250.917025" xlink:href="#m24119c892a" y="121.206541"/>
     <use style="fill:#ff0000;stroke:#ff0000;stroke-linejoin:miter;" x="254.196364" xlink:href="#m24119c892a" y="121.204449"/>
     <use style="fill:#ff0000;stroke:#ff0000;stroke-linejoin:miter;" x="257.475702" xlink:href="#m24119c892a" y="121.203906"/>
     <use style="fill:#ff0000;stroke:#ff0000;stroke-linejoin:miter;" x="260.755041" xlink:href="#m24119c892a" y="121.216997"/>
     <use style="fill:#ff0000;stroke:#ff0000;stroke-linejoin:miter;" x="264.03438" xlink:href="#m24119c892a" y="121.205652"/>
     <use style="fill:#ff0000;stroke:#ff0000;stroke-linejoin:miter;" x="267.313719" xlink:href="#m24119c892a" y="121.210315"/>
     <use style="fill:#ff0000;stroke:#ff0000;stroke-linejoin:miter;" x="270.593058" xlink:href="#m24119c892a" y="121.206352"/>
     <use style="fill:#ff0000;stroke:#ff0000;stroke-linejoin:miter;" x="273.872397" xlink:href="#m24119c892a" y="121.209506"/>
     <use style="fill:#ff0000;stroke:#ff0000;stroke-linejoin:miter;" x="277.151736" xlink:href="#m24119c892a" y="121.212711"/>
     <use style="fill:#ff0000;stroke:#ff0000;stroke-linejoin:miter;" x="280.431074" xlink:href="#m24119c892a" y="121.204572"/>
     <use style="fill:#ff0000;stroke:#ff0000;stroke-linejoin:miter;" x="283.710413" xlink:href="#m24119c892a" y="121.208532"/>
     <use style="fill:#ff0000;stroke:#ff0000;stroke-linejoin:miter;" x="286.989752" xlink:href="#m24119c892a" y="121.204194"/>
     <use style="fill:#ff0000;stroke:#ff0000;stroke-linejoin:miter;" x="290.269091" xlink:href="#m24119c892a" y="121.203884"/>
     <use style="fill:#ff0000;stroke:#ff0000;stroke-linejoin:miter;" x="293.54843" xlink:href="#m24119c892a" y="121.208378"/>
     <use style="fill:#ff0000;stroke:#ff0000;stroke-linejoin:miter;" x="296.827769" xlink:href="#m24119c892a" y="121.216225"/>
     <use style="fill:#ff0000;stroke:#ff0000;stroke-linejoin:miter;" x="300.107107" xlink:href="#m24119c892a" y="121.208692"/>
     <use style="fill:#ff0000;stroke:#ff0000;stroke-linejoin:miter;" x="303.386446" xlink:href="#m24119c892a" y="121.20734"/>
     <use style="fill:#ff0000;stroke:#ff0000;stroke-linejoin:miter;" x="306.665785" xlink:href="#m24119c892a" y="121.206902"/>
     <use style="fill:#ff0000;stroke:#ff0000;stroke-linejoin:miter;" x="309.945124" xlink:href="#m24119c892a" y="121.203134"/>
     <use style="fill:#ff0000;stroke:#ff0000;stroke-linejoin:miter;" x="313.224463" xlink:href="#m24119c892a" y="121.225779"/>
     <use style="fill:#ff0000;stroke:#ff0000;stroke-linejoin:miter;" x="316.503802" xlink:href="#m24119c892a" y="121.205599"/>
     <use style="fill:#ff0000;stroke:#ff0000;stroke-linejoin:miter;" x="319.78314" xlink:href="#m24119c892a" y="121.202676"/>
     <use style="fill:#ff0000;stroke:#ff0000;stroke-linejoin:miter;" x="323.062479" xlink:href="#m24119c892a" y="121.209618"/>
     <use style="fill:#ff0000;stroke:#ff0000;stroke-linejoin:miter;" x="326.341818" xlink:href="#m24119c892a" y="121.209237"/>
     <use style="fill:#ff0000;stroke:#ff0000;stroke-linejoin:miter;" x="329.621157" xlink:href="#m24119c892a" y="121.204532"/>
     <use style="fill:#ff0000;stroke:#ff0000;stroke-linejoin:miter;" x="332.900496" xlink:href="#m24119c892a" y="121.204025"/>
     <use style="fill:#ff0000;stroke:#ff0000;stroke-linejoin:miter;" x="336.179835" xlink:href="#m24119c892a" y="121.208387"/>
     <use style="fill:#ff0000;stroke:#ff0000;stroke-linejoin:miter;" x="339.459174" xlink:href="#m24119c892a" y="121.207205"/>
     <use style="fill:#ff0000;stroke:#ff0000;stroke-linejoin:miter;" x="342.738512" xlink:href="#m24119c892a" y="121.222053"/>
     <use style="fill:#ff0000;stroke:#ff0000;stroke-linejoin:miter;" x="346.017851" xlink:href="#m24119c892a" y="121.206236"/>
     <use style="fill:#ff0000;stroke:#ff0000;stroke-linejoin:miter;" x="349.29719" xlink:href="#m24119c892a" y="121.209456"/>
     <use style="fill:#ff0000;stroke:#ff0000;stroke-linejoin:miter;" x="352.576529" xlink:href="#m24119c892a" y="121.204941"/>
     <use style="fill:#ff0000;stroke:#ff0000;stroke-linejoin:miter;" x="355.855868" xlink:href="#m24119c892a" y="121.206466"/>
     <use style="fill:#ff0000;stroke:#ff0000;stroke-linejoin:miter;" x="359.135207" xlink:href="#m24119c892a" y="121.206299"/>
     <use style="fill:#ff0000;stroke:#ff0000;stroke-linejoin:miter;" x="362.414545" xlink:href="#m24119c892a" y="121.204957"/>
     <use style="fill:#ff0000;stroke:#ff0000;stroke-linejoin:miter;" x="365.693884" xlink:href="#m24119c892a" y="121.203259"/>
     <use style="fill:#ff0000;stroke:#ff0000;stroke-linejoin:miter;" x="368.973223" xlink:href="#m24119c892a" y="121.204914"/>
     <use style="fill:#ff0000;stroke:#ff0000;stroke-linejoin:miter;" x="372.252562" xlink:href="#m24119c892a" y="121.202844"/>
     <use style="fill:#ff0000;stroke:#ff0000;stroke-linejoin:miter;" x="375.531901" xlink:href="#m24119c892a" y="121.204995"/>
     <use style="fill:#ff0000;stroke:#ff0000;stroke-linejoin:miter;" x="378.81124" xlink:href="#m24119c892a" y="121.205489"/>
     <use style="fill:#ff0000;stroke:#ff0000;stroke-linejoin:miter;" x="382.090579" xlink:href="#m24119c892a" y="121.206256"/>
     <use style="fill:#ff0000;stroke:#ff0000;stroke-linejoin:miter;" x="385.369917" xlink:href="#m24119c892a" y="121.20405"/>
     <use style="fill:#ff0000;stroke:#ff0000;stroke-linejoin:miter;" x="388.649256" xlink:href="#m24119c892a" y="121.209388"/>
     <use style="fill:#ff0000;stroke:#ff0000;stroke-linejoin:miter;" x="391.928595" xlink:href="#m24119c892a" y="121.211855"/>
     <use style="fill:#ff0000;stroke:#ff0000;stroke-linejoin:miter;" x="395.207934" xlink:href="#m24119c892a" y="235.799318"/>
     <use style="fill:#ff0000;stroke:#ff0000;stroke-linejoin:miter;" x="398.487273" xlink:href="#m24119c892a" y="274.854047"/>
    </g>
   </g>
   <g id="patch_3">
    <path d="M 57.6 307.584 
L 57.6 41.472 
" style="fill:none;stroke:#000000;stroke-linecap:square;stroke-linejoin:miter;stroke-width:0.8;"/>
   </g>
   <g id="patch_4">
    <path d="M 414.72 307.584 
L 414.72 41.472 
" style="fill:none;stroke:#000000;stroke-linecap:square;stroke-linejoin:miter;stroke-width:0.8;"/>
   </g>
   <g id="patch_5">
    <path d="M 57.6 307.584 
L 414.72 307.584 
" style="fill:none;stroke:#000000;stroke-linecap:square;stroke-linejoin:miter;stroke-width:0.8;"/>
   </g>
   <g id="patch_6">
    <path d="M 57.6 41.472 
L 414.72 41.472 
" style="fill:none;stroke:#000000;stroke-linecap:square;stroke-linejoin:miter;stroke-width:0.8;"/>
   </g>
   <g id="text_17">
    <!-- Upper and lower bounds -->
    <g transform="translate(162.559687 35.472)scale(0.12 -0.12)">
     <defs>
      <path d="M 8.6875 72.90625 
L 18.609375 72.90625 
L 18.609375 28.609375 
Q 18.609375 16.890625 22.84375 11.734375 
Q 27.09375 6.59375 36.625 6.59375 
Q 46.09375 6.59375 50.34375 11.734375 
Q 54.59375 16.890625 54.59375 28.609375 
L 54.59375 72.90625 
L 64.5 72.90625 
L 64.5 27.390625 
Q 64.5 13.140625 57.4375 5.859375 
Q 50.390625 -1.421875 36.625 -1.421875 
Q 22.796875 -1.421875 15.734375 5.859375 
Q 8.6875 13.140625 8.6875 27.390625 
z
" id="DejaVuSans-85"/>
      <path d="M 18.109375 8.203125 
L 18.109375 -20.796875 
L 9.078125 -20.796875 
L 9.078125 54.6875 
L 18.109375 54.6875 
L 18.109375 46.390625 
Q 20.953125 51.265625 25.265625 53.625 
Q 29.59375 56 35.59375 56 
Q 45.5625 56 51.78125 48.09375 
Q 58.015625 40.1875 58.015625 27.296875 
Q 58.015625 14.40625 51.78125 6.484375 
Q 45.5625 -1.421875 35.59375 -1.421875 
Q 29.59375 -1.421875 25.265625 0.953125 
Q 20.953125 3.328125 18.109375 8.203125 
z
M 48.6875 27.296875 
Q 48.6875 37.203125 44.609375 42.84375 
Q 40.53125 48.484375 33.40625 48.484375 
Q 26.265625 48.484375 22.1875 42.84375 
Q 18.109375 37.203125 18.109375 27.296875 
Q 18.109375 17.390625 22.1875 11.75 
Q 26.265625 6.109375 33.40625 6.109375 
Q 40.53125 6.109375 44.609375 11.75 
Q 48.6875 17.390625 48.6875 27.296875 
z
" id="DejaVuSans-112"/>
      <path id="DejaVuSans-32"/>
      <path d="M 45.40625 46.390625 
L 45.40625 75.984375 
L 54.390625 75.984375 
L 54.390625 0 
L 45.40625 0 
L 45.40625 8.203125 
Q 42.578125 3.328125 38.25 0.953125 
Q 33.9375 -1.421875 27.875 -1.421875 
Q 17.96875 -1.421875 11.734375 6.484375 
Q 5.515625 14.40625 5.515625 27.296875 
Q 5.515625 40.1875 11.734375 48.09375 
Q 17.96875 56 27.875 56 
Q 33.9375 56 38.25 53.625 
Q 42.578125 51.265625 45.40625 46.390625 
z
M 14.796875 27.296875 
Q 14.796875 17.390625 18.875 11.75 
Q 22.953125 6.109375 30.078125 6.109375 
Q 37.203125 6.109375 41.296875 11.75 
Q 45.40625 17.390625 45.40625 27.296875 
Q 45.40625 37.203125 41.296875 42.84375 
Q 37.203125 48.484375 30.078125 48.484375 
Q 22.953125 48.484375 18.875 42.84375 
Q 14.796875 37.203125 14.796875 27.296875 
z
" id="DejaVuSans-100"/>
      <path d="M 9.421875 75.984375 
L 18.40625 75.984375 
L 18.40625 0 
L 9.421875 0 
z
" id="DejaVuSans-108"/>
      <path d="M 30.609375 48.390625 
Q 23.390625 48.390625 19.1875 42.75 
Q 14.984375 37.109375 14.984375 27.296875 
Q 14.984375 17.484375 19.15625 11.84375 
Q 23.34375 6.203125 30.609375 6.203125 
Q 37.796875 6.203125 41.984375 11.859375 
Q 46.1875 17.53125 46.1875 27.296875 
Q 46.1875 37.015625 41.984375 42.703125 
Q 37.796875 48.390625 30.609375 48.390625 
z
M 30.609375 56 
Q 42.328125 56 49.015625 48.375 
Q 55.71875 40.765625 55.71875 27.296875 
Q 55.71875 13.875 49.015625 6.21875 
Q 42.328125 -1.421875 30.609375 -1.421875 
Q 18.84375 -1.421875 12.171875 6.21875 
Q 5.515625 13.875 5.515625 27.296875 
Q 5.515625 40.765625 12.171875 48.375 
Q 18.84375 56 30.609375 56 
z
" id="DejaVuSans-111"/>
      <path d="M 4.203125 54.6875 
L 13.1875 54.6875 
L 24.421875 12.015625 
L 35.59375 54.6875 
L 46.1875 54.6875 
L 57.421875 12.015625 
L 68.609375 54.6875 
L 77.59375 54.6875 
L 63.28125 0 
L 52.6875 0 
L 40.921875 44.828125 
L 29.109375 0 
L 18.5 0 
z
" id="DejaVuSans-119"/>
      <path d="M 48.6875 27.296875 
Q 48.6875 37.203125 44.609375 42.84375 
Q 40.53125 48.484375 33.40625 48.484375 
Q 26.265625 48.484375 22.1875 42.84375 
Q 18.109375 37.203125 18.109375 27.296875 
Q 18.109375 17.390625 22.1875 11.75 
Q 26.265625 6.109375 33.40625 6.109375 
Q 40.53125 6.109375 44.609375 11.75 
Q 48.6875 17.390625 48.6875 27.296875 
z
M 18.109375 46.390625 
Q 20.953125 51.265625 25.265625 53.625 
Q 29.59375 56 35.59375 56 
Q 45.5625 56 51.78125 48.09375 
Q 58.015625 40.1875 58.015625 27.296875 
Q 58.015625 14.40625 51.78125 6.484375 
Q 45.5625 -1.421875 35.59375 -1.421875 
Q 29.59375 -1.421875 25.265625 0.953125 
Q 20.953125 3.328125 18.109375 8.203125 
L 18.109375 0 
L 9.078125 0 
L 9.078125 75.984375 
L 18.109375 75.984375 
z
" id="DejaVuSans-98"/>
      <path d="M 8.5 21.578125 
L 8.5 54.6875 
L 17.484375 54.6875 
L 17.484375 21.921875 
Q 17.484375 14.15625 20.5 10.265625 
Q 23.53125 6.390625 29.59375 6.390625 
Q 36.859375 6.390625 41.078125 11.03125 
Q 45.3125 15.671875 45.3125 23.6875 
L 45.3125 54.6875 
L 54.296875 54.6875 
L 54.296875 0 
L 45.3125 0 
L 45.3125 8.40625 
Q 42.046875 3.421875 37.71875 1 
Q 33.40625 -1.421875 27.6875 -1.421875 
Q 18.265625 -1.421875 13.375 4.4375 
Q 8.5 10.296875 8.5 21.578125 
z
M 31.109375 56 
z
" id="DejaVuSans-117"/>
      <path d="M 44.28125 53.078125 
L 44.28125 44.578125 
Q 40.484375 46.53125 36.375 47.5 
Q 32.28125 48.484375 27.875 48.484375 
Q 21.1875 48.484375 17.84375 46.4375 
Q 14.5 44.390625 14.5 40.28125 
Q 14.5 37.15625 16.890625 35.375 
Q 19.28125 33.59375 26.515625 31.984375 
L 29.59375 31.296875 
Q 39.15625 29.25 43.1875 25.515625 
Q 47.21875 21.78125 47.21875 15.09375 
Q 47.21875 7.46875 41.1875 3.015625 
Q 35.15625 -1.421875 24.609375 -1.421875 
Q 20.21875 -1.421875 15.453125 -0.5625 
Q 10.6875 0.296875 5.421875 2 
L 5.421875 11.28125 
Q 10.40625 8.6875 15.234375 7.390625 
Q 20.0625 6.109375 24.8125 6.109375 
Q 31.15625 6.109375 34.5625 8.28125 
Q 37.984375 10.453125 37.984375 14.40625 
Q 37.984375 18.0625 35.515625 20.015625 
Q 33.0625 21.96875 24.703125 23.78125 
L 21.578125 24.515625 
Q 13.234375 26.265625 9.515625 29.90625 
Q 5.8125 33.546875 5.8125 39.890625 
Q 5.8125 47.609375 11.28125 51.796875 
Q 16.75 56 26.8125 56 
Q 31.78125 56 36.171875 55.265625 
Q 40.578125 54.546875 44.28125 53.078125 
z
" id="DejaVuSans-115"/>
     </defs>
     <use xlink:href="#DejaVuSans-85"/>
     <use x="73.193359" xlink:href="#DejaVuSans-112"/>
     <use x="136.669922" xlink:href="#DejaVuSans-112"/>
     <use x="200.146484" xlink:href="#DejaVuSans-101"/>
     <use x="261.669922" xlink:href="#DejaVuSans-114"/>
     <use x="302.783203" xlink:href="#DejaVuSans-32"/>
     <use x="334.570312" xlink:href="#DejaVuSans-97"/>
     <use x="395.849609" xlink:href="#DejaVuSans-110"/>
     <use x="459.228516" xlink:href="#DejaVuSans-100"/>
     <use x="522.705078" xlink:href="#DejaVuSans-32"/>
     <use x="554.492188" xlink:href="#DejaVuSans-108"/>
     <use x="582.275391" xlink:href="#DejaVuSans-111"/>
     <use x="643.457031" xlink:href="#DejaVuSans-119"/>
     <use x="725.244141" xlink:href="#DejaVuSans-101"/>
     <use x="786.767578" xlink:href="#DejaVuSans-114"/>
     <use x="827.880859" xlink:href="#DejaVuSans-32"/>
     <use x="859.667969" xlink:href="#DejaVuSans-98"/>
     <use x="923.144531" xlink:href="#DejaVuSans-111"/>
     <use x="984.326172" xlink:href="#DejaVuSans-117"/>
     <use x="1047.705078" xlink:href="#DejaVuSans-110"/>
     <use x="1111.083984" xlink:href="#DejaVuSans-100"/>
     <use x="1174.560547" xlink:href="#DejaVuSans-115"/>
    </g>
   </g>
   <g id="legend_1">
    <g id="patch_7">
     <path d="M 326.443438 93.506375 
L 407.72 93.506375 
Q 409.72 93.506375 409.72 91.506375 
L 409.72 48.472 
Q 409.72 46.472 407.72 46.472 
L 326.443438 46.472 
Q 324.443438 46.472 324.443438 48.472 
L 324.443438 91.506375 
Q 324.443438 93.506375 326.443438 93.506375 
z
" style="fill:#ffffff;opacity:0.8;stroke:#cccccc;stroke-linejoin:miter;"/>
    </g>
    <g id="line2d_19">
     <path d="M 328.443438 54.570438 
L 348.443438 54.570438 
" style="fill:none;stroke:#0000ff;stroke-linecap:square;stroke-width:1.5;"/>
    </g>
    <g id="line2d_20">
     <g>
      <use style="fill:#0000ff;stroke:#0000ff;" x="338.443438" xlink:href="#md019c1ac1c" y="54.570438"/>
     </g>
    </g>
    <g id="text_18">
     <!-- empirical -->
     <g transform="translate(356.443438 58.070438)scale(0.1 -0.1)">
      <defs>
       <path d="M 9.421875 54.6875 
L 18.40625 54.6875 
L 18.40625 0 
L 9.421875 0 
z
M 9.421875 75.984375 
L 18.40625 75.984375 
L 18.40625 64.59375 
L 9.421875 64.59375 
z
" id="DejaVuSans-105"/>
       <path d="M 48.78125 52.59375 
L 48.78125 44.1875 
Q 44.96875 46.296875 41.140625 47.34375 
Q 37.3125 48.390625 33.40625 48.390625 
Q 24.65625 48.390625 19.8125 42.84375 
Q 14.984375 37.3125 14.984375 27.296875 
Q 14.984375 17.28125 19.8125 11.734375 
Q 24.65625 6.203125 33.40625 6.203125 
Q 37.3125 6.203125 41.140625 7.25 
Q 44.96875 8.296875 48.78125 10.40625 
L 48.78125 2.09375 
Q 45.015625 0.34375 40.984375 -0.53125 
Q 36.96875 -1.421875 32.421875 -1.421875 
Q 20.0625 -1.421875 12.78125 6.34375 
Q 5.515625 14.109375 5.515625 27.296875 
Q 5.515625 40.671875 12.859375 48.328125 
Q 20.21875 56 33.015625 56 
Q 37.15625 56 41.109375 55.140625 
Q 45.0625 54.296875 48.78125 52.59375 
z
" id="DejaVuSans-99"/>
      </defs>
      <use xlink:href="#DejaVuSans-101"/>
      <use x="61.523438" xlink:href="#DejaVuSans-109"/>
      <use x="158.935547" xlink:href="#DejaVuSans-112"/>
      <use x="222.412109" xlink:href="#DejaVuSans-105"/>
      <use x="250.195312" xlink:href="#DejaVuSans-114"/>
      <use x="291.308594" xlink:href="#DejaVuSans-105"/>
      <use x="319.091797" xlink:href="#DejaVuSans-99"/>
      <use x="374.072266" xlink:href="#DejaVuSans-97"/>
      <use x="435.351562" xlink:href="#DejaVuSans-108"/>
     </g>
    </g>
    <g id="line2d_21">
     <path d="M 328.443438 69.248563 
L 348.443438 69.248563 
" style="fill:none;stroke:#000000;stroke-linecap:square;stroke-width:1.5;"/>
    </g>
    <g id="line2d_22">
     <g>
      <use style="stroke:#000000;" x="338.443438" xlink:href="#m19f9ba98ec" y="69.248563"/>
     </g>
    </g>
    <g id="text_19">
     <!-- true -->
     <g transform="translate(356.443438 72.748563)scale(0.1 -0.1)">
      <defs>
       <path d="M 18.3125 70.21875 
L 18.3125 54.6875 
L 36.8125 54.6875 
L 36.8125 47.703125 
L 18.3125 47.703125 
L 18.3125 18.015625 
Q 18.3125 11.328125 20.140625 9.421875 
Q 21.96875 7.515625 27.59375 7.515625 
L 36.8125 7.515625 
L 36.8125 0 
L 27.59375 0 
Q 17.1875 0 13.234375 3.875 
Q 9.28125 7.765625 9.28125 18.015625 
L 9.28125 47.703125 
L 2.6875 47.703125 
L 2.6875 54.6875 
L 9.28125 54.6875 
L 9.28125 70.21875 
z
" id="DejaVuSans-116"/>
      </defs>
      <use xlink:href="#DejaVuSans-116"/>
      <use x="39.208984" xlink:href="#DejaVuSans-114"/>
      <use x="80.322266" xlink:href="#DejaVuSans-117"/>
      <use x="143.701172" xlink:href="#DejaVuSans-101"/>
     </g>
    </g>
    <g id="line2d_23">
     <path d="M 328.443438 83.926688 
L 348.443438 83.926688 
" style="fill:none;stroke:#1f77b4;stroke-width:1.5;"/>
    </g>
    <g id="text_20">
     <!-- Threshold -->
     <g transform="translate(356.443438 87.426688)scale(0.1 -0.1)">
      <defs>
       <path d="M -0.296875 72.90625 
L 61.375 72.90625 
L 61.375 64.59375 
L 35.5 64.59375 
L 35.5 0 
L 25.59375 0 
L 25.59375 64.59375 
L -0.296875 64.59375 
z
" id="DejaVuSans-84"/>
       <path d="M 54.890625 33.015625 
L 54.890625 0 
L 45.90625 0 
L 45.90625 32.71875 
Q 45.90625 40.484375 42.875 44.328125 
Q 39.84375 48.1875 33.796875 48.1875 
Q 26.515625 48.1875 22.3125 43.546875 
Q 18.109375 38.921875 18.109375 30.90625 
L 18.109375 0 
L 9.078125 0 
L 9.078125 75.984375 
L 18.109375 75.984375 
L 18.109375 46.1875 
Q 21.34375 51.125 25.703125 53.5625 
Q 30.078125 56 35.796875 56 
Q 45.21875 56 50.046875 50.171875 
Q 54.890625 44.34375 54.890625 33.015625 
z
" id="DejaVuSans-104"/>
      </defs>
      <use xlink:href="#DejaVuSans-84"/>
      <use x="61.083984" xlink:href="#DejaVuSans-104"/>
      <use x="124.462891" xlink:href="#DejaVuSans-114"/>
      <use x="163.326172" xlink:href="#DejaVuSans-101"/>
      <use x="224.849609" xlink:href="#DejaVuSans-115"/>
      <use x="276.949219" xlink:href="#DejaVuSans-104"/>
      <use x="340.328125" xlink:href="#DejaVuSans-111"/>
      <use x="401.509766" xlink:href="#DejaVuSans-108"/>
      <use x="429.292969" xlink:href="#DejaVuSans-100"/>
     </g>
    </g>
   </g>
  </g>
 </g>
 <defs>
  <clipPath id="p234199d4a6">
   <rect height="266.112" width="357.12" x="57.6" y="41.472"/>
  </clipPath>
 </defs>
</svg>
