<?xml version="1.0" encoding="utf-8" standalone="no"?>
<!DOCTYPE svg PUBLIC "-//W3C//DTD SVG 1.1//EN"
  "http://www.w3.org/Graphics/SVG/1.1/DTD/svg11.dtd">
<!-- Created with matplotlib (https://matplotlib.org/) -->
<svg height="345.6pt" version="1.1" viewBox="0 0 460.8 345.6" width="460.8pt" xmlns="http://www.w3.org/2000/svg" xmlns:xlink="http://www.w3.org/1999/xlink">
 <metadata>
  <rdf:RDF xmlns:cc="http://creativecommons.org/ns#" xmlns:dc="http://purl.org/dc/elements/1.1/" xmlns:rdf="http://www.w3.org/1999/02/22-rdf-syntax-ns#">
   <cc:Work>
    <dc:type rdf:resource="http://purl.org/dc/dcmitype/StillImage"/>
    <dc:date>2021-03-01T14:54:52.370831</dc:date>
    <dc:format>image/svg+xml</dc:format>
    <dc:creator>
     <cc:Agent>
      <dc:title>Matplotlib v3.3.3, https://matplotlib.org/</dc:title>
     </cc:Agent>
    </dc:creator>
   </cc:Work>
  </rdf:RDF>
 </metadata>
 <defs>
  <style type="text/css">*{stroke-linecap:butt;stroke-linejoin:round;}</style>
 </defs>
 <g id="figure_1">
  <g id="patch_1">
   <path d="M 0 345.6 
L 460.8 345.6 
L 460.8 0 
L 0 0 
z
" style="fill:#ffffff;"/>
  </g>
  <g id="axes_1">
   <g id="patch_2">
    <path d="M 57.6 307.584 
L 414.72 307.584 
L 414.72 41.472 
L 57.6 41.472 
z
" style="fill:#ffffff;"/>
   </g>
   <g id="matplotlib.axis_1">
    <g id="xtick_1">
     <g id="line2d_1">
      <defs>
       <path d="M 0 0 
L 0 3.5 
" id="mb4c0c75b49" style="stroke:#000000;stroke-width:0.8;"/>
      </defs>
      <g>
       <use style="stroke:#000000;stroke-width:0.8;" x="73.832727" xlink:href="#mb4c0c75b49" y="307.584"/>
      </g>
     </g>
     <g id="text_1">
      <!-- 0 -->
      <g transform="translate(70.651477 322.182437)scale(0.1 -0.1)">
       <defs>
        <path d="M 31.78125 66.40625 
Q 24.171875 66.40625 20.328125 58.90625 
Q 16.5 51.421875 16.5 36.375 
Q 16.5 21.390625 20.328125 13.890625 
Q 24.171875 6.390625 31.78125 6.390625 
Q 39.453125 6.390625 43.28125 13.890625 
Q 47.125 21.390625 47.125 36.375 
Q 47.125 51.421875 43.28125 58.90625 
Q 39.453125 66.40625 31.78125 66.40625 
z
M 31.78125 74.21875 
Q 44.046875 74.21875 50.515625 64.515625 
Q 56.984375 54.828125 56.984375 36.375 
Q 56.984375 17.96875 50.515625 8.265625 
Q 44.046875 -1.421875 31.78125 -1.421875 
Q 19.53125 -1.421875 13.0625 8.265625 
Q 6.59375 17.96875 6.59375 36.375 
Q 6.59375 54.828125 13.0625 64.515625 
Q 19.53125 74.21875 31.78125 74.21875 
z
" id="DejaVuSans-48"/>
       </defs>
       <use xlink:href="#DejaVuSans-48"/>
      </g>
     </g>
    </g>
    <g id="xtick_2">
     <g id="line2d_2">
      <g>
       <use style="stroke:#000000;stroke-width:0.8;" x="139.419504" xlink:href="#mb4c0c75b49" y="307.584"/>
      </g>
     </g>
     <g id="text_2">
      <!-- 20 -->
      <g transform="translate(133.057004 322.182437)scale(0.1 -0.1)">
       <defs>
        <path d="M 19.1875 8.296875 
L 53.609375 8.296875 
L 53.609375 0 
L 7.328125 0 
L 7.328125 8.296875 
Q 12.9375 14.109375 22.625 23.890625 
Q 32.328125 33.6875 34.8125 36.53125 
Q 39.546875 41.84375 41.421875 45.53125 
Q 43.3125 49.21875 43.3125 52.78125 
Q 43.3125 58.59375 39.234375 62.25 
Q 35.15625 65.921875 28.609375 65.921875 
Q 23.96875 65.921875 18.8125 64.3125 
Q 13.671875 62.703125 7.8125 59.421875 
L 7.8125 69.390625 
Q 13.765625 71.78125 18.9375 73 
Q 24.125 74.21875 28.421875 74.21875 
Q 39.75 74.21875 46.484375 68.546875 
Q 53.21875 62.890625 53.21875 53.421875 
Q 53.21875 48.921875 51.53125 44.890625 
Q 49.859375 40.875 45.40625 35.40625 
Q 44.1875 33.984375 37.640625 27.21875 
Q 31.109375 20.453125 19.1875 8.296875 
z
" id="DejaVuSans-50"/>
       </defs>
       <use xlink:href="#DejaVuSans-50"/>
       <use x="63.623047" xlink:href="#DejaVuSans-48"/>
      </g>
     </g>
    </g>
    <g id="xtick_3">
     <g id="line2d_3">
      <g>
       <use style="stroke:#000000;stroke-width:0.8;" x="205.006281" xlink:href="#mb4c0c75b49" y="307.584"/>
      </g>
     </g>
     <g id="text_3">
      <!-- 40 -->
      <g transform="translate(198.643781 322.182437)scale(0.1 -0.1)">
       <defs>
        <path d="M 37.796875 64.3125 
L 12.890625 25.390625 
L 37.796875 25.390625 
z
M 35.203125 72.90625 
L 47.609375 72.90625 
L 47.609375 25.390625 
L 58.015625 25.390625 
L 58.015625 17.1875 
L 47.609375 17.1875 
L 47.609375 0 
L 37.796875 0 
L 37.796875 17.1875 
L 4.890625 17.1875 
L 4.890625 26.703125 
z
" id="DejaVuSans-52"/>
       </defs>
       <use xlink:href="#DejaVuSans-52"/>
       <use x="63.623047" xlink:href="#DejaVuSans-48"/>
      </g>
     </g>
    </g>
    <g id="xtick_4">
     <g id="line2d_4">
      <g>
       <use style="stroke:#000000;stroke-width:0.8;" x="270.593058" xlink:href="#mb4c0c75b49" y="307.584"/>
      </g>
     </g>
     <g id="text_4">
      <!-- 60 -->
      <g transform="translate(264.230558 322.182437)scale(0.1 -0.1)">
       <defs>
        <path d="M 33.015625 40.375 
Q 26.375 40.375 22.484375 35.828125 
Q 18.609375 31.296875 18.609375 23.390625 
Q 18.609375 15.53125 22.484375 10.953125 
Q 26.375 6.390625 33.015625 6.390625 
Q 39.65625 6.390625 43.53125 10.953125 
Q 47.40625 15.53125 47.40625 23.390625 
Q 47.40625 31.296875 43.53125 35.828125 
Q 39.65625 40.375 33.015625 40.375 
z
M 52.59375 71.296875 
L 52.59375 62.3125 
Q 48.875 64.0625 45.09375 64.984375 
Q 41.3125 65.921875 37.59375 65.921875 
Q 27.828125 65.921875 22.671875 59.328125 
Q 17.53125 52.734375 16.796875 39.40625 
Q 19.671875 43.65625 24.015625 45.921875 
Q 28.375 48.1875 33.59375 48.1875 
Q 44.578125 48.1875 50.953125 41.515625 
Q 57.328125 34.859375 57.328125 23.390625 
Q 57.328125 12.15625 50.6875 5.359375 
Q 44.046875 -1.421875 33.015625 -1.421875 
Q 20.359375 -1.421875 13.671875 8.265625 
Q 6.984375 17.96875 6.984375 36.375 
Q 6.984375 53.65625 15.1875 63.9375 
Q 23.390625 74.21875 37.203125 74.21875 
Q 40.921875 74.21875 44.703125 73.484375 
Q 48.484375 72.75 52.59375 71.296875 
z
" id="DejaVuSans-54"/>
       </defs>
       <use xlink:href="#DejaVuSans-54"/>
       <use x="63.623047" xlink:href="#DejaVuSans-48"/>
      </g>
     </g>
    </g>
    <g id="xtick_5">
     <g id="line2d_5">
      <g>
       <use style="stroke:#000000;stroke-width:0.8;" x="336.179835" xlink:href="#mb4c0c75b49" y="307.584"/>
      </g>
     </g>
     <g id="text_5">
      <!-- 80 -->
      <g transform="translate(329.817335 322.182437)scale(0.1 -0.1)">
       <defs>
        <path d="M 31.78125 34.625 
Q 24.75 34.625 20.71875 30.859375 
Q 16.703125 27.09375 16.703125 20.515625 
Q 16.703125 13.921875 20.71875 10.15625 
Q 24.75 6.390625 31.78125 6.390625 
Q 38.8125 6.390625 42.859375 10.171875 
Q 46.921875 13.96875 46.921875 20.515625 
Q 46.921875 27.09375 42.890625 30.859375 
Q 38.875 34.625 31.78125 34.625 
z
M 21.921875 38.8125 
Q 15.578125 40.375 12.03125 44.71875 
Q 8.5 49.078125 8.5 55.328125 
Q 8.5 64.0625 14.71875 69.140625 
Q 20.953125 74.21875 31.78125 74.21875 
Q 42.671875 74.21875 48.875 69.140625 
Q 55.078125 64.0625 55.078125 55.328125 
Q 55.078125 49.078125 51.53125 44.71875 
Q 48 40.375 41.703125 38.8125 
Q 48.828125 37.15625 52.796875 32.3125 
Q 56.78125 27.484375 56.78125 20.515625 
Q 56.78125 9.90625 50.3125 4.234375 
Q 43.84375 -1.421875 31.78125 -1.421875 
Q 19.734375 -1.421875 13.25 4.234375 
Q 6.78125 9.90625 6.78125 20.515625 
Q 6.78125 27.484375 10.78125 32.3125 
Q 14.796875 37.15625 21.921875 38.8125 
z
M 18.3125 54.390625 
Q 18.3125 48.734375 21.84375 45.5625 
Q 25.390625 42.390625 31.78125 42.390625 
Q 38.140625 42.390625 41.71875 45.5625 
Q 45.3125 48.734375 45.3125 54.390625 
Q 45.3125 60.0625 41.71875 63.234375 
Q 38.140625 66.40625 31.78125 66.40625 
Q 25.390625 66.40625 21.84375 63.234375 
Q 18.3125 60.0625 18.3125 54.390625 
z
" id="DejaVuSans-56"/>
       </defs>
       <use xlink:href="#DejaVuSans-56"/>
       <use x="63.623047" xlink:href="#DejaVuSans-48"/>
      </g>
     </g>
    </g>
    <g id="xtick_6">
     <g id="line2d_6">
      <g>
       <use style="stroke:#000000;stroke-width:0.8;" x="401.766612" xlink:href="#mb4c0c75b49" y="307.584"/>
      </g>
     </g>
     <g id="text_6">
      <!-- 100 -->
      <g transform="translate(392.222862 322.182437)scale(0.1 -0.1)">
       <defs>
        <path d="M 12.40625 8.296875 
L 28.515625 8.296875 
L 28.515625 63.921875 
L 10.984375 60.40625 
L 10.984375 69.390625 
L 28.421875 72.90625 
L 38.28125 72.90625 
L 38.28125 8.296875 
L 54.390625 8.296875 
L 54.390625 0 
L 12.40625 0 
z
" id="DejaVuSans-49"/>
       </defs>
       <use xlink:href="#DejaVuSans-49"/>
       <use x="63.623047" xlink:href="#DejaVuSans-48"/>
       <use x="127.246094" xlink:href="#DejaVuSans-48"/>
      </g>
     </g>
    </g>
    <g id="text_7">
     <!-- Arm -->
     <g transform="translate(225.901406 335.860562)scale(0.1 -0.1)">
      <defs>
       <path d="M 34.1875 63.1875 
L 20.796875 26.90625 
L 47.609375 26.90625 
z
M 28.609375 72.90625 
L 39.796875 72.90625 
L 67.578125 0 
L 57.328125 0 
L 50.6875 18.703125 
L 17.828125 18.703125 
L 11.1875 0 
L 0.78125 0 
z
" id="DejaVuSans-65"/>
       <path d="M 41.109375 46.296875 
Q 39.59375 47.171875 37.8125 47.578125 
Q 36.03125 48 33.890625 48 
Q 26.265625 48 22.1875 43.046875 
Q 18.109375 38.09375 18.109375 28.8125 
L 18.109375 0 
L 9.078125 0 
L 9.078125 54.6875 
L 18.109375 54.6875 
L 18.109375 46.1875 
Q 20.953125 51.171875 25.484375 53.578125 
Q 30.03125 56 36.53125 56 
Q 37.453125 56 38.578125 55.875 
Q 39.703125 55.765625 41.0625 55.515625 
z
" id="DejaVuSans-114"/>
       <path d="M 52 44.1875 
Q 55.375 50.25 60.0625 53.125 
Q 64.75 56 71.09375 56 
Q 79.640625 56 84.28125 50.015625 
Q 88.921875 44.046875 88.921875 33.015625 
L 88.921875 0 
L 79.890625 0 
L 79.890625 32.71875 
Q 79.890625 40.578125 77.09375 44.375 
Q 74.3125 48.1875 68.609375 48.1875 
Q 61.625 48.1875 57.5625 43.546875 
Q 53.515625 38.921875 53.515625 30.90625 
L 53.515625 0 
L 44.484375 0 
L 44.484375 32.71875 
Q 44.484375 40.625 41.703125 44.40625 
Q 38.921875 48.1875 33.109375 48.1875 
Q 26.21875 48.1875 22.15625 43.53125 
Q 18.109375 38.875 18.109375 30.90625 
L 18.109375 0 
L 9.078125 0 
L 9.078125 54.6875 
L 18.109375 54.6875 
L 18.109375 46.1875 
Q 21.1875 51.21875 25.484375 53.609375 
Q 29.78125 56 35.6875 56 
Q 41.65625 56 45.828125 52.96875 
Q 50 49.953125 52 44.1875 
z
" id="DejaVuSans-109"/>
      </defs>
      <use xlink:href="#DejaVuSans-65"/>
      <use x="68.408203" xlink:href="#DejaVuSans-114"/>
      <use x="107.771484" xlink:href="#DejaVuSans-109"/>
     </g>
    </g>
   </g>
   <g id="matplotlib.axis_2">
    <g id="ytick_1">
     <g id="line2d_7">
      <defs>
       <path d="M 0 0 
L -3.5 0 
" id="mc118ec9542" style="stroke:#000000;stroke-width:0.8;"/>
      </defs>
      <g>
       <use style="stroke:#000000;stroke-width:0.8;" x="57.6" xlink:href="#mc118ec9542" y="307.584"/>
      </g>
     </g>
     <g id="text_8">
      <!-- 0.0 -->
      <g transform="translate(34.696875 311.383219)scale(0.1 -0.1)">
       <defs>
        <path d="M 10.6875 12.40625 
L 21 12.40625 
L 21 0 
L 10.6875 0 
z
" id="DejaVuSans-46"/>
       </defs>
       <use xlink:href="#DejaVuSans-48"/>
       <use x="63.623047" xlink:href="#DejaVuSans-46"/>
       <use x="95.410156" xlink:href="#DejaVuSans-48"/>
      </g>
     </g>
    </g>
    <g id="ytick_2">
     <g id="line2d_8">
      <g>
       <use style="stroke:#000000;stroke-width:0.8;" x="57.6" xlink:href="#mc118ec9542" y="272.1024"/>
      </g>
     </g>
     <g id="text_9">
      <!-- 0.2 -->
      <g transform="translate(34.696875 275.901619)scale(0.1 -0.1)">
       <use xlink:href="#DejaVuSans-48"/>
       <use x="63.623047" xlink:href="#DejaVuSans-46"/>
       <use x="95.410156" xlink:href="#DejaVuSans-50"/>
      </g>
     </g>
    </g>
    <g id="ytick_3">
     <g id="line2d_9">
      <g>
       <use style="stroke:#000000;stroke-width:0.8;" x="57.6" xlink:href="#mc118ec9542" y="236.6208"/>
      </g>
     </g>
     <g id="text_10">
      <!-- 0.4 -->
      <g transform="translate(34.696875 240.420019)scale(0.1 -0.1)">
       <use xlink:href="#DejaVuSans-48"/>
       <use x="63.623047" xlink:href="#DejaVuSans-46"/>
       <use x="95.410156" xlink:href="#DejaVuSans-52"/>
      </g>
     </g>
    </g>
    <g id="ytick_4">
     <g id="line2d_10">
      <g>
       <use style="stroke:#000000;stroke-width:0.8;" x="57.6" xlink:href="#mc118ec9542" y="201.1392"/>
      </g>
     </g>
     <g id="text_11">
      <!-- 0.6 -->
      <g transform="translate(34.696875 204.938419)scale(0.1 -0.1)">
       <use xlink:href="#DejaVuSans-48"/>
       <use x="63.623047" xlink:href="#DejaVuSans-46"/>
       <use x="95.410156" xlink:href="#DejaVuSans-54"/>
      </g>
     </g>
    </g>
    <g id="ytick_5">
     <g id="line2d_11">
      <g>
       <use style="stroke:#000000;stroke-width:0.8;" x="57.6" xlink:href="#mc118ec9542" y="165.6576"/>
      </g>
     </g>
     <g id="text_12">
      <!-- 0.8 -->
      <g transform="translate(34.696875 169.456819)scale(0.1 -0.1)">
       <use xlink:href="#DejaVuSans-48"/>
       <use x="63.623047" xlink:href="#DejaVuSans-46"/>
       <use x="95.410156" xlink:href="#DejaVuSans-56"/>
      </g>
     </g>
    </g>
    <g id="ytick_6">
     <g id="line2d_12">
      <g>
       <use style="stroke:#000000;stroke-width:0.8;" x="57.6" xlink:href="#mc118ec9542" y="130.176"/>
      </g>
     </g>
     <g id="text_13">
      <!-- 1.0 -->
      <g transform="translate(34.696875 133.975219)scale(0.1 -0.1)">
       <use xlink:href="#DejaVuSans-49"/>
       <use x="63.623047" xlink:href="#DejaVuSans-46"/>
       <use x="95.410156" xlink:href="#DejaVuSans-48"/>
      </g>
     </g>
    </g>
    <g id="ytick_7">
     <g id="line2d_13">
      <g>
       <use style="stroke:#000000;stroke-width:0.8;" x="57.6" xlink:href="#mc118ec9542" y="94.6944"/>
      </g>
     </g>
     <g id="text_14">
      <!-- 1.2 -->
      <g transform="translate(34.696875 98.493619)scale(0.1 -0.1)">
       <use xlink:href="#DejaVuSans-49"/>
       <use x="63.623047" xlink:href="#DejaVuSans-46"/>
       <use x="95.410156" xlink:href="#DejaVuSans-50"/>
      </g>
     </g>
    </g>
    <g id="ytick_8">
     <g id="line2d_14">
      <g>
       <use style="stroke:#000000;stroke-width:0.8;" x="57.6" xlink:href="#mc118ec9542" y="59.2128"/>
      </g>
     </g>
     <g id="text_15">
      <!-- 1.4 -->
      <g transform="translate(34.696875 63.012019)scale(0.1 -0.1)">
       <use xlink:href="#DejaVuSans-49"/>
       <use x="63.623047" xlink:href="#DejaVuSans-46"/>
       <use x="95.410156" xlink:href="#DejaVuSans-52"/>
      </g>
     </g>
    </g>
    <g id="text_16">
     <!-- Mean -->
     <g transform="translate(28.617188 188.151437)rotate(-90)scale(0.1 -0.1)">
      <defs>
       <path d="M 9.8125 72.90625 
L 24.515625 72.90625 
L 43.109375 23.296875 
L 61.8125 72.90625 
L 76.515625 72.90625 
L 76.515625 0 
L 66.890625 0 
L 66.890625 64.015625 
L 48.09375 14.015625 
L 38.1875 14.015625 
L 19.390625 64.015625 
L 19.390625 0 
L 9.8125 0 
z
" id="DejaVuSans-77"/>
       <path d="M 56.203125 29.59375 
L 56.203125 25.203125 
L 14.890625 25.203125 
Q 15.484375 15.921875 20.484375 11.0625 
Q 25.484375 6.203125 34.421875 6.203125 
Q 39.59375 6.203125 44.453125 7.46875 
Q 49.3125 8.734375 54.109375 11.28125 
L 54.109375 2.78125 
Q 49.265625 0.734375 44.1875 -0.34375 
Q 39.109375 -1.421875 33.890625 -1.421875 
Q 20.796875 -1.421875 13.15625 6.1875 
Q 5.515625 13.8125 5.515625 26.8125 
Q 5.515625 40.234375 12.765625 48.109375 
Q 20.015625 56 32.328125 56 
Q 43.359375 56 49.78125 48.890625 
Q 56.203125 41.796875 56.203125 29.59375 
z
M 47.21875 32.234375 
Q 47.125 39.59375 43.09375 43.984375 
Q 39.0625 48.390625 32.421875 48.390625 
Q 24.90625 48.390625 20.390625 44.140625 
Q 15.875 39.890625 15.1875 32.171875 
z
" id="DejaVuSans-101"/>
       <path d="M 34.28125 27.484375 
Q 23.390625 27.484375 19.1875 25 
Q 14.984375 22.515625 14.984375 16.5 
Q 14.984375 11.71875 18.140625 8.90625 
Q 21.296875 6.109375 26.703125 6.109375 
Q 34.1875 6.109375 38.703125 11.40625 
Q 43.21875 16.703125 43.21875 25.484375 
L 43.21875 27.484375 
z
M 52.203125 31.203125 
L 52.203125 0 
L 43.21875 0 
L 43.21875 8.296875 
Q 40.140625 3.328125 35.546875 0.953125 
Q 30.953125 -1.421875 24.3125 -1.421875 
Q 15.921875 -1.421875 10.953125 3.296875 
Q 6 8.015625 6 15.921875 
Q 6 25.140625 12.171875 29.828125 
Q 18.359375 34.515625 30.609375 34.515625 
L 43.21875 34.515625 
L 43.21875 35.40625 
Q 43.21875 41.609375 39.140625 45 
Q 35.0625 48.390625 27.6875 48.390625 
Q 23 48.390625 18.546875 47.265625 
Q 14.109375 46.140625 10.015625 43.890625 
L 10.015625 52.203125 
Q 14.9375 54.109375 19.578125 55.046875 
Q 24.21875 56 28.609375 56 
Q 40.484375 56 46.34375 49.84375 
Q 52.203125 43.703125 52.203125 31.203125 
z
" id="DejaVuSans-97"/>
       <path d="M 54.890625 33.015625 
L 54.890625 0 
L 45.90625 0 
L 45.90625 32.71875 
Q 45.90625 40.484375 42.875 44.328125 
Q 39.84375 48.1875 33.796875 48.1875 
Q 26.515625 48.1875 22.3125 43.546875 
Q 18.109375 38.921875 18.109375 30.90625 
L 18.109375 0 
L 9.078125 0 
L 9.078125 54.6875 
L 18.109375 54.6875 
L 18.109375 46.1875 
Q 21.34375 51.125 25.703125 53.5625 
Q 30.078125 56 35.796875 56 
Q 45.21875 56 50.046875 50.171875 
Q 54.890625 44.34375 54.890625 33.015625 
z
" id="DejaVuSans-110"/>
      </defs>
      <use xlink:href="#DejaVuSans-77"/>
      <use x="86.279297" xlink:href="#DejaVuSans-101"/>
      <use x="147.802734" xlink:href="#DejaVuSans-97"/>
      <use x="209.082031" xlink:href="#DejaVuSans-110"/>
     </g>
    </g>
   </g>
   <g id="LineCollection_1">
    <path clip-path="url(#pc4e3e67138)" d="M 73.832727 260.14159 
L 398.487273 260.14159 
" style="fill:none;stroke:#1f77b4;stroke-width:1.5;"/>
   </g>
   <g id="line2d_15">
    <path clip-path="url(#pc4e3e67138)" d="M 73.832727 130.275336 
L 77.112066 131.763316 
L 80.391405 132.960947 
L 83.670744 131.679567 
L 86.950083 128.392967 
L 90.229421 127.256728 
L 93.50876 130.727081 
L 96.788099 128.226078 
L 100.067438 132.97743 
L 103.346777 130.504111 
L 106.626116 135.779436 
L 109.905455 128.945853 
L 113.184793 131.656788 
L 116.464132 135.202885 
L 119.743471 132.929132 
L 123.02281 129.892758 
L 126.302149 133.225919 
L 129.581488 126.968152 
L 132.860826 129.103871 
L 136.140165 130.042002 
L 139.419504 130.232222 
L 142.698843 133.388162 
L 145.978182 130.307687 
L 149.257521 128.646056 
L 152.53686 125.938493 
L 155.816198 129.334712 
L 159.095537 130.002228 
L 162.374876 130.715389 
L 165.654215 128.262136 
L 168.933554 131.961064 
L 172.212893 130.799782 
L 175.492231 127.662138 
L 178.77157 136.468529 
L 182.050909 132.027139 
L 185.330248 132.091697 
L 188.609587 128.545303 
L 191.888926 125.937022 
L 195.168264 130.837823 
L 198.447603 129.830106 
L 201.726942 128.821891 
L 205.006281 129.816469 
L 208.28562 133.924854 
L 211.564959 132.359733 
L 214.844298 128.563239 
L 218.123636 129.790067 
L 221.402975 137.060329 
L 224.682314 130.597351 
L 227.961653 133.077567 
L 231.240992 129.702954 
L 234.520331 129.38436 
L 237.799669 129.252311 
L 241.079008 131.682587 
L 244.358347 134.04184 
L 247.637686 130.103893 
L 250.917025 134.763479 
L 254.196364 130.869723 
L 257.475702 127.221746 
L 260.755041 129.404425 
L 264.03438 131.146994 
L 267.313719 131.172299 
L 270.593058 130.110938 
L 273.872397 134.425664 
L 277.151736 128.559577 
L 280.431074 129.928668 
L 283.710413 134.797087 
L 286.989752 129.394627 
L 290.269091 129.401034 
L 293.54843 128.008421 
L 296.827769 127.965084 
L 300.107107 131.388996 
L 303.386446 132.181238 
L 306.665785 129.99578 
L 309.945124 131.478119 
L 313.224463 131.230082 
L 316.503802 126.477918 
L 319.78314 134.028113 
L 323.062479 129.376057 
L 326.341818 135.471522 
L 329.621157 129.433301 
L 332.900496 130.917128 
L 336.179835 128.598822 
L 339.459174 131.200038 
L 342.738512 130.855176 
L 346.017851 130.461164 
L 349.29719 128.165663 
L 352.576529 127.719329 
L 355.855868 129.544218 
L 359.135207 127.534282 
L 362.414545 137.054928 
L 365.693884 127.366256 
L 368.973223 128.816216 
L 372.252562 132.583035 
L 375.531901 143.138366 
L 378.81124 130.828816 
L 382.090579 130.776389 
L 385.369917 129.744004 
L 388.649256 127.78989 
L 391.928595 130.044724 
L 395.207934 236.733307 
L 398.487273 275.073782 
" style="fill:none;stroke:#0000ff;stroke-linecap:square;stroke-width:1.5;"/>
    <defs>
     <path d="M 0 3 
C 0.795609 3 1.55874 2.683901 2.12132 2.12132 
C 2.683901 1.55874 3 0.795609 3 0 
C 3 -0.795609 2.683901 -1.55874 2.12132 -2.12132 
C 1.55874 -2.683901 0.795609 -3 0 -3 
C -0.795609 -3 -1.55874 -2.683901 -2.12132 -2.12132 
C -2.683901 -1.55874 -3 -0.795609 -3 0 
C -3 0.795609 -2.683901 1.55874 -2.12132 2.12132 
C -1.55874 2.683901 -0.795609 3 0 3 
z
" id="mf22eee5c0e" style="stroke:#0000ff;"/>
    </defs>
    <g clip-path="url(#pc4e3e67138)">
     <use style="fill:#0000ff;stroke:#0000ff;" x="73.832727" xlink:href="#mf22eee5c0e" y="130.275336"/>
     <use style="fill:#0000ff;stroke:#0000ff;" x="77.112066" xlink:href="#mf22eee5c0e" y="131.763316"/>
     <use style="fill:#0000ff;stroke:#0000ff;" x="80.391405" xlink:href="#mf22eee5c0e" y="132.960947"/>
     <use style="fill:#0000ff;stroke:#0000ff;" x="83.670744" xlink:href="#mf22eee5c0e" y="131.679567"/>
     <use style="fill:#0000ff;stroke:#0000ff;" x="86.950083" xlink:href="#mf22eee5c0e" y="128.392967"/>
     <use style="fill:#0000ff;stroke:#0000ff;" x="90.229421" xlink:href="#mf22eee5c0e" y="127.256728"/>
     <use style="fill:#0000ff;stroke:#0000ff;" x="93.50876" xlink:href="#mf22eee5c0e" y="130.727081"/>
     <use style="fill:#0000ff;stroke:#0000ff;" x="96.788099" xlink:href="#mf22eee5c0e" y="128.226078"/>
     <use style="fill:#0000ff;stroke:#0000ff;" x="100.067438" xlink:href="#mf22eee5c0e" y="132.97743"/>
     <use style="fill:#0000ff;stroke:#0000ff;" x="103.346777" xlink:href="#mf22eee5c0e" y="130.504111"/>
     <use style="fill:#0000ff;stroke:#0000ff;" x="106.626116" xlink:href="#mf22eee5c0e" y="135.779436"/>
     <use style="fill:#0000ff;stroke:#0000ff;" x="109.905455" xlink:href="#mf22eee5c0e" y="128.945853"/>
     <use style="fill:#0000ff;stroke:#0000ff;" x="113.184793" xlink:href="#mf22eee5c0e" y="131.656788"/>
     <use style="fill:#0000ff;stroke:#0000ff;" x="116.464132" xlink:href="#mf22eee5c0e" y="135.202885"/>
     <use style="fill:#0000ff;stroke:#0000ff;" x="119.743471" xlink:href="#mf22eee5c0e" y="132.929132"/>
     <use style="fill:#0000ff;stroke:#0000ff;" x="123.02281" xlink:href="#mf22eee5c0e" y="129.892758"/>
     <use style="fill:#0000ff;stroke:#0000ff;" x="126.302149" xlink:href="#mf22eee5c0e" y="133.225919"/>
     <use style="fill:#0000ff;stroke:#0000ff;" x="129.581488" xlink:href="#mf22eee5c0e" y="126.968152"/>
     <use style="fill:#0000ff;stroke:#0000ff;" x="132.860826" xlink:href="#mf22eee5c0e" y="129.103871"/>
     <use style="fill:#0000ff;stroke:#0000ff;" x="136.140165" xlink:href="#mf22eee5c0e" y="130.042002"/>
     <use style="fill:#0000ff;stroke:#0000ff;" x="139.419504" xlink:href="#mf22eee5c0e" y="130.232222"/>
     <use style="fill:#0000ff;stroke:#0000ff;" x="142.698843" xlink:href="#mf22eee5c0e" y="133.388162"/>
     <use style="fill:#0000ff;stroke:#0000ff;" x="145.978182" xlink:href="#mf22eee5c0e" y="130.307687"/>
     <use style="fill:#0000ff;stroke:#0000ff;" x="149.257521" xlink:href="#mf22eee5c0e" y="128.646056"/>
     <use style="fill:#0000ff;stroke:#0000ff;" x="152.53686" xlink:href="#mf22eee5c0e" y="125.938493"/>
     <use style="fill:#0000ff;stroke:#0000ff;" x="155.816198" xlink:href="#mf22eee5c0e" y="129.334712"/>
     <use style="fill:#0000ff;stroke:#0000ff;" x="159.095537" xlink:href="#mf22eee5c0e" y="130.002228"/>
     <use style="fill:#0000ff;stroke:#0000ff;" x="162.374876" xlink:href="#mf22eee5c0e" y="130.715389"/>
     <use style="fill:#0000ff;stroke:#0000ff;" x="165.654215" xlink:href="#mf22eee5c0e" y="128.262136"/>
     <use style="fill:#0000ff;stroke:#0000ff;" x="168.933554" xlink:href="#mf22eee5c0e" y="131.961064"/>
     <use style="fill:#0000ff;stroke:#0000ff;" x="172.212893" xlink:href="#mf22eee5c0e" y="130.799782"/>
     <use style="fill:#0000ff;stroke:#0000ff;" x="175.492231" xlink:href="#mf22eee5c0e" y="127.662138"/>
     <use style="fill:#0000ff;stroke:#0000ff;" x="178.77157" xlink:href="#mf22eee5c0e" y="136.468529"/>
     <use style="fill:#0000ff;stroke:#0000ff;" x="182.050909" xlink:href="#mf22eee5c0e" y="132.027139"/>
     <use style="fill:#0000ff;stroke:#0000ff;" x="185.330248" xlink:href="#mf22eee5c0e" y="132.091697"/>
     <use style="fill:#0000ff;stroke:#0000ff;" x="188.609587" xlink:href="#mf22eee5c0e" y="128.545303"/>
     <use style="fill:#0000ff;stroke:#0000ff;" x="191.888926" xlink:href="#mf22eee5c0e" y="125.937022"/>
     <use style="fill:#0000ff;stroke:#0000ff;" x="195.168264" xlink:href="#mf22eee5c0e" y="130.837823"/>
     <use style="fill:#0000ff;stroke:#0000ff;" x="198.447603" xlink:href="#mf22eee5c0e" y="129.830106"/>
     <use style="fill:#0000ff;stroke:#0000ff;" x="201.726942" xlink:href="#mf22eee5c0e" y="128.821891"/>
     <use style="fill:#0000ff;stroke:#0000ff;" x="205.006281" xlink:href="#mf22eee5c0e" y="129.816469"/>
     <use style="fill:#0000ff;stroke:#0000ff;" x="208.28562" xlink:href="#mf22eee5c0e" y="133.924854"/>
     <use style="fill:#0000ff;stroke:#0000ff;" x="211.564959" xlink:href="#mf22eee5c0e" y="132.359733"/>
     <use style="fill:#0000ff;stroke:#0000ff;" x="214.844298" xlink:href="#mf22eee5c0e" y="128.563239"/>
     <use style="fill:#0000ff;stroke:#0000ff;" x="218.123636" xlink:href="#mf22eee5c0e" y="129.790067"/>
     <use style="fill:#0000ff;stroke:#0000ff;" x="221.402975" xlink:href="#mf22eee5c0e" y="137.060329"/>
     <use style="fill:#0000ff;stroke:#0000ff;" x="224.682314" xlink:href="#mf22eee5c0e" y="130.597351"/>
     <use style="fill:#0000ff;stroke:#0000ff;" x="227.961653" xlink:href="#mf22eee5c0e" y="133.077567"/>
     <use style="fill:#0000ff;stroke:#0000ff;" x="231.240992" xlink:href="#mf22eee5c0e" y="129.702954"/>
     <use style="fill:#0000ff;stroke:#0000ff;" x="234.520331" xlink:href="#mf22eee5c0e" y="129.38436"/>
     <use style="fill:#0000ff;stroke:#0000ff;" x="237.799669" xlink:href="#mf22eee5c0e" y="129.252311"/>
     <use style="fill:#0000ff;stroke:#0000ff;" x="241.079008" xlink:href="#mf22eee5c0e" y="131.682587"/>
     <use style="fill:#0000ff;stroke:#0000ff;" x="244.358347" xlink:href="#mf22eee5c0e" y="134.04184"/>
     <use style="fill:#0000ff;stroke:#0000ff;" x="247.637686" xlink:href="#mf22eee5c0e" y="130.103893"/>
     <use style="fill:#0000ff;stroke:#0000ff;" x="250.917025" xlink:href="#mf22eee5c0e" y="134.763479"/>
     <use style="fill:#0000ff;stroke:#0000ff;" x="254.196364" xlink:href="#mf22eee5c0e" y="130.869723"/>
     <use style="fill:#0000ff;stroke:#0000ff;" x="257.475702" xlink:href="#mf22eee5c0e" y="127.221746"/>
     <use style="fill:#0000ff;stroke:#0000ff;" x="260.755041" xlink:href="#mf22eee5c0e" y="129.404425"/>
     <use style="fill:#0000ff;stroke:#0000ff;" x="264.03438" xlink:href="#mf22eee5c0e" y="131.146994"/>
     <use style="fill:#0000ff;stroke:#0000ff;" x="267.313719" xlink:href="#mf22eee5c0e" y="131.172299"/>
     <use style="fill:#0000ff;stroke:#0000ff;" x="270.593058" xlink:href="#mf22eee5c0e" y="130.110938"/>
     <use style="fill:#0000ff;stroke:#0000ff;" x="273.872397" xlink:href="#mf22eee5c0e" y="134.425664"/>
     <use style="fill:#0000ff;stroke:#0000ff;" x="277.151736" xlink:href="#mf22eee5c0e" y="128.559577"/>
     <use style="fill:#0000ff;stroke:#0000ff;" x="280.431074" xlink:href="#mf22eee5c0e" y="129.928668"/>
     <use style="fill:#0000ff;stroke:#0000ff;" x="283.710413" xlink:href="#mf22eee5c0e" y="134.797087"/>
     <use style="fill:#0000ff;stroke:#0000ff;" x="286.989752" xlink:href="#mf22eee5c0e" y="129.394627"/>
     <use style="fill:#0000ff;stroke:#0000ff;" x="290.269091" xlink:href="#mf22eee5c0e" y="129.401034"/>
     <use style="fill:#0000ff;stroke:#0000ff;" x="293.54843" xlink:href="#mf22eee5c0e" y="128.008421"/>
     <use style="fill:#0000ff;stroke:#0000ff;" x="296.827769" xlink:href="#mf22eee5c0e" y="127.965084"/>
     <use style="fill:#0000ff;stroke:#0000ff;" x="300.107107" xlink:href="#mf22eee5c0e" y="131.388996"/>
     <use style="fill:#0000ff;stroke:#0000ff;" x="303.386446" xlink:href="#mf22eee5c0e" y="132.181238"/>
     <use style="fill:#0000ff;stroke:#0000ff;" x="306.665785" xlink:href="#mf22eee5c0e" y="129.99578"/>
     <use style="fill:#0000ff;stroke:#0000ff;" x="309.945124" xlink:href="#mf22eee5c0e" y="131.478119"/>
     <use style="fill:#0000ff;stroke:#0000ff;" x="313.224463" xlink:href="#mf22eee5c0e" y="131.230082"/>
     <use style="fill:#0000ff;stroke:#0000ff;" x="316.503802" xlink:href="#mf22eee5c0e" y="126.477918"/>
     <use style="fill:#0000ff;stroke:#0000ff;" x="319.78314" xlink:href="#mf22eee5c0e" y="134.028113"/>
     <use style="fill:#0000ff;stroke:#0000ff;" x="323.062479" xlink:href="#mf22eee5c0e" y="129.376057"/>
     <use style="fill:#0000ff;stroke:#0000ff;" x="326.341818" xlink:href="#mf22eee5c0e" y="135.471522"/>
     <use style="fill:#0000ff;stroke:#0000ff;" x="329.621157" xlink:href="#mf22eee5c0e" y="129.433301"/>
     <use style="fill:#0000ff;stroke:#0000ff;" x="332.900496" xlink:href="#mf22eee5c0e" y="130.917128"/>
     <use style="fill:#0000ff;stroke:#0000ff;" x="336.179835" xlink:href="#mf22eee5c0e" y="128.598822"/>
     <use style="fill:#0000ff;stroke:#0000ff;" x="339.459174" xlink:href="#mf22eee5c0e" y="131.200038"/>
     <use style="fill:#0000ff;stroke:#0000ff;" x="342.738512" xlink:href="#mf22eee5c0e" y="130.855176"/>
     <use style="fill:#0000ff;stroke:#0000ff;" x="346.017851" xlink:href="#mf22eee5c0e" y="130.461164"/>
     <use style="fill:#0000ff;stroke:#0000ff;" x="349.29719" xlink:href="#mf22eee5c0e" y="128.165663"/>
     <use style="fill:#0000ff;stroke:#0000ff;" x="352.576529" xlink:href="#mf22eee5c0e" y="127.719329"/>
     <use style="fill:#0000ff;stroke:#0000ff;" x="355.855868" xlink:href="#mf22eee5c0e" y="129.544218"/>
     <use style="fill:#0000ff;stroke:#0000ff;" x="359.135207" xlink:href="#mf22eee5c0e" y="127.534282"/>
     <use style="fill:#0000ff;stroke:#0000ff;" x="362.414545" xlink:href="#mf22eee5c0e" y="137.054928"/>
     <use style="fill:#0000ff;stroke:#0000ff;" x="365.693884" xlink:href="#mf22eee5c0e" y="127.366256"/>
     <use style="fill:#0000ff;stroke:#0000ff;" x="368.973223" xlink:href="#mf22eee5c0e" y="128.816216"/>
     <use style="fill:#0000ff;stroke:#0000ff;" x="372.252562" xlink:href="#mf22eee5c0e" y="132.583035"/>
     <use style="fill:#0000ff;stroke:#0000ff;" x="375.531901" xlink:href="#mf22eee5c0e" y="143.138366"/>
     <use style="fill:#0000ff;stroke:#0000ff;" x="378.81124" xlink:href="#mf22eee5c0e" y="130.828816"/>
     <use style="fill:#0000ff;stroke:#0000ff;" x="382.090579" xlink:href="#mf22eee5c0e" y="130.776389"/>
     <use style="fill:#0000ff;stroke:#0000ff;" x="385.369917" xlink:href="#mf22eee5c0e" y="129.744004"/>
     <use style="fill:#0000ff;stroke:#0000ff;" x="388.649256" xlink:href="#mf22eee5c0e" y="127.78989"/>
     <use style="fill:#0000ff;stroke:#0000ff;" x="391.928595" xlink:href="#mf22eee5c0e" y="130.044724"/>
     <use style="fill:#0000ff;stroke:#0000ff;" x="395.207934" xlink:href="#mf22eee5c0e" y="236.733307"/>
     <use style="fill:#0000ff;stroke:#0000ff;" x="398.487273" xlink:href="#mf22eee5c0e" y="275.073782"/>
    </g>
   </g>
   <g id="line2d_16">
    <path clip-path="url(#pc4e3e67138)" d="M 73.832727 130.176 
L 77.112066 130.176 
L 80.391405 130.176 
L 83.670744 130.176 
L 86.950083 130.176 
L 90.229421 130.176 
L 93.50876 130.176 
L 96.788099 130.176 
L 100.067438 130.176 
L 103.346777 130.176 
L 106.626116 130.176 
L 109.905455 130.176 
L 113.184793 130.176 
L 116.464132 130.176 
L 119.743471 130.176 
L 123.02281 130.176 
L 126.302149 130.176 
L 129.581488 130.176 
L 132.860826 130.176 
L 136.140165 130.176 
L 139.419504 130.176 
L 142.698843 130.176 
L 145.978182 130.176 
L 149.257521 130.176 
L 152.53686 130.176 
L 155.816198 130.176 
L 159.095537 130.176 
L 162.374876 130.176 
L 165.654215 130.176 
L 168.933554 130.176 
L 172.212893 130.176 
L 175.492231 130.176 
L 178.77157 130.176 
L 182.050909 130.176 
L 185.330248 130.176 
L 188.609587 130.176 
L 191.888926 130.176 
L 195.168264 130.176 
L 198.447603 130.176 
L 201.726942 130.176 
L 205.006281 130.176 
L 208.28562 130.176 
L 211.564959 130.176 
L 214.844298 130.176 
L 218.123636 130.176 
L 221.402975 130.176 
L 224.682314 130.176 
L 227.961653 130.176 
L 231.240992 130.176 
L 234.520331 130.176 
L 237.799669 130.176 
L 241.079008 130.176 
L 244.358347 130.176 
L 247.637686 130.176 
L 250.917025 130.176 
L 254.196364 130.176 
L 257.475702 130.176 
L 260.755041 130.176 
L 264.03438 130.176 
L 267.313719 130.176 
L 270.593058 130.176 
L 273.872397 130.176 
L 277.151736 130.176 
L 280.431074 130.176 
L 283.710413 130.176 
L 286.989752 130.176 
L 290.269091 130.176 
L 293.54843 130.176 
L 296.827769 130.176 
L 300.107107 130.176 
L 303.386446 130.176 
L 306.665785 130.176 
L 309.945124 130.176 
L 313.224463 130.176 
L 316.503802 130.176 
L 319.78314 130.176 
L 323.062479 130.176 
L 326.341818 130.176 
L 329.621157 130.176 
L 332.900496 130.176 
L 336.179835 130.176 
L 339.459174 130.176 
L 342.738512 130.176 
L 346.017851 130.176 
L 349.29719 130.176 
L 352.576529 130.176 
L 355.855868 130.176 
L 359.135207 130.176 
L 362.414545 130.176 
L 365.693884 130.176 
L 368.973223 130.176 
L 372.252562 130.176 
L 375.531901 130.176 
L 378.81124 130.176 
L 382.090579 130.176 
L 385.369917 130.176 
L 388.649256 130.176 
L 391.928595 130.176 
L 395.207934 236.6208 
L 398.487273 275.65056 
" style="fill:none;stroke:#000000;stroke-linecap:square;stroke-width:1.5;"/>
    <defs>
     <path d="M 0 3 
C 0.795609 3 1.55874 2.683901 2.12132 2.12132 
C 2.683901 1.55874 3 0.795609 3 0 
C 3 -0.795609 2.683901 -1.55874 2.12132 -2.12132 
C 1.55874 -2.683901 0.795609 -3 0 -3 
C -0.795609 -3 -1.55874 -2.683901 -2.12132 -2.12132 
C -2.683901 -1.55874 -3 -0.795609 -3 0 
C -3 0.795609 -2.683901 1.55874 -2.12132 2.12132 
C -1.55874 2.683901 -0.795609 3 0 3 
z
" id="maa02d598d9" style="stroke:#000000;"/>
    </defs>
    <g clip-path="url(#pc4e3e67138)">
     <use style="stroke:#000000;" x="73.832727" xlink:href="#maa02d598d9" y="130.176"/>
     <use style="stroke:#000000;" x="77.112066" xlink:href="#maa02d598d9" y="130.176"/>
     <use style="stroke:#000000;" x="80.391405" xlink:href="#maa02d598d9" y="130.176"/>
     <use style="stroke:#000000;" x="83.670744" xlink:href="#maa02d598d9" y="130.176"/>
     <use style="stroke:#000000;" x="86.950083" xlink:href="#maa02d598d9" y="130.176"/>
     <use style="stroke:#000000;" x="90.229421" xlink:href="#maa02d598d9" y="130.176"/>
     <use style="stroke:#000000;" x="93.50876" xlink:href="#maa02d598d9" y="130.176"/>
     <use style="stroke:#000000;" x="96.788099" xlink:href="#maa02d598d9" y="130.176"/>
     <use style="stroke:#000000;" x="100.067438" xlink:href="#maa02d598d9" y="130.176"/>
     <use style="stroke:#000000;" x="103.346777" xlink:href="#maa02d598d9" y="130.176"/>
     <use style="stroke:#000000;" x="106.626116" xlink:href="#maa02d598d9" y="130.176"/>
     <use style="stroke:#000000;" x="109.905455" xlink:href="#maa02d598d9" y="130.176"/>
     <use style="stroke:#000000;" x="113.184793" xlink:href="#maa02d598d9" y="130.176"/>
     <use style="stroke:#000000;" x="116.464132" xlink:href="#maa02d598d9" y="130.176"/>
     <use style="stroke:#000000;" x="119.743471" xlink:href="#maa02d598d9" y="130.176"/>
     <use style="stroke:#000000;" x="123.02281" xlink:href="#maa02d598d9" y="130.176"/>
     <use style="stroke:#000000;" x="126.302149" xlink:href="#maa02d598d9" y="130.176"/>
     <use style="stroke:#000000;" x="129.581488" xlink:href="#maa02d598d9" y="130.176"/>
     <use style="stroke:#000000;" x="132.860826" xlink:href="#maa02d598d9" y="130.176"/>
     <use style="stroke:#000000;" x="136.140165" xlink:href="#maa02d598d9" y="130.176"/>
     <use style="stroke:#000000;" x="139.419504" xlink:href="#maa02d598d9" y="130.176"/>
     <use style="stroke:#000000;" x="142.698843" xlink:href="#maa02d598d9" y="130.176"/>
     <use style="stroke:#000000;" x="145.978182" xlink:href="#maa02d598d9" y="130.176"/>
     <use style="stroke:#000000;" x="149.257521" xlink:href="#maa02d598d9" y="130.176"/>
     <use style="stroke:#000000;" x="152.53686" xlink:href="#maa02d598d9" y="130.176"/>
     <use style="stroke:#000000;" x="155.816198" xlink:href="#maa02d598d9" y="130.176"/>
     <use style="stroke:#000000;" x="159.095537" xlink:href="#maa02d598d9" y="130.176"/>
     <use style="stroke:#000000;" x="162.374876" xlink:href="#maa02d598d9" y="130.176"/>
     <use style="stroke:#000000;" x="165.654215" xlink:href="#maa02d598d9" y="130.176"/>
     <use style="stroke:#000000;" x="168.933554" xlink:href="#maa02d598d9" y="130.176"/>
     <use style="stroke:#000000;" x="172.212893" xlink:href="#maa02d598d9" y="130.176"/>
     <use style="stroke:#000000;" x="175.492231" xlink:href="#maa02d598d9" y="130.176"/>
     <use style="stroke:#000000;" x="178.77157" xlink:href="#maa02d598d9" y="130.176"/>
     <use style="stroke:#000000;" x="182.050909" xlink:href="#maa02d598d9" y="130.176"/>
     <use style="stroke:#000000;" x="185.330248" xlink:href="#maa02d598d9" y="130.176"/>
     <use style="stroke:#000000;" x="188.609587" xlink:href="#maa02d598d9" y="130.176"/>
     <use style="stroke:#000000;" x="191.888926" xlink:href="#maa02d598d9" y="130.176"/>
     <use style="stroke:#000000;" x="195.168264" xlink:href="#maa02d598d9" y="130.176"/>
     <use style="stroke:#000000;" x="198.447603" xlink:href="#maa02d598d9" y="130.176"/>
     <use style="stroke:#000000;" x="201.726942" xlink:href="#maa02d598d9" y="130.176"/>
     <use style="stroke:#000000;" x="205.006281" xlink:href="#maa02d598d9" y="130.176"/>
     <use style="stroke:#000000;" x="208.28562" xlink:href="#maa02d598d9" y="130.176"/>
     <use style="stroke:#000000;" x="211.564959" xlink:href="#maa02d598d9" y="130.176"/>
     <use style="stroke:#000000;" x="214.844298" xlink:href="#maa02d598d9" y="130.176"/>
     <use style="stroke:#000000;" x="218.123636" xlink:href="#maa02d598d9" y="130.176"/>
     <use style="stroke:#000000;" x="221.402975" xlink:href="#maa02d598d9" y="130.176"/>
     <use style="stroke:#000000;" x="224.682314" xlink:href="#maa02d598d9" y="130.176"/>
     <use style="stroke:#000000;" x="227.961653" xlink:href="#maa02d598d9" y="130.176"/>
     <use style="stroke:#000000;" x="231.240992" xlink:href="#maa02d598d9" y="130.176"/>
     <use style="stroke:#000000;" x="234.520331" xlink:href="#maa02d598d9" y="130.176"/>
     <use style="stroke:#000000;" x="237.799669" xlink:href="#maa02d598d9" y="130.176"/>
     <use style="stroke:#000000;" x="241.079008" xlink:href="#maa02d598d9" y="130.176"/>
     <use style="stroke:#000000;" x="244.358347" xlink:href="#maa02d598d9" y="130.176"/>
     <use style="stroke:#000000;" x="247.637686" xlink:href="#maa02d598d9" y="130.176"/>
     <use style="stroke:#000000;" x="250.917025" xlink:href="#maa02d598d9" y="130.176"/>
     <use style="stroke:#000000;" x="254.196364" xlink:href="#maa02d598d9" y="130.176"/>
     <use style="stroke:#000000;" x="257.475702" xlink:href="#maa02d598d9" y="130.176"/>
     <use style="stroke:#000000;" x="260.755041" xlink:href="#maa02d598d9" y="130.176"/>
     <use style="stroke:#000000;" x="264.03438" xlink:href="#maa02d598d9" y="130.176"/>
     <use style="stroke:#000000;" x="267.313719" xlink:href="#maa02d598d9" y="130.176"/>
     <use style="stroke:#000000;" x="270.593058" xlink:href="#maa02d598d9" y="130.176"/>
     <use style="stroke:#000000;" x="273.872397" xlink:href="#maa02d598d9" y="130.176"/>
     <use style="stroke:#000000;" x="277.151736" xlink:href="#maa02d598d9" y="130.176"/>
     <use style="stroke:#000000;" x="280.431074" xlink:href="#maa02d598d9" y="130.176"/>
     <use style="stroke:#000000;" x="283.710413" xlink:href="#maa02d598d9" y="130.176"/>
     <use style="stroke:#000000;" x="286.989752" xlink:href="#maa02d598d9" y="130.176"/>
     <use style="stroke:#000000;" x="290.269091" xlink:href="#maa02d598d9" y="130.176"/>
     <use style="stroke:#000000;" x="293.54843" xlink:href="#maa02d598d9" y="130.176"/>
     <use style="stroke:#000000;" x="296.827769" xlink:href="#maa02d598d9" y="130.176"/>
     <use style="stroke:#000000;" x="300.107107" xlink:href="#maa02d598d9" y="130.176"/>
     <use style="stroke:#000000;" x="303.386446" xlink:href="#maa02d598d9" y="130.176"/>
     <use style="stroke:#000000;" x="306.665785" xlink:href="#maa02d598d9" y="130.176"/>
     <use style="stroke:#000000;" x="309.945124" xlink:href="#maa02d598d9" y="130.176"/>
     <use style="stroke:#000000;" x="313.224463" xlink:href="#maa02d598d9" y="130.176"/>
     <use style="stroke:#000000;" x="316.503802" xlink:href="#maa02d598d9" y="130.176"/>
     <use style="stroke:#000000;" x="319.78314" xlink:href="#maa02d598d9" y="130.176"/>
     <use style="stroke:#000000;" x="323.062479" xlink:href="#maa02d598d9" y="130.176"/>
     <use style="stroke:#000000;" x="326.341818" xlink:href="#maa02d598d9" y="130.176"/>
     <use style="stroke:#000000;" x="329.621157" xlink:href="#maa02d598d9" y="130.176"/>
     <use style="stroke:#000000;" x="332.900496" xlink:href="#maa02d598d9" y="130.176"/>
     <use style="stroke:#000000;" x="336.179835" xlink:href="#maa02d598d9" y="130.176"/>
     <use style="stroke:#000000;" x="339.459174" xlink:href="#maa02d598d9" y="130.176"/>
     <use style="stroke:#000000;" x="342.738512" xlink:href="#maa02d598d9" y="130.176"/>
     <use style="stroke:#000000;" x="346.017851" xlink:href="#maa02d598d9" y="130.176"/>
     <use style="stroke:#000000;" x="349.29719" xlink:href="#maa02d598d9" y="130.176"/>
     <use style="stroke:#000000;" x="352.576529" xlink:href="#maa02d598d9" y="130.176"/>
     <use style="stroke:#000000;" x="355.855868" xlink:href="#maa02d598d9" y="130.176"/>
     <use style="stroke:#000000;" x="359.135207" xlink:href="#maa02d598d9" y="130.176"/>
     <use style="stroke:#000000;" x="362.414545" xlink:href="#maa02d598d9" y="130.176"/>
     <use style="stroke:#000000;" x="365.693884" xlink:href="#maa02d598d9" y="130.176"/>
     <use style="stroke:#000000;" x="368.973223" xlink:href="#maa02d598d9" y="130.176"/>
     <use style="stroke:#000000;" x="372.252562" xlink:href="#maa02d598d9" y="130.176"/>
     <use style="stroke:#000000;" x="375.531901" xlink:href="#maa02d598d9" y="130.176"/>
     <use style="stroke:#000000;" x="378.81124" xlink:href="#maa02d598d9" y="130.176"/>
     <use style="stroke:#000000;" x="382.090579" xlink:href="#maa02d598d9" y="130.176"/>
     <use style="stroke:#000000;" x="385.369917" xlink:href="#maa02d598d9" y="130.176"/>
     <use style="stroke:#000000;" x="388.649256" xlink:href="#maa02d598d9" y="130.176"/>
     <use style="stroke:#000000;" x="391.928595" xlink:href="#maa02d598d9" y="130.176"/>
     <use style="stroke:#000000;" x="395.207934" xlink:href="#maa02d598d9" y="236.6208"/>
     <use style="stroke:#000000;" x="398.487273" xlink:href="#maa02d598d9" y="275.65056"/>
    </g>
   </g>
   <g id="line2d_17">
    <path clip-path="url(#pc4e3e67138)" d="M 73.832727 144.731381 
L 77.112066 148.799361 
L 80.391405 150.853451 
L 83.670744 148.460735 
L 86.950083 142.183742 
L 90.229421 139.800056 
L 93.50876 146.654331 
L 96.788099 141.412357 
L 100.067438 150.906732 
L 103.346777 144.940493 
L 106.626116 156.779758 
L 109.905455 143.103827 
L 113.184793 147.673913 
L 116.464132 155.330758 
L 119.743471 150.662377 
L 123.02281 145.064944 
L 126.302149 151.297306 
L 129.581488 138.984991 
L 132.860826 143.323166 
L 136.140165 145.166707 
L 139.419504 145.271367 
L 142.698843 151.654202 
L 145.978182 145.684504 
L 149.257521 142.206585 
L 152.53686 136.952133 
L 155.816198 143.974609 
L 159.095537 144.571186 
L 162.374876 145.301313 
L 165.654215 141.667462 
L 168.933554 148.023132 
L 172.212893 146.722668 
L 175.492231 139.364872 
L 178.77157 157.994375 
L 182.050909 148.406614 
L 185.330248 149.3181 
L 188.609587 141.959954 
L 191.888926 136.975598 
L 195.168264 145.934116 
L 198.447603 144.607868 
L 201.726942 142.834437 
L 205.006281 144.458192 
L 208.28562 152.903108 
L 211.564959 148.788505 
L 214.844298 141.763785 
L 218.123636 144.223722 
L 221.402975 157.767465 
L 224.682314 145.668352 
L 227.961653 150.17685 
L 231.240992 144.123254 
L 234.520331 143.659126 
L 237.799669 143.500082 
L 241.079008 147.253893 
L 244.358347 152.371333 
L 247.637686 145.063485 
L 250.917025 153.505642 
L 254.196364 146.638855 
L 257.475702 139.497194 
L 260.755041 143.967578 
L 264.03438 147.467446 
L 267.313719 146.929182 
L 270.593058 144.253135 
L 273.872397 153.164849 
L 277.151736 141.207576 
L 280.431074 144.94415 
L 283.710413 152.669186 
L 286.989752 142.642239 
L 290.269091 143.966302 
L 293.54843 140.656221 
L 296.827769 140.550796 
L 300.107107 147.630633 
L 303.386446 149.594726 
L 306.665785 144.418907 
L 309.945124 147.799865 
L 313.224463 147.735915 
L 316.503802 137.95612 
L 319.78314 152.559532 
L 323.062479 143.90676 
L 326.341818 155.887346 
L 329.621157 143.916548 
L 332.900496 146.812983 
L 336.179835 142.169758 
L 339.459174 146.664305 
L 342.738512 146.661494 
L 346.017851 145.704838 
L 349.29719 141.568779 
L 352.576529 140.208257 
L 355.855868 143.020904 
L 359.135207 139.72085 
L 362.414545 158.919975 
L 365.693884 139.907553 
L 368.973223 142.598697 
L 372.252562 150.152919 
L 375.531901 170.263981 
L 378.81124 146.79505 
L 382.090579 146.180214 
L 385.369917 144.499516 
L 388.649256 140.353316 
L 391.928595 144.92167 
L 395.207934 238.328071 
L 398.487273 276.685958 
" style="fill:none;stroke:#008000;stroke-linecap:square;stroke-width:1.5;"/>
    <defs>
     <path d="M -3 0 
L 0 4.5 
L 3 0 
" id="m03654f7551" style="stroke:#008000;stroke-linejoin:miter;"/>
    </defs>
    <g clip-path="url(#pc4e3e67138)">
     <use style="fill:#008000;stroke:#008000;stroke-linejoin:miter;" x="73.832727" xlink:href="#m03654f7551" y="144.731381"/>
     <use style="fill:#008000;stroke:#008000;stroke-linejoin:miter;" x="77.112066" xlink:href="#m03654f7551" y="148.799361"/>
     <use style="fill:#008000;stroke:#008000;stroke-linejoin:miter;" x="80.391405" xlink:href="#m03654f7551" y="150.853451"/>
     <use style="fill:#008000;stroke:#008000;stroke-linejoin:miter;" x="83.670744" xlink:href="#m03654f7551" y="148.460735"/>
     <use style="fill:#008000;stroke:#008000;stroke-linejoin:miter;" x="86.950083" xlink:href="#m03654f7551" y="142.183742"/>
     <use style="fill:#008000;stroke:#008000;stroke-linejoin:miter;" x="90.229421" xlink:href="#m03654f7551" y="139.800056"/>
     <use style="fill:#008000;stroke:#008000;stroke-linejoin:miter;" x="93.50876" xlink:href="#m03654f7551" y="146.654331"/>
     <use style="fill:#008000;stroke:#008000;stroke-linejoin:miter;" x="96.788099" xlink:href="#m03654f7551" y="141.412357"/>
     <use style="fill:#008000;stroke:#008000;stroke-linejoin:miter;" x="100.067438" xlink:href="#m03654f7551" y="150.906732"/>
     <use style="fill:#008000;stroke:#008000;stroke-linejoin:miter;" x="103.346777" xlink:href="#m03654f7551" y="144.940493"/>
     <use style="fill:#008000;stroke:#008000;stroke-linejoin:miter;" x="106.626116" xlink:href="#m03654f7551" y="156.779758"/>
     <use style="fill:#008000;stroke:#008000;stroke-linejoin:miter;" x="109.905455" xlink:href="#m03654f7551" y="143.103827"/>
     <use style="fill:#008000;stroke:#008000;stroke-linejoin:miter;" x="113.184793" xlink:href="#m03654f7551" y="147.673913"/>
     <use style="fill:#008000;stroke:#008000;stroke-linejoin:miter;" x="116.464132" xlink:href="#m03654f7551" y="155.330758"/>
     <use style="fill:#008000;stroke:#008000;stroke-linejoin:miter;" x="119.743471" xlink:href="#m03654f7551" y="150.662377"/>
     <use style="fill:#008000;stroke:#008000;stroke-linejoin:miter;" x="123.02281" xlink:href="#m03654f7551" y="145.064944"/>
     <use style="fill:#008000;stroke:#008000;stroke-linejoin:miter;" x="126.302149" xlink:href="#m03654f7551" y="151.297306"/>
     <use style="fill:#008000;stroke:#008000;stroke-linejoin:miter;" x="129.581488" xlink:href="#m03654f7551" y="138.984991"/>
     <use style="fill:#008000;stroke:#008000;stroke-linejoin:miter;" x="132.860826" xlink:href="#m03654f7551" y="143.323166"/>
     <use style="fill:#008000;stroke:#008000;stroke-linejoin:miter;" x="136.140165" xlink:href="#m03654f7551" y="145.166707"/>
     <use style="fill:#008000;stroke:#008000;stroke-linejoin:miter;" x="139.419504" xlink:href="#m03654f7551" y="145.271367"/>
     <use style="fill:#008000;stroke:#008000;stroke-linejoin:miter;" x="142.698843" xlink:href="#m03654f7551" y="151.654202"/>
     <use style="fill:#008000;stroke:#008000;stroke-linejoin:miter;" x="145.978182" xlink:href="#m03654f7551" y="145.684504"/>
     <use style="fill:#008000;stroke:#008000;stroke-linejoin:miter;" x="149.257521" xlink:href="#m03654f7551" y="142.206585"/>
     <use style="fill:#008000;stroke:#008000;stroke-linejoin:miter;" x="152.53686" xlink:href="#m03654f7551" y="136.952133"/>
     <use style="fill:#008000;stroke:#008000;stroke-linejoin:miter;" x="155.816198" xlink:href="#m03654f7551" y="143.974609"/>
     <use style="fill:#008000;stroke:#008000;stroke-linejoin:miter;" x="159.095537" xlink:href="#m03654f7551" y="144.571186"/>
     <use style="fill:#008000;stroke:#008000;stroke-linejoin:miter;" x="162.374876" xlink:href="#m03654f7551" y="145.301313"/>
     <use style="fill:#008000;stroke:#008000;stroke-linejoin:miter;" x="165.654215" xlink:href="#m03654f7551" y="141.667462"/>
     <use style="fill:#008000;stroke:#008000;stroke-linejoin:miter;" x="168.933554" xlink:href="#m03654f7551" y="148.023132"/>
     <use style="fill:#008000;stroke:#008000;stroke-linejoin:miter;" x="172.212893" xlink:href="#m03654f7551" y="146.722668"/>
     <use style="fill:#008000;stroke:#008000;stroke-linejoin:miter;" x="175.492231" xlink:href="#m03654f7551" y="139.364872"/>
     <use style="fill:#008000;stroke:#008000;stroke-linejoin:miter;" x="178.77157" xlink:href="#m03654f7551" y="157.994375"/>
     <use style="fill:#008000;stroke:#008000;stroke-linejoin:miter;" x="182.050909" xlink:href="#m03654f7551" y="148.406614"/>
     <use style="fill:#008000;stroke:#008000;stroke-linejoin:miter;" x="185.330248" xlink:href="#m03654f7551" y="149.3181"/>
     <use style="fill:#008000;stroke:#008000;stroke-linejoin:miter;" x="188.609587" xlink:href="#m03654f7551" y="141.959954"/>
     <use style="fill:#008000;stroke:#008000;stroke-linejoin:miter;" x="191.888926" xlink:href="#m03654f7551" y="136.975598"/>
     <use style="fill:#008000;stroke:#008000;stroke-linejoin:miter;" x="195.168264" xlink:href="#m03654f7551" y="145.934116"/>
     <use style="fill:#008000;stroke:#008000;stroke-linejoin:miter;" x="198.447603" xlink:href="#m03654f7551" y="144.607868"/>
     <use style="fill:#008000;stroke:#008000;stroke-linejoin:miter;" x="201.726942" xlink:href="#m03654f7551" y="142.834437"/>
     <use style="fill:#008000;stroke:#008000;stroke-linejoin:miter;" x="205.006281" xlink:href="#m03654f7551" y="144.458192"/>
     <use style="fill:#008000;stroke:#008000;stroke-linejoin:miter;" x="208.28562" xlink:href="#m03654f7551" y="152.903108"/>
     <use style="fill:#008000;stroke:#008000;stroke-linejoin:miter;" x="211.564959" xlink:href="#m03654f7551" y="148.788505"/>
     <use style="fill:#008000;stroke:#008000;stroke-linejoin:miter;" x="214.844298" xlink:href="#m03654f7551" y="141.763785"/>
     <use style="fill:#008000;stroke:#008000;stroke-linejoin:miter;" x="218.123636" xlink:href="#m03654f7551" y="144.223722"/>
     <use style="fill:#008000;stroke:#008000;stroke-linejoin:miter;" x="221.402975" xlink:href="#m03654f7551" y="157.767465"/>
     <use style="fill:#008000;stroke:#008000;stroke-linejoin:miter;" x="224.682314" xlink:href="#m03654f7551" y="145.668352"/>
     <use style="fill:#008000;stroke:#008000;stroke-linejoin:miter;" x="227.961653" xlink:href="#m03654f7551" y="150.17685"/>
     <use style="fill:#008000;stroke:#008000;stroke-linejoin:miter;" x="231.240992" xlink:href="#m03654f7551" y="144.123254"/>
     <use style="fill:#008000;stroke:#008000;stroke-linejoin:miter;" x="234.520331" xlink:href="#m03654f7551" y="143.659126"/>
     <use style="fill:#008000;stroke:#008000;stroke-linejoin:miter;" x="237.799669" xlink:href="#m03654f7551" y="143.500082"/>
     <use style="fill:#008000;stroke:#008000;stroke-linejoin:miter;" x="241.079008" xlink:href="#m03654f7551" y="147.253893"/>
     <use style="fill:#008000;stroke:#008000;stroke-linejoin:miter;" x="244.358347" xlink:href="#m03654f7551" y="152.371333"/>
     <use style="fill:#008000;stroke:#008000;stroke-linejoin:miter;" x="247.637686" xlink:href="#m03654f7551" y="145.063485"/>
     <use style="fill:#008000;stroke:#008000;stroke-linejoin:miter;" x="250.917025" xlink:href="#m03654f7551" y="153.505642"/>
     <use style="fill:#008000;stroke:#008000;stroke-linejoin:miter;" x="254.196364" xlink:href="#m03654f7551" y="146.638855"/>
     <use style="fill:#008000;stroke:#008000;stroke-linejoin:miter;" x="257.475702" xlink:href="#m03654f7551" y="139.497194"/>
     <use style="fill:#008000;stroke:#008000;stroke-linejoin:miter;" x="260.755041" xlink:href="#m03654f7551" y="143.967578"/>
     <use style="fill:#008000;stroke:#008000;stroke-linejoin:miter;" x="264.03438" xlink:href="#m03654f7551" y="147.467446"/>
     <use style="fill:#008000;stroke:#008000;stroke-linejoin:miter;" x="267.313719" xlink:href="#m03654f7551" y="146.929182"/>
     <use style="fill:#008000;stroke:#008000;stroke-linejoin:miter;" x="270.593058" xlink:href="#m03654f7551" y="144.253135"/>
     <use style="fill:#008000;stroke:#008000;stroke-linejoin:miter;" x="273.872397" xlink:href="#m03654f7551" y="153.164849"/>
     <use style="fill:#008000;stroke:#008000;stroke-linejoin:miter;" x="277.151736" xlink:href="#m03654f7551" y="141.207576"/>
     <use style="fill:#008000;stroke:#008000;stroke-linejoin:miter;" x="280.431074" xlink:href="#m03654f7551" y="144.94415"/>
     <use style="fill:#008000;stroke:#008000;stroke-linejoin:miter;" x="283.710413" xlink:href="#m03654f7551" y="152.669186"/>
     <use style="fill:#008000;stroke:#008000;stroke-linejoin:miter;" x="286.989752" xlink:href="#m03654f7551" y="142.642239"/>
     <use style="fill:#008000;stroke:#008000;stroke-linejoin:miter;" x="290.269091" xlink:href="#m03654f7551" y="143.966302"/>
     <use style="fill:#008000;stroke:#008000;stroke-linejoin:miter;" x="293.54843" xlink:href="#m03654f7551" y="140.656221"/>
     <use style="fill:#008000;stroke:#008000;stroke-linejoin:miter;" x="296.827769" xlink:href="#m03654f7551" y="140.550796"/>
     <use style="fill:#008000;stroke:#008000;stroke-linejoin:miter;" x="300.107107" xlink:href="#m03654f7551" y="147.630633"/>
     <use style="fill:#008000;stroke:#008000;stroke-linejoin:miter;" x="303.386446" xlink:href="#m03654f7551" y="149.594726"/>
     <use style="fill:#008000;stroke:#008000;stroke-linejoin:miter;" x="306.665785" xlink:href="#m03654f7551" y="144.418907"/>
     <use style="fill:#008000;stroke:#008000;stroke-linejoin:miter;" x="309.945124" xlink:href="#m03654f7551" y="147.799865"/>
     <use style="fill:#008000;stroke:#008000;stroke-linejoin:miter;" x="313.224463" xlink:href="#m03654f7551" y="147.735915"/>
     <use style="fill:#008000;stroke:#008000;stroke-linejoin:miter;" x="316.503802" xlink:href="#m03654f7551" y="137.95612"/>
     <use style="fill:#008000;stroke:#008000;stroke-linejoin:miter;" x="319.78314" xlink:href="#m03654f7551" y="152.559532"/>
     <use style="fill:#008000;stroke:#008000;stroke-linejoin:miter;" x="323.062479" xlink:href="#m03654f7551" y="143.90676"/>
     <use style="fill:#008000;stroke:#008000;stroke-linejoin:miter;" x="326.341818" xlink:href="#m03654f7551" y="155.887346"/>
     <use style="fill:#008000;stroke:#008000;stroke-linejoin:miter;" x="329.621157" xlink:href="#m03654f7551" y="143.916548"/>
     <use style="fill:#008000;stroke:#008000;stroke-linejoin:miter;" x="332.900496" xlink:href="#m03654f7551" y="146.812983"/>
     <use style="fill:#008000;stroke:#008000;stroke-linejoin:miter;" x="336.179835" xlink:href="#m03654f7551" y="142.169758"/>
     <use style="fill:#008000;stroke:#008000;stroke-linejoin:miter;" x="339.459174" xlink:href="#m03654f7551" y="146.664305"/>
     <use style="fill:#008000;stroke:#008000;stroke-linejoin:miter;" x="342.738512" xlink:href="#m03654f7551" y="146.661494"/>
     <use style="fill:#008000;stroke:#008000;stroke-linejoin:miter;" x="346.017851" xlink:href="#m03654f7551" y="145.704838"/>
     <use style="fill:#008000;stroke:#008000;stroke-linejoin:miter;" x="349.29719" xlink:href="#m03654f7551" y="141.568779"/>
     <use style="fill:#008000;stroke:#008000;stroke-linejoin:miter;" x="352.576529" xlink:href="#m03654f7551" y="140.208257"/>
     <use style="fill:#008000;stroke:#008000;stroke-linejoin:miter;" x="355.855868" xlink:href="#m03654f7551" y="143.020904"/>
     <use style="fill:#008000;stroke:#008000;stroke-linejoin:miter;" x="359.135207" xlink:href="#m03654f7551" y="139.72085"/>
     <use style="fill:#008000;stroke:#008000;stroke-linejoin:miter;" x="362.414545" xlink:href="#m03654f7551" y="158.919975"/>
     <use style="fill:#008000;stroke:#008000;stroke-linejoin:miter;" x="365.693884" xlink:href="#m03654f7551" y="139.907553"/>
     <use style="fill:#008000;stroke:#008000;stroke-linejoin:miter;" x="368.973223" xlink:href="#m03654f7551" y="142.598697"/>
     <use style="fill:#008000;stroke:#008000;stroke-linejoin:miter;" x="372.252562" xlink:href="#m03654f7551" y="150.152919"/>
     <use style="fill:#008000;stroke:#008000;stroke-linejoin:miter;" x="375.531901" xlink:href="#m03654f7551" y="170.263981"/>
     <use style="fill:#008000;stroke:#008000;stroke-linejoin:miter;" x="378.81124" xlink:href="#m03654f7551" y="146.79505"/>
     <use style="fill:#008000;stroke:#008000;stroke-linejoin:miter;" x="382.090579" xlink:href="#m03654f7551" y="146.180214"/>
     <use style="fill:#008000;stroke:#008000;stroke-linejoin:miter;" x="385.369917" xlink:href="#m03654f7551" y="144.499516"/>
     <use style="fill:#008000;stroke:#008000;stroke-linejoin:miter;" x="388.649256" xlink:href="#m03654f7551" y="140.353316"/>
     <use style="fill:#008000;stroke:#008000;stroke-linejoin:miter;" x="391.928595" xlink:href="#m03654f7551" y="144.92167"/>
     <use style="fill:#008000;stroke:#008000;stroke-linejoin:miter;" x="395.207934" xlink:href="#m03654f7551" y="238.328071"/>
     <use style="fill:#008000;stroke:#008000;stroke-linejoin:miter;" x="398.487273" xlink:href="#m03654f7551" y="276.685958"/>
    </g>
   </g>
   <g id="line2d_18">
    <path clip-path="url(#pc4e3e67138)" d="M 73.832727 114.472867 
L 77.112066 114.445915 
L 80.391405 114.452995 
L 83.670744 114.446433 
L 86.950083 114.449945 
L 90.229421 114.445258 
L 93.50876 114.447645 
L 96.788099 114.466766 
L 100.067438 114.454639 
L 103.346777 114.445789 
L 106.626116 114.481353 
L 109.905455 114.44766 
L 113.184793 114.447503 
L 116.464132 114.446028 
L 119.743471 114.454961 
L 123.02281 114.466706 
L 126.302149 114.451895 
L 129.581488 114.456425 
L 132.860826 114.453269 
L 136.140165 114.4495 
L 139.419504 114.461205 
L 142.698843 114.47331 
L 145.978182 114.474899 
L 149.257521 114.457897 
L 152.53686 114.446007 
L 155.816198 114.449451 
L 159.095537 114.472466 
L 162.374876 114.470349 
L 165.654215 114.465445 
L 168.933554 114.515787 
L 172.212893 114.459619 
L 175.492231 114.44614 
L 178.77157 114.46037 
L 182.050909 114.494412 
L 185.330248 114.464705 
L 188.609587 114.463253 
L 191.888926 114.461102 
L 195.168264 114.46704 
L 198.447603 114.449078 
L 201.726942 114.468473 
L 205.006281 114.476466 
L 208.28562 114.464969 
L 211.564959 114.469234 
L 214.844298 114.475615 
L 218.123636 114.46806 
L 221.402975 114.523023 
L 224.682314 114.47239 
L 227.961653 114.475746 
L 231.240992 114.472329 
L 234.520331 114.462749 
L 237.799669 114.504498 
L 241.079008 114.446037 
L 244.358347 114.457616 
L 247.637686 114.46192 
L 250.917025 114.466553 
L 254.196364 114.479898 
L 257.475702 114.452648 
L 260.755041 114.455096 
L 264.03438 114.46482 
L 267.313719 114.47928 
L 270.593058 114.489319 
L 273.872397 114.488072 
L 277.151736 114.453325 
L 280.431074 114.464586 
L 283.710413 114.550314 
L 286.989752 114.467484 
L 290.269091 114.447255 
L 293.54843 114.45062 
L 296.827769 114.477125 
L 300.107107 114.461591 
L 303.386446 114.447278 
L 306.665785 114.483449 
L 309.945124 114.467617 
L 313.224463 114.449533 
L 316.503802 114.447075 
L 319.78314 114.473949 
L 323.062479 114.447807 
L 326.341818 114.520452 
L 329.621157 114.492857 
L 332.900496 114.457897 
L 336.179835 114.449441 
L 339.459174 114.503917 
L 342.738512 114.496078 
L 346.017851 114.483624 
L 349.29719 114.44772 
L 352.576529 114.464826 
L 355.855868 114.464213 
L 359.135207 114.476395 
L 362.414545 114.467592 
L 365.693884 114.448762 
L 368.973223 114.455909 
L 372.252562 114.478504 
L 375.531901 114.557126 
L 378.81124 114.455108 
L 382.090579 114.452197 
L 385.369917 114.448274 
L 388.649256 114.453415 
L 391.928595 114.456009 
L 395.207934 235.313392 
L 398.487273 273.459886 
" style="fill:none;stroke:#ff0000;stroke-linecap:square;stroke-width:1.5;"/>
    <defs>
     <path d="M 3 0 
L 0 -4.5 
L -3 -0 
" id="m16f69b2698" style="stroke:#ff0000;stroke-linejoin:miter;"/>
    </defs>
    <g clip-path="url(#pc4e3e67138)">
     <use style="fill:#ff0000;stroke:#ff0000;stroke-linejoin:miter;" x="73.832727" xlink:href="#m16f69b2698" y="114.472867"/>
     <use style="fill:#ff0000;stroke:#ff0000;stroke-linejoin:miter;" x="77.112066" xlink:href="#m16f69b2698" y="114.445915"/>
     <use style="fill:#ff0000;stroke:#ff0000;stroke-linejoin:miter;" x="80.391405" xlink:href="#m16f69b2698" y="114.452995"/>
     <use style="fill:#ff0000;stroke:#ff0000;stroke-linejoin:miter;" x="83.670744" xlink:href="#m16f69b2698" y="114.446433"/>
     <use style="fill:#ff0000;stroke:#ff0000;stroke-linejoin:miter;" x="86.950083" xlink:href="#m16f69b2698" y="114.449945"/>
     <use style="fill:#ff0000;stroke:#ff0000;stroke-linejoin:miter;" x="90.229421" xlink:href="#m16f69b2698" y="114.445258"/>
     <use style="fill:#ff0000;stroke:#ff0000;stroke-linejoin:miter;" x="93.50876" xlink:href="#m16f69b2698" y="114.447645"/>
     <use style="fill:#ff0000;stroke:#ff0000;stroke-linejoin:miter;" x="96.788099" xlink:href="#m16f69b2698" y="114.466766"/>
     <use style="fill:#ff0000;stroke:#ff0000;stroke-linejoin:miter;" x="100.067438" xlink:href="#m16f69b2698" y="114.454639"/>
     <use style="fill:#ff0000;stroke:#ff0000;stroke-linejoin:miter;" x="103.346777" xlink:href="#m16f69b2698" y="114.445789"/>
     <use style="fill:#ff0000;stroke:#ff0000;stroke-linejoin:miter;" x="106.626116" xlink:href="#m16f69b2698" y="114.481353"/>
     <use style="fill:#ff0000;stroke:#ff0000;stroke-linejoin:miter;" x="109.905455" xlink:href="#m16f69b2698" y="114.44766"/>
     <use style="fill:#ff0000;stroke:#ff0000;stroke-linejoin:miter;" x="113.184793" xlink:href="#m16f69b2698" y="114.447503"/>
     <use style="fill:#ff0000;stroke:#ff0000;stroke-linejoin:miter;" x="116.464132" xlink:href="#m16f69b2698" y="114.446028"/>
     <use style="fill:#ff0000;stroke:#ff0000;stroke-linejoin:miter;" x="119.743471" xlink:href="#m16f69b2698" y="114.454961"/>
     <use style="fill:#ff0000;stroke:#ff0000;stroke-linejoin:miter;" x="123.02281" xlink:href="#m16f69b2698" y="114.466706"/>
     <use style="fill:#ff0000;stroke:#ff0000;stroke-linejoin:miter;" x="126.302149" xlink:href="#m16f69b2698" y="114.451895"/>
     <use style="fill:#ff0000;stroke:#ff0000;stroke-linejoin:miter;" x="129.581488" xlink:href="#m16f69b2698" y="114.456425"/>
     <use style="fill:#ff0000;stroke:#ff0000;stroke-linejoin:miter;" x="132.860826" xlink:href="#m16f69b2698" y="114.453269"/>
     <use style="fill:#ff0000;stroke:#ff0000;stroke-linejoin:miter;" x="136.140165" xlink:href="#m16f69b2698" y="114.4495"/>
     <use style="fill:#ff0000;stroke:#ff0000;stroke-linejoin:miter;" x="139.419504" xlink:href="#m16f69b2698" y="114.461205"/>
     <use style="fill:#ff0000;stroke:#ff0000;stroke-linejoin:miter;" x="142.698843" xlink:href="#m16f69b2698" y="114.47331"/>
     <use style="fill:#ff0000;stroke:#ff0000;stroke-linejoin:miter;" x="145.978182" xlink:href="#m16f69b2698" y="114.474899"/>
     <use style="fill:#ff0000;stroke:#ff0000;stroke-linejoin:miter;" x="149.257521" xlink:href="#m16f69b2698" y="114.457897"/>
     <use style="fill:#ff0000;stroke:#ff0000;stroke-linejoin:miter;" x="152.53686" xlink:href="#m16f69b2698" y="114.446007"/>
     <use style="fill:#ff0000;stroke:#ff0000;stroke-linejoin:miter;" x="155.816198" xlink:href="#m16f69b2698" y="114.449451"/>
     <use style="fill:#ff0000;stroke:#ff0000;stroke-linejoin:miter;" x="159.095537" xlink:href="#m16f69b2698" y="114.472466"/>
     <use style="fill:#ff0000;stroke:#ff0000;stroke-linejoin:miter;" x="162.374876" xlink:href="#m16f69b2698" y="114.470349"/>
     <use style="fill:#ff0000;stroke:#ff0000;stroke-linejoin:miter;" x="165.654215" xlink:href="#m16f69b2698" y="114.465445"/>
     <use style="fill:#ff0000;stroke:#ff0000;stroke-linejoin:miter;" x="168.933554" xlink:href="#m16f69b2698" y="114.515787"/>
     <use style="fill:#ff0000;stroke:#ff0000;stroke-linejoin:miter;" x="172.212893" xlink:href="#m16f69b2698" y="114.459619"/>
     <use style="fill:#ff0000;stroke:#ff0000;stroke-linejoin:miter;" x="175.492231" xlink:href="#m16f69b2698" y="114.44614"/>
     <use style="fill:#ff0000;stroke:#ff0000;stroke-linejoin:miter;" x="178.77157" xlink:href="#m16f69b2698" y="114.46037"/>
     <use style="fill:#ff0000;stroke:#ff0000;stroke-linejoin:miter;" x="182.050909" xlink:href="#m16f69b2698" y="114.494412"/>
     <use style="fill:#ff0000;stroke:#ff0000;stroke-linejoin:miter;" x="185.330248" xlink:href="#m16f69b2698" y="114.464705"/>
     <use style="fill:#ff0000;stroke:#ff0000;stroke-linejoin:miter;" x="188.609587" xlink:href="#m16f69b2698" y="114.463253"/>
     <use style="fill:#ff0000;stroke:#ff0000;stroke-linejoin:miter;" x="191.888926" xlink:href="#m16f69b2698" y="114.461102"/>
     <use style="fill:#ff0000;stroke:#ff0000;stroke-linejoin:miter;" x="195.168264" xlink:href="#m16f69b2698" y="114.46704"/>
     <use style="fill:#ff0000;stroke:#ff0000;stroke-linejoin:miter;" x="198.447603" xlink:href="#m16f69b2698" y="114.449078"/>
     <use style="fill:#ff0000;stroke:#ff0000;stroke-linejoin:miter;" x="201.726942" xlink:href="#m16f69b2698" y="114.468473"/>
     <use style="fill:#ff0000;stroke:#ff0000;stroke-linejoin:miter;" x="205.006281" xlink:href="#m16f69b2698" y="114.476466"/>
     <use style="fill:#ff0000;stroke:#ff0000;stroke-linejoin:miter;" x="208.28562" xlink:href="#m16f69b2698" y="114.464969"/>
     <use style="fill:#ff0000;stroke:#ff0000;stroke-linejoin:miter;" x="211.564959" xlink:href="#m16f69b2698" y="114.469234"/>
     <use style="fill:#ff0000;stroke:#ff0000;stroke-linejoin:miter;" x="214.844298" xlink:href="#m16f69b2698" y="114.475615"/>
     <use style="fill:#ff0000;stroke:#ff0000;stroke-linejoin:miter;" x="218.123636" xlink:href="#m16f69b2698" y="114.46806"/>
     <use style="fill:#ff0000;stroke:#ff0000;stroke-linejoin:miter;" x="221.402975" xlink:href="#m16f69b2698" y="114.523023"/>
     <use style="fill:#ff0000;stroke:#ff0000;stroke-linejoin:miter;" x="224.682314" xlink:href="#m16f69b2698" y="114.47239"/>
     <use style="fill:#ff0000;stroke:#ff0000;stroke-linejoin:miter;" x="227.961653" xlink:href="#m16f69b2698" y="114.475746"/>
     <use style="fill:#ff0000;stroke:#ff0000;stroke-linejoin:miter;" x="231.240992" xlink:href="#m16f69b2698" y="114.472329"/>
     <use style="fill:#ff0000;stroke:#ff0000;stroke-linejoin:miter;" x="234.520331" xlink:href="#m16f69b2698" y="114.462749"/>
     <use style="fill:#ff0000;stroke:#ff0000;stroke-linejoin:miter;" x="237.799669" xlink:href="#m16f69b2698" y="114.504498"/>
     <use style="fill:#ff0000;stroke:#ff0000;stroke-linejoin:miter;" x="241.079008" xlink:href="#m16f69b2698" y="114.446037"/>
     <use style="fill:#ff0000;stroke:#ff0000;stroke-linejoin:miter;" x="244.358347" xlink:href="#m16f69b2698" y="114.457616"/>
     <use style="fill:#ff0000;stroke:#ff0000;stroke-linejoin:miter;" x="247.637686" xlink:href="#m16f69b2698" y="114.46192"/>
     <use style="fill:#ff0000;stroke:#ff0000;stroke-linejoin:miter;" x="250.917025" xlink:href="#m16f69b2698" y="114.466553"/>
     <use style="fill:#ff0000;stroke:#ff0000;stroke-linejoin:miter;" x="254.196364" xlink:href="#m16f69b2698" y="114.479898"/>
     <use style="fill:#ff0000;stroke:#ff0000;stroke-linejoin:miter;" x="257.475702" xlink:href="#m16f69b2698" y="114.452648"/>
     <use style="fill:#ff0000;stroke:#ff0000;stroke-linejoin:miter;" x="260.755041" xlink:href="#m16f69b2698" y="114.455096"/>
     <use style="fill:#ff0000;stroke:#ff0000;stroke-linejoin:miter;" x="264.03438" xlink:href="#m16f69b2698" y="114.46482"/>
     <use style="fill:#ff0000;stroke:#ff0000;stroke-linejoin:miter;" x="267.313719" xlink:href="#m16f69b2698" y="114.47928"/>
     <use style="fill:#ff0000;stroke:#ff0000;stroke-linejoin:miter;" x="270.593058" xlink:href="#m16f69b2698" y="114.489319"/>
     <use style="fill:#ff0000;stroke:#ff0000;stroke-linejoin:miter;" x="273.872397" xlink:href="#m16f69b2698" y="114.488072"/>
     <use style="fill:#ff0000;stroke:#ff0000;stroke-linejoin:miter;" x="277.151736" xlink:href="#m16f69b2698" y="114.453325"/>
     <use style="fill:#ff0000;stroke:#ff0000;stroke-linejoin:miter;" x="280.431074" xlink:href="#m16f69b2698" y="114.464586"/>
     <use style="fill:#ff0000;stroke:#ff0000;stroke-linejoin:miter;" x="283.710413" xlink:href="#m16f69b2698" y="114.550314"/>
     <use style="fill:#ff0000;stroke:#ff0000;stroke-linejoin:miter;" x="286.989752" xlink:href="#m16f69b2698" y="114.467484"/>
     <use style="fill:#ff0000;stroke:#ff0000;stroke-linejoin:miter;" x="290.269091" xlink:href="#m16f69b2698" y="114.447255"/>
     <use style="fill:#ff0000;stroke:#ff0000;stroke-linejoin:miter;" x="293.54843" xlink:href="#m16f69b2698" y="114.45062"/>
     <use style="fill:#ff0000;stroke:#ff0000;stroke-linejoin:miter;" x="296.827769" xlink:href="#m16f69b2698" y="114.477125"/>
     <use style="fill:#ff0000;stroke:#ff0000;stroke-linejoin:miter;" x="300.107107" xlink:href="#m16f69b2698" y="114.461591"/>
     <use style="fill:#ff0000;stroke:#ff0000;stroke-linejoin:miter;" x="303.386446" xlink:href="#m16f69b2698" y="114.447278"/>
     <use style="fill:#ff0000;stroke:#ff0000;stroke-linejoin:miter;" x="306.665785" xlink:href="#m16f69b2698" y="114.483449"/>
     <use style="fill:#ff0000;stroke:#ff0000;stroke-linejoin:miter;" x="309.945124" xlink:href="#m16f69b2698" y="114.467617"/>
     <use style="fill:#ff0000;stroke:#ff0000;stroke-linejoin:miter;" x="313.224463" xlink:href="#m16f69b2698" y="114.449533"/>
     <use style="fill:#ff0000;stroke:#ff0000;stroke-linejoin:miter;" x="316.503802" xlink:href="#m16f69b2698" y="114.447075"/>
     <use style="fill:#ff0000;stroke:#ff0000;stroke-linejoin:miter;" x="319.78314" xlink:href="#m16f69b2698" y="114.473949"/>
     <use style="fill:#ff0000;stroke:#ff0000;stroke-linejoin:miter;" x="323.062479" xlink:href="#m16f69b2698" y="114.447807"/>
     <use style="fill:#ff0000;stroke:#ff0000;stroke-linejoin:miter;" x="326.341818" xlink:href="#m16f69b2698" y="114.520452"/>
     <use style="fill:#ff0000;stroke:#ff0000;stroke-linejoin:miter;" x="329.621157" xlink:href="#m16f69b2698" y="114.492857"/>
     <use style="fill:#ff0000;stroke:#ff0000;stroke-linejoin:miter;" x="332.900496" xlink:href="#m16f69b2698" y="114.457897"/>
     <use style="fill:#ff0000;stroke:#ff0000;stroke-linejoin:miter;" x="336.179835" xlink:href="#m16f69b2698" y="114.449441"/>
     <use style="fill:#ff0000;stroke:#ff0000;stroke-linejoin:miter;" x="339.459174" xlink:href="#m16f69b2698" y="114.503917"/>
     <use style="fill:#ff0000;stroke:#ff0000;stroke-linejoin:miter;" x="342.738512" xlink:href="#m16f69b2698" y="114.496078"/>
     <use style="fill:#ff0000;stroke:#ff0000;stroke-linejoin:miter;" x="346.017851" xlink:href="#m16f69b2698" y="114.483624"/>
     <use style="fill:#ff0000;stroke:#ff0000;stroke-linejoin:miter;" x="349.29719" xlink:href="#m16f69b2698" y="114.44772"/>
     <use style="fill:#ff0000;stroke:#ff0000;stroke-linejoin:miter;" x="352.576529" xlink:href="#m16f69b2698" y="114.464826"/>
     <use style="fill:#ff0000;stroke:#ff0000;stroke-linejoin:miter;" x="355.855868" xlink:href="#m16f69b2698" y="114.464213"/>
     <use style="fill:#ff0000;stroke:#ff0000;stroke-linejoin:miter;" x="359.135207" xlink:href="#m16f69b2698" y="114.476395"/>
     <use style="fill:#ff0000;stroke:#ff0000;stroke-linejoin:miter;" x="362.414545" xlink:href="#m16f69b2698" y="114.467592"/>
     <use style="fill:#ff0000;stroke:#ff0000;stroke-linejoin:miter;" x="365.693884" xlink:href="#m16f69b2698" y="114.448762"/>
     <use style="fill:#ff0000;stroke:#ff0000;stroke-linejoin:miter;" x="368.973223" xlink:href="#m16f69b2698" y="114.455909"/>
     <use style="fill:#ff0000;stroke:#ff0000;stroke-linejoin:miter;" x="372.252562" xlink:href="#m16f69b2698" y="114.478504"/>
     <use style="fill:#ff0000;stroke:#ff0000;stroke-linejoin:miter;" x="375.531901" xlink:href="#m16f69b2698" y="114.557126"/>
     <use style="fill:#ff0000;stroke:#ff0000;stroke-linejoin:miter;" x="378.81124" xlink:href="#m16f69b2698" y="114.455108"/>
     <use style="fill:#ff0000;stroke:#ff0000;stroke-linejoin:miter;" x="382.090579" xlink:href="#m16f69b2698" y="114.452197"/>
     <use style="fill:#ff0000;stroke:#ff0000;stroke-linejoin:miter;" x="385.369917" xlink:href="#m16f69b2698" y="114.448274"/>
     <use style="fill:#ff0000;stroke:#ff0000;stroke-linejoin:miter;" x="388.649256" xlink:href="#m16f69b2698" y="114.453415"/>
     <use style="fill:#ff0000;stroke:#ff0000;stroke-linejoin:miter;" x="391.928595" xlink:href="#m16f69b2698" y="114.456009"/>
     <use style="fill:#ff0000;stroke:#ff0000;stroke-linejoin:miter;" x="395.207934" xlink:href="#m16f69b2698" y="235.313392"/>
     <use style="fill:#ff0000;stroke:#ff0000;stroke-linejoin:miter;" x="398.487273" xlink:href="#m16f69b2698" y="273.459886"/>
    </g>
   </g>
   <g id="patch_3">
    <path d="M 57.6 307.584 
L 57.6 41.472 
" style="fill:none;stroke:#000000;stroke-linecap:square;stroke-linejoin:miter;stroke-width:0.8;"/>
   </g>
   <g id="patch_4">
    <path d="M 414.72 307.584 
L 414.72 41.472 
" style="fill:none;stroke:#000000;stroke-linecap:square;stroke-linejoin:miter;stroke-width:0.8;"/>
   </g>
   <g id="patch_5">
    <path d="M 57.6 307.584 
L 414.72 307.584 
" style="fill:none;stroke:#000000;stroke-linecap:square;stroke-linejoin:miter;stroke-width:0.8;"/>
   </g>
   <g id="patch_6">
    <path d="M 57.6 41.472 
L 414.72 41.472 
" style="fill:none;stroke:#000000;stroke-linecap:square;stroke-linejoin:miter;stroke-width:0.8;"/>
   </g>
   <g id="text_17">
    <!-- Upper and lower bounds -->
    <g transform="translate(162.559687 35.472)scale(0.12 -0.12)">
     <defs>
      <path d="M 8.6875 72.90625 
L 18.609375 72.90625 
L 18.609375 28.609375 
Q 18.609375 16.890625 22.84375 11.734375 
Q 27.09375 6.59375 36.625 6.59375 
Q 46.09375 6.59375 50.34375 11.734375 
Q 54.59375 16.890625 54.59375 28.609375 
L 54.59375 72.90625 
L 64.5 72.90625 
L 64.5 27.390625 
Q 64.5 13.140625 57.4375 5.859375 
Q 50.390625 -1.421875 36.625 -1.421875 
Q 22.796875 -1.421875 15.734375 5.859375 
Q 8.6875 13.140625 8.6875 27.390625 
z
" id="DejaVuSans-85"/>
      <path d="M 18.109375 8.203125 
L 18.109375 -20.796875 
L 9.078125 -20.796875 
L 9.078125 54.6875 
L 18.109375 54.6875 
L 18.109375 46.390625 
Q 20.953125 51.265625 25.265625 53.625 
Q 29.59375 56 35.59375 56 
Q 45.5625 56 51.78125 48.09375 
Q 58.015625 40.1875 58.015625 27.296875 
Q 58.015625 14.40625 51.78125 6.484375 
Q 45.5625 -1.421875 35.59375 -1.421875 
Q 29.59375 -1.421875 25.265625 0.953125 
Q 20.953125 3.328125 18.109375 8.203125 
z
M 48.6875 27.296875 
Q 48.6875 37.203125 44.609375 42.84375 
Q 40.53125 48.484375 33.40625 48.484375 
Q 26.265625 48.484375 22.1875 42.84375 
Q 18.109375 37.203125 18.109375 27.296875 
Q 18.109375 17.390625 22.1875 11.75 
Q 26.265625 6.109375 33.40625 6.109375 
Q 40.53125 6.109375 44.609375 11.75 
Q 48.6875 17.390625 48.6875 27.296875 
z
" id="DejaVuSans-112"/>
      <path id="DejaVuSans-32"/>
      <path d="M 45.40625 46.390625 
L 45.40625 75.984375 
L 54.390625 75.984375 
L 54.390625 0 
L 45.40625 0 
L 45.40625 8.203125 
Q 42.578125 3.328125 38.25 0.953125 
Q 33.9375 -1.421875 27.875 -1.421875 
Q 17.96875 -1.421875 11.734375 6.484375 
Q 5.515625 14.40625 5.515625 27.296875 
Q 5.515625 40.1875 11.734375 48.09375 
Q 17.96875 56 27.875 56 
Q 33.9375 56 38.25 53.625 
Q 42.578125 51.265625 45.40625 46.390625 
z
M 14.796875 27.296875 
Q 14.796875 17.390625 18.875 11.75 
Q 22.953125 6.109375 30.078125 6.109375 
Q 37.203125 6.109375 41.296875 11.75 
Q 45.40625 17.390625 45.40625 27.296875 
Q 45.40625 37.203125 41.296875 42.84375 
Q 37.203125 48.484375 30.078125 48.484375 
Q 22.953125 48.484375 18.875 42.84375 
Q 14.796875 37.203125 14.796875 27.296875 
z
" id="DejaVuSans-100"/>
      <path d="M 9.421875 75.984375 
L 18.40625 75.984375 
L 18.40625 0 
L 9.421875 0 
z
" id="DejaVuSans-108"/>
      <path d="M 30.609375 48.390625 
Q 23.390625 48.390625 19.1875 42.75 
Q 14.984375 37.109375 14.984375 27.296875 
Q 14.984375 17.484375 19.15625 11.84375 
Q 23.34375 6.203125 30.609375 6.203125 
Q 37.796875 6.203125 41.984375 11.859375 
Q 46.1875 17.53125 46.1875 27.296875 
Q 46.1875 37.015625 41.984375 42.703125 
Q 37.796875 48.390625 30.609375 48.390625 
z
M 30.609375 56 
Q 42.328125 56 49.015625 48.375 
Q 55.71875 40.765625 55.71875 27.296875 
Q 55.71875 13.875 49.015625 6.21875 
Q 42.328125 -1.421875 30.609375 -1.421875 
Q 18.84375 -1.421875 12.171875 6.21875 
Q 5.515625 13.875 5.515625 27.296875 
Q 5.515625 40.765625 12.171875 48.375 
Q 18.84375 56 30.609375 56 
z
" id="DejaVuSans-111"/>
      <path d="M 4.203125 54.6875 
L 13.1875 54.6875 
L 24.421875 12.015625 
L 35.59375 54.6875 
L 46.1875 54.6875 
L 57.421875 12.015625 
L 68.609375 54.6875 
L 77.59375 54.6875 
L 63.28125 0 
L 52.6875 0 
L 40.921875 44.828125 
L 29.109375 0 
L 18.5 0 
z
" id="DejaVuSans-119"/>
      <path d="M 48.6875 27.296875 
Q 48.6875 37.203125 44.609375 42.84375 
Q 40.53125 48.484375 33.40625 48.484375 
Q 26.265625 48.484375 22.1875 42.84375 
Q 18.109375 37.203125 18.109375 27.296875 
Q 18.109375 17.390625 22.1875 11.75 
Q 26.265625 6.109375 33.40625 6.109375 
Q 40.53125 6.109375 44.609375 11.75 
Q 48.6875 17.390625 48.6875 27.296875 
z
M 18.109375 46.390625 
Q 20.953125 51.265625 25.265625 53.625 
Q 29.59375 56 35.59375 56 
Q 45.5625 56 51.78125 48.09375 
Q 58.015625 40.1875 58.015625 27.296875 
Q 58.015625 14.40625 51.78125 6.484375 
Q 45.5625 -1.421875 35.59375 -1.421875 
Q 29.59375 -1.421875 25.265625 0.953125 
Q 20.953125 3.328125 18.109375 8.203125 
L 18.109375 0 
L 9.078125 0 
L 9.078125 75.984375 
L 18.109375 75.984375 
z
" id="DejaVuSans-98"/>
      <path d="M 8.5 21.578125 
L 8.5 54.6875 
L 17.484375 54.6875 
L 17.484375 21.921875 
Q 17.484375 14.15625 20.5 10.265625 
Q 23.53125 6.390625 29.59375 6.390625 
Q 36.859375 6.390625 41.078125 11.03125 
Q 45.3125 15.671875 45.3125 23.6875 
L 45.3125 54.6875 
L 54.296875 54.6875 
L 54.296875 0 
L 45.3125 0 
L 45.3125 8.40625 
Q 42.046875 3.421875 37.71875 1 
Q 33.40625 -1.421875 27.6875 -1.421875 
Q 18.265625 -1.421875 13.375 4.4375 
Q 8.5 10.296875 8.5 21.578125 
z
M 31.109375 56 
z
" id="DejaVuSans-117"/>
      <path d="M 44.28125 53.078125 
L 44.28125 44.578125 
Q 40.484375 46.53125 36.375 47.5 
Q 32.28125 48.484375 27.875 48.484375 
Q 21.1875 48.484375 17.84375 46.4375 
Q 14.5 44.390625 14.5 40.28125 
Q 14.5 37.15625 16.890625 35.375 
Q 19.28125 33.59375 26.515625 31.984375 
L 29.59375 31.296875 
Q 39.15625 29.25 43.1875 25.515625 
Q 47.21875 21.78125 47.21875 15.09375 
Q 47.21875 7.46875 41.1875 3.015625 
Q 35.15625 -1.421875 24.609375 -1.421875 
Q 20.21875 -1.421875 15.453125 -0.5625 
Q 10.6875 0.296875 5.421875 2 
L 5.421875 11.28125 
Q 10.40625 8.6875 15.234375 7.390625 
Q 20.0625 6.109375 24.8125 6.109375 
Q 31.15625 6.109375 34.5625 8.28125 
Q 37.984375 10.453125 37.984375 14.40625 
Q 37.984375 18.0625 35.515625 20.015625 
Q 33.0625 21.96875 24.703125 23.78125 
L 21.578125 24.515625 
Q 13.234375 26.265625 9.515625 29.90625 
Q 5.8125 33.546875 5.8125 39.890625 
Q 5.8125 47.609375 11.28125 51.796875 
Q 16.75 56 26.8125 56 
Q 31.78125 56 36.171875 55.265625 
Q 40.578125 54.546875 44.28125 53.078125 
z
" id="DejaVuSans-115"/>
     </defs>
     <use xlink:href="#DejaVuSans-85"/>
     <use x="73.193359" xlink:href="#DejaVuSans-112"/>
     <use x="136.669922" xlink:href="#DejaVuSans-112"/>
     <use x="200.146484" xlink:href="#DejaVuSans-101"/>
     <use x="261.669922" xlink:href="#DejaVuSans-114"/>
     <use x="302.783203" xlink:href="#DejaVuSans-32"/>
     <use x="334.570312" xlink:href="#DejaVuSans-97"/>
     <use x="395.849609" xlink:href="#DejaVuSans-110"/>
     <use x="459.228516" xlink:href="#DejaVuSans-100"/>
     <use x="522.705078" xlink:href="#DejaVuSans-32"/>
     <use x="554.492188" xlink:href="#DejaVuSans-108"/>
     <use x="582.275391" xlink:href="#DejaVuSans-111"/>
     <use x="643.457031" xlink:href="#DejaVuSans-119"/>
     <use x="725.244141" xlink:href="#DejaVuSans-101"/>
     <use x="786.767578" xlink:href="#DejaVuSans-114"/>
     <use x="827.880859" xlink:href="#DejaVuSans-32"/>
     <use x="859.667969" xlink:href="#DejaVuSans-98"/>
     <use x="923.144531" xlink:href="#DejaVuSans-111"/>
     <use x="984.326172" xlink:href="#DejaVuSans-117"/>
     <use x="1047.705078" xlink:href="#DejaVuSans-110"/>
     <use x="1111.083984" xlink:href="#DejaVuSans-100"/>
     <use x="1174.560547" xlink:href="#DejaVuSans-115"/>
    </g>
   </g>
   <g id="legend_1">
    <g id="patch_7">
     <path d="M 326.443438 93.506375 
L 407.72 93.506375 
Q 409.72 93.506375 409.72 91.506375 
L 409.72 48.472 
Q 409.72 46.472 407.72 46.472 
L 326.443438 46.472 
Q 324.443438 46.472 324.443438 48.472 
L 324.443438 91.506375 
Q 324.443438 93.506375 326.443438 93.506375 
z
" style="fill:#ffffff;opacity:0.8;stroke:#cccccc;stroke-linejoin:miter;"/>
    </g>
    <g id="line2d_19">
     <path d="M 328.443438 54.570438 
L 348.443438 54.570438 
" style="fill:none;stroke:#0000ff;stroke-linecap:square;stroke-width:1.5;"/>
    </g>
    <g id="line2d_20">
     <g>
      <use style="fill:#0000ff;stroke:#0000ff;" x="338.443438" xlink:href="#mf22eee5c0e" y="54.570438"/>
     </g>
    </g>
    <g id="text_18">
     <!-- empirical -->
     <g transform="translate(356.443438 58.070438)scale(0.1 -0.1)">
      <defs>
       <path d="M 9.421875 54.6875 
L 18.40625 54.6875 
L 18.40625 0 
L 9.421875 0 
z
M 9.421875 75.984375 
L 18.40625 75.984375 
L 18.40625 64.59375 
L 9.421875 64.59375 
z
" id="DejaVuSans-105"/>
       <path d="M 48.78125 52.59375 
L 48.78125 44.1875 
Q 44.96875 46.296875 41.140625 47.34375 
Q 37.3125 48.390625 33.40625 48.390625 
Q 24.65625 48.390625 19.8125 42.84375 
Q 14.984375 37.3125 14.984375 27.296875 
Q 14.984375 17.28125 19.8125 11.734375 
Q 24.65625 6.203125 33.40625 6.203125 
Q 37.3125 6.203125 41.140625 7.25 
Q 44.96875 8.296875 48.78125 10.40625 
L 48.78125 2.09375 
Q 45.015625 0.34375 40.984375 -0.53125 
Q 36.96875 -1.421875 32.421875 -1.421875 
Q 20.0625 -1.421875 12.78125 6.34375 
Q 5.515625 14.109375 5.515625 27.296875 
Q 5.515625 40.671875 12.859375 48.328125 
Q 20.21875 56 33.015625 56 
Q 37.15625 56 41.109375 55.140625 
Q 45.0625 54.296875 48.78125 52.59375 
z
" id="DejaVuSans-99"/>
      </defs>
      <use xlink:href="#DejaVuSans-101"/>
      <use x="61.523438" xlink:href="#DejaVuSans-109"/>
      <use x="158.935547" xlink:href="#DejaVuSans-112"/>
      <use x="222.412109" xlink:href="#DejaVuSans-105"/>
      <use x="250.195312" xlink:href="#DejaVuSans-114"/>
      <use x="291.308594" xlink:href="#DejaVuSans-105"/>
      <use x="319.091797" xlink:href="#DejaVuSans-99"/>
      <use x="374.072266" xlink:href="#DejaVuSans-97"/>
      <use x="435.351562" xlink:href="#DejaVuSans-108"/>
     </g>
    </g>
    <g id="line2d_21">
     <path d="M 328.443438 69.248563 
L 348.443438 69.248563 
" style="fill:none;stroke:#000000;stroke-linecap:square;stroke-width:1.5;"/>
    </g>
    <g id="line2d_22">
     <g>
      <use style="stroke:#000000;" x="338.443438" xlink:href="#maa02d598d9" y="69.248563"/>
     </g>
    </g>
    <g id="text_19">
     <!-- true -->
     <g transform="translate(356.443438 72.748563)scale(0.1 -0.1)">
      <defs>
       <path d="M 18.3125 70.21875 
L 18.3125 54.6875 
L 36.8125 54.6875 
L 36.8125 47.703125 
L 18.3125 47.703125 
L 18.3125 18.015625 
Q 18.3125 11.328125 20.140625 9.421875 
Q 21.96875 7.515625 27.59375 7.515625 
L 36.8125 7.515625 
L 36.8125 0 
L 27.59375 0 
Q 17.1875 0 13.234375 3.875 
Q 9.28125 7.765625 9.28125 18.015625 
L 9.28125 47.703125 
L 2.6875 47.703125 
L 2.6875 54.6875 
L 9.28125 54.6875 
L 9.28125 70.21875 
z
" id="DejaVuSans-116"/>
      </defs>
      <use xlink:href="#DejaVuSans-116"/>
      <use x="39.208984" xlink:href="#DejaVuSans-114"/>
      <use x="80.322266" xlink:href="#DejaVuSans-117"/>
      <use x="143.701172" xlink:href="#DejaVuSans-101"/>
     </g>
    </g>
    <g id="line2d_23">
     <path d="M 328.443438 83.926688 
L 348.443438 83.926688 
" style="fill:none;stroke:#1f77b4;stroke-width:1.5;"/>
    </g>
    <g id="text_20">
     <!-- Threshold -->
     <g transform="translate(356.443438 87.426688)scale(0.1 -0.1)">
      <defs>
       <path d="M -0.296875 72.90625 
L 61.375 72.90625 
L 61.375 64.59375 
L 35.5 64.59375 
L 35.5 0 
L 25.59375 0 
L 25.59375 64.59375 
L -0.296875 64.59375 
z
" id="DejaVuSans-84"/>
       <path d="M 54.890625 33.015625 
L 54.890625 0 
L 45.90625 0 
L 45.90625 32.71875 
Q 45.90625 40.484375 42.875 44.328125 
Q 39.84375 48.1875 33.796875 48.1875 
Q 26.515625 48.1875 22.3125 43.546875 
Q 18.109375 38.921875 18.109375 30.90625 
L 18.109375 0 
L 9.078125 0 
L 9.078125 75.984375 
L 18.109375 75.984375 
L 18.109375 46.1875 
Q 21.34375 51.125 25.703125 53.5625 
Q 30.078125 56 35.796875 56 
Q 45.21875 56 50.046875 50.171875 
Q 54.890625 44.34375 54.890625 33.015625 
z
" id="DejaVuSans-104"/>
      </defs>
      <use xlink:href="#DejaVuSans-84"/>
      <use x="61.083984" xlink:href="#DejaVuSans-104"/>
      <use x="124.462891" xlink:href="#DejaVuSans-114"/>
      <use x="163.326172" xlink:href="#DejaVuSans-101"/>
      <use x="224.849609" xlink:href="#DejaVuSans-115"/>
      <use x="276.949219" xlink:href="#DejaVuSans-104"/>
      <use x="340.328125" xlink:href="#DejaVuSans-111"/>
      <use x="401.509766" xlink:href="#DejaVuSans-108"/>
      <use x="429.292969" xlink:href="#DejaVuSans-100"/>
     </g>
    </g>
   </g>
  </g>
 </g>
 <defs>
  <clipPath id="pc4e3e67138">
   <rect height="266.112" width="357.12" x="57.6" y="41.472"/>
  </clipPath>
 </defs>
</svg>
